<svg xmlns="http://www.w3.org/2000/svg" width="37.7" height="36.154" viewBox="0 0 37.7 36.154">
  <path id="bronze-unselected" d="M34.563,13.022A2.451,2.451,0,0,0,32.419,11.5L23.45,10.2,19.438,2.069A2.45,2.45,0,0,0,17.328.5a2.451,2.451,0,0,0-2.111,1.569L11.206,10.2l-8.97,1.3A2.45,2.45,0,0,0,.092,13.022a2.451,2.451,0,0,0,.84,2.492l6.49,6.326L5.89,30.774a2.581,2.581,0,0,0,.453,2.2,1.942,1.942,0,0,0,1.516.679,3.127,3.127,0,0,0,1.447-.4l8.022-4.218,8.023,4.218a3.13,3.13,0,0,0,1.447.4h0a1.942,1.942,0,0,0,1.516-.679,2.58,2.58,0,0,0,.452-2.2l-1.532-8.933,6.49-6.326A2.45,2.45,0,0,0,34.563,13.022Z" transform="translate(1.522 1)" fill="none" stroke="#e9aa6e" stroke-width="3"/>
</svg>
