<svg xmlns="http://www.w3.org/2000/svg" width="13.762" height="13.762" viewBox="0 0 13.762 13.762">
  <g id="calendar-small-icon" transform="translate(0.1 0.099)">
    <path id="calendar-icon" d="M1839.12,17889.561a2.124,2.124,0,0,1-2.122-2.117v-8.262a2.123,2.123,0,0,1,2.122-2.119h.658v-.533a.532.532,0,0,1,1.063,0v.533h2.38v-.533a.529.529,0,1,1,1.059,0v.533h2.412v-.533a.529.529,0,1,1,1.059,0v.533h.691a2.122,2.122,0,0,1,2.118,2.119v8.387a.534.534,0,0,1-.015.125,2.125,2.125,0,0,1-2.1,1.867Zm-1.059-2.117a1.062,1.062,0,0,0,1.059,1.061h9.322a1.062,1.062,0,0,0,1.059-1.061v-5.7h-11.44Zm11.44-6.762v-1.5a1.06,1.06,0,0,0-1.059-1.061h-.691v.529a.529.529,0,1,1-1.059,0v-.529h-2.412v.529a.529.529,0,1,1-1.059,0v-.529h-2.38v.529a.532.532,0,0,1-1.063,0v-.529h-.658a1.06,1.06,0,0,0-1.059,1.061v1.5Z" transform="translate(-1836.998 -17875.998)" fill="#262626" stroke="#262626" stroke-width="0.2"/>
  </g>
</svg>
