<svg id="camera-illus" xmlns="http://www.w3.org/2000/svg" width="86" height="86" viewBox="0 0 86 86">
  <circle id="Ellipse_380" data-name="Ellipse 380" cx="43" cy="43" r="43" fill="#97e3af"/>
  <circle id="Ellipse_408" data-name="Ellipse 408" cx="43" cy="43" r="43" fill="#99edad"/>
  <rect id="Rectangle_17346" data-name="Rectangle 17346" width="52" height="38" rx="2" transform="translate(17 22)" fill="#00b569"/>
  <path id="Path_3266" data-name="Path 3266" d="M-802.081,3258.375q-.653-.534-1.264-1.116c2.579-5.106,8.382-8.664,15.126-8.664,6.836,0,12.705,3.658,15.23,8.875q-.506.469-1.04.906Zm5.742-21.907a8.059,8.059,0,0,1,8.059-8.059,8.059,8.059,0,0,1,8.059,8.059,8.059,8.059,0,0,1-8.059,8.06A8.059,8.059,0,0,1-796.339,3236.469Z" transform="translate(830.805 -3198.375)" fill="#ffe265"/>
</svg>
