<svg xmlns="http://www.w3.org/2000/svg" width="30" height="30.002" viewBox="0 0 30 30.002">
  <path id="clock" d="M-5092,22425a15.021,15.021,0,0,1,15-15,15.02,15.02,0,0,1,15,15,15.021,15.021,0,0,1-15,15A15.023,15.023,0,0,1-5092,22425Zm3.191,0A11.821,11.821,0,0,0-5077,22436.8a11.819,11.819,0,0,0,11.806-11.807,11.817,11.817,0,0,0-11.806-11.8A11.82,11.82,0,0,0-5088.811,22425Zm11.65,2.014a1.238,1.238,0,0,1-1.234-1.24v-9.334a1.234,1.234,0,0,1,1.234-1.238,1.234,1.234,0,0,1,1.235,1.238v8.1h6.741a1.235,1.235,0,0,1,1.234,1.232,1.238,1.238,0,0,1-1.234,1.24Z" transform="translate(5092.002 -22409.998)" fill="#262626"/>
</svg>
