<svg id="group" xmlns="http://www.w3.org/2000/svg" xmlns:xlink="http://www.w3.org/1999/xlink" width="14.545" height="13.581" viewBox="0 0 14.545 13.581">
  <defs>
    <clipPath id="clip-path">
      <rect width="14.545" height="13.581" fill="none"/>
    </clipPath>
  </defs>
  <g id="Repeat_Grid_30" data-name="Repeat Grid 30" clip-path="url(#clip-path)">
    <g transform="translate(0.001 -0.001)">
      <path id="group-2" data-name="group" d="M14.509,12.464A.568.568,0,0,0,13.4,12.7a.594.594,0,0,1-.12.5.577.577,0,0,1-.455.216H1.725a.577.577,0,0,1-.455-.216.594.594,0,0,1-.12-.5c.59-2.832,3.09-3.937,5.975-4.007l.151,0,.151,0c2.032.049,3.908.114,5.045,1.81a.568.568,0,1,0,.944-.633c-1.308-1.448-2.241-1.96-3.827-1.945a3.864,3.864,0,1,0-4.625,0,4.814,4.814,0,0,0-1.076.318c-.631.259-1.449.719-1.449.719a5.617,5.617,0,0,0-2.4,3.5,1.726,1.726,0,0,0,1.687,2.082h11.1a1.726,1.726,0,0,0,1.687-2.082ZM4.548,4.828A2.727,2.727,0,1,1,7.413,7.552H7.138A2.731,2.731,0,0,1,4.548,4.828Z" transform="translate(-0.001 -0.963)" fill="#262626"/>
    </g>
  </g>
</svg>
