<svg xmlns="http://www.w3.org/2000/svg" width="16.542" height="18.127" viewBox="0 0 16.542 18.127">
  <g id="submitted" transform="translate(1 1)">
    <g id="Path_937" data-name="Path 937" transform="translate(-76 -4.335)" fill="#50a7f0" stroke-linejoin="round">
      <path d="M 83.27098846435547 20.96207046508789 C 83.03402709960938 20.96207046508789 82.80134582519531 20.89762878417969 82.59810638427734 20.77571868896484 L 76.13494873046875 16.89781951904297 C 75.74327850341797 16.66275024414062 75.49999237060547 16.23301887512207 75.49999237060547 15.77630996704102 L 75.49999237060547 5.143149375915527 C 75.49999237060547 4.421979427337646 76.08670806884766 3.835269451141357 76.80787658691406 3.835269451141357 L 89.73410797119141 3.835269451141357 C 90.45527648925781 3.835269451141357 91.04199981689453 4.421979427337646 91.04199981689453 5.143149375915527 L 91.04199981689453 15.77630996704102 C 91.04199981689453 16.23311996459961 90.79866790771484 16.66287040710449 90.40696716308594 16.8978385925293 L 83.94385528564453 20.77569007873535 C 83.74063873291016 20.89761924743652 83.50796508789062 20.96207046508789 83.27098846435547 20.96207046508789 Z" stroke="none"/>
      <path d="M 76.80787658691406 4.335260391235352 C 76.36170959472656 4.335260391235352 75.99999237060547 4.696949005126953 75.99999237060547 5.143150329589844 L 75.99999237060547 15.77630996704102 C 75.99999237060547 16.06007957458496 76.14889526367188 16.32304954528809 76.39219665527344 16.46907043457031 L 82.85529327392578 20.34693908691406 C 83.11121368408203 20.50043869018555 83.43077850341797 20.50043869018555 83.68660736083984 20.34693908691406 L 90.14975738525391 16.46907043457031 C 90.39310455322266 16.32308959960938 90.54199981689453 16.06007957458496 90.54199981689453 15.77630996704102 L 90.54199981689453 5.143150329589844 C 90.54199981689453 4.696949005126953 90.18028259277344 4.335260391235352 89.73410797119141 4.335260391235352 L 76.80787658691406 4.335260391235352 M 76.80787658691406 3.335260391235352 L 89.73410797119141 3.335260391235352 C 90.73097229003906 3.335260391235352 91.54199981689453 4.146280288696289 91.54199981689453 5.143150329589844 L 91.54199981689453 15.77630996704102 C 91.54199981689453 16.40776062011719 91.20563507080078 17.00180053710938 90.66417694091797 17.32661056518555 L 84.20109558105469 21.20442962646484 C 83.92018890380859 21.37298011779785 83.59855651855469 21.46205902099609 83.27097320556641 21.46205902099609 C 82.94342803955078 21.46205902099609 82.62180328369141 21.37298965454102 82.34089660644531 21.20448875427246 L 75.87769317626953 17.32655906677246 C 75.33627319335938 17.00161933898926 74.99999237060547 16.40761947631836 74.99999237060547 15.77630996704102 L 74.99999237060547 5.143150329589844 C 74.99999237060547 4.146280288696289 75.81100463867188 3.335260391235352 76.80787658691406 3.335260391235352 Z" stroke="none" fill="#50a7f0"/>
    </g>
    <path id="Path_3501" data-name="Path 3501" d="M-840.36,6806.607v-5.724l-2.085,2.086a.908.908,0,0,1-1.287-.022.906.906,0,0,1,0-1.263l3.6-3.6a.909.909,0,0,1,.683-.309.9.9,0,0,1,.644.268h0l3.641,3.641a.91.91,0,0,1,0,1.287.911.911,0,0,1-.641.265.909.909,0,0,1-.644-.267l-2.087-2.088v5.725a.909.909,0,0,1-.909.911A.911.911,0,0,1-840.36,6806.607Z" transform="translate(846.659 -6795.233)" fill="#fff" stroke="#fff" stroke-width="0.2"/>
  </g>
</svg>
