<svg xmlns="http://www.w3.org/2000/svg" xmlns:xlink="http://www.w3.org/1999/xlink" width="244" height="119" viewBox="0 0 244 119">
  <defs>
    <clipPath id="clip-path">
      <rect width="244" height="119" fill="none"/>
    </clipPath>
  </defs>
  <g id="Repeat_Grid_31" data-name="Repeat Grid 31" clip-path="url(#clip-path)">
    <g transform="translate(-737.5 -215.5)">
      <g id="drop" transform="translate(738 216)">
        <rect id="Rectangle_17316" data-name="Rectangle 17316" width="118" height="243" rx="6" transform="translate(243) rotate(90)" fill="#f9fafc" stroke="#57abf0" stroke-width="1" stroke-dasharray="3 3"/>
        <text id="_3.49_" data-name="+ 3.49%" transform="translate(122 91)" fill="#b4b6be" font-size="14" font-family="Poppins-SemiBold, Poppins" font-weight="600"><tspan x="-57.778" y="0">Upload homework</tspan></text>
        <g id="upload-icon" transform="translate(93.993 25.862)">
          <path id="Path_3224" data-name="Path 3224" d="M-833.224,6830.816a11.922,11.922,0,0,1-7.726-2.333,8.25,8.25,0,0,1-2.985-5.628,8.616,8.616,0,0,1,2.107-6.693,8.955,8.955,0,0,1,6.959-2.862c.326,0,.664.013,1,.039-.029-.358-.043-.693-.043-1.023a14.341,14.341,0,0,1,3.419-9.186,15.254,15.254,0,0,1,8.647-5.051,15.76,15.76,0,0,1,3.062-.3,15.487,15.487,0,0,1,9.475,3.241,14.717,14.717,0,0,1,3.368,3.685,14.277,14.277,0,0,1,1.943,4.735,10.873,10.873,0,0,1,10.4,10.708,10.45,10.45,0,0,1-3.253,7.544,11.194,11.194,0,0,1-7.815,3.123h-1.09l0-.063c.022-.3.045-.6.045-.91,0-.225-.006-.452-.018-.676a13.428,13.428,0,0,0,.5-3.639,13.3,13.3,0,0,0-3.921-9.467,13.3,13.3,0,0,0-9.468-3.921,13.3,13.3,0,0,0-9.466,3.921,13.3,13.3,0,0,0-3.922,9.467,13.5,13.5,0,0,0,.231,2.49,12.4,12.4,0,0,0-.135,1.825c0,.293.022.584.043.865l.008.108H-832.9Z" transform="translate(843.988 -6797.777)" fill="#afe0ff"/>
          <path id="Path_712" data-name="Path 712" d="M138.112,275.826a10.011,10.011,0,1,1,10.011-10.011A10.011,10.011,0,0,1,138.112,275.826Z" transform="translate(-112.932 -237.862)" fill="#50a7f0"/>
          <path id="Path_3223" data-name="Path 3223" d="M-840.36,6807.607v-6.724l-2.085,2.086a.908.908,0,0,1-1.287-.022.906.906,0,0,1,0-1.263l3.6-3.6a.909.909,0,0,1,.683-.309.9.9,0,0,1,.644.268h0l3.641,3.641a.91.91,0,0,1,0,1.287.911.911,0,0,1-.641.265.909.909,0,0,1-.644-.267l-2.087-2.088v6.725a.909.909,0,0,1-.909.911A.911.911,0,0,1-840.36,6807.607Z" transform="translate(864.629 -6775.193)" fill="#fff" stroke="#fff" stroke-width="0.6"/>
        </g>
      </g>
    </g>
  </g>
</svg>
