<svg xmlns="http://www.w3.org/2000/svg" width="720.559" height="1080" viewBox="0 0 720.559 1080">
  <g id="ILLUS" transform="translate(148.202 174.02)">
    <rect id="Bg" width="720" height="1080" transform="translate(-147.922 -174.02)" fill="#90daff"/>
    <rect id="Bg-2" data-name="Bg" width="720" height="62" transform="translate(-147.922 843.98)" fill="#ffd719"/>
    <circle id="Ellipse_680" data-name="Ellipse 680" cx="90.35" cy="90.35" r="90.35" transform="translate(123.134 -92.406)" fill="#ffd719"/>
    <path id="Path_4898" data-name="Path 4898" d="M464.96,374.182h0a27.646,27.646,0,0,1-27.647,27.646H247.648A27.647,27.647,0,0,1,220,374.182h0a47.726,47.726,0,0,1,47.726-47.726h15.159a65.951,65.951,0,0,1,59.6-37.687h0a65.951,65.951,0,0,1,59.6,37.687h15.159A47.725,47.725,0,0,1,464.96,374.182Z" transform="translate(48.659 -210.902)" fill="#fff"/>
    <path id="Path_4974" data-name="Path 4974" d="M464.96,374.182h0a27.646,27.646,0,0,1-27.647,27.646H247.648A27.647,27.647,0,0,1,220,374.182h0a47.726,47.726,0,0,1,47.726-47.726h15.159a65.951,65.951,0,0,1,59.6-37.687h0a65.951,65.951,0,0,1,59.6,37.687h15.159A47.725,47.725,0,0,1,464.96,374.182Z" transform="translate(-269.788 -381.175)" fill="#fff"/>
    <g id="school" transform="translate(-147.922 255.132)">
      <rect id="Rectangle_17970" data-name="Rectangle 17970" width="480.46" height="162.422" transform="translate(239.301 426.552)" fill="#fff"/>
      <rect id="Rectangle_17971" data-name="Rectangle 17971" width="480.46" height="162.422" transform="translate(0 426.552)" fill="#fff"/>
      <path id="Path_5192" data-name="Path 5192" d="M-5263.462,2273.055H-5763.21V2224l68.863-47.983,2.174-1.515h321.991l2.174,1.515,109.371,76.21,3.613,2.518v18.315Z" transform="translate(5768.93 -1838.066)" fill="#00b754" stroke="#00b754" stroke-width="12"/>
      <path id="Path_5193" data-name="Path 5193" d="M-5754.771,2273.055h499.748V2224l-68.863-47.983-2.174-1.515h-321.99l-2.174,1.515-109.371,76.21-3.614,2.518v18.315Z" transform="translate(5969.302 -1838.066)" fill="#00b754" stroke="#00b754" stroke-width="12"/>
      <g id="Path_5185" data-name="Path 5185" transform="translate(2283.283 -3624.098)" fill="#00b754" stroke-linejoin="round">
        <path d="M -1649.566162109375 3850.68359375 L -1655.566162109375 3850.68359375 L -2191.000732421875 3850.68359375 L -2197.000732421875 3850.68359375 L -2197.000732421875 3844.68359375 L -2197.000732421875 3839.21142578125 L -2197.000732421875 3836.079345703125 L -2194.430908203125 3834.28857421875 L -2085.058837890625 3758.0771484375 L -2083.512939453125 3757 L -2081.628662109375 3757 L -1815.235107421875 3757 L -1764.937744140625 3757 L -1763.053466796875 3757 L -1761.507568359375 3758.0771484375 L -1652.135986328125 3834.28857421875 L -1649.566162109375 3836.079345703125 L -1649.566162109375 3839.21142578125 L -1649.566162109375 3844.68359375 L -1649.566162109375 3850.68359375 Z" stroke="none"/>
        <path d="M -1655.566162109375 3844.68359375 L -1655.566162109375 3839.21142578125 L -1764.937744140625 3763 L -2081.628662109375 3763 L -2191.000732421875 3839.21142578125 L -2191.000732421875 3844.68359375 L -1655.566162109375 3844.68359375 M -1655.566162109375 3856.68359375 L -2191.000732421875 3856.68359375 C -2197.628173828125 3856.68359375 -2203.000732421875 3851.31103515625 -2203.000732421875 3844.68359375 L -2203.000732421875 3839.21142578125 C -2203.000732421875 3835.28662109375 -2201.081298828125 3831.609619140625 -2197.861328125 3829.365966796875 L -2088.4892578125 3753.154541015625 C -2086.476318359375 3751.751953125 -2084.08203125 3751 -2081.628662109375 3751 L -1764.937744140625 3751 C -1762.484497070312 3751 -1760.090087890625 3751.751953125 -1758.077270507812 3753.154541015625 L -1648.705688476562 3829.365966796875 C -1645.485473632812 3831.60986328125 -1643.566162109375 3835.28662109375 -1643.566162109375 3839.21142578125 L -1643.566162109375 3844.68359375 C -1643.566162109375 3851.31103515625 -1648.938720703125 3856.68359375 -1655.566162109375 3856.68359375 Z" stroke="none" fill="#00b754"/>
      </g>
      <path id="Path_5090" data-name="Path 5090" d="M-13.272,66.484,68.051,3.162l81.185,63.322V222.978H-13.272Z" transform="translate(292.02 117.125)" fill="#fff"/>
      <rect id="Rectangle_17958" data-name="Rectangle 17958" width="479.959" height="243.376" transform="translate(119.77 237.228)" fill="#fff"/>
      <path id="Path_5093" data-name="Path 5093" d="M-1851.854,3815.088v-29.124A22.963,22.963,0,0,1-1828.892,3763a22.963,22.963,0,0,1,22.962,22.964v29.124Zm-77.72,0v-29.124A22.964,22.964,0,0,1-1906.612,3763a22.964,22.964,0,0,1,22.963,22.964v29.124Zm-183.706,0v-29.124A22.964,22.964,0,0,1-2090.318,3763a22.965,22.965,0,0,1,22.966,22.964v29.124Zm-77.719,0v-29.124A22.963,22.963,0,0,1-2168.038,3763a22.963,22.963,0,0,1,22.963,22.964v29.124Z" transform="translate(2358.214 -3486.879)" fill="#90daff"/>
      <path id="Path_5187" data-name="Path 5187" d="M-2191,3815.088v-29.124A22.963,22.963,0,0,1-2168.038,3763a22.963,22.963,0,0,1,22.963,22.964v29.124Z" transform="translate(2233.514 -3274.535)" fill="#d6f5fe"/>
      <path id="Path_5191" data-name="Path 5191" d="M-5684.229,2069.461v49.2a7.59,7.59,0,0,0,6.044-.973c9.8-6.841,22.847-11.022,37.187-11.022s27.391,4.18,37.189,11.022a7.577,7.577,0,0,0,8.219,0c9.794-6.841,22.847-11.022,37.187-11.022s27.391,4.18,37.187,11.022a7.577,7.577,0,0,0,8.219,0c9.8-6.841,22.848-11.022,37.188-11.022s27.389,4.18,37.188,11.022a7.573,7.573,0,0,0,8.217,0c9.8-6.841,22.848-11.022,37.188-11.022s27.392,4.18,37.189,11.022a7.576,7.576,0,0,0,8.218,0c9.8-6.841,22.848-11.022,37.188-11.022s27.392,4.18,37.187,11.022a7.577,7.577,0,0,0,8.219,0q1.6-1.117,3.31-2.136V2073.21c-56.323-39.379-131.421-63.42-213.907-63.42C-5555.645,2009.79-5628.562,2032.311-5684.229,2069.461Z" transform="translate(5833.27 -1648.755)" fill="#ffd719"/>
      <path id="Path_5188" data-name="Path 5188" d="M-2191,3815.088v-29.124A22.963,22.963,0,0,1-2168.038,3763a22.963,22.963,0,0,1,22.963,22.964v29.124Z" transform="translate(2822.561 -3274.535)" fill="#90daff"/>
      <rect id="Rectangle_17962" data-name="Rectangle 17962" width="480.46" height="193.42" transform="translate(119.77 395.554)" fill="#ffd719"/>
      <path id="Rectangle_17973" data-name="Rectangle 17973" d="M26,0H49.566a26,26,0,0,1,26,26V74.521a0,0,0,0,1,0,0H0a0,0,0,0,1,0,0V26A26,26,0,0,1,26,0Z" transform="translate(476.718 417.742)" fill="#90daff"/>
      <path id="Rectangle_17974" data-name="Rectangle 17974" d="M26,0H52.087a26,26,0,0,1,26,26V74.521a0,0,0,0,1,0,0H0a0,0,0,0,1,0,0V26A26,26,0,0,1,26,0Z" transform="translate(166.548 417.742)" fill="#90daff"/>
      <g id="Group_2153" data-name="Group 2153" transform="translate(427.584 264.13)">
        <rect id="Rectangle_17966" data-name="Rectangle 17966" width="172.646" height="35.244" transform="translate(0 289.599)" fill="#fff"/>
        <rect id="Rectangle_17969" data-name="Rectangle 17969" width="98.862" height="67.588" transform="translate(36.892 257.255)" fill="#fff"/>
        <rect id="Rectangle_17968" data-name="Rectangle 17968" width="37" height="325" transform="translate(67.416 -0.281)" fill="#fff"/>
      </g>
      <g id="Group_2154" data-name="Group 2154" transform="translate(119.769 264.13)">
        <rect id="Rectangle_17966-2" data-name="Rectangle 17966" width="172.646" height="35.244" transform="translate(0 289.599)" fill="#fff"/>
        <rect id="Rectangle_17969-2" data-name="Rectangle 17969" width="98.862" height="67.588" transform="translate(36.892 257.255)" fill="#fff"/>
        <rect id="Rectangle_17968-2" data-name="Rectangle 17968" width="36.562" height="324.844" transform="translate(67.416)" fill="#fff"/>
      </g>
      <path id="Rectangle_17960" data-name="Rectangle 17960" d="M22.335,0h0A22.335,22.335,0,0,1,44.67,22.335v43.9a0,0,0,0,1,0,0H0a0,0,0,0,1,0,0v-43.9A22.335,22.335,0,0,1,22.335,0Z" transform="translate(339.409 261.973)" fill="#dc7eff"/>
      <g id="FLAG" transform="translate(354.094)">
        <rect id="Rectangle_17967" data-name="Rectangle 17967" width="5.625" height="88.594" transform="translate(0 31.693)" fill="#fff"/>
        <g id="Path_5184" data-name="Path 5184" transform="translate(-249.518 -25.354)" fill="#008b56" stroke-linejoin="round">
          <path d="M 315.1536560058594 90.24111938476562 C 307.4683532714844 90.24141693115234 299.7547607421875 88.25626373291016 292.2951354980469 86.33646392822266 C 285.0184326171875 84.4637451171875 277.4939880371094 82.52727508544922 270.1921691894531 82.52727508544922 C 264.4058837890625 82.52727508544922 259.2479248046875 83.73448944091797 254.4234924316406 86.21788787841797 L 252.2369689941406 87.34340667724609 L 252.2369689941406 84.88420104980469 L 252.2369689941406 29.21121597290039 L 252.2369689941406 28.29629898071289 L 253.0504302978516 27.8775463104248 C 258.3092041015625 25.17045211791992 263.9158020019531 23.85449981689453 270.1906127929688 23.85449981689453 C 277.8722839355469 23.85449981689453 285.5838928222656 25.8392276763916 293.0415954589844 27.75859260559082 C 300.3201904296875 29.63188743591309 307.8466186523438 31.56894683837891 315.1520690917969 31.56894683837891 C 320.9407043457031 31.56894683837891 326.1012573242188 30.36144065856934 330.9286193847656 27.87743949890137 L 333.1149291992188 26.75242805480957 L 333.1149291992188 29.21121597290039 L 333.1149291992188 84.88420104980469 L 333.1149291992188 85.79933166503906 L 332.3011779785156 86.218017578125 C 327.0400695800781 88.92491912841797 321.4310607910156 90.24089050292969 315.1536560058594 90.24111938476562 Z" stroke="none"/>
          <path d="M 270.1906127929688 25.35449981689453 C 264.7062072753906 25.35449981689453 259.2212524414062 26.38803100585938 253.7369689941406 29.21121978759766 C 253.7369689941406 47.76887512207031 253.7369689941406 66.32448577880859 253.7369689941406 84.88420104980469 C 259.2230529785156 82.06021118164062 264.7060241699219 81.02727508544922 270.1921691894531 81.02727508544922 C 290.6618041992188 81.02727508544922 311.1357116699219 95.42098236083984 331.6149291992188 84.88420104980469 C 331.6149291992188 66.32652282714844 331.6149291992188 47.77092742919922 331.6149291992188 29.21120452880859 C 311.1332397460938 39.75045013427734 290.6613159179688 25.35449981689453 270.1906127929688 25.35449981689453 M 270.1906127929688 22.35449981689453 C 278.0622253417969 22.35449981689453 285.8673400878906 24.36328887939453 293.4154663085938 26.30593872070312 C 300.9345092773438 28.24109649658203 308.0365295410156 30.06893920898438 315.1520690917969 30.06893920898438 C 320.6962280273438 30.06893920898438 325.6322937011719 28.91580200195312 330.2422790527344 26.54364776611328 C 331.1722717285156 26.06508636474609 332.284423828125 26.10542297363281 333.1773071289062 26.65016937255859 C 334.0701904296875 27.19486999511719 334.6149291992188 28.165283203125 334.6149291992188 29.21120452880859 L 334.6149291992188 84.88420104980469 C 334.6149291992188 86.008056640625 333.9867553710938 87.03765869140625 332.9874267578125 87.55181884765625 C 327.5085144042969 90.37078857421875 321.6750183105469 91.74112701416016 315.1536254882812 91.74112701416016 C 307.2786865234375 91.74112701416016 299.4718933105469 89.7320556640625 291.922119140625 87.78913879394531 C 284.40478515625 85.85456848144531 277.3043518066406 84.02727508544922 270.192138671875 84.02727508544922 C 264.6504211425781 84.02727508544922 259.7170104980469 85.18006896972656 255.1100158691406 87.55155181884766 C 254.1799926757812 88.0302734375 253.0677795410156 87.99006652832031 252.1747741699219 87.44536590576172 C 251.2817687988281 86.90068817138672 250.7369689941406 85.93020629882812 250.7369689941406 84.88420104980469 L 250.7369689941406 29.21121978759766 C 250.7369689941406 28.08759307861328 251.3648681640625 27.05816650390625 252.3638916015625 26.54388427734375 C 257.840087890625 23.72486114501953 263.6712646484375 22.35449981689453 270.1906127929688 22.35449981689453 Z" stroke="none" fill="#008b56"/>
        </g>
      </g>
      <path id="Rectangle_17965" data-name="Rectangle 17965" d="M48,0H87.168a48,48,0,0,1,48,48V171.231a0,0,0,0,1,0,0H0a0,0,0,0,1,0,0V48A48,48,0,0,1,48,0Z" transform="translate(292.416 417.742)" fill="#dc7eff"/>
      <rect id="Rectangle_17963" data-name="Rectangle 17963" width="28.262" height="137.778" rx="14.131" transform="matrix(0.53, 0.848, -0.848, 0.53, 361.476, 99.484)" fill="#dc7eff"/>
      <rect id="Rectangle_17964" data-name="Rectangle 17964" width="28.262" height="137.778" rx="14.131" transform="matrix(-0.53, 0.848, -0.848, -0.53, 471.837, 172.494)" fill="#dc7eff"/>
      <ellipse id="Ellipse_715" data-name="Ellipse 715" cx="28.497" cy="27.726" rx="28.497" ry="27.726" transform="translate(331.707 174.073)" fill="#ffd719"/>
      <g id="Group_2148" data-name="Group 2148" transform="translate(360.001 189.567)">
        <line id="Line_265" data-name="Line 265" y2="14.721" transform="translate(0)" fill="none" stroke="#262626" stroke-linecap="round" stroke-width="4"/>
        <line id="Line_266" data-name="Line 266" x1="8.833" y1="2.944" transform="translate(0 14.721)" fill="none" stroke="#262626" stroke-linecap="round" stroke-width="4"/>
      </g>
    </g>
    <path id="Path_5194" data-name="Path 5194" d="M-5792.921,2608.854v-114.1a75.36,75.36,0,0,1,26.063-4.619,75.535,75.535,0,0,1,67.957,42.533,75.982,75.982,0,0,1,11.944-.94,75.523,75.523,0,0,1,75.523,75.523q0,.805-.017,1.606Z" transform="translate(5645 -1702.873)" fill="#8ce33a"/>
    <path id="Intersection_112" data-name="Intersection 112" d="M0,113.7A75.52,75.52,0,0,1,94.278,43.938a75.464,75.464,0,0,1,123.2-20.524V113.7Z" transform="translate(354.596 730.41)" fill="#8ce33a"/>
  </g>
</svg>
