<svg xmlns="http://www.w3.org/2000/svg" width="18.43" height="20.221" viewBox="0 0 18.43 20.221">
  <g id="marked" transform="translate(1 1)">
    <g id="Path_937" data-name="Path 937" transform="translate(-76 -4.335)" fill="#bc8bfd" stroke-linejoin="round">
      <path d="M 84.21517181396484 23.05624580383301 C 83.95920562744141 23.05624580383301 83.70786285400391 22.98664665222168 83.48831176757812 22.85495567321777 L 76.18587493896484 18.47348594665527 C 75.76279449462891 18.21956634521484 75.50000762939453 17.7553653717041 75.50000762939453 17.26201629638672 L 75.50000762939453 5.248065948486328 C 75.50000762939453 4.469045639038086 76.13377380371094 3.835265874862671 76.91278839111328 3.835265874862671 L 91.51758575439453 3.835265874862671 C 92.29660797119141 3.835265874862671 92.93038177490234 4.469045639038086 92.93038177490234 5.248065948486328 L 92.93038177490234 17.26201629638672 C 92.93038177490234 17.75545501708984 92.66754150390625 18.21966552734375 92.24443817138672 18.47349548339844 L 84.94202423095703 22.85492515563965 C 84.72250366210938 22.98663520812988 84.47116088867188 23.05624580383301 84.21517181396484 23.05624580383301 Z" stroke="none"/>
      <path d="M 76.91278839111328 4.33526611328125 C 76.40866088867188 4.33526611328125 75.99999237060547 4.743925094604492 75.99999237060547 5.248065948486328 L 75.99999237060547 17.26201629638672 C 75.99999237060547 17.5826358795166 76.16823577880859 17.87975692749023 76.44312286376953 18.04473495483398 L 83.74550628662109 22.42617607116699 C 84.03464508056641 22.59960556030273 84.39572906494141 22.59960556030273 84.68477630615234 22.42617607116699 L 91.98721313476562 18.04473495483398 C 92.26215362548828 17.87979507446289 92.43038177490234 17.5826358795166 92.43038177490234 17.26201629638672 L 92.43038177490234 5.248065948486328 C 92.43038177490234 4.743925094604492 92.02170562744141 4.33526611328125 91.51758575439453 4.33526611328125 L 76.91278839111328 4.33526611328125 M 76.91278839111328 3.33526611328125 L 91.51758575439453 3.33526611328125 C 92.57230377197266 3.33526611328125 93.43038177490234 4.19334602355957 93.43038177490234 5.248065948486328 L 93.43038177490234 17.26201629638672 C 93.43038177490234 17.93008613586426 93.07451629638672 18.55859565734863 92.50165557861328 18.90226554870605 L 85.19926452636719 23.28366661071777 C 84.90202331542969 23.46199607849121 84.56174468994141 23.55624580383301 84.21517181396484 23.55624580383301 C 83.86864471435547 23.55624580383301 83.52836608886719 23.46201515197754 83.23114776611328 23.28375625610352 L 75.92862701416016 18.90222549438477 C 75.35578155517578 18.55842590332031 74.99999237060547 17.92995452880859 74.99999237060547 17.26201629638672 L 74.99999237060547 5.248065948486328 C 74.99999237060547 4.19334602355957 75.85806274414062 3.33526611328125 76.91278839111328 3.33526611328125 Z" stroke="none" fill="#bc8bfd"/>
    </g>
    <path id="Path_1106" data-name="Path 1106" d="M168.352,194.283a1.2,1.2,0,0,0,1.7,0l5.962-5.962a1.2,1.2,0,0,0-1.7-1.7l-5.114,5.114-1.642-1.642a1.2,1.2,0,0,0-1.7,1.7Z" transform="translate(-162.613 -182.54)" fill="#fff"/>
  </g>
</svg>
