<svg xmlns="http://www.w3.org/2000/svg" width="212.899" height="133.336" viewBox="0 0 212.899 133.336">
  <g id="ILLUS" transform="translate(71.784 62.892)">
    <g id="Group_2027" data-name="Group 2027" transform="translate(-71.784 -53.194)">
      <rect id="Rectangle_17683" data-name="Rectangle 17683" width="167.445" height="119.262" rx="59.631" transform="translate(29.688 0)" fill="#ffd719"/>
      <rect id="Rectangle_17815" data-name="Rectangle 17815" width="126.712" height="46.59" rx="23.295" transform="translate(0 72.482)" fill="#ffd719"/>
    </g>
    <g id="Group_2007" data-name="Group 2007" transform="translate(-24.51 -29.595)">
      <path id="Path_4592" data-name="Path 4592" d="M120.191,129.19c.592,0,1.179.023,1.761.063L130.8,60.522h0L44.2,59.484c0,45.734-16.875,79.578-16.875,79.578h72.844A25.4,25.4,0,0,1,120.191,129.19Z" transform="translate(-27.325 -44.923)" fill="#00b754" stroke="#00b754" stroke-linejoin="round" stroke-width="3"/>
      <path id="Path_4989" data-name="Path 4989" d="M-2520.545-1247.664h0v0a133.3,133.3,0,0,1-5.061-17.812,209.646,209.646,0,0,1-3.479-20.706c-1.05-8.889-1.666-22.9-1.666-32.044-.005.01,1.716,7.422,1.666,7.423l-1.666-12.132v-5.826s-.556,0,0,.006v-.006h84.688v.138c1.516-.036,2.931,6.882,2.963,6.825,0,45.734,16.313,72.615,16.313,72.615l-38.221,1.523c-.423.491-1.646-.524-2.034,0Z" transform="translate(2547.803 1343.327)" fill="#fdffff" stroke="#fdffff" stroke-width="3"/>
      <g id="Path_4981" data-name="Path 4981" transform="translate(23.916 0)" fill="none">
        <path d="M7.422,0c4.1,0,7.484,3.311,7.484,12.37s-2.721,3.77-6.821,3.77S0,19.2,0,12.37,3.323,0,7.422,0Z" stroke="none"/>
        <path d="M 7.427573204040527 4.600006103515625 C 7.295520305633545 4.627723693847656 6.649433135986328 4.997962951660156 5.960284233093262 6.266811370849609 C 5.152261734008789 7.754532814025879 4.666338920593262 9.79510498046875 4.606315612792969 11.92295265197754 C 5.604887008666992 11.73701095581055 6.794475555419922 11.54065132141113 8.085324287414551 11.54065132141113 C 8.882101058959961 11.54065132141113 9.622844696044922 11.64157867431641 10.30056858062744 11.79569911956787 C 10.22762584686279 7.88137149810791 9.414327621459961 6.120746612548828 8.920454025268555 5.408182144165039 C 8.507980346679688 4.813056945800781 8.116863250732422 4.601114273071289 7.427573204040527 4.600006103515625 M 7.42212438583374 1.9073486328125e-06 C 11.52124404907227 1.9073486328125e-06 14.90584468841553 3.310781478881836 14.90584468841553 12.37020111083984 C 14.90584468841553 21.42962074279785 12.18444442749023 16.14065170288086 8.085324287414551 16.14065170288086 C 3.986204147338867 16.14065170288086 3.814697265625e-06 19.20207214355469 3.814697265625e-06 12.37020111083984 C 3.814697265625e-06 5.538331031799316 3.322994232177734 1.9073486328125e-06 7.42212438583374 1.9073486328125e-06 Z" stroke="none" fill="#fff"/>
      </g>
      <g id="Path_4983" data-name="Path 4983" transform="translate(42.059 0)" fill="none">
        <path d="M7.422,0c4.1,0,7.484,3.311,7.484,12.37s-2.721,3.77-6.821,3.77S0,19.2,0,12.37,3.323,0,7.422,0Z" stroke="none"/>
        <path d="M 7.427573204040527 4.600006103515625 C 7.295520305633545 4.627723693847656 6.649433135986328 4.997962951660156 5.960284233093262 6.266811370849609 C 5.152261734008789 7.754532814025879 4.666338920593262 9.79510498046875 4.606315612792969 11.92295265197754 C 5.604887008666992 11.73701095581055 6.794475555419922 11.54065132141113 8.085324287414551 11.54065132141113 C 8.882101058959961 11.54065132141113 9.622844696044922 11.64157867431641 10.30056858062744 11.79569911956787 C 10.22762584686279 7.88137149810791 9.414327621459961 6.120746612548828 8.920454025268555 5.408182144165039 C 8.507980346679688 4.813056945800781 8.116863250732422 4.601114273071289 7.427573204040527 4.600006103515625 M 7.42212438583374 1.9073486328125e-06 C 11.52124404907227 1.9073486328125e-06 14.90584468841553 3.310781478881836 14.90584468841553 12.37020111083984 C 14.90584468841553 21.42962074279785 12.18444442749023 16.14065170288086 8.085324287414551 16.14065170288086 C 3.986204147338867 16.14065170288086 3.814697265625e-06 19.20207214355469 3.814697265625e-06 12.37020111083984 C 3.814697265625e-06 5.538331031799316 3.322994232177734 1.9073486328125e-06 7.42212438583374 1.9073486328125e-06 Z" stroke="none" fill="#fff"/>
      </g>
      <g id="Path_4984" data-name="Path 4984" transform="translate(60.202 0)" fill="none">
        <path d="M7.422,0c4.1,0,7.484,3.311,7.484,12.37s-2.721,3.77-6.821,3.77S0,19.2,0,12.37,3.323,0,7.422,0Z" stroke="none"/>
        <path d="M 7.427573204040527 4.600006103515625 C 7.295520305633545 4.627723693847656 6.649433135986328 4.997962951660156 5.960284233093262 6.266811370849609 C 5.152261734008789 7.754532814025879 4.666338920593262 9.79510498046875 4.606315612792969 11.92295265197754 C 5.604887008666992 11.73701095581055 6.794475555419922 11.54065132141113 8.085324287414551 11.54065132141113 C 8.882101058959961 11.54065132141113 9.622844696044922 11.64157867431641 10.30056858062744 11.79569911956787 C 10.22762584686279 7.88137149810791 9.414327621459961 6.120746612548828 8.920454025268555 5.408182144165039 C 8.507980346679688 4.813056945800781 8.116863250732422 4.601114273071289 7.427573204040527 4.600006103515625 M 7.42212438583374 1.9073486328125e-06 C 11.52124404907227 1.9073486328125e-06 14.90584468841553 3.310781478881836 14.90584468841553 12.37020111083984 C 14.90584468841553 21.42962074279785 12.18444442749023 16.14065170288086 8.085324287414551 16.14065170288086 C 3.986204147338867 16.14065170288086 3.814697265625e-06 19.20207214355469 3.814697265625e-06 12.37020111083984 C 3.814697265625e-06 5.538331031799316 3.322994232177734 1.9073486328125e-06 7.42212438583374 1.9073486328125e-06 Z" stroke="none" fill="#fff"/>
      </g>
      <g id="Path_4985" data-name="Path 4985" transform="translate(78.345 0)" fill="none">
        <path d="M7.422,0c4.1,0,7.484,3.311,7.484,12.37s-2.721,3.77-6.821,3.77S0,19.2,0,12.37,3.323,0,7.422,0Z" stroke="none"/>
        <path d="M 7.427573204040527 4.600006103515625 C 7.295520305633545 4.627723693847656 6.649433135986328 4.997962951660156 5.960284233093262 6.266811370849609 C 5.152261734008789 7.754532814025879 4.666338920593262 9.79510498046875 4.606315612792969 11.92295265197754 C 5.604887008666992 11.73701095581055 6.794475555419922 11.54065132141113 8.085324287414551 11.54065132141113 C 8.882101058959961 11.54065132141113 9.622844696044922 11.64157867431641 10.30056858062744 11.79569911956787 C 10.22762584686279 7.88137149810791 9.414327621459961 6.120746612548828 8.920454025268555 5.408182144165039 C 8.507980346679688 4.813056945800781 8.116863250732422 4.601114273071289 7.427573204040527 4.600006103515625 M 7.42212438583374 1.9073486328125e-06 C 11.52124404907227 1.9073486328125e-06 14.90584468841553 3.310781478881836 14.90584468841553 12.37020111083984 C 14.90584468841553 21.42962074279785 12.18444442749023 16.14065170288086 8.085324287414551 16.14065170288086 C 3.986204147338867 16.14065170288086 3.814697265625e-06 19.20207214355469 3.814697265625e-06 12.37020111083984 C 3.814697265625e-06 5.538331031799316 3.322994232177734 1.9073486328125e-06 7.42212438583374 1.9073486328125e-06 Z" stroke="none" fill="#fff"/>
      </g>
      <g id="Group_1953" data-name="Group 1953" transform="translate(23.823 40.121)">
        <g id="Group_2029" data-name="Group 2029" transform="translate(0 0)">
          <rect id="Rectangle_17891" data-name="Rectangle 17891" width="15.669" height="11.546" rx="3" transform="matrix(1, -0.017, 0.017, 1, 0, 0.273)" fill="#90daff"/>
          <rect id="Rectangle_17892" data-name="Rectangle 17892" width="14.844" height="11.546" rx="3" transform="matrix(1, -0.017, 0.017, 1, 3.193, 17.592)" fill="#90daff"/>
        </g>
        <g id="Group_2030" data-name="Group 2030" transform="translate(19.792 0)">
          <rect id="Rectangle_17891-2" data-name="Rectangle 17891" width="15.669" height="11.546" rx="3" transform="matrix(1, -0.017, 0.017, 1, 0, 0.273)" fill="#90daff"/>
          <rect id="Rectangle_17892-2" data-name="Rectangle 17892" width="14.844" height="11.546" rx="3" transform="matrix(1, -0.017, 0.017, 1, 3.193, 17.592)" fill="#90daff"/>
        </g>
        <g id="Group_2031" data-name="Group 2031" transform="translate(39.585 0)">
          <rect id="Rectangle_17891-3" data-name="Rectangle 17891" width="15.669" height="11.546" rx="3" transform="matrix(1, -0.017, 0.017, 1, 0, 0.273)" fill="#90daff"/>
          <rect id="Rectangle_17892-3" data-name="Rectangle 17892" width="14.844" height="11.546" rx="3" transform="matrix(1, -0.017, 0.017, 1, 3.193, 17.592)" fill="#90daff"/>
        </g>
        <g id="Group_2032" data-name="Group 2032" transform="translate(59.377 0)">
          <rect id="Rectangle_17891-4" data-name="Rectangle 17891" width="15.669" height="11.546" rx="3" transform="matrix(1, -0.017, 0.017, 1, 0, 0.273)" fill="#90daff"/>
          <rect id="Rectangle_17892-4" data-name="Rectangle 17892" width="14.844" height="11.546" rx="3" transform="matrix(1, -0.017, 0.017, 1, 3.193, 17.592)" fill="#ffd719"/>
        </g>
        <g id="Group_2038" data-name="Group 2038" transform="translate(0 0)">
          <rect id="Rectangle_17891-5" data-name="Rectangle 17891" width="15.669" height="11.546" rx="3" transform="matrix(1, -0.017, 0.017, 1, 0, 0.273)" fill="#ffd719"/>
          <rect id="Rectangle_17892-5" data-name="Rectangle 17892" width="14.844" height="11.546" rx="3" transform="matrix(1, -0.017, 0.017, 1, 3.193, 17.592)" fill="#90daff"/>
        </g>
        <g id="Group_2039" data-name="Group 2039" transform="translate(19.792 0)">
          <rect id="Rectangle_17891-6" data-name="Rectangle 17891" width="15.669" height="11.546" rx="3" transform="matrix(1, -0.017, 0.017, 1, 0, 0.273)" fill="#ffd719"/>
          <rect id="Rectangle_17892-6" data-name="Rectangle 17892" width="14.844" height="11.546" rx="3" transform="matrix(1, -0.017, 0.017, 1, 3.193, 17.592)" fill="#90daff"/>
        </g>
        <g id="Group_2040" data-name="Group 2040" transform="translate(39.585 0)">
          <rect id="Rectangle_17891-7" data-name="Rectangle 17891" width="15.669" height="11.546" rx="3" transform="matrix(1, -0.017, 0.017, 1, 0, 0.273)" fill="#ffd719"/>
          <rect id="Rectangle_17892-7" data-name="Rectangle 17892" width="14.844" height="11.546" rx="3" transform="matrix(1, -0.017, 0.017, 1, 3.193, 17.592)" fill="#90daff"/>
        </g>
        <g id="Group_2041" data-name="Group 2041" transform="translate(6.597 34.637)">
          <rect id="Rectangle_17891-8" data-name="Rectangle 17891" width="15.669" height="11.546" rx="3" transform="matrix(1, -0.017, 0.017, 1, 0, 0.273)" fill="#ffd719"/>
        </g>
        <g id="Group_2042" data-name="Group 2042" transform="translate(26.39 34.637)">
          <rect id="Rectangle_17891-9" data-name="Rectangle 17891" width="15.669" height="11.546" rx="3" transform="matrix(1, -0.017, 0.017, 1, 0, 0.273)" fill="#ffd719"/>
        </g>
        <g id="Group_2043" data-name="Group 2043" transform="translate(46.182 34.637)">
          <rect id="Rectangle_17891-10" data-name="Rectangle 17891" width="15.669" height="11.546" rx="3" transform="matrix(1, -0.017, 0.017, 1, 0, 0.273)" fill="#ffd719"/>
        </g>
      </g>
      <path id="Rectangle_17893" data-name="Rectangle 17893" d="M6,0H85.539a6,6,0,0,1,6,6V18.143a0,0,0,0,1,0,0H0a0,0,0,0,1,0,0V6A6,6,0,0,1,6,0Z" transform="translate(14.844 10.721)" fill="#dc7eff"/>
      <path id="Path_4982" data-name="Path 4982" d="M32.893,17.344V10.766" transform="translate(3.508 -0.045)" fill="none" stroke="#fff" stroke-linecap="round" stroke-width="4.6"/>
      <path id="Path_4988" data-name="Path 4988" d="M32.893,17.293V10.766" transform="translate(39.794 0.007)" fill="none" stroke="#fff" stroke-linecap="round" stroke-width="4.6"/>
      <path id="Path_4986" data-name="Path 4986" d="M32.893,17.293V10.766" transform="translate(21.651 0.007)" fill="none" stroke="#fff" stroke-linecap="round" stroke-width="4.6"/>
      <path id="Path_4987" data-name="Path 4987" d="M32.893,17.293V10.766" transform="translate(57.937 0.007)" fill="none" stroke="#fff" stroke-linecap="round" stroke-width="4.6"/>
    </g>
    <g id="BALLS" transform="translate(-58.192 -62.892)">
      <circle id="Ellipse_677" data-name="Ellipse 677" cx="5.03" cy="5.03" r="5.03" transform="translate(0 61.265)" fill="#ffd719"/>
      <circle id="Ellipse_679" data-name="Ellipse 679" cx="3.793" cy="3.793" r="3.793" transform="translate(144.387 125.75)" fill="#fff"/>
      <circle id="Ellipse_648" data-name="Ellipse 648" cx="2.969" cy="2.969" r="2.969" transform="translate(174.072 119.813)" fill="#fff"/>
      <circle id="Ellipse_649" data-name="Ellipse 649" cx="4.618" cy="4.618" r="4.618" transform="translate(190.071 90.216)" fill="#dc7eff"/>
      <circle id="Ellipse_685" data-name="Ellipse 685" cx="5.855" cy="5.855" r="5.855" transform="translate(29.194 0)" fill="#90daff"/>
      <g id="Group_2010" data-name="Group 2010" transform="translate(137.97 2.144)">
        <path id="Path_4923" data-name="Path 4923" d="M9.463,0c3.922,0,6.771,2.188,15.616.663S9.787,11.329,5.864,11.329-1.478,13.139.657,7.655,5.541,0,9.463,0Z" transform="translate(20.387 26.488) rotate(-139)" fill="#fff"/>
        <circle id="Ellipse_650" data-name="Ellipse 650" cx="4.752" cy="4.752" r="4.752" transform="translate(14.828 9.323)" fill="#ffd719"/>
      </g>
      <circle id="Ellipse_651" data-name="Ellipse 651" cx="3.793" cy="3.793" r="3.793" transform="translate(10.721 106.152)" fill="#fff"/>
      <circle id="Ellipse_687" data-name="Ellipse 687" cx="4.618" cy="4.618" r="4.618" transform="translate(156.741 62.09)" fill="#fff"/>
    </g>
  </g>
</svg>
