<svg xmlns="http://www.w3.org/2000/svg" width="163.142" height="185.256" viewBox="0 0 163.142 185.256">
  <g id="ILLUS" transform="translate(23.17 45.445)">
    <rect id="Rectangle_17895" data-name="Rectangle 17895" width="141.838" height="124.721" rx="62.361" transform="translate(126.86 -2.134) rotate(90)" fill="#ffd719"/>
    <path id="Rectangle_17875" data-name="Rectangle 17875" d="M8,0H81a8,8,0,0,1,8,8V99a8,8,0,0,1-8,8H44A44,44,0,0,1,0,63V8A8,8,0,0,1,8,0Z" transform="translate(20 28.811)" fill="#fff"/>
    <g id="_004-report" data-name="004-report" transform="translate(-101.065 51.521)">
      <g id="Group_2016" data-name="Group 2016" transform="translate(130.468 -4.611)">
        <g id="Group_2012" data-name="Group 2012" transform="translate(46.936)">
          <path id="Path_4947" data-name="Path 4947" d="M357.714,39.626H339.945a1.916,1.916,0,0,1,0-3.832h17.769a1.916,1.916,0,0,1,0,3.832Z" transform="translate(-338.029 -35.794)" fill="#ffd719"/>
          <path id="Path_4948" data-name="Path 4948" d="M357.714,65.125H339.945a1.916,1.916,0,0,1,0-3.832h17.769a1.916,1.916,0,0,1,0,3.832Z" transform="translate(-338.029 -54.779)" fill="#ffd719"/>
          <path id="Path_4949" data-name="Path 4949" d="M357.714,90.623H339.945a1.916,1.916,0,0,1,0-3.832h17.769a1.916,1.916,0,0,1,0,3.832Z" transform="translate(-338.029 -73.764)" fill="#ffd719"/>
          <path id="Path_4950" data-name="Path 4950" d="M357.714,116.122H339.945a1.916,1.916,0,0,1,0-3.832h17.769a1.916,1.916,0,0,1,0,3.832Z" transform="translate(-338.029 -92.75)" fill="#ffd719"/>
        </g>
      </g>
      <g id="Group_2017" data-name="Group 2017" transform="translate(127.51 30.727)">
        <path id="Path_4958" data-name="Path 4958" d="M154.77,172.211h7.47a7.47,7.47,0,0,1,7.469-7.47v-7.469A14.939,14.939,0,0,0,154.77,172.211Z" transform="translate(-148.881 -153.484)" fill="#90daff"/>
        <path id="Path_4959" data-name="Path 4959" d="M228.084,142.442v7.469a7.469,7.469,0,0,1,7.469,7.469h7.47A14.939,14.939,0,0,0,228.084,142.442Z" transform="translate(-203.468 -142.442)" fill="#00b754"/>
        <path id="Path_4960" data-name="Path 4960" d="M177.178,215.755a7.469,7.469,0,1,1-14.939,0h-7.47a14.939,14.939,0,0,0,29.878,0Z" transform="translate(-148.881 -197.028)" fill="#ffd719"/>
        <rect id="Rectangle_17878" data-name="Rectangle 17878" width="18" height="3" transform="translate(0 17.688)" fill="#fff"/>
      </g>
      <g id="Group_2019" data-name="Group 2019" transform="translate(130.065 -4.34)">
        <path id="Rectangle_17879" data-name="Rectangle 17879" d="M2.5,0h0A2.5,2.5,0,0,1,5,2.5V23a0,0,0,0,1,0,0H0a0,0,0,0,1,0,0V2.5A2.5,2.5,0,0,1,2.5,0Z" transform="translate(0 -0.37)" fill="#00b754"/>
        <path id="Rectangle_17880" data-name="Rectangle 17880" d="M2.5,0h0A2.5,2.5,0,0,1,5,2.5V16a0,0,0,0,1,0,0H0a0,0,0,0,1,0,0V2.5A2.5,2.5,0,0,1,2.5,0Z" transform="translate(8 6.63)" fill="#00b754"/>
        <path id="Rectangle_17881" data-name="Rectangle 17881" d="M2.5,0h0A2.5,2.5,0,0,1,5,2.5V12a0,0,0,0,1,0,0H0a0,0,0,0,1,0,0V2.5A2.5,2.5,0,0,1,2.5,0Z" transform="translate(16 10.63)" fill="#00b754"/>
        <path id="Rectangle_17882" data-name="Rectangle 17882" d="M2.5,0h0A2.5,2.5,0,0,1,5,2.5V16a0,0,0,0,1,0,0H0a0,0,0,0,1,0,0V2.5A2.5,2.5,0,0,1,2.5,0Z" transform="translate(24 6.63)" fill="#00b754"/>
        <path id="Rectangle_17883" data-name="Rectangle 17883" d="M2.5,0h0A2.5,2.5,0,0,1,5,2.5V11a0,0,0,0,1,0,0H0a0,0,0,0,1,0,0V2.5A2.5,2.5,0,0,1,2.5,0Z" transform="translate(32 11.63)" fill="#00b754"/>
      </g>
      <g id="Group_2035" data-name="Group 2035" transform="translate(0 2)">
        <path id="Path_4965" data-name="Path 4965" d="M351.693,289.638a.83.83,0,0,1,.829-.829h3.749V279.53a1.386,1.386,0,0,0-1.382-1.382H342.414a1.386,1.386,0,0,0-1.382,1.382v12.475a1.386,1.386,0,0,0,1.382,1.382h9.278Z" transform="translate(-162.451 -244.394)" fill="#8ce33a"/>
        <path id="Path_4966" data-name="Path 4966" d="M389.56,325.08a1.6,1.6,0,0,1-1.6,1.6h-8.776a1.6,1.6,0,0,1-1.6-1.6V316.3a1.6,1.6,0,0,1,1.6-1.6h8.776a1.6,1.6,0,0,1,1.6,1.6Z" transform="translate(-191.391 -271.698)" fill="#00b754"/>
      </g>
    </g>
    <g id="BALLS" transform="translate(-477.156 -351.832)">
      <circle id="Ellipse_647" data-name="Ellipse 647" cx="4" cy="4" r="4" transform="translate(522.156 361)" fill="#fff"/>
      <circle id="Ellipse_648" data-name="Ellipse 648" cx="7.5" cy="7.5" r="7.5" transform="translate(453.986 349)" fill="#fff"/>
      <circle id="Ellipse_649" data-name="Ellipse 649" cx="4" cy="4" r="4" transform="translate(609.129 385.458)" fill="#ffd719"/>
      <circle id="Ellipse_683" data-name="Ellipse 683" cx="4.5" cy="4.5" r="4.5" transform="translate(456.986 418.143)" fill="#8ce33a"/>
      <circle id="Ellipse_651" data-name="Ellipse 651" cx="4" cy="4" r="4" transform="translate(486.486 328)" fill="#fff"/>
      <g id="Group_2010" data-name="Group 2010" transform="translate(460.096 373.419) rotate(-52)">
        <path id="Path_4923" data-name="Path 4923" d="M13.342,0c5.53,0,12.2,6.518,22.467,1.621S24.015,20.3,18.485,20.3-6.382,26.181-2.881,14.462,7.812,0,13.342,0Z" transform="matrix(0.017, -1, 1, 0.017, 93.822, 78.045)" fill="#fff"/>
        <circle id="Ellipse_650" data-name="Ellipse 650" cx="4.6" cy="4.6" r="4.6" transform="translate(95.129 70.387)" fill="#8ce33a"/>
      </g>
    </g>
    <g id="Group_2047" data-name="Group 2047" transform="matrix(0.961, 0.276, -0.276, 0.961, 29.117, -4.043)">
      <path id="Rectangle_17911" data-name="Rectangle 17911" d="M9.447,0H33.922a9.447,9.447,0,0,1,9.447,9.447v0a2.907,2.907,0,0,1-2.907,2.907H2.907A2.907,2.907,0,0,1,0,9.447v0A9.447,9.447,0,0,1,9.447,0Z" transform="translate(20.612 22.187) rotate(-16)" fill="#dc7eff"/>
      <circle id="Ellipse_692" data-name="Ellipse 692" cx="6.815" cy="6.815" r="6.815" transform="translate(34.664 11.874)" fill="#dc7eff"/>
    </g>
    <rect id="Rectangle_17897" data-name="Rectangle 17897" width="20" height="4" rx="2" transform="translate(71 135.811)" fill="#fff"/>
    <rect id="Rectangle_17898" data-name="Rectangle 17898" width="20" height="4" rx="2" transform="translate(63 135.811)" fill="#ffd719"/>
  </g>
</svg>
