<svg xmlns="http://www.w3.org/2000/svg" width="158.67" height="149.827" viewBox="0 0 158.67 149.827">
  <g id="ILLUS" transform="translate(-437.881 -307.003)">
    <g id="open-book_3_" data-name="open-book (3)" transform="matrix(0.99, 0.139, -0.139, 0.99, 464.968, 323.381)">
      <rect id="Rectangle_17894" data-name="Rectangle 17894" width="141.838" height="124.721" rx="62.361" transform="matrix(0.139, 0.99, -0.99, 0.139, 116.305, -29.802)" fill="#ffd719"/>
      <g id="Group_2033" data-name="Group 2033" transform="translate(7.434 9.789)">
        <path id="Path_4934" data-name="Path 4934" d="M-3673.988-1164.324l.13-60.765.26-2.475,2.344.246,44.158,3.483a16.787,16.787,0,0,1,10.462,5.215,17.092,17.092,0,0,1,2.84,4.065l-8.125,77.312-.474.01c-.36.006-.722.009-1.081.009A60.6,60.6,0,0,1-3673.988-1164.324Z" transform="translate(3682.735 1243.305)" fill="#dc7eff" stroke="#dc7eff" stroke-width="6"/>
        <path id="Path_4933" data-name="Path 4933" d="M0,8.6A14.147,14.147,0,0,1,2.708,5.467a15.153,15.153,0,0,1,9.365-3.645L34.487,0c2.488,6.232,5.585,15.791,5.709,22.9.16,29.963-12.666,44.837-35.114,52.789l-2.736.1Z" transform="matrix(0.995, 0.105, -0.105, 0.995, 81.152, 23.944)" fill="#8ce33a" stroke="#8ce33a" stroke-width="6"/>
        <path id="Path_4706" data-name="Path 4706" d="M1.92,77.636H46.395V6.7a14.425,14.425,0,0,0-2.649-3.2A13.313,13.313,0,0,0,34.824,0H0V77.636Z" transform="translate(23.946 25.699)" fill="#fdffff" stroke="#fdffff" stroke-linejoin="round" stroke-width="6"/>
        <path id="Path_4935" data-name="Path 4935" d="M-3705.667-1126.549c1.979-2.931,6.247-7.9,15.31-10.129a54.515,54.515,0,0,1,10.442-1.285,59.364,59.364,0,0,1-25.751,15.885Z" transform="translate(3781.978 1226.593)" fill="#00b754" stroke="#00b754" stroke-width="6"/>
        <path id="Path_4927" data-name="Path 4927" d="M15.132,11.685C6.954,10.138,3.041,6.724,1.2,4.651c0,0-2.418-2.483-.377-2.685C9.384-1.423,45.689.6,45.689.6l1.928,0V11.685s-9.342.964-18.967.964A77.294,77.294,0,0,1,15.132,11.685Z" transform="translate(71.914 108.226) rotate(180)" fill="#d6f5fe" stroke="#d6f5fe" stroke-width="6"/>
        <path id="Path_4936" data-name="Path 4936" d="M27.659,4.553S17.789-2.915,0,1.278" transform="matrix(0.993, -0.122, 0.122, 0.993, 86.633, 42.655)" fill="none" stroke="#d2fa84" stroke-linecap="round" stroke-width="6"/>
        <path id="Path_4937" data-name="Path 4937" d="M26.913,4.553S17.309-2.915,0,1.278" transform="matrix(0.993, -0.122, 0.122, 0.993, 86.45, 53.541)" fill="none" stroke="#d2fa84" stroke-linecap="round" stroke-width="6"/>
        <g id="Group_2011" data-name="Group 2011" transform="translate(32.132 39.013)">
          <path id="Path_4931" data-name="Path 4931" d="M29.125,4.553S18.731-2.915,0,1.278" transform="matrix(0.993, -0.122, 0.122, 0.993, 0, 37.722)" fill="none" stroke="#90daff" stroke-linecap="round" stroke-width="6"/>
          <path id="Path_4929" data-name="Path 4929" d="M15.9.457S5.667-.736,0,.734" transform="matrix(0.993, -0.122, 0.122, 0.993, 0.476, 1.937)" fill="none" stroke="#90daff" stroke-linecap="round" stroke-width="6"/>
          <path id="Path_4972" data-name="Path 4972" d="M15.9.457S5.667-.736,0,.734" transform="matrix(0.993, -0.122, 0.122, 0.993, 1.092, 25.687)" fill="none" stroke="#90daff" stroke-linecap="round" stroke-width="6"/>
          <path id="Path_4930" data-name="Path 4930" d="M29.11,4.553S18.722-2.915,0,1.278" transform="matrix(0.993, -0.122, 0.122, 0.993, 0.72, 14.095)" fill="none" stroke="#90daff" stroke-linecap="round" stroke-width="6"/>
        </g>
      </g>
    </g>
    <g id="BALLS" transform="translate(-12.605 -20)">
      <circle id="Ellipse_647" data-name="Ellipse 647" cx="5.75" cy="5.75" r="5.75" transform="translate(551.156 357.068)" fill="#fff"/>
      <circle id="Ellipse_648" data-name="Ellipse 648" cx="7.5" cy="7.5" r="7.5" transform="translate(453.986 349)" fill="#fff"/>
      <circle id="Ellipse_649" data-name="Ellipse 649" cx="5" cy="5" r="5" transform="translate(599.156 341)" fill="#90daff"/>
      <circle id="Ellipse_683" data-name="Ellipse 683" cx="5" cy="5" r="5" transform="translate(450.486 417.143)" fill="#ffd719"/>
      <circle id="Ellipse_651" data-name="Ellipse 651" cx="4" cy="4" r="4" transform="translate(486.486 328)" fill="#fff"/>
      <g id="Group_2010" data-name="Group 2010" transform="matrix(0.545, -0.839, 0.839, 0.545, 445.931, 395.798)">
        <path id="Path_4923" data-name="Path 4923" d="M11.475,0c4.756,0,8.21,2.653,18.936.8S11.867,13.737,7.111,13.737-1.792,15.932.8,9.282,6.719,0,11.475,0Z" transform="translate(84.905 32.12) rotate(-139)" fill="#fff"/>
        <circle id="Ellipse_650" data-name="Ellipse 650" cx="5.1" cy="5.1" r="5.1" transform="translate(79.782 12.246)" fill="#8ce33a"/>
      </g>
    </g>
  </g>
</svg>
