<svg xmlns="http://www.w3.org/2000/svg" width="274.675" height="165.339" viewBox="0 0 274.675 165.339">
  <g id="illus" transform="translate(-426.981 -253.111)">
    <g id="Group_2027" data-name="Group 2027" transform="translate(430.838 254.709)">
      <rect id="Rectangle_17683" data-name="Rectangle 17683" width="199.345" height="130.063" rx="65.031" transform="translate(40.471)" fill="#ffd719"/>
      <rect id="Rectangle_17815" data-name="Rectangle 17815" width="146.282" height="64.825" rx="32.412" transform="translate(0 65.031)" fill="#ffd719"/>
    </g>
    <g id="post-box" transform="translate(493.17 269.152)">
      <path id="Path_4835" data-name="Path 4835" d="M20048.928,11268.949h-22.48a6.3,6.3,0,0,1-6.295-6.295v-88.864a6.161,6.161,0,0,1,.348-2.062c3.043-21.716,25.9-38.583,53.629-38.583h.006v0h26.225v.107c26.025,1.438,46.979,17.751,49.889,38.48a6.261,6.261,0,0,1,.348,2.062v88.864a6.3,6.3,0,0,1-6.3,6.295Z" transform="translate(-20020.152 -11133.141)" fill="#fff"/>
      <rect id="Rectangle_17703" data-name="Rectangle 17703" width="37.773" height="3.597" rx="1.799" transform="translate(26.977 77.349)" fill="#00b754"/>
      <rect id="Rectangle_17707" data-name="Rectangle 17707" width="8.094" height="15.289" rx="3" transform="translate(69.246 134.008)" fill="#00b754"/>
      <rect id="Rectangle_17706" data-name="Rectangle 17706" width="8.094" height="15.289" rx="3" transform="translate(11.686 134.008)" fill="#00b754"/>
      <path id="Rectangle_17813" data-name="Rectangle 17813" d="M44.5,0h0A44.5,44.5,0,0,1,89,44.5v74.218A7.282,7.282,0,0,1,81.718,126H4.855A4.855,4.855,0,0,1,0,121.145V44.5A44.5,44.5,0,0,1,44.5,0Z" transform="translate(4.424 5.797)" fill="#8ce33a"/>
      <rect id="Rectangle_17702" data-name="Rectangle 17702" width="46.767" height="50.364" rx="5" transform="translate(22.479 72.852)" fill="#00b754"/>
      <rect id="Rectangle_17701" data-name="Rectangle 17701" width="46.767" height="10.792" rx="5.396" transform="translate(22.479 49.468)" fill="#008b56"/>
      <rect id="Rectangle_17814" data-name="Rectangle 17814" width="32.377" height="10.792" rx="5.396" transform="translate(36.869 49.468)" fill="#00b754"/>
    </g>
    <g id="bag" transform="translate(596.677 351.093)">
      <g id="Group_2024" data-name="Group 2024" transform="translate(17.349 10.171)">
        <rect id="Rectangle_17712" data-name="Rectangle 17712" width="17.656" height="39.356" rx="8.828" transform="translate(48.274 17.656) rotate(-90)" fill="#50a7f0"/>
        <path id="Path_4836" data-name="Path 4836" d="M64.314,39.737H0a11.862,11.862,0,0,0,6.307-1.89,9.576,9.576,0,0,0,3.4-4.434c1.529-3.743,1.655-8.8,1.655-14.1V0H78.72V25.333a14.405,14.405,0,0,1-14.405,14.4Z" transform="translate(78.72 39.738) rotate(180)" fill="#90daff"/>
      </g>
      <rect id="Rectangle_17945" data-name="Rectangle 17945" width="33.368" height="34.011" rx="3" transform="translate(35.917 34.448) rotate(-40)" fill="#dc7eff"/>
      <rect id="Rectangle_17710" data-name="Rectangle 17710" width="33.368" height="59.929" rx="3" transform="translate(13.876 21.448) rotate(-40)" fill="#fff"/>
      <rect id="Rectangle_17708" data-name="Rectangle 17708" width="30.078" height="51.424" rx="3" transform="matrix(0.559, -0.829, 0.829, 0.559, 3.813, 31.179)" fill="#ffd719"/>
      <rect id="Rectangle_17714" data-name="Rectangle 17714" width="36.417" height="67.077" rx="7" transform="translate(0 67.356) rotate(-90)" fill="#90daff"/>
      <path id="Rectangle_17812" data-name="Rectangle 17812" d="M7,0H36.417a0,0,0,0,1,0,0V23.576a7,7,0,0,1-7,7H7a7,7,0,0,1-7-7V7A7,7,0,0,1,7,0Z" transform="translate(55.114 67.356) rotate(-90)" fill="#d6f5fe"/>
      <circle id="Ellipse_620" data-name="Ellipse 620" cx="4" cy="4" r="4" transform="translate(7.917 48.856)" fill="#50a7f0"/>
      <circle id="Ellipse_621" data-name="Ellipse 621" cx="4" cy="4" r="4" transform="translate(35.917 48.856)" fill="#50a7f0"/>
    </g>
    <g id="BALLS" transform="translate(426.981 253.111)">
      <circle id="Ellipse_647" data-name="Ellipse 647" cx="3.911" cy="3.911" r="3.911" transform="translate(139.478 99.122)" fill="#8ce33a"/>
      <circle id="Ellipse_648" data-name="Ellipse 648" cx="5.086" cy="5.086" r="5.086" transform="translate(213.961 47.256)" fill="#fff"/>
      <circle id="Ellipse_684" data-name="Ellipse 684" cx="3.911" cy="3.911" r="3.911" transform="translate(0 65.521)" fill="#ffd719"/>
      <circle id="Ellipse_649" data-name="Ellipse 649" cx="4.889" cy="4.889" r="4.889" transform="translate(253.574 11.039)" fill="#90daff"/>
      <circle id="Ellipse_650" data-name="Ellipse 650" cx="3.911" cy="3.911" r="3.911" transform="translate(33.591 95.21)" fill="#fff"/>
      <circle id="Ellipse_651" data-name="Ellipse 651" cx="3.911" cy="3.911" r="3.911" transform="translate(49.27 0)" fill="#8ce33a"/>
    </g>
  </g>
</svg>
