<svg xmlns="http://www.w3.org/2000/svg" width="269.065" height="188.308" viewBox="0 0 269.065 188.308">
  <g id="ILLUS" transform="translate(56.636 24.76)">
    <g id="Group_2050" data-name="Group 2050" transform="translate(-520.508 -252.3)">
      <rect id="Rectangle_17683" data-name="Rectangle 17683" width="204.701" height="162.96" rx="81.48" transform="translate(485.989 252.888)" fill="#90daff"/>
      <rect id="Rectangle_17815" data-name="Rectangle 17815" width="173.667" height="85.88" rx="42.94" transform="translate(559.27 329.713)" fill="#90daff"/>
    </g>
    <g id="BALLS" transform="translate(-30.311 -24.76)">
      <g id="Group_2089" data-name="Group 2089">
        <circle id="Ellipse_648" data-name="Ellipse 648" cx="8.174" cy="8.174" r="8.174" transform="translate(188.142 22.886)" fill="#fff"/>
        <circle id="Ellipse_649" data-name="Ellipse 649" cx="4.359" cy="4.359" r="4.359" transform="translate(14.675 88.608)" fill="#fff"/>
        <circle id="Ellipse_699" data-name="Ellipse 699" cx="5.859" cy="5.859" r="5.859" transform="translate(-26.325 105.497)" fill="#ffd719"/>
        <circle id="Ellipse_683" data-name="Ellipse 683" cx="4.359" cy="4.359" r="4.359" transform="translate(179.422 31.647)" fill="#90daff"/>
        <circle id="Ellipse_700" data-name="Ellipse 700" cx="5.68" cy="5.68" r="5.68" transform="translate(-14.606 155.297)" fill="#fff"/>
        <circle id="Ellipse_651" data-name="Ellipse 651" cx="4.359" cy="4.359" r="4.359" transform="translate(160.351)" fill="#fff"/>
      </g>
      <g id="Group_2010" data-name="Group 2010" transform="translate(21.187 56.109) rotate(-121)">
        <path id="Path_4923" data-name="Path 4923" d="M18.138,23.732c6.026,0,13.3-7.1,24.485-1.766S29.77,1.608,23.744,1.608-3.358-4.8.459,7.971,12.112,23.732,18.138,23.732Z" transform="matrix(0.105, 0.995, -0.995, 0.105, 23.602, 0)" fill="#fff"/>
        <circle id="Ellipse_650" data-name="Ellipse 650" cx="6.968" cy="6.968" r="6.968" transform="translate(10.94 7.575)" fill="#8ce33a"/>
        <circle id="Ellipse_701" data-name="Ellipse 701" cx="5.468" cy="5.468" r="5.468" transform="translate(-133.464 144.166)" fill="#dc7eff"/>
      </g>
      <g id="Group_1830" data-name="Group 1830" transform="translate(0 36.007)">
        <path id="Rectangle_17761" data-name="Rectangle 17761" d="M41.211,0h0A41.211,41.211,0,0,1,82.421,41.211V75.372a20.98,20.98,0,0,1-20.98,20.98H20.98A20.98,20.98,0,0,1,0,75.372V41.211A41.211,41.211,0,0,1,41.211,0Z" transform="translate(61.406 0)" fill="#8738bd"/>
        <g id="TEACHER" transform="translate(0 4.103)">
          <g id="Group_1832" data-name="Group 1832" transform="translate(0 0)">
            <path id="Path_4585" data-name="Path 4585" d="M3.641,76.726c-.166.006-.332.01-.5.01-7.068,0,0,.318,0-6.75s.548-18.838.819-18.821a33.764,33.764,0,0,1,15.51-22.616V9.861C19.471.571,27,0,36.291,0s16.82.571,16.82,9.861v17.7a33.758,33.758,0,0,1,17.52,25.618c.35,4.574-.865,10.753,2.009,10.753,7.068,0,1.748-4.833,1.748,2.235s10.973,10.063,3.905,10.063a12.742,12.742,0,0,1-7.433-2.378,33.739,33.739,0,0,1-67.219,2.87Z" transform="translate(141.975 115.298) rotate(180)" fill="#ff8076"/>
            <path id="Path_4295" data-name="Path 4295" d="M46.216.45C58.425,2.166,63.4,9.618,70.781,18.781c-2.371.086-2.912-1.953-5.352-2.161-16.671-.77-18.71-2.743-26.8-10.813C33.122,20.294,22.712,35.175,0,32.422,4.5,9.52,24.929-2.54,46.216.45Z" transform="translate(64.205 2.407) rotate(1)" fill="#8738bd"/>
            <rect id="Rectangle_17600" data-name="Rectangle 17600" width="17.545" height="7.7" rx="3.85" transform="translate(130.05 32.144) rotate(-162)" fill="#262626"/>
            <rect id="Rectangle_17916" data-name="Rectangle 17916" width="17.545" height="7.7" rx="3.85" transform="matrix(-0.966, 0.259, -0.259, -0.966, 102.634, 28.912)" fill="#262626"/>
            <g id="Group_2036" data-name="Group 2036" transform="translate(43.663 22.474)">
              <ellipse id="Ellipse_688" data-name="Ellipse 688" cx="13.93" cy="12.189" rx="13.93" ry="12.189" transform="translate(20.065 10.57)" fill="#ff8076"/>
              <path id="Path_4990" data-name="Path 4990" d="M30.9,0C47.958,0,49.289,5.481,49.289,26.289s2.423,13.938-19.52,13.938-35.506,20.808-35.506,0S13.832,0,30.9,0Z" transform="translate(5.707 -1)" fill="#ff8076"/>
              <rect id="Rectangle_17900" data-name="Rectangle 17900" width="23.217" height="9.248" rx="4" transform="translate(29.352 -1)" fill="#ff8076"/>
            </g>
            <g id="Group_2037" data-name="Group 2037" transform="translate(117.542 23.818)">
              <ellipse id="Ellipse_688-2" data-name="Ellipse 688" cx="14.104" cy="12.089" rx="14.104" ry="12.089" transform="translate(5.373 6.873)" fill="#ff8076"/>
              <path id="Path_4990-2" data-name="Path 4990" d="M19.691-.07C2.629-.07,0,5.6,0,26.858s.254,8.764,17.316,8.764,31.972,24.127,31.972,2.869S36.754-.07,19.691-.07Z" transform="translate(2.969 0)" fill="#ff8076"/>
              <rect id="Rectangle_17900-2" data-name="Rectangle 17900" width="22.835" height="8.06" rx="4" transform="translate(5.373 0)" fill="#ff8076"/>
            </g>
            <g id="BINO" transform="translate(73.948 27.591)">
              <g id="Group_2054" data-name="Group 2054" transform="translate(0 0)">
                <g id="Group_2051" data-name="Group 2051" transform="translate(0)">
                  <ellipse id="Ellipse_690" data-name="Ellipse 690" cx="16.874" cy="16.874" rx="16.874" ry="16.874" transform="translate(3)" fill="#8ce33a"/>
                  <rect id="Rectangle_17915" data-name="Rectangle 17915" width="33" height="34.151" rx="13" transform="translate(8.987)" fill="#8ce33a"/>
                </g>
                <g id="Group_2052" data-name="Group 2052" transform="translate(30)">
                  <ellipse id="Ellipse_690-2" data-name="Ellipse 690" cx="16.874" cy="16.874" rx="16.874" ry="16.874" fill="#8ce33a"/>
                  <rect id="Rectangle_17915-2" data-name="Rectangle 17915" width="33" height="34.151" rx="13" transform="translate(5.987)" fill="#8ce33a"/>
                </g>
              </g>
              <g id="Group_2053" data-name="Group 2053" transform="translate(12 0)">
                <ellipse id="Ellipse_498" data-name="Ellipse 498" cx="17.075" cy="17.075" rx="17.075" ry="17.075" transform="translate(29.303)" fill="#00b754"/>
                <ellipse id="Ellipse_698" data-name="Ellipse 698" cx="16.874" cy="16.874" rx="16.874" ry="16.874" fill="#00b754"/>
                <rect id="Rectangle_17917" data-name="Rectangle 17917" width="28" height="15" transform="translate(18.14 0.084)" fill="#00b754"/>
                <g id="Group_1824" data-name="Group 1824" transform="translate(6.178 5.667)">
                  <g id="Group_1822" data-name="Group 1822" transform="translate(0 0)">
                    <ellipse id="Ellipse_498-2" data-name="Ellipse 498" cx="11.496" cy="11.495" rx="11.496" ry="11.495" fill="#fff"/>
                    <ellipse id="Ellipse_500" data-name="Ellipse 500" cx="5.748" cy="6.386" rx="5.748" ry="6.386" transform="translate(8.011 2.089)" fill="#262626"/>
                  </g>
                  <g id="Group_1823" data-name="Group 1823" transform="translate(29.654 0)">
                    <ellipse id="Ellipse_498-3" data-name="Ellipse 498" cx="11.496" cy="11.495" rx="11.496" ry="11.495" fill="#fff"/>
                    <ellipse id="Ellipse_515" data-name="Ellipse 515" cx="5.748" cy="6.386" rx="5.748" ry="6.386" transform="translate(8.012 2.087)" fill="#262626"/>
                  </g>
                </g>
              </g>
            </g>
            <path id="Subtraction_44" data-name="Subtraction 44" d="M-5930.64-1645.28h0l0-.009,0-.011-25.473-60.009a14.9,14.9,0,0,1-.1-11.48,14.9,14.9,0,0,1,8.047-8.189l4.442-1.886a14.9,14.9,0,0,1,5.854-1.2,15.006,15.006,0,0,1,8.188,2.429,14.927,14.927,0,0,1,5.627,6.714l17.052,40.172a81.8,81.8,0,0,1-23.628,33.464Z" transform="translate(6102.295 1774.193)" fill="#ffd719"/>
            <rect id="Rectangle_17906" data-name="Rectangle 17906" width="37.826" height="99.282" rx="18.913" transform="matrix(-1, -0.017, 0.017, -1, 73.85, 147.316)" fill="#ffd719"/>
            <g id="toothless" transform="matrix(0.996, 0.087, -0.087, 0.996, 94.134, 63.542)">
              <g id="Group_1855" data-name="Group 1855" transform="matrix(-0.996, -0.087, 0.087, -0.996, 19.22, 11.613)">
                <path id="Path_4980" data-name="Path 4980" d="M.072,4.8C.759,3.013,2.752,2.249,4.2,2.1L16.328.017a2.573,2.573,0,0,1,2.934,1.908c.353,2.39-2.173,6.663-8.874,7.845S-.615,6.581.072,4.8Z" transform="translate(-3.939 0.695)" fill="#262626"/>
              </g>
            </g>
          </g>
          <path id="Subtraction_45" data-name="Subtraction 45" d="M-5983.282-1643.126H-6065.7c-.6-.166-.824-1.073-.624-2.554.354-2.612,1.933-6.509,4.224-10.426a61.964,61.964,0,0,1,11.083-13.762,62.593,62.593,0,0,1,18.421-12,66.947,66.947,0,0,1,26.242-5.133h67.687a52.74,52.74,0,0,1,12.667,1.539,52.845,52.845,0,0,1,11.608,4.382,81.916,81.916,0,0,1-12.78,15.552,81.785,81.785,0,0,1-16.209,11.977,81.058,81.058,0,0,1-18.937,7.7A81.738,81.738,0,0,1-5983.282-1643.126Z" transform="translate(6102.295 1791.324)" fill="#ffd719"/>
          <path id="Rectangle_17902" data-name="Rectangle 17902" d="M0,0H34a0,0,0,0,1,0,0V1A17,17,0,0,1,17,18h0A17,17,0,0,1,0,1V0A0,0,0,0,1,0,0Z" transform="translate(88.896 104.325)" fill="#fff"/>
        </g>
      </g>
    </g>
  </g>
</svg>
