<svg xmlns="http://www.w3.org/2000/svg" width="292.82" height="193.518" viewBox="0 0 292.82 193.518">
  <g id="ILLUS" transform="translate(-398.59 -287.482)">
    <path id="Path_5251" data-name="Path 5251" d="M-6633.274-7572.153h-53.741c-2.092,0-4.2-.085-6.271-.253h-80.989a31.245,31.245,0,0,1-12.238-2.471,31.337,31.337,0,0,1-9.994-6.738,31.341,31.341,0,0,1-6.738-9.994,31.236,31.236,0,0,1-2.471-12.238,31.34,31.34,0,0,1,2-11.071,31.331,31.331,0,0,1,5.524-9.345,31.461,31.461,0,0,1,18.686-10.594,31.512,31.512,0,0,0,9.3,1.4,31.306,31.306,0,0,0,12.262-2.476,31.4,31.4,0,0,0,10.013-6.75,31.394,31.394,0,0,0,6.75-10.013,31.306,31.306,0,0,0,2.476-12.262,31.638,31.638,0,0,0-.844-7.272,31.313,31.313,0,0,0-2.4-6.669,31.8,31.8,0,0,0-8.707-10.76,76.408,76.408,0,0,1,11.921-14.134,76.274,76.274,0,0,1,15-10.871,75.617,75.617,0,0,1,17.448-6.98,76.226,76.226,0,0,1,19.272-2.466h53.741a76.53,76.53,0,0,1,15.626,1.609c-.035.674-.053,1.361-.053,2.044a38.755,38.755,0,0,0,3.065,15.181,38.859,38.859,0,0,0,8.357,12.4,38.856,38.856,0,0,0,12.4,8.357,38.755,38.755,0,0,0,15.181,3.065,38.935,38.935,0,0,0,12.658-2.1,75.563,75.563,0,0,1,6.468,16.883,76.279,76.279,0,0,1,2.279,18.544,75.51,75.51,0,0,1-5.971,29.576,76,76,0,0,1-7,12.906,76.474,76.474,0,0,1-9.278,11.245,76.506,76.506,0,0,1-11.244,9.278,75.976,75.976,0,0,1-12.906,7A75.5,75.5,0,0,1-6633.274-7572.153Z" transform="translate(7216.701 8024.46)" fill="#ffd719"/>
    <g id="dad" transform="translate(217.719 56.15)">
      <circle id="Ellipse_521" data-name="Ellipse 521" cx="89" cy="89" r="89" transform="translate(232.281 246.85)" fill="none"/>
      <g id="Group_1829" data-name="Group 1829" transform="translate(270.11 258.474)">
        <path id="Path_4048" data-name="Path 4048" d="M35.856,0A35.856,35.856,0,0,1,71.713,35.856v.066c0,19.8-16.053,20.122-35.856,20.122S0,55.725,0,35.922v-.066A35.856,35.856,0,0,1,35.856,0Z" transform="translate(27.387 16.579)" fill="#008658"/>
        <path id="Path_4277" data-name="Path 4277" d="M0,39.174a17.412,17.412,0,0,1,16.871-17.4,17.412,17.412,0,1,1,33.954-7.655A17.412,17.412,0,0,1,78.308,27.186,14.149,14.149,0,1,1,59.821,45.663,17.417,17.417,0,0,1,43.833,31.591a17.329,17.329,0,0,1-9.568,3.222A17.41,17.41,0,1,1,0,39.174Z" transform="translate(19.72 -0.21)" fill="#8737bd"/>
        <rect id="Rectangle_17652" data-name="Rectangle 17652" width="30" height="37.555" transform="translate(47.778 95.473)" fill="#ff8076"/>
        <path id="Path_4490" data-name="Path 4490" d="M13.191,54.847v-8.12a11.487,11.487,0,1,1,.476-22.642,29.384,29.384,0,0,1,57.766-.207,11.488,11.488,0,0,1,.515,22.96v8.01Z" transform="translate(21.602 21.937)" fill="#ff8076"/>
        <rect id="Rectangle_17600" data-name="Rectangle 17600" width="16.789" height="7.953" rx="3.976" transform="matrix(0.966, -0.259, 0.259, 0.966, 42, 34.695)" fill="#262626"/>
        <rect id="Rectangle_17601" data-name="Rectangle 17601" width="16.146" height="8.758" rx="4.379" transform="translate(72.038 30.432) rotate(22)" fill="#262626"/>
        <path id="Intersection_67" data-name="Intersection 67" d="M0,0,8.517,10.175h4.4L21.434,0Z" transform="translate(52.267 114.251)" fill="#fff"/>
        <path id="Path_3691" data-name="Path 3691" d="M10.137,8.63a6.063,6.063,0,0,0-4.194-5.3C3.035,2.084.6,3.083.109,2.412S.791.159,3.392.013A9.055,9.055,0,0,1,10.534,2.97a7.247,7.247,0,0,1,2.122,4.6C12.946,9.421,10.592,11.184,10.137,8.63Z" transform="translate(72.945 78.08) rotate(155)" fill="#090000"/>
        <g id="Group_1824" data-name="Group 1824" transform="translate(44.575 46.794)">
          <g id="Group_1822" data-name="Group 1822" transform="translate(0 0)">
            <circle id="Ellipse_498" data-name="Ellipse 498" cx="9.793" cy="9.793" r="9.793" transform="translate(0 0)" fill="#fff"/>
            <ellipse id="Ellipse_500" data-name="Ellipse 500" cx="5.396" cy="5.441" rx="5.396" ry="5.441" transform="translate(7.793 2.264)"/>
          </g>
          <g id="Group_1823" data-name="Group 1823" transform="translate(22.851 0)">
            <circle id="Ellipse_498-2" data-name="Ellipse 498" cx="9.793" cy="9.793" r="9.793" transform="translate(0 0)" fill="#fff"/>
            <circle id="Ellipse_500-2" data-name="Ellipse 500" cx="5.441" cy="5.441" r="5.441" transform="translate(6.705 1.264)"/>
          </g>
        </g>
        <path id="Path_4292" data-name="Path 4292" d="M9354.493,22251.707a28.713,28.713,0,0,1-9.713-1.668,25.5,25.5,0,0,1-7.927-4.547,21.177,21.177,0,0,1-5.349-6.74,18.362,18.362,0,0,1-1.966-8.246v-8.389h.581v-.666h58.222v7.061h-.048v4.348a17.428,17.428,0,0,1-6.493,13.326,24.132,24.132,0,0,1-15.683,5.521Z" transform="translate(-9294.751 -22151.512)" fill="#ff8076"/>
        <ellipse id="Ellipse_696" data-name="Ellipse 696" cx="12.029" cy="11.5" rx="12.029" ry="11.5" transform="matrix(0.883, 0.469, -0.469, 0.883, 67.852, 0.567)" fill="#8737bd"/>
        <ellipse id="Ellipse_697" data-name="Ellipse 697" cx="15" cy="11.5" rx="15" ry="11.5" transform="translate(34.788 10.589) rotate(-19)" fill="#8737bd"/>
      </g>
      <ellipse id="Ellipse_542" data-name="Ellipse 542" cx="7.1" cy="6.5" rx="7.1" ry="6.5" transform="matrix(-0.07, 0.998, -0.998, -0.07, 342.853, 322.761)" fill="#ff8076"/>
      <path id="Path_4980" data-name="Path 4980" d="M-6178.429-2775.992a1.716,1.716,0,0,1,1.7-1.811l12.661-1.293a1.909,1.909,0,0,1,2.176,1.415c.262,1.773.146,2.533-1.5,4.2s-3.486,2.177-6.22,2.465a11.061,11.061,0,0,1-5.5-1.246C-6176.673-2773.066-6178.094-2773.719-6178.429-2775.992Z" transform="matrix(-0.978, -0.208, 0.208, -0.978, -5125.051, -3661.239)" fill="#262626"/>
      <path id="Path_5000" data-name="Path 5000" d="M-5823.713-2293.5c-3.312-.879,9.277-31,43.583-31h49.709a40,40,0,0,1,35.545,21.638c1.083,2.18-10.426,7.4-30.224,9.361Z" transform="translate(6092.705 2689.348)" fill="#dc7eff"/>
      <path id="Path_5001" data-name="Path 5001" d="M-5795.237-2422.15a11.5,11.5,0,0,1-11.5-11.5q0-.252.011-.5h30.979q.011.249.011.5a11.5,11.5,0,0,1-11.5,11.5Z" transform="translate(6124.018 2799)" fill="#ff8076"/>
    </g>
    <path id="Path_4915" data-name="Path 4915" d="M24.7,0A24.7,24.7,0,1,0,49.4,24.7,24.7,24.7,0,0,0,24.7,0Zm0,7.385a8.17,8.17,0,1,1-8.169,8.17A8.17,8.17,0,0,1,24.7,7.385Zm-.005,35.555a18.127,18.127,0,0,1-11.8-4.353,3.481,3.481,0,0,1-1.222-2.646A8.239,8.239,0,0,1,19.948,27.7h9.506a8.227,8.227,0,0,1,8.266,8.237A3.473,3.473,0,0,1,36.5,38.587,18.121,18.121,0,0,1,24.695,42.941Z" transform="translate(618.558 287.482)" fill="#90daff"/>
    <path id="Path_4999" data-name="Path 4999" d="M21.9,0A21.9,21.9,0,1,0,43.8,21.9,21.9,21.9,0,0,0,21.9,0Zm0,6.549a7.244,7.244,0,1,1-7.243,7.244A7.245,7.245,0,0,1,21.9,6.549Zm0,31.527a16.074,16.074,0,0,1-10.467-3.86,3.087,3.087,0,0,1-1.083-2.346,7.306,7.306,0,0,1,7.341-7.3h8.43a7.3,7.3,0,0,1,7.33,7.3,3.079,3.079,0,0,1-1.082,2.345A16.068,16.068,0,0,1,21.9,38.076Z" transform="translate(422.866 341.677)" fill="#90daff"/>
    <g id="BALLS" transform="translate(520.872 325.023)">
      <circle id="Ellipse_648" data-name="Ellipse 648" cx="5.655" cy="5.655" r="5.655" transform="translate(110.621 53.836)" fill="#fff"/>
      <circle id="Ellipse_684" data-name="Ellipse 684" cx="4.349" cy="4.349" r="4.349" transform="translate(-122.282 59.491)" fill="#ffd719"/>
      <circle id="Ellipse_649" data-name="Ellipse 649" cx="5.436" cy="5.436" r="5.436" transform="translate(159.666 28.913)" fill="#90daff"/>
      <circle id="Ellipse_650" data-name="Ellipse 650" cx="4.349" cy="4.349" r="4.349" transform="translate(-84.932 92.502)" fill="#fff"/>
      <circle id="Ellipse_651" data-name="Ellipse 651" cx="4.349" cy="4.349" r="4.349" transform="translate(-67.499 -13.362)" fill="#8ce33a"/>
    </g>
    <g id="Group_1899" data-name="Group 1899" transform="translate(521.458 413.031)">
      <rect id="Rectangle_17679" data-name="Rectangle 17679" width="15.25" height="27.897" rx="6" transform="matrix(0.53, -0.848, 0.848, 0.53, 0, 13.302)" fill="#fff"/>
      <rect id="Rectangle_17680" data-name="Rectangle 17680" width="15.25" height="27.593" rx="6" transform="matrix(-0.53, -0.848, 0.848, -0.53, 34.391, 27.555)" fill="#fff"/>
    </g>
  </g>
</svg>
