<svg xmlns="http://www.w3.org/2000/svg" width="184.496" height="186.732" viewBox="0 0 184.496 186.732">
  <g id="ILLUS" transform="translate(30.311 24.761)">
    <rect id="Rectangle_17815" data-name="Rectangle 17815" width="141.838" height="124.721" rx="62.361" transform="translate(122.971 -8.234) rotate(90)" fill="#90daff"/>
    <circle id="Ellipse_647" data-name="Ellipse 647" cx="4.255" cy="4.255" r="4.255" transform="translate(123.248 102.781)" fill="#ffd719"/>
    <circle id="Ellipse_648" data-name="Ellipse 648" cx="7.041" cy="7.041" r="7.041" transform="translate(131.76 -5.045)" fill="#fff"/>
    <circle id="Ellipse_649" data-name="Ellipse 649" cx="3.755" cy="3.755" r="3.755" transform="translate(-17.67 51.569)" fill="#ffd719"/>
    <circle id="Ellipse_683" data-name="Ellipse 683" cx="3.755" cy="3.755" r="3.755" transform="translate(117.33 11.517)" fill="#90daff"/>
    <circle id="Ellipse_651" data-name="Ellipse 651" cx="3.755" cy="3.755" r="3.755" transform="translate(107.82 -24.761)" fill="#fff"/>
    <g id="Group_2010" data-name="Group 2010" transform="matrix(-0.545, -0.839, 0.839, -0.545, 14.844, 30.027)">
      <path id="Path_4923" data-name="Path 4923" d="M15.624,20.443c5.191,0,11.455-6.119,21.092-1.521S25.645,1.385,20.453,1.385-2.892-4.136.4,6.866,10.433,20.443,15.624,20.443Z" transform="matrix(0.105, 0.995, -0.995, 0.105, 30.101, 5.152)" fill="#fff"/>
      <circle id="Ellipse_650" data-name="Ellipse 650" cx="3.849" cy="3.849" r="3.849" transform="translate(15.35 16.402)" fill="#90daff"/>
    </g>
    <g id="Group_1830" data-name="Group 1830" transform="translate(-34.078 6.009)">
      <path id="Rectangle_17761" data-name="Rectangle 17761" d="M35.5,0h0A35.5,35.5,0,0,1,71,35.5V64.927A18.073,18.073,0,0,1,52.927,83H18.073A18.073,18.073,0,0,1,0,64.927V35.5A35.5,35.5,0,0,1,35.5,0Z" transform="translate(56.664 0.248)" fill="#8738bd"/>
      <g id="TEACHER" transform="translate(0 3.783)">
        <g id="Group_1832" data-name="Group 1832" transform="translate(0 0)">
          <path id="Path_4585" data-name="Path 4585" d="M3.136,66.094c-.143.006-.286.008-.43.008-6.089,0,0,.274,0-5.815s.472-16.228.706-16.213a29.085,29.085,0,0,1,13.36-19.482V8.495C16.772.492,23.26,0,31.262,0S45.751.492,45.751,8.495V23.745A29.08,29.08,0,0,1,60.844,45.814c.3,3.94-.745,9.263,1.73,9.263,6.089,0,1.505-4.164,1.505,1.925s9.453,8.669,3.364,8.669a10.977,10.977,0,0,1-6.4-2.049,29.063,29.063,0,0,1-57.9,2.472Z" transform="translate(126.068 99.321) rotate(180)" fill="#ff8076"/>
          <path id="Path_4295" data-name="Path 4295" d="M39.812.387c10.517,1.478,14.807,7.9,21.161,15.791-2.043.074-2.508-1.683-4.61-1.862C42,13.653,40.245,11.953,33.279,5,28.532,17.482,19.565,30.3,0,27.929,3.879,8.2,21.475-2.188,39.812.387Z" transform="matrix(0.996, -0.087, 0.087, 0.996, 60.295, 5.314)" fill="#8738bd"/>
          <rect id="Rectangle_17600" data-name="Rectangle 17600" width="15.114" height="6.633" rx="3.317" transform="translate(111.724 25.789) rotate(-162)" fill="#262626"/>
          <g id="Group_2036" data-name="Group 2036" transform="translate(41.379 19.36)">
            <ellipse id="Ellipse_688" data-name="Ellipse 688" cx="12" cy="10.5" rx="12" ry="10.5" transform="translate(17.284 9.105)" fill="#ff8076"/>
            <path id="Path_4990" data-name="Path 4990" d="M30.609-.05c14.7,0,12.891,4.81,9.638,18.077s1.993,6.339-12.705,6.339c-4.748,0-9.779,8.988-13.156,16.976C6.291,45.077-3.608,40.448-3.608,30.6-3.608,8.274,15.911-.05,30.609-.05Z" transform="translate(5 -2.514)" fill="#ff8076"/>
            <rect id="Rectangle_17900" data-name="Rectangle 17900" width="11" height="7" rx="3.5" transform="matrix(0.966, 0.259, -0.259, 0.966, 31.833, -2.564)" fill="#ff8076"/>
          </g>
          <g id="Group_2037" data-name="Group 2037" transform="translate(105.021 20.517)">
            <ellipse id="Ellipse_688-2" data-name="Ellipse 688" cx="12.15" cy="10.414" rx="12.15" ry="10.414" transform="translate(4.628 5.92)" fill="#ff8076"/>
            <path id="Path_4990-2" data-name="Path 4990" d="M15.845,0C1.146,0,0,3.872,0,18.57s.218,6.06,14.917,6.06,27.542,16.682,27.542,1.984A26.614,26.614,0,0,0,15.845,0Z" transform="translate(2.557 0)" fill="#ff8076"/>
            <rect id="Rectangle_17900-2" data-name="Rectangle 17900" width="19.671" height="6.943" rx="3.471" transform="translate(0 0)" fill="#ff8076"/>
          </g>
          <path id="Subtraction_43" data-name="Subtraction 43" d="M-3472.336-1903.6h-.768a.03.03,0,0,0-.009-.024,2.772,2.772,0,0,0-1.094-.1,19.622,19.622,0,0,1-9.079-2.292,9.706,9.706,0,0,0-3.92-1.251,10.456,10.456,0,0,0-4.226,1.377,17.292,17.292,0,0,1-7.837,2.166,5.737,5.737,0,0,0-1.379.125h-2.689a15.9,15.9,0,0,1-11.314-4.687,15.9,15.9,0,0,1-4.686-11.314,15.9,15.9,0,0,1,4.686-11.314,15.9,15.9,0,0,1,11.314-4.686h4.068a17.293,17.293,0,0,1,7.837,2.166,10.46,10.46,0,0,0,4.226,1.377,9.7,9.7,0,0,0,3.918-1.25,19.626,19.626,0,0,1,9.08-2.292h1.87a15.9,15.9,0,0,1,11.314,4.686,15.9,15.9,0,0,1,4.686,11.314,15.9,15.9,0,0,1-4.686,11.314A15.9,15.9,0,0,1-3472.336-1903.6Z" transform="translate(3580 1959.3)" fill="#00b754"/>
          <g id="Group_1824" data-name="Group 1824" transform="translate(70.175 30.5)">
            <g id="Group_1822" data-name="Group 1822" transform="translate(25.517 -2.344)">
              <ellipse id="Ellipse_498" data-name="Ellipse 498" cx="11.731" cy="11.731" rx="11.731" ry="11.731" transform="translate(0)" fill="#fff"/>
              <ellipse id="Ellipse_500" data-name="Ellipse 500" cx="5.865" cy="6.517" rx="5.865" ry="6.517" transform="translate(10.006 3.207)" fill="#262626"/>
            </g>
            <g id="Group_1823" data-name="Group 1823" transform="translate(-5 -2.724)">
              <ellipse id="Ellipse_498-2" data-name="Ellipse 498" cx="11.921" cy="11.921" rx="11.921" ry="11.921" fill="#fff"/>
              <ellipse id="Ellipse_515" data-name="Ellipse 515" cx="5.96" cy="6.623" rx="5.96" ry="6.623" transform="translate(10.168 3.257)" fill="#262626"/>
            </g>
          </g>
          <rect id="Rectangle_17905" data-name="Rectangle 17905" width="30" height="82" rx="15" transform="matrix(-0.921, 0.391, -0.391, -0.921, 184.292, 111.203)" fill="#ffd719"/>
          <path id="Path_4995" data-name="Path 4995" d="M62.361,0H79.477a62.361,62.361,0,1,1,0,124.721H62.361c81.369,82.295,107.845-35.966,107.845-70.406S124.726-82.125,62.361,0Z" transform="translate(157.049 -18.026) rotate(90)" fill="#fff"/>
          <path id="Path_4994" data-name="Path 4994" d="M-3485.672-1859.826l4.891-1.812c3.07-3.465,3.121-17.142,7.805-15.621l4.687,1.523a12,12,0,0,1,7.7,15.121l-7.7,37.613c3.866-.812,26.721-5.81,30.829-5.81h29.353c3.922,0,32.385,2.325,36.088,3.067l-15.037-34.4a12,12,0,0,1,7.439-15.253l4.66-1.6a12,12,0,0,1,14.006,4.861v12.312a62.36,62.36,0,0,1-62.36,62.36A62.36,62.36,0,0,1-3485.672-1859.826Z" transform="translate(3518 1921.278)" fill="#ffd719"/>
          <rect id="Rectangle_17902" data-name="Rectangle 17902" width="29" height="23" rx="11.5" transform="translate(80.664 80.697)" fill="#ff8076"/>
          <rect id="Rectangle_17906" data-name="Rectangle 17906" width="30" height="73" rx="15" transform="translate(36.989 40.103) rotate(16)" fill="#ffd719"/>
          <path id="Path_4993" data-name="Path 4993" d="M20.253,118.68s24.86,10.412,71.182,1.814,48.029-40.613,48.029-40.613l-9.3,14.207S80.58,112.946,79.878,113.222,33.493,94.088,33.493,94.088Z" transform="translate(12.934 3)" fill="#ffd719"/>
          <g id="toothless" transform="matrix(0.996, 0.087, -0.087, 0.996, 84.043, 52.12)">
            <g id="Group_1855" data-name="Group 1855" transform="matrix(-0.996, -0.087, 0.087, -0.996, 20.044, 19.015)">
              <path id="Path_4980" data-name="Path 4980" d="M-6175.751-2774.977a4.192,4.192,0,0,1,3.553-2.323l10.45-1.795a2.217,2.217,0,0,1,2.527,1.644c.3,2.059-1.872,5.74-7.644,6.758S-6176.343-2773.44-6175.751-2774.977Z" transform="translate(6178.643 2784.362)" fill="#262626"/>
            </g>
          </g>
          <path id="Path_4998" data-name="Path 4998" d="M19,0c10.493,0,8.011,14.492,8.011,24.985S29.493,38,19,38A19,19,0,0,1,19,0Z" transform="translate(19.664 84.697)" fill="#ffd719"/>
        </g>
      </g>
      <rect id="Rectangle_17908" data-name="Rectangle 17908" width="23" height="4" transform="translate(81.664 55.479)" fill="#00b754"/>
    </g>
    <circle id="Ellipse_691" data-name="Ellipse 691" cx="5.087" cy="5.087" r="5.087" transform="translate(124.84 95.271)" fill="#ffd719"/>
  </g>
</svg>
