<svg xmlns="http://www.w3.org/2000/svg" width="683.517" height="405.873" viewBox="0 0 683.517 405.873">
  <g id="VECTOR-ASSET" transform="translate(-92.979 118.696)">
    <rect id="Rectangle_17243" data-name="Rectangle 17243" width="659.495" height="370.966" transform="translate(92.997 -85)" fill="#ffeb9b"/>
    <path id="Path_3073" data-name="Path 3073" d="M408.413,0,204.689,370.966H0V0Z" transform="translate(92.997 -85)" fill="#fff5b9"/>
    <g id="Group_1406" data-name="Group 1406" transform="translate(92.979 -85.001)">
      <path id="Path_3089" data-name="Path 3089" d="M549.446.347,439.31,198.944H341L451.135.347Z" transform="translate(-37.929 -8.042)" fill="#ffdf5a"/>
      <path id="Path_3107" data-name="Path 3107" d="M549.446.347,439.31,198.944H341L451.135.347Z" transform="translate(134.071 -34.042)" fill="#fff"/>
      <g id="Group_1417" data-name="Group 1417" transform="translate(0 0)">
        <rect id="Rectangle_17235" data-name="Rectangle 17235" width="64.049" height="167.242" transform="translate(499.612 115.305) rotate(-56)" fill="#d0ebff"/>
        <rect id="Rectangle_17236" data-name="Rectangle 17236" width="43.499" height="17.803" transform="translate(616.365 93.313)" fill="#383738"/>
        <circle id="Ellipse_231" data-name="Ellipse 231" cx="4.122" cy="4.122" r="4.122" transform="translate(421.411 37.974)" fill="#fff"/>
        <circle id="Ellipse_232" data-name="Ellipse 232" cx="4.122" cy="4.122" r="4.122" transform="translate(421.411 22.101)" fill="#fff"/>
        <path id="Path_3090" data-name="Path 3090" d="M480.5,11.322A4.122,4.122,0,1,0,484.622,7.2,4.117,4.117,0,0,0,480.5,11.322Z" transform="translate(-59.089 -0.885)" fill="#fff"/>
        <g id="Group_1391" data-name="Group 1391" transform="translate(401.503 322.996)">
          <path id="Path_3082" data-name="Path 3082" d="M498.022,368.3a4.122,4.122,0,1,0,4.122,4.122A4.117,4.117,0,0,0,498.022,368.3Z" transform="translate(-462.241 -368.3)" fill="#fff"/>
          <path id="Path_3091" data-name="Path 3091" d="M461.922,368.3a4.122,4.122,0,1,0,4.122,4.122A4.117,4.117,0,0,0,461.922,368.3Z" transform="translate(-457.8 -368.3)" fill="#fff"/>
          <path id="Path_3092" data-name="Path 3092" d="M479.922,368.3a4.122,4.122,0,1,0,4.122,4.122A4.117,4.117,0,0,0,479.922,368.3Z" transform="translate(-460.014 -368.3)" fill="#fff"/>
        </g>
        <path id="Path_3093" data-name="Path 3093" d="M377.5,408.723V310.5l70.071,98.223Z" transform="translate(-46.419 -38.194)" fill="#ffce00"/>
        <rect id="Rectangle_17237" data-name="Rectangle 17237" width="62.091" height="17.978" transform="translate(215.494 294.406)" fill="#ceabfe"/>
        <rect id="Rectangle_17238" data-name="Rectangle 17238" width="16.75" height="43.762" transform="translate(80.613 223.107)" fill="#ceabfe"/>
        <path id="Path_3094" data-name="Path 3094" d="M300.422,384.1a4.122,4.122,0,1,0,4.122,4.122A4.117,4.117,0,0,0,300.422,384.1Z" transform="translate(-36.43 -47.248)" fill="none" stroke="#383738" stroke-miterlimit="10" stroke-width="1"/>
        <path id="Path_3095" data-name="Path 3095" d="M318.422,384.1a4.122,4.122,0,1,0,4.122,4.122A4.117,4.117,0,0,0,318.422,384.1Z" transform="translate(-38.645 -47.248)" fill="#383738"/>
        <g id="Group_1393" data-name="Group 1393" transform="translate(291.529 336.852)">
          <path id="Path_3086" data-name="Path 3086" d="M336.522,384.1a4.122,4.122,0,1,0,4.122,4.122A4.117,4.117,0,0,0,336.522,384.1Z" transform="translate(-332.4 -384.1)" fill="none" stroke="#383738" stroke-miterlimit="10" stroke-width="1"/>
        </g>
        <circle id="Ellipse_235" data-name="Ellipse 235" cx="17.277" cy="17.277" r="17.277" transform="translate(408.256 67.616)" fill="#fff"/>
        <circle id="Ellipse_236" data-name="Ellipse 236" cx="17.277" cy="17.277" r="17.277" transform="translate(469.375 94.167) rotate(-67.212)" fill="#fff"/>
        <g id="Group_1394" data-name="Group 1394" transform="translate(538.775 65.165)">
          <circle id="Ellipse_227" data-name="Ellipse 227" cx="17.277" cy="17.277" r="17.277" transform="translate(0 5.325) rotate(-8.864)" fill="#383738"/>
        </g>
        <circle id="Ellipse_237" data-name="Ellipse 237" cx="4.122" cy="4.122" r="4.122" transform="translate(60.355 19.733)" fill="none" stroke="#383738" stroke-miterlimit="10" stroke-width="1"/>
        <circle id="Ellipse_238" data-name="Ellipse 238" cx="4.122" cy="4.122" r="4.122" transform="translate(76.228 19.733)" fill="none" stroke="#383738" stroke-miterlimit="10" stroke-width="1"/>
        <rect id="Rectangle_17239" data-name="Rectangle 17239" width="14.558" height="39.201" transform="translate(0 220.515) rotate(-90)" fill="#fff"/>
        <path id="Path_3096" data-name="Path 3096" d="M670.6,390.553c26.726,0,44.431-19.284,44.431-43.642s-17.7-43.642-44.431-43.642V269.1c43.98,0,77.811,34.846,77.811,77.811s-33.718,77.811-77.811,77.811Z" transform="translate(-487.102 -254.271)" fill="#dfb9ff"/>
        <path id="Path_3113" data-name="Path 3113" d="M670.6,390.553c26.726,0,44.431-19.284,44.431-43.642s-17.7-43.642-44.431-43.642V269.1c43.98,0,77.811,34.846,77.811,77.811s-33.718,77.811-77.811,77.811Z" transform="translate(-210.102 -113.271)" fill="#dfb9ff"/>
        <path id="Path_3108" data-name="Path 3108" d="M670.6,467.821c43.73,0,72.7-31.552,72.7-71.407s-28.969-71.407-72.7-71.407V269.1c71.96,0,127.314,57.015,127.314,127.314S742.745,523.728,670.6,523.728Z" transform="translate(-614.102 -151.55)" fill="#ffeb9b"/>
        <path id="Path_3109" data-name="Path 3109" d="M670.6,408.734c30.727,0,51.083-22.17,51.083-50.175s-20.355-50.175-51.083-50.175V269.1c50.564,0,89.459,40.062,89.459,89.459s-38.766,89.459-89.459,89.459Z" transform="translate(-625.102 -113.568)" fill="#a8d7ff"/>
        <g id="XMLID_14_" transform="translate(277.059 88.84)">
          <path id="XMLID_21_" d="M320.11,103.4a2.1,2.1,0,1,1-2.1-2.1A2.134,2.134,0,0,1,320.11,103.4Z" transform="translate(-315.9 -101.3)" fill="#383738"/>
          <path id="XMLID_19_" d="M335.21,103.4a2.1,2.1,0,1,1-2.1-2.1A2.078,2.078,0,0,1,335.21,103.4Z" transform="translate(-317.758 -101.3)" fill="#383738"/>
          <path id="XMLID_18_" d="M350.31,103.4a2.1,2.1,0,1,1-2.1-2.1A2.078,2.078,0,0,1,350.31,103.4Z" transform="translate(-319.615 -101.3)" fill="#383738"/>
          <path id="XMLID_17_" d="M365.41,103.4a2.1,2.1,0,1,1-2.1-2.1A2.078,2.078,0,0,1,365.41,103.4Z" transform="translate(-321.472 -101.3)" fill="#383738"/>
          <path id="XMLID_16_" d="M380.61,103.4a2.1,2.1,0,1,1-2.1-2.1A2.134,2.134,0,0,1,380.61,103.4Z" transform="translate(-323.342 -101.3)" fill="#383738"/>
          <path id="XMLID_15_" d="M395.71,103.4a2.1,2.1,0,1,1-2.1-2.1A2.134,2.134,0,0,1,395.71,103.4Z" transform="translate(-325.2 -101.3)" fill="#383738"/>
        </g>
        <g id="XMLID_7_" transform="translate(277.059 76.299)">
          <path id="XMLID_13_" d="M320.11,89.1A2.1,2.1,0,1,1,318,87,2.2,2.2,0,0,1,320.11,89.1Z" transform="translate(-315.9 -87)" fill="#383738"/>
          <path id="XMLID_12_" d="M335.21,89.1a2.1,2.1,0,1,1-2.1-2.1A2.134,2.134,0,0,1,335.21,89.1Z" transform="translate(-317.758 -87)" fill="#383738"/>
          <path id="XMLID_11_" d="M350.31,89.1a2.1,2.1,0,1,1-2.1-2.1A2.134,2.134,0,0,1,350.31,89.1Z" transform="translate(-319.615 -87)" fill="#383738"/>
          <path id="XMLID_10_" d="M365.41,89.1a2.1,2.1,0,1,1-2.1-2.1A2.134,2.134,0,0,1,365.41,89.1Z" transform="translate(-321.472 -87)" fill="#383738"/>
          <path id="XMLID_9_" d="M380.61,89.1a2.1,2.1,0,1,1-2.1-2.1A2.2,2.2,0,0,1,380.61,89.1Z" transform="translate(-323.342 -87)" fill="#383738"/>
          <path id="XMLID_8_" d="M395.71,89.1a2.1,2.1,0,1,1-2.1-2.1A2.2,2.2,0,0,1,395.71,89.1Z" transform="translate(-325.2 -87)" fill="#383738"/>
        </g>
        <g id="XMLID_2_" transform="translate(290.301 63.846)">
          <path id="XMLID_6_" d="M335.21,74.9a2.1,2.1,0,1,1-2.1-2.1A2.026,2.026,0,0,1,335.21,74.9Z" transform="translate(-331 -72.8)" fill="#383738"/>
          <path id="XMLID_5_" d="M350.31,74.9a2.1,2.1,0,1,1-2.1-2.1A2.026,2.026,0,0,1,350.31,74.9Z" transform="translate(-332.857 -72.8)" fill="#383738"/>
          <path id="XMLID_4_" d="M365.41,74.9a2.1,2.1,0,1,1-2.1-2.1A2.026,2.026,0,0,1,365.41,74.9Z" transform="translate(-334.715 -72.8)" fill="#383738"/>
          <path id="XMLID_3_" d="M380.61,74.9a2.1,2.1,0,1,1-2.1-2.1A2.078,2.078,0,0,1,380.61,74.9Z" transform="translate(-336.585 -72.8)" fill="#383738"/>
        </g>
        <g id="Group_1407" data-name="Group 1407" transform="translate(75.64 175.406)">
          <circle id="Ellipse_239" data-name="Ellipse 239" cx="8.682" cy="8.682" r="8.682" fill="#fff"/>
          <circle id="Ellipse_240" data-name="Ellipse 240" cx="5.682" cy="5.682" r="5.682" transform="translate(121.413 -38)" fill="#e4f2fc"/>
        </g>
        <g id="Group_1415" data-name="Group 1415" transform="matrix(0.819, -0.574, 0.574, 0.819, 3.639, 266.875)">
          <circle id="Ellipse_224" data-name="Ellipse 224" cx="8.471" cy="8.471" r="8.471" transform="translate(171.079 3.361)" fill="none" stroke="#262626" stroke-width="0.8"/>
          <circle id="Ellipse_241" data-name="Ellipse 241" cx="11.971" cy="11.971" r="11.971" transform="translate(371.928 197.711)" fill="none" stroke="#262626" stroke-width="0.8"/>
        </g>
        <path id="Path_3101" data-name="Path 3101" d="M180.072,413.848c0-20.434-14.909-36.57-37.272-36.57V348.6c36.921,0,65.248,29.2,65.248,65.248H180.072Z" transform="translate(-17.548 -42.881)" fill="#383738"/>
        <g id="Group_1419" data-name="Group 1419" transform="translate(66 -22)">
          <path id="XMLID_172_" d="M191.9,317.9l7.718-12.8,7.191,13.067Z" transform="translate(-23.588 -37.53)" fill="#ceabfe"/>
          <path id="XMLID_171_" d="M192.3,296.6l7.63-12.8,7.279,13.067Z" transform="translate(-23.637 -34.91)" fill="#383738"/>
          <path id="XMLID_170_" d="M192.7,275.3l8.406-12.8,8.019,13.067Z" transform="matrix(0.839, 0.545, -0.545, 0.839, 157.105, -101.411)" fill="#a8d7ff"/>
          <path id="XMLID_169_" d="M193,254l8.476-12.8,7.994,13.067Z" transform="matrix(0.839, 0.545, -0.545, 0.839, 155.54, -99.303)" fill="#ffdf5a"/>
          <path id="XMLID_168_" d="M193.4,232.7l8.5-12.8,7.922,13.067Z" transform="matrix(0.839, 0.545, -0.545, 0.839, 153.929, -97.225)" fill="#ceabfe"/>
        </g>
        <g id="Group_1422" data-name="Group 1422" transform="translate(413 -16)">
          <path id="XMLID_172_2" data-name="XMLID_172_" d="M191.9,317.9l7.718-12.8,7.191,13.067Z" transform="translate(-23.588 -37.53)" fill="#ceabfe"/>
          <path id="XMLID_171_2" data-name="XMLID_171_" d="M192.3,296.6l7.63-12.8,7.279,13.067Z" transform="translate(-23.637 -34.91)" fill="#383738"/>
          <path id="XMLID_170_2" data-name="XMLID_170_" d="M192.7,275.3l8.406-12.8,8.019,13.067Z" transform="matrix(0.839, 0.545, -0.545, 0.839, 136.105, -93.411)" fill="#a8d7ff"/>
          <path id="XMLID_169_2" data-name="XMLID_169_" d="M193,254l8.476-12.8,7.994,13.067Z" transform="matrix(0.839, 0.545, -0.545, 0.839, 134.54, -91.303)" fill="#fff"/>
          <path id="XMLID_168_2" data-name="XMLID_168_" d="M193.4,232.7l8.5-12.8,7.922,13.067Z" transform="matrix(0.839, 0.545, -0.545, 0.839, 132.929, -89.225)" fill="#ceabfe"/>
        </g>
        <g id="Group_1414" data-name="Group 1414" transform="translate(471.421 226.549)">
          <path id="XMLID_175_" d="M542.677,269l-5.087-5.086a.4.4,0,0,1,0-.439l5.087-5.087a.4.4,0,0,1,.438,0l5.087,5.087a.4.4,0,0,1,0,.439L543.116,269C543.028,269.178,542.853,269.178,542.677,269Z" transform="translate(-537.525 -258.325)" fill="#383738"/>
          <path id="XMLID_180_" d="M542.677,305.1l-5.087-5.087a.4.4,0,0,1,0-.439l5.087-5.087a.4.4,0,0,1,.438,0l5.087,5.087a.4.4,0,0,1,0,.439l-5.087,5.087C543.028,305.278,542.853,305.278,542.677,305.1Z" transform="translate(-537.525 -262.766)" fill="#ceabfe"/>
        </g>
        <path id="Path_3103" data-name="Path 3103" d="M173.354-19.7V50.067L111-19.7Z" transform="translate(-13.636 20.005)" fill="#383738"/>
        <rect id="Rectangle_17240" data-name="Rectangle 17240" width="9.208" height="80.508" transform="translate(172.697 29.204)" fill="#ceabfe"/>
        <g id="Group_1416" data-name="Group 1416" transform="translate(363.53 193.903)">
          <g id="Group_1398" data-name="Group 1398">
            <rect id="Rectangle_17225" data-name="Rectangle 17225" width="14.383" height="1.754" fill="#383738"/>
          </g>
          <g id="Group_1399" data-name="Group 1399" transform="translate(0 5.788)">
            <rect id="Rectangle_17226" data-name="Rectangle 17226" width="14.383" height="1.754" fill="#383738"/>
          </g>
          <g id="Group_1400" data-name="Group 1400" transform="translate(0 11.576)">
            <rect id="Rectangle_17227" data-name="Rectangle 17227" width="14.383" height="1.754" fill="#383738"/>
          </g>
          <g id="Group_1401" data-name="Group 1401" transform="translate(0 17.364)">
            <rect id="Rectangle_17228" data-name="Rectangle 17228" width="14.383" height="1.754" fill="#383738"/>
          </g>
          <g id="Group_1402" data-name="Group 1402" transform="translate(0 23.152)">
            <rect id="Rectangle_17229" data-name="Rectangle 17229" width="14.383" height="1.754" fill="#383738"/>
          </g>
          <g id="Group_1403" data-name="Group 1403" transform="translate(0 28.941)">
            <rect id="Rectangle_17230" data-name="Rectangle 17230" width="14.383" height="1.754" fill="#383738"/>
          </g>
          <g id="Group_1404" data-name="Group 1404" transform="translate(0 34.729)">
            <rect id="Rectangle_17231" data-name="Rectangle 17231" width="14.383" height="1.754" fill="#383738"/>
          </g>
          <g id="Group_1405" data-name="Group 1405" transform="translate(0 40.517)">
            <rect id="Rectangle_17232" data-name="Rectangle 17232" width="14.383" height="1.754" fill="#383738"/>
          </g>
        </g>
        <rect id="Rectangle_17241" data-name="Rectangle 17241" width="121.024" height="37.623" transform="translate(538.576 332.555)" fill="#ffce00"/>
        <g id="Group_1413" data-name="Group 1413" transform="translate(596.644 245.47)">
          <rect id="XMLID_236_" width="2.543" height="11.839" transform="translate(4.637)" fill="#383738"/>
          <rect id="XMLID_235_" width="2.543" height="11.839" transform="translate(11.839 4.613) rotate(90)" fill="#383738"/>
        </g>
        <path id="Intersection_15" data-name="Intersection 15" d="M0,90.559c26.778-8.016,43.5-31.623,43.5-60.04A65.391,65.391,0,0,0,36.207,0H87.661a114.829,114.829,0,0,1,4.071,30.432C91.732,85.6,53.242,131.488,0,141.037Z" transform="translate(0.018 0)" fill="#ffce00"/>
        <path id="Intersection_16" data-name="Intersection 16" d="M0,115.851V29.211A91.962,91.962,0,0,1,67.966,0V40.692c-31.835,0-52.882,22.889-52.882,51.917a54.337,54.337,0,0,0,5.049,23.242Z" transform="translate(0.018 255.117)" fill="#ffce00"/>
        <g id="Group_1395" data-name="Group 1395" transform="translate(60.442 67.967)">
          <circle id="Ellipse_230" data-name="Ellipse 230" cx="4.122" cy="4.122" r="4.122" transform="translate(0 0)" fill="none" stroke="#383738" stroke-miterlimit="10" stroke-width="1"/>
        </g>
        <path id="Intersection_17" data-name="Intersection 17" d="M50.776,37.708a1.572,1.572,0,0,1,1.58-1.577,1.518,1.518,0,0,1,1.578,1.577,1.579,1.579,0,1,1-3.158,0Zm-10.173,0a1.572,1.572,0,0,1,1.58-1.577,1.518,1.518,0,0,1,1.578,1.577,1.579,1.579,0,1,1-3.158,0Zm-10.084,0a1.578,1.578,0,1,1,1.578,1.58A1.571,1.571,0,0,1,30.519,37.708Zm-10.261,0a1.57,1.57,0,0,1,1.578-1.577A1.649,1.649,0,0,1,23.5,37.708a1.572,1.572,0,0,1-1.578,1.58A1.648,1.648,0,0,1,20.259,37.708Zm30.518-9.645a1.579,1.579,0,1,1,1.58,1.578A1.573,1.573,0,0,1,50.776,28.063Zm-10.173,0a1.579,1.579,0,1,1,1.58,1.578A1.573,1.573,0,0,1,40.6,28.063Zm-10.084,0A1.578,1.578,0,1,1,32.1,29.642,1.572,1.572,0,0,1,30.519,28.063Zm-10.261,0a1.571,1.571,0,0,1,1.578-1.58,1.649,1.649,0,0,1,1.666,1.58,1.572,1.572,0,0,1-1.578,1.578A1.648,1.648,0,0,1,20.259,28.063Zm-10.086,0a1.579,1.579,0,1,1,1.578,1.578A1.572,1.572,0,0,1,10.173,28.063Zm40.6-9.559a1.579,1.579,0,1,1,1.58,1.578A1.573,1.573,0,0,1,50.776,18.5ZM40.6,18.5a1.579,1.579,0,1,1,1.58,1.578A1.573,1.573,0,0,1,40.6,18.5Zm-10.084,0A1.578,1.578,0,1,1,32.1,20.083,1.572,1.572,0,0,1,30.519,18.5Zm-10.174,0a1.579,1.579,0,1,1,1.58,1.578A1.573,1.573,0,0,1,20.345,18.5Zm-10.173,0a1.579,1.579,0,1,1,1.578,1.578A1.572,1.572,0,0,1,10.173,18.5Zm40.6-9.647a1.579,1.579,0,1,1,1.58,1.578A1.573,1.573,0,0,1,50.776,8.857Zm-10.173,0a1.579,1.579,0,1,1,1.58,1.578A1.573,1.573,0,0,1,40.6,8.857Zm-10.084,0A1.578,1.578,0,1,1,32.1,10.435,1.572,1.572,0,0,1,30.519,8.857Zm-10.174,0a1.579,1.579,0,1,1,1.58,1.578A1.573,1.573,0,0,1,20.345,8.857Zm-10.173,0a1.579,1.579,0,1,1,1.578,1.578A1.572,1.572,0,0,1,10.173,8.857ZM0,8.857a1.579,1.579,0,1,1,1.578,1.578A1.572,1.572,0,0,1,0,8.857ZM50.939,0h2.833a1.572,1.572,0,0,1-1.415.876A1.573,1.573,0,0,1,50.939,0ZM40.766,0H43.6a1.572,1.572,0,0,1-1.415.876A1.573,1.573,0,0,1,40.766,0ZM30.682,0h2.831A1.572,1.572,0,0,1,32.1.876,1.572,1.572,0,0,1,30.682,0ZM20.439,0h2.9a1.572,1.572,0,0,1-1.415.876A1.71,1.71,0,0,1,20.439,0Zm-10.1,0h2.833A1.573,1.573,0,0,1,11.75.876,1.572,1.572,0,0,1,10.335,0ZM.162,0H3A1.573,1.573,0,0,1,1.578.876,1.572,1.572,0,0,1,.162,0Z" transform="translate(602.421 0.001)" fill="#383738"/>
      </g>
      <path id="Intersection_18" data-name="Intersection 18" d="M0,92.17a2.368,2.368,0,1,1,2.368,2.368A2.358,2.358,0,0,1,0,92.17Zm14.12-15a2.368,2.368,0,1,1,2.368,2.368A2.357,2.357,0,0,1,14.12,77.174ZM0,77.174a2.368,2.368,0,1,1,2.368,2.368A2.358,2.358,0,0,1,0,77.174ZM28.238,62.266a2.368,2.368,0,1,1,2.368,2.368A2.368,2.368,0,0,1,28.238,62.266ZM0,62.266a2.368,2.368,0,1,1,2.368,2.368A2.368,2.368,0,0,1,0,62.266Zm14.12-.088a2.368,2.368,0,1,1,2.368,2.367A2.357,2.357,0,0,1,14.12,62.178Zm28.326-14.91a2.368,2.368,0,0,1,4.735,0,2.478,2.478,0,0,1-2.368,2.37A2.359,2.359,0,0,1,42.446,47.268Zm-14.208,0a2.368,2.368,0,1,1,2.368,2.37A2.358,2.358,0,0,1,28.238,47.268Zm-14.118,0a2.368,2.368,0,1,1,2.368,2.37A2.357,2.357,0,0,1,14.12,47.268ZM0,47.268a2.368,2.368,0,1,1,2.368,2.37A2.358,2.358,0,0,1,0,47.268Zm56.566-15a2.368,2.368,0,1,1,2.368,2.368A2.368,2.368,0,0,1,56.566,32.271Zm-14.12,0a2.368,2.368,0,0,1,4.735,0,2.476,2.476,0,0,1-2.368,2.368A2.357,2.357,0,0,1,42.446,32.271Zm-14.208,0a2.368,2.368,0,1,1,2.368,2.368A2.368,2.368,0,0,1,28.238,32.271Zm-14.118,0a2.368,2.368,0,1,1,2.368,2.368A2.357,2.357,0,0,1,14.12,32.271ZM0,32.271a2.368,2.368,0,1,1,2.368,2.368A2.368,2.368,0,0,1,0,32.271ZM56.566,17.363a2.368,2.368,0,1,1,2.368,2.368A2.367,2.367,0,0,1,56.566,17.363Zm-28.328,0a2.368,2.368,0,1,1,2.368,2.368A2.368,2.368,0,0,1,28.238,17.363ZM0,17.363a2.368,2.368,0,1,1,2.368,2.368A2.367,2.367,0,0,1,0,17.363Zm70.684-.088a2.368,2.368,0,0,1,4.735,0,2.476,2.476,0,0,1-2.368,2.368A2.358,2.358,0,0,1,70.684,17.275Zm-28.238,0a2.368,2.368,0,0,1,4.735,0,2.478,2.478,0,0,1-2.368,2.368A2.358,2.358,0,0,1,42.446,17.275Zm-28.326,0a2.368,2.368,0,1,1,2.368,2.368A2.357,2.357,0,0,1,14.12,17.275ZM84.8,2.367a2.368,2.368,0,0,1,4.735,0,2.416,2.416,0,0,1-2.368,2.368A2.358,2.358,0,0,1,84.8,2.367Zm-14.12,0a2.368,2.368,0,0,1,4.735,0,2.476,2.476,0,0,1-2.368,2.368A2.358,2.358,0,0,1,70.684,2.367Zm-14.118,0a2.368,2.368,0,0,1,4.735,0,2.478,2.478,0,0,1-2.368,2.368A2.357,2.357,0,0,1,56.566,2.367Zm-14.12,0a2.368,2.368,0,0,1,4.735,0,2.478,2.478,0,0,1-2.368,2.368A2.358,2.358,0,0,1,42.446,2.367Zm-14.208,0a2.368,2.368,0,1,1,2.368,2.368A2.358,2.358,0,0,1,28.238,2.367Zm-14.118,0a2.368,2.368,0,1,1,2.368,2.368A2.357,2.357,0,0,1,14.12,2.367ZM0,2.367A2.368,2.368,0,1,1,2.368,4.735,2.358,2.358,0,0,1,0,2.367Z" transform="translate(213.39 9.56)" fill="none" stroke="#101011" stroke-linecap="round" stroke-linejoin="round" stroke-miterlimit="10" stroke-width="0.5"/>
    </g>
  </g>
</svg>
