<svg id="reward-stars-illus" xmlns="http://www.w3.org/2000/svg" width="334" height="76" viewBox="0 0 334 76">
  <path id="Path_3130" data-name="Path 3130" d="M1441.5-5250.5v-59.9a6.02,6.02,0,0,1,5.517-3.6h322.966a6.021,6.021,0,0,1,5.516,3.6v59.9Z" transform="translate(-1441.499 5314)" fill="#fff5b9"/>
  <g id="Group_1437" data-name="Group 1437" transform="translate(-275.499 -1365)">
    <path id="Path_3136" data-name="Path 3136" d="M6845.2-6142.169v-59.9a6.018,6.018,0,0,1,5.517-3.6h31.8c12.5,16.3,36.138,31.644,80.841,31.048,51.343-.686,82.544,16.582,100.322,32.453Z" transform="translate(-6569.703 7570.669)" fill="#ffeb9b"/>
  </g>
  <g id="Group_1438" data-name="Group 1438" transform="translate(223.001 7)">
    <path id="Path_3133" data-name="Path 3133" d="M6,60.5a6,6,0,0,1-6-5.9V-2.468c.591-.17,1.18-.348,1.764-.533h93.1C79.5,25.592,56.665,48.02,29.206,60.5Z" transform="translate(110.709 53.5) rotate(180)" fill="#ffeb9b"/>
  </g>
  <g id="trophy-cup-silhouette" transform="translate(110.501 -6.846)">
    <path id="Path_3129" data-name="Path 3129" d="M9.514,13.45H0V0H9.514V13.449Z" transform="translate(55.366 63.258)" fill="#fff"/>
    <path id="Path_3128" data-name="Path 3128" d="M1150.964-6604.791h-11.682v-10.128c-4.747-1.764-9.074-5.318-12.862-10.563-1.226.11-2.165.159-3.044.159a24.018,24.018,0,0,1-16.571-6.012c-10.682-9.586-10.8-27.089-10.8-27.829v-2.49h98.249v2.488c0,.74-.123,18.24-10.807,27.827a24.029,24.029,0,0,1-16.567,6.016c-.873,0-1.814-.048-3.05-.154-3.786,5.243-8.113,8.8-12.862,10.563v10.123Zm23.422-51.121h0a64.206,64.206,0,0,1-4.905,20.5c-.5,1.109-1.052,2.236-1.738,3.547a17.608,17.608,0,0,0,11.41-4.32c2.607-2.332,7.17-8,8.443-19.73Zm-71.732,0c.546,5.036,2.369,14.3,8.441,19.73a17.651,17.651,0,0,0,11.414,4.32c-.7-1.341-1.251-2.468-1.738-3.547a64.34,64.34,0,0,1-4.907-20.5Z" transform="translate(-1085 6675)" fill="#ffce00"/>
    <rect id="Rectangle_17259" data-name="Rectangle 17259" width="23" height="6" transform="translate(49 76.846)" fill="#daafff"/>
    <rect id="Rectangle_17360" data-name="Rectangle 17360" width="12" height="7" transform="translate(54 69.846)" fill="#ffeb9b"/>
  </g>
  <g id="Group_1440" data-name="Group 1440" transform="translate(-104.499 -332)">
    <path id="gold" d="M18.945,7.364a1.343,1.343,0,0,0-1.175-.835l-4.916-.714-2.2-4.455A1.343,1.343,0,0,0,9.5.5a1.343,1.343,0,0,0-1.157.86l-2.2,4.455-4.916.714A1.343,1.343,0,0,0,.05,7.364,1.343,1.343,0,0,0,.511,8.73L4.068,12.2l-.84,4.9A1.415,1.415,0,0,0,3.476,18.3a1.064,1.064,0,0,0,.831.372,1.714,1.714,0,0,0,.793-.218l4.4-2.312,4.4,2.312a1.716,1.716,0,0,0,.793.218h0a1.064,1.064,0,0,0,.831-.372,1.414,1.414,0,0,0,.248-1.206l-.84-4.9L18.484,8.73A1.343,1.343,0,0,0,18.945,7.364Z" transform="translate(265.919 350.5)" fill="#fff"/>
    <path id="gold-2" data-name="gold" d="M11.136,4.535a.79.79,0,0,0-.691-.491l-2.89-.42L6.263,1.006A.789.789,0,0,0,5.583.5a.79.79,0,0,0-.68.506L3.611,3.624l-2.89.42a.79.79,0,0,0-.691.491.79.79,0,0,0,.271.8L2.392,7.376,1.9,10.254a.832.832,0,0,0,.146.709.626.626,0,0,0,.488.219A1.007,1.007,0,0,0,3,11.054L5.583,9.695l2.585,1.359a1.009,1.009,0,0,0,.466.128h0a.626.626,0,0,0,.488-.219.831.831,0,0,0,.146-.709L8.775,7.376l2.091-2.038A.79.79,0,0,0,11.136,4.535Z" transform="translate(324.919 352.177)" fill="#ffdf5a"/>
    <path id="gold-3" data-name="gold" d="M9.762,4.037a.692.692,0,0,0-.606-.43L6.623,3.239,5.49.943A.692.692,0,0,0,4.894.5a.692.692,0,0,0-.6.443l-1.133,2.3L.632,3.607a.692.692,0,0,0-.606.43.692.692,0,0,0,.237.7L2.1,6.528,1.664,9.051a.729.729,0,0,0,.128.621.548.548,0,0,0,.428.192.883.883,0,0,0,.409-.112L4.894,8.561,7.16,9.752a.884.884,0,0,0,.409.112h0A.548.548,0,0,0,8,9.672a.729.729,0,0,0,.128-.621L7.692,6.528,9.525,4.741A.692.692,0,0,0,9.762,4.037Z" transform="translate(213.919 370.495)" fill="#ffce00"/>
    <circle id="Ellipse_249" data-name="Ellipse 249" cx="4.682" cy="4.682" r="4.682" transform="translate(415.853 349.995)" fill="#ffdf5a"/>
    <circle id="Ellipse_252" data-name="Ellipse 252" cx="3.682" cy="3.682" r="3.682" transform="translate(124.853 366.995)" fill="#dfb9ff"/>
    <circle id="Ellipse_250" data-name="Ellipse 250" cx="3.682" cy="3.682" r="3.682" transform="translate(366.853 369.995)" fill="#dfb9ff"/>
    <circle id="Ellipse_3_copy" data-name="Ellipse 3 copy" cx="4.505" cy="4.505" r="4.505" transform="translate(173.061 346.958)" fill="#bce0ff"/>
  </g>
</svg>
