<svg id="screen-voice-illus" xmlns="http://www.w3.org/2000/svg" width="86" height="86" viewBox="0 0 86 86">
  <circle id="Ellipse_380" data-name="Ellipse 380" cx="43" cy="43" r="43" fill="#ffe265"/>
  <rect id="Rectangle_17343" data-name="Rectangle 17343" width="52" height="38" rx="2" transform="translate(17 22)" fill="#fff"/>
  <rect id="Rectangle_17341" data-name="Rectangle 17341" width="21" height="12" rx="1" transform="translate(21 31)" fill="#ffb100"/>
  <path id="Path_3499" data-name="Path 3499" d="M12301,7063a1,1,0,1,1,0-2h19a1,1,0,1,1,0,2Zm0-4a1,1,0,1,1,0-2h19a1,1,0,1,1,0,2Z" transform="translate(-12279 -7010)" fill="#d5dbea"/>
  <rect id="Rectangle_17342" data-name="Rectangle 17342" width="21" height="12" rx="1" transform="translate(44 31)" fill="#fc2"/>
  <circle id="Ellipse_381" data-name="Ellipse 381" cx="10.5" cy="10.5" r="10.5" transform="translate(54 47)" fill="#00b476"/>
  <path id="Path_3264" data-name="Path 3264" d="M-1359.472,2822.291v-1.566a5.037,5.037,0,0,1-4.525-4.452.507.507,0,0,1,.448-.559.513.513,0,0,1,.559.448,4.05,4.05,0,0,0,4.025,3.6,4.05,4.05,0,0,0,4.025-3.6.511.511,0,0,1,.558-.448.507.507,0,0,1,.448.559,5.035,5.035,0,0,1-4.525,4.453v1.566a.506.506,0,0,1-.506.506A.506.506,0,0,1-1359.472,2822.291Zm-2.015-7.5v-2.984a2.68,2.68,0,0,1,2.526-2.81,2.68,2.68,0,0,1,2.526,2.81v2.984a2.617,2.617,0,0,1-2.526,2.738A2.616,2.616,0,0,1-1361.487,2814.794Z" transform="translate(1423.43 -2756.801)" fill="#a1f4b1" stroke="#a1f4b1" stroke-width="0.4"/>
</svg>
