<svg id="screen-camera-illus" xmlns="http://www.w3.org/2000/svg" width="86" height="86" viewBox="0 0 86 86">
  <circle id="Ellipse_383" data-name="Ellipse 383" cx="43" cy="43" r="43" fill="#a0daff"/>
  <rect id="Rectangle_17024" data-name="Rectangle 17024" width="48" height="33" rx="2" transform="translate(18 26)" fill="#fff"/>
  <rect id="Rectangle_17343" data-name="Rectangle 17343" width="52" height="38" rx="2" transform="translate(17 22)" fill="#fff"/>
  <rect id="Rectangle_17341" data-name="Rectangle 17341" width="21" height="12" rx="1" transform="translate(21 31)" fill="#a0c8ff"/>
  <path id="Path_3498" data-name="Path 3498" d="M12453,7063a1,1,0,1,1,0-2h19a1,1,0,1,1,0,2Zm0-4a1,1,0,1,1,0-2h19a1,1,0,1,1,0,2Z" transform="translate(-12431 -7010)" fill="#d5dbea"/>
  <rect id="Rectangle_17342" data-name="Rectangle 17342" width="21" height="12" rx="1" transform="translate(44 31)" fill="#a0c8ff"/>
  <g id="Ellipse_381" data-name="Ellipse 381" transform="translate(55 48)" fill="#ffb100" stroke="#ffb100" stroke-width="2">
    <circle cx="9.5" cy="9.5" r="9.5" stroke="none"/>
    <circle cx="9.5" cy="9.5" r="10.5" fill="none"/>
  </g>
  <path id="Path_3260" data-name="Path 3260" d="M-392.573,3241.4a7.256,7.256,0,0,1,6.544-3.748,7.238,7.238,0,0,1,6.588,3.839,9.558,9.558,0,0,1-6.517,2.554A9.559,9.559,0,0,1-392.573,3241.4Zm3.031-8.994a3.486,3.486,0,0,1,3.486-3.486,3.486,3.486,0,0,1,3.486,3.486,3.486,3.486,0,0,1-3.486,3.487A3.486,3.486,0,0,1-389.542,3232.41Z" transform="translate(450.367 -3177.049)" fill="#ffe781"/>
</svg>
