<svg xmlns="http://www.w3.org/2000/svg" width="19.866" height="19.866" viewBox="0 0 19.866 19.866">
  <g id="selected" transform="translate(1.6 1.6)" fill="#60acf8">
    <path d="M 8.333168983459473 17.46633911132812 C 3.297118902206421 17.46633911132812 -0.8000010251998901 13.36921882629395 -0.8000010251998901 8.333168983459473 C -0.8000010251998901 3.297118902206421 3.297118902206421 -0.8000010251998901 8.333168983459473 -0.8000010251998901 C 13.36921882629395 -0.8000010251998901 17.46633911132812 3.297118902206421 17.46633911132812 8.333168983459473 C 17.46633911132812 13.36921882629395 13.36921882629395 17.46633911132812 8.333168983459473 17.46633911132812 Z M 5.082305908203125 9.069665908813477 L 7.291534423828125 11.27889442443848 L 11.58403301239014 6.986403465270996 L 11.24245452880859 6.644824504852295 L 7.857219219207764 10.03006935119629 L 7.291529178619385 10.59575939178467 L 6.725839138031006 10.03006935119629 L 5.423875331878662 8.72809886932373 L 5.082305908203125 9.069665908813477 Z" stroke="none"/>
    <path d="M 8.333168983459473 -1.9073486328125e-06 C 3.738319396972656 -1.9073486328125e-06 -1.9073486328125e-06 3.738319396972656 -1.9073486328125e-06 8.333168983459473 C -1.9073486328125e-06 12.92801856994629 3.738319396972656 16.66633987426758 8.333168983459473 16.66633987426758 C 12.92801856994629 16.66633987426758 16.66633987426758 12.92801856994629 16.66633987426758 8.333168983459473 C 16.66633987426758 3.738319396972656 12.92798900604248 -1.9073486328125e-06 8.333168983459473 -1.9073486328125e-06 M 7.291528701782227 12.41026878356934 L 3.950928688049316 9.069668769836426 L 5.42387866973877 7.596729278564453 L 7.291528701782227 9.464388847351074 L 11.24245834350586 5.513448715209961 L 12.71540927886963 6.986398696899414 L 7.291528701782227 12.41026878356934 M 8.333168983459473 -1.600000381469727 C 13.81033897399902 -1.600000381469727 18.26633834838867 2.855998992919922 18.26633834838867 8.333168983459473 C 18.26633834838867 13.81033897399902 13.81033897399902 18.26633834838867 8.333168983459473 18.26633834838867 C 2.855998992919922 18.26633834838867 -1.600000381469727 13.81033897399902 -1.600000381469727 8.333168983459473 C -1.600000381469727 2.855998992919922 2.855998992919922 -1.600000381469727 8.333168983459473 -1.600000381469727 Z" stroke="none" fill="#fff"/>
  </g>
</svg>
