<svg
      xmlns="http://www.w3.org/2000/svg"
      width="113.483"
      height="95.074"
      viewBox="0 0 113.483 95.074"
    >
      <defs>
        <linearGradient
          id="linear-gradient"
          x1="0.5"
          x2="0.5"
          y2="1"
          gradientUnits="objectBoundingBox"
        >
          <stop offset="0" stopColor="#fff"></stop>
          <stop offset="1" stopColor="#fff"></stop>
        </linearGradient>
      </defs>
      <g transform="rotate(-13 603.422 3080.286)">
        <path
          fill="#ffdf5a"
          d="M788.22 34.912c0-3.174-6.165-53.114-6.165-53.114s2.052-10.205 15.794-11.283 15.911-2.022 17.422-4.487 9.271 52.96 9.271 52.96-5.468 4.541-12.228 3.964a25.219 25.219 0 00-22.738 11.585c-.456.683-.87.409-1.356.375z"
          data-name="Path 3287"
          transform="translate(-20.722 -.707)"
        ></path>
        <path
          fill="#50a7f0"
          d="M42.836 63.209C42.835 60.034 49 10.095 49 10.095S47.34 1.773 33.6.7 4.924.1.19.144c-.8 3.916 1.189 53.408 1.189 53.408s11.789 2.54 18.549 1.963c11.48-.486 15.817 7.313 21.827 8.1.457.685.594-.372 1.081-.406z"
          data-name="Path 3291"
          transform="rotate(-14 285.233 -2900.934)"
        ></path>
        <g
          fill="url(#linear-gradient)"
          strokeLinecap="round"
          strokeLinejoin="round"
          data-name="Path 3292"
          transform="rotate(-14 249.472 -2932.598)"
        >
          <path fill="#fff" d="M33.474 71.502c-.456 0-.827-.222-1.132-.68-3.117-4.671-5.777-7.755-8.373-9.706-2.712-2.039-5.53-2.988-8.869-2.988-.606 0-1.244.032-1.895.095a20.945 20.945 0 01-10.397-1.63C.84 55.73-.262 54.873-.308 54.837l-.213-.166.023-.269C-.326 52.34 3.728 3.8 4.526-.1l.135-.662.593.323c.384.209.768.439 1.175.683 1.314.789 2.95 1.77 5.7 2.656 3.25 1.047 7.381 1.756 12.629 2.167 3.209.252 6.047 1.07 8.437 2.431a15.668 15.668 0 014.859 4.293c2.219 2.989 2.699 5.815 2.718 5.934l.011.07-.008.071c-.062.5-6.163 49.945-6.162 53.053v.466l-.464.033c-.075.005-.156.02-.242.035-.13.023-.276.049-.433.049z"></path>
          <path
            fill="#fff"
            d="M33.474 71.002c.205 0 .414-.067.64-.083-.002-3.174 6.164-53.114 6.164-53.114s-1.816-11.162-15.56-12.24C10.977 4.49 7.892 1.566 5.016 0 4.215 3.916 0 54.445 0 54.445s5.167 4.052 13.156 3.28c7.99-.771 13.06 3.013 19.601 12.82.246.366.479.457.717.457m0 1c-.627 0-1.148-.303-1.548-.901-3.084-4.624-5.708-7.67-8.258-9.586-2.62-1.97-5.343-2.887-8.568-2.887-.59 0-1.212.031-1.847.092-.703.068-1.415.103-2.115.103-7.093 0-11.568-3.445-11.755-3.591a1 1 0 01-.38-.87C-.824 52.296 3.233 3.728 4.036-.2a1 1 0 011.457-.678c.393.213.782.446 1.193.693 1.36.816 2.9 1.741 5.596 2.61 3.213 1.034 7.306 1.736 12.515 2.144 3.283.257 6.191 1.097 8.646 2.495a16.164 16.164 0 015.012 4.43c2.29 3.084 2.79 6.027 2.81 6.15a1 1 0 01.006.284c-2.13 17.252-6.159 50.529-6.158 52.99a1 1 0 01-.93.999c-.047.003-.116.015-.189.028-.142.025-.318.057-.52.057z"
          ></path>
        </g>
        <g
          fill="none"
          stroke="#fff"
          strokeLinecap="round"
          data-name="Group 1586"
          transform="translate(768.335 -20.324)"
        >
          <path
            strokeWidth="3"
            d="M0 11.501S3.509 5.793 9.484 4.77 20.393 3.143 21.673 0"
            data-name="Path 3288"
          ></path>
          <path
            strokeWidth="3"
            d="M4.268 29.995s3-4.76 8.107-5.613 9.324-1.357 10.418-3.977"
            data-name="Path 3290"
          ></path>
          <path
            strokeWidth="2.999"
            d="M2.843 19.966s1.386-4.306 7.248-5.844 6.802-1.97 9.74-3.595"
            data-name="Path 3289"
          ></path>
        </g>
        <g
          fill="none"
          stroke="#a0daff"
          strokeLinecap="round"
          data-name="Group 1587"
          transform="rotate(-19 325.913 -2185.296)"
        >
          <path
            strokeWidth="3"
            d="M22.793 11.5s-3.509-5.708-9.484-6.73S2.4 3.143 1.12 0"
            data-name="Path 3288"
          ></path>
          <path
            strokeWidth="3"
            d="M18.525 29.995s-3-4.76-8.107-5.613S1.094 23.026 0 20.405"
            data-name="Path 3290"
          ></path>
          <path
            strokeWidth="2.999"
            d="M19.949 19.968s-1.386-4.306-7.248-5.844-6.802-1.972-9.74-3.595"
            data-name="Path 3289"
          ></path>
        </g>
        <path
          fill="#ffe270"
          d="M10 4.124a.709.709 0 00-.621-.441l-2.6-.377L5.626.954A.709.709 0 005.015.5.709.709 0 004.4.954L3.243 3.306l-2.6.377a.709.709 0 00-.621.441.709.709 0 00.243.721l1.883 1.831L1.7 9.262a.747.747 0 00.131.637.562.562 0 00.439.2.9.9 0 00.419-.115l2.326-1.225L7.337 9.98a.906.906 0 00.419.115.562.562 0 00.439-.2.747.747 0 00.131-.637l-.444-2.582 1.878-1.83a.709.709 0 00.24-.722z"
          transform="rotate(13 349.231 3073.55)"
        ></path>
        <path
          fill="#50a7f0"
          d="M7.843 3.341A.556.556 0 007.356 3l-2.035-.3-.91-1.844A.556.556 0 003.932.5a.556.556 0 00-.479.356L2.543 2.7.507 3a.556.556 0 00-.487.346.556.556 0 00.191.566l1.473 1.431-.347 2.027a.586.586 0 00.1.5.441.441 0 00.344.154.71.71 0 00.328-.09l1.82-.957 1.82.957a.71.71 0 00.328.09.441.441 0 00.344-.154.585.585 0 00.1-.5L6.18 5.343l1.472-1.436a.556.556 0 00.191-.566z"
          data-name="gold"
          transform="rotate(13 267.806 3473.25)"
        ></path>
        <path
          fill="#50a7f0"
          d="M7.843 3.341A.556.556 0 007.356 3l-2.035-.3-.91-1.844A.556.556 0 003.932.5a.556.556 0 00-.479.356L2.543 2.7.507 3a.556.556 0 00-.487.346.556.556 0 00.191.566l1.473 1.431-.347 2.027a.586.586 0 00.1.5.441.441 0 00.344.154.71.71 0 00.328-.09l1.82-.957 1.82.957a.71.71 0 00.328.09.441.441 0 00.344-.154.585.585 0 00.1-.5L6.18 5.343l1.472-1.436a.556.556 0 00.191-.566z"
          data-name="gold"
          transform="rotate(13 491.843 3067.57)"
        ></path>
      </g>
    </svg>