<svg xmlns="http://www.w3.org/2000/svg" width="1920" height="233" viewBox="0 0 1920 233">
  <g id="illus" transform="translate(0 0)">
    <rect id="Rectangle_17954" data-name="Rectangle 17954" width="1920" height="233" fill="#00b754"/>
    <path id="Path_5098" data-name="Path 5098" d="M-2144.211,4085.344c39.37-71.055,115.2-131.286,261.244-96.011,289.578,69.944,535.571,67.673,788.046-136.988h587.163c1.079.85,1.9,1.512,2.454,1.96v231.039H-2144.211Z" transform="translate(2425.304 -3852.343)" fill="#8ce33a"/>
    <path id="Path_5099" data-name="Path 5099" d="M-1469.225,4022.775a8.947,8.947,0,0,1-8.544-6.626l-8.37-33.652a112.345,112.345,0,0,1-17.785-7.323l-29.641,17.785a8.674,8.674,0,0,1-10.637-1.222l-24.76-24.758a8.677,8.677,0,0,1-1.22-10.637l17.785-29.644a112.171,112.171,0,0,1-7.323-17.784l-33.654-8.545A8.592,8.592,0,0,1-1600,3892v-27.932h105.894a43.644,43.644,0,0,0-1.274,10.5,43.608,43.608,0,0,0,43.593,43.592,43.608,43.608,0,0,0,43.59-43.592,43.62,43.62,0,0,0-1.274-10.5h107.056V3892a8.59,8.59,0,0,1-6.625,8.37l-34.815,8.545a112.25,112.25,0,0,1-7.324,17.784l17.785,29.644a8.674,8.674,0,0,1-1.22,10.637l-24.76,24.758a8.674,8.674,0,0,1-10.637,1.222l-29.642-17.785a112.342,112.342,0,0,1-17.785,7.323l-8.37,33.652a8.947,8.947,0,0,1-8.544,6.626Z" transform="translate(2905 -3864.069)" fill="#fff"/>
    <path id="Path_5114" data-name="Path 5114" d="M-2296,3975.515v-139.4l49.985-8.793a13.486,13.486,0,0,1,14.412,7.581l21.532,49.362a169.36,169.36,0,0,1,28.309,6.2l39.333-34.072a13.1,13.1,0,0,1,16.1-.973l43.223,30.2a13.02,13.02,0,0,1,4.594,15.429l-18.637,48.535A168.5,168.5,0,0,1-2081.624,3974l22.866,1.51Z" transform="translate(2296 -3742.515)" fill="#ffd719"/>
    <g id="Group_2149" data-name="Group 2149" transform="translate(1696.181 33.108)">
      <path id="Path_5111" data-name="Path 5111" d="M-2236.764,3994.944l-.407-.164c-1.261-.511-4.6-1.862-12.6-5.094-4.1-1.651-12.662-5.113-15.108-6.1a110.542,110.542,0,0,0,2.3-22.276c-.019-29.87-12.677-50.334-12.64-76.916a85.934,85.934,0,0,1,4.1-25.852,74.323,74.323,0,0,1,3.242-9.952,74.562,74.562,0,0,1,97.062-41.2q1.4.562,2.718,1.166c.91.321,1.834.674,2.767,1.049a74.6,74.6,0,0,1,46.656,69.1,74.314,74.314,0,0,1-5.447,27.966,76.56,76.56,0,0,1-4.588,9.413c-22.708,45.24-62.016,39.551-91.354,85.611C-2222.916,4000.541-2233.986,3996.064-2236.764,3994.944Z" transform="translate(2275.226 -3801.938)" fill="#ffd719"/>
      <path id="Path_5108" data-name="Path 5108" d="M37.421,108.037l-3.8-.682-.233-.042-7.241-1.3-8.672-1.558C17.277,74.063-2.363,65.195.237,37.141c.068-1.917-.336-.272,0-2.213C4.145,12.358,22.407-3.331,44.33.606q.8.145,1.568.318c.521.07,1.048.151,1.583.248C69.4,5.108,79.972,24.008,74.665,47.962A81.653,81.653,0,0,1,70.13,61.129c-6.756,9.709-14.552,18.751-19.721,32.157a106.492,106.492,0,0,0-6.82,14.751Zm-3.644-.655h0ZM74.665,47.962c.285-.9.206-.438.093.028a2.575,2.575,0,0,1-.164.544A2.1,2.1,0,0,1,74.665,47.962Z" transform="translate(56.692 52.167) rotate(22)" fill="#fff"/>
      <path id="Path_5112" data-name="Path 5112" d="M-2296,3809.17l8.207-19.077,45.434,19.077Z" transform="translate(2298.136 -3609.277)" fill="#fff"/>
    </g>
    <path id="Path_5110" data-name="Path 5110" d="M-2192.664,3824h-60.11a30.63,30.63,0,0,1-.226-3.719,30.1,30.1,0,0,1,2.38-11.787,30.184,30.184,0,0,1,6.49-9.625,30.184,30.184,0,0,1,9.625-6.49,30.109,30.109,0,0,1,11.787-2.38,30.108,30.108,0,0,1,11.787,2.38,30.189,30.189,0,0,1,9.625,6.49,30.175,30.175,0,0,1,6.489,9.625,30.1,30.1,0,0,1,2.38,11.787,30.541,30.541,0,0,1-.226,3.718Z" transform="translate(3462.375 -3591)" fill="#ffd719"/>
    <path id="Path_5113" data-name="Path 5113" d="M-2159.562,3936.251a53.105,53.105,0,0,1-20.8-4.2,53.246,53.246,0,0,1-16.986-11.452,53.249,53.249,0,0,1-11.452-16.986,53.1,53.1,0,0,1-4.2-20.8,53.314,53.314,0,0,1,3.041-17.813h100.792a53.332,53.332,0,0,1,3.04,17.813,53.1,53.1,0,0,1-4.2,20.8,53.254,53.254,0,0,1-11.452,16.986,53.241,53.241,0,0,1-16.985,11.452A53.106,53.106,0,0,1-2159.562,3936.251Z" transform="translate(3613.625 -3865)" fill="#8ce33a"/>
    <g id="Group_2151" data-name="Group 2151" transform="translate(597.115 0)">
      <path id="Path_5106" data-name="Path 5106" d="M-2083.1,4009.355a37.764,37.764,0,0,1-12.423-2.09,37.758,37.758,0,0,1-11.4-6.349c-.353-.287-.67-.551-.968-.809L-2248.8,3886l186.1,0,27.907,0-60.811,75.095a16.31,16.31,0,0,0,2.37,22.917,16.261,16.261,0,0,0,10.2,3.609,16.278,16.278,0,0,0,12.707-6.054l77.391-95.566h27.9l-88.44,109.213A37.981,37.981,0,0,1-2083.1,4009.355Z" transform="translate(2248.797 -3886)" fill="#8ce33a"/>
      <path id="Path_5107" data-name="Path 5107" d="M-2240.819,3972.619h0a16.261,16.261,0,0,1-10.2-3.608,16.309,16.309,0,0,1-2.372-22.915l60.811-75.1h41.854l-77.385,95.567A16.277,16.277,0,0,1-2240.819,3972.619Z" transform="translate(2406.592 -3871)" fill="#fff"/>
      <g id="Path_4709" data-name="Path 4709" transform="translate(200.687 59.885) rotate(-49)" fill="#ffd719" stroke-linejoin="round">
        <path d="M 39.95526123046875 42.61025238037109 L 37.57844924926758 40.89788436889648 L 19.22760772705078 27.67711067199707 L 0.8768206238746643 40.89788436889648 L -1.499999403953552 42.61025238037109 L -1.499999403953552 39.68084335327148 L -1.499999403953552 3.583984380384209e-06 L -1.499999403953552 -1.499996423721313 L 6.152343985377229e-07 -1.499996423721313 L 38.45526123046875 -1.499996423721313 L 39.95526123046875 -1.499996423721313 L 39.95526123046875 3.583984380384209e-06 L 39.95526123046875 39.68084335327148 L 39.95526123046875 42.61025238037109 Z" stroke="none"/>
        <path d="M 38.45526123046875 39.68084335327148 L 38.45526123046875 3.583984380384209e-06 L 6.152343985377229e-07 3.583984380384209e-06 L 6.152343985377229e-07 39.68084335327148 L 19.22760009765625 25.82837295532227 L 38.45526123046875 39.68084335327148 M 38.45556640625 42.68085861206055 C 37.83719635009766 42.68085861206055 37.22214508056641 42.48993301391602 36.70162963867188 42.11493301391602 L 19.22760391235352 29.52585983276367 L 1.753630638122559 42.11493301391602 C 0.8400705456733704 42.77310562133789 -0.3651094436645508 42.86430740356445 -1.367319345474243 42.35113525390625 C -2.369529485702515 41.83795547485352 -2.999999284744263 40.80680465698242 -2.999999284744263 39.68084335327148 L -2.999999284744263 3.583984380384209e-06 C -2.999999284744263 -1.656846404075623 -1.656849384307861 -2.999996423721313 6.152343985377229e-07 -2.999996423721313 L 38.45526123046875 -2.999996423721313 C 40.11211013793945 -2.999996423721313 41.45526123046875 -1.656846404075623 41.45526123046875 3.583984380384209e-06 L 41.45526123046875 39.68084335327148 C 41.45526123046875 40.80680465698242 40.82479095458984 41.83795547485352 39.82258224487305 42.35113525390625 C 39.39139175415039 42.57192230224609 38.92250442504883 42.68085861206055 38.45556640625 42.68085861206055 Z" stroke="none" fill="#ffd719"/>
      </g>
    </g>
    <g id="BALLS" transform="translate(131.824 49.129)">
      <circle id="Ellipse_720" data-name="Ellipse 720" cx="11.924" cy="11.924" r="11.924" transform="translate(1474.277 93.696)" fill="#ffd719"/>
      <circle id="Ellipse_719" data-name="Ellipse 719" cx="11.924" cy="11.924" r="11.924" transform="translate(424.277 120.309)" fill="#00b754"/>
      <circle id="Ellipse_722" data-name="Ellipse 722" cx="11.924" cy="11.924" r="11.924" transform="translate(956.777 117.542)" fill="#00b754"/>
      <circle id="Ellipse_700" data-name="Ellipse 700" cx="10.649" cy="10.649" r="10.649" transform="translate(165 75.164)" fill="#cefa84"/>
      <circle id="Ellipse_724" data-name="Ellipse 724" cx="10.649" cy="10.649" r="10.649" fill="#cefa84"/>
      <circle id="Ellipse_723" data-name="Ellipse 723" cx="10.649" cy="10.649" r="10.649" transform="translate(300)" fill="#ffd719"/>
      <circle id="Ellipse_721" data-name="Ellipse 721" cx="10.649" cy="10.649" r="10.649" transform="translate(1119.375 53.865)" fill="#cefa84"/>
      <circle id="Ellipse_725" data-name="Ellipse 725" cx="10.649" cy="10.649" r="10.649" transform="translate(841.875 10.649)" fill="#cefa84"/>
    </g>
  </g>
</svg>
