<svg id="My_Avatar" data-name="My Avatar" xmlns="http://www.w3.org/2000/svg" width="25" height="25" viewBox="0 0 25 25">
  <circle id="Ellipse_262" data-name="Ellipse 262" cx="12.5" cy="12.5" r="12.5" fill="#d7a0ff"/>
  <path id="Path_3218" data-name="Path 3218" d="M14.387,8a7.026,7.026,0,0,1-7.193,6.845A7.026,7.026,0,0,1,0,8Z" transform="translate(5 6.201)" fill="#6d2cff" stroke="#6d2cff" stroke-linecap="round" stroke-linejoin="round" stroke-width="1"/>
  <path id="Path_3220" data-name="Path 3220" d="M7143.851-5756.265a7.51,7.51,0,0,1,4.852-1.775,7.509,7.509,0,0,1,4.9,1.82,6.389,6.389,0,0,1-4.859,2.375A6.4,6.4,0,0,1,7143.851-5756.265Z" transform="translate(-7137.004 5774.969)" fill="#fff"/>
  <circle id="Ellipse_263" data-name="Ellipse 263" cx="2" cy="2" r="2" transform="translate(5 7.139)" fill="#6d2cff"/>
  <circle id="Ellipse_264" data-name="Ellipse 264" cx="2" cy="2" r="2" transform="translate(15.652 7.139)" fill="#6d2cff"/>
</svg>
