<svg id="illus" xmlns="http://www.w3.org/2000/svg" xmlns:xlink="http://www.w3.org/1999/xlink" width="95.999" height="87.999" viewBox="0 0 95.999 87.999">
  <defs>
    <linearGradient id="linear-gradient" x1="0.5" y1="1" x2="0.5" gradientUnits="objectBoundingBox">
      <stop offset="0" stop-color="#9cffac"/>
      <stop offset="1" stop-color="#00b59c"/>
    </linearGradient>
  </defs>
  <path id="Path_3488" data-name="Path 3488" d="M16123.2,7844a53,53,0,1,1,82.8-65.989V7836a8,8,0,0,1-8,8Z" transform="translate(-16110.002 -7756.001)" fill="#deffe8"/>
  <path id="Path_3444" data-name="Path 3444" d="M154.917,152.338l-9.349-6.237a5.524,5.524,0,0,0-6.953.689l-2.461,2.461a17.008,17.008,0,0,1-12.987-13l2.458-2.46a5.531,5.531,0,0,0,.689-6.958l-6.235-9.356a5.508,5.508,0,0,0-8.481-.84l-3.9,3.9a9.1,9.1,0,0,0-2.684,6.962c.294,5,2.454,15.056,13.647,26.253S139.9,167.116,144.9,167.41a9.106,9.106,0,0,0,6.96-2.687l3.9-3.9a5.515,5.515,0,0,0-.843-8.485Z" transform="translate(-88.026 180.725) rotate(-91)" opacity="0.568" fill="url(#linear-gradient)"/>
  <path id="Path_3486" data-name="Path 3486" d="M154.917,152.338l-9.349-6.237a5.524,5.524,0,0,0-6.953.689l-2.461,2.461a17.008,17.008,0,0,1-12.987-13l2.458-2.46a5.531,5.531,0,0,0,.689-6.958l-6.235-9.356a5.508,5.508,0,0,0-8.481-.84l-3.9,3.9a9.1,9.1,0,0,0-2.684,6.962c.294,5,2.454,15.056,13.647,26.253S139.9,167.116,144.9,167.41a9.106,9.106,0,0,0,6.96-2.687l3.9-3.9a5.515,5.515,0,0,0-.843-8.485Z" transform="translate(-88.026 180.725) rotate(-91)" fill="#89ed98" opacity="0.612"/>
</svg>
