<svg xmlns="http://www.w3.org/2000/svg" width="33.333" height="25" viewBox="0 0 33.333 25">
  <path id="Icon_awesome-chart-bar" data-name="Icon awesome-chart-bar" d="M21.667,21.167h2.5A.9.9,0,0,0,25,20.333v-8.75a.9.9,0,0,0-.833-.833h-2.5a.9.9,0,0,0-.833.833v8.75A.9.9,0,0,0,21.667,21.167Zm6.25,0h2.5a.9.9,0,0,0,.833-.833v-15a.9.9,0,0,0-.833-.833h-2.5a.9.9,0,0,0-.833.833v15a.9.9,0,0,0,.833.833Zm-18.75,0h2.5a.9.9,0,0,0,.833-.833V15.75a.9.9,0,0,0-.833-.833h-2.5a.9.9,0,0,0-.833.833v4.583a.9.9,0,0,0,.833.833Zm6.25,0h2.5a.9.9,0,0,0,.833-.833V7.417a.9.9,0,0,0-.833-.833h-2.5a.9.9,0,0,0-.833.833V20.333A.9.9,0,0,0,15.417,21.167Zm16.875,4.167H4.167V5.542A1.041,1.041,0,0,0,3.125,4.5H1.042A1.041,1.041,0,0,0,0,5.542V27.417A2.084,2.084,0,0,0,2.083,29.5H32.292a1.041,1.041,0,0,0,1.042-1.042V26.375A1.041,1.041,0,0,0,32.292,25.333Z" transform="translate(0 -4.5)" fill="#fff"/>
</svg>
