<svg xmlns="http://www.w3.org/2000/svg" width="50" height="47.268" viewBox="0 0 50 47.268">
  <g id="Dashboard" transform="translate(0)">
    <path id="Path_3163" data-name="Path 3163" d="M9716.814-7286.449h-30.25a7.572,7.572,0,0,1-7.564-7.56v-30.254a7.572,7.572,0,0,1,7.564-7.561h17.014v15.125a7.57,7.57,0,0,0,7.564,7.56h13.236v15.13A7.572,7.572,0,0,1,9716.814-7286.449Z" transform="translate(-9679 7333.717)" fill="#5093ff"/>
    <rect id="Rectangle_17273" data-name="Rectangle 17273" width="21" height="21" rx="3" transform="translate(28 0)" fill="#7bd1ff"/>
    <path id="Path_3146" data-name="Path 3146" d="M9675.292-7316.394a2.089,2.089,0,0,1-2.184-1.985v-19.173a2.09,2.09,0,0,1,2.184-1.983h.771a2.087,2.087,0,0,1,2.178,1.983v19.173a2.086,2.086,0,0,1-2.178,1.985Zm10.3-.086a2.1,2.1,0,0,1-2.186-1.989v-8.479a2.1,2.1,0,0,1,2.186-1.993h.77a2.093,2.093,0,0,1,2.184,1.993v8.479a2.092,2.092,0,0,1-2.184,1.989Z" transform="translate(-9664.406 7355.457)" fill="#fff"/>
  </g>
</svg>
