<svg id="FAQ" xmlns="http://www.w3.org/2000/svg" width="46.534" height="46.534" viewBox="0 0 46.534 46.534">
  <path id="Path_3142" data-name="Path 3142" d="M23.267,0A23.254,23.254,0,0,0,0,23.267V44.716a1.818,1.818,0,0,0,1.818,1.818H23.267A23.267,23.267,0,0,0,23.267,0Z" fill="#9ca3b9"/>
  <path id="Path_3139" data-name="Path 3139" d="M224.219,343.22a2.585,2.585,0,0,0,0,5.17,2.585,2.585,0,0,0,0-5.17Z" transform="translate(-201.66 -312.243)" fill="#fff"/>
  <path id="Path_3140" data-name="Path 3140" d="M190.636,140c-4.532,0-6.614,2.686-6.614,4.5a1.925,1.925,0,0,0,2.014,1.914c1.813,0,1.074-2.585,4.5-2.585,1.679,0,3.022.739,3.022,2.283,0,1.813-1.88,2.854-2.988,3.794a6.146,6.146,0,0,0-2.249,5.1c0,1.746.47,2.25,1.847,2.25,1.645,0,1.981-.739,1.981-1.377,0-1.746.034-2.753,1.88-4.2.906-.705,3.76-2.988,3.76-6.144S194.933,140,190.636,140Z" transform="translate(-167.684 -127.687)" fill="#fff"/>
</svg>
