<svg id="illus" xmlns="http://www.w3.org/2000/svg" xmlns:xlink="http://www.w3.org/1999/xlink" width="99.427" height="91.141" viewBox="0 0 99.427 91.141">
  <defs>
    <linearGradient id="linear-gradient" x1="0.5" y1="1" x2="0.5" gradientUnits="objectBoundingBox">
      <stop offset="0" stop-color="#fe9"/>
      <stop offset="0.99" stop-color="#fffae5"/>
      <stop offset="1" stop-color="#f0fff4"/>
    </linearGradient>
    <linearGradient id="linear-gradient-2" x1="0.5" y1="1.117" x2="0.522" y2="0.341" gradientUnits="objectBoundingBox">
      <stop offset="0" stop-color="#ffe781"/>
      <stop offset="1" stop-color="#ffce00"/>
    </linearGradient>
    <linearGradient id="linear-gradient-3" x1="0.5" y1="1.117" x2="0.522" y2="0.341" gradientUnits="objectBoundingBox">
      <stop offset="0" stop-color="#ffd10f"/>
      <stop offset="1" stop-color="#ffce00"/>
    </linearGradient>
  </defs>
  <path id="Path_3448" data-name="Path 3448" d="M16123.2,7844a53,53,0,1,1,82.8-65.989V7836a8,8,0,0,1-8,8Z" transform="translate(-16106.574 -7752.859)" fill="url(#linear-gradient)"/>
  <path id="Path_3487" data-name="Path 3487" d="M16123.672,7847.142a54.894,54.894,0,1,1,85.756-68.345v60.058a8.287,8.287,0,0,1-8.285,8.287Z" transform="translate(-16110.002 -7756.001)" fill="#fff2b4"/>
  <path id="Path_3485" data-name="Path 3485" d="M66.366,35.114c-.316-.158-8.552-4.151-16.815-4.151-5.416,0-12.222,2.048-15.345,3.274l-.469,13.014.469-13.014c-3.123-1.226-10.866-3.274-16.283-3.274-8.263,0-16.5,3.993-16.815,4.151A2.023,2.023,0,0,0,0,36.893v51.4a1.941,1.941,0,0,0,.949,1.66,1.917,1.917,0,0,0,1.9.119c.079-.04,7.762-3.756,15.076-3.756A36.988,36.988,0,0,1,31.76,89.593L33.31,71.025,31.76,89.593c2.372-1.067,12.137-3.281,17.791-3.281,7.314,0,15,3.716,15.076,3.756a1.9,1.9,0,0,0,1.9-.119,1.941,1.941,0,0,0,.949-1.66v-51.4a2.023,2.023,0,0,0-1.107-1.779Z" transform="translate(33.655 -12.892) rotate(13)" fill="#ffde6e"/>
  <path id="Path_3492" data-name="Path 3492" d="M66.366,35.114c-.316-.158-8.552-4.151-16.815-4.151-5.416,0-12.222,2.048-15.345,3.274l-.469,13.014.469-13.014c-3.123-1.226-10.866-3.274-16.283-3.274-8.263,0-16.5,3.993-16.815,4.151A2.023,2.023,0,0,0,0,36.893v51.4a1.941,1.941,0,0,0,.949,1.66,1.917,1.917,0,0,0,1.9.119c.079-.04,7.762-3.756,15.076-3.756A36.988,36.988,0,0,1,31.76,89.593L33.31,71.025,31.76,89.593c2.372-1.067,12.137-3.281,17.791-3.281,7.314,0,15,3.716,15.076,3.756a1.9,1.9,0,0,0,1.9-.119,1.941,1.941,0,0,0,.949-1.66v-51.4a2.023,2.023,0,0,0-1.107-1.779Z" transform="translate(33.655 -12.892) rotate(13)" fill="#ffdb60"/>
  <path id="Path_3456" data-name="Path 3456" d="M15609.489,7721.713c-.079-.04-7.765-3.756-15.078-3.756-5.653,0-15.5,2.576-17.869,3.641l2.055-14.848-.476,3.488.968-34.673.107-10.187a49.207,49.207,0,0,1,15.215-2.769c8.263,0,16.5,3.993,16.817,4.148a2.022,2.022,0,0,1,1.1,1.782v51.393a1.938,1.938,0,0,1-.946,1.661,1.891,1.891,0,0,1-1.023.316A2.2,2.2,0,0,1,15609.489,7721.713Z" transform="translate(-13396.049 -10945.764) rotate(13)" opacity="0.663" fill="url(#linear-gradient-2)"/>
  <path id="Path_3475" data-name="Path 3475" d="M15609.489,7721.713c-.079-.04-7.765-3.756-15.078-3.756-5.653,0-14.991,1.711-17.364,2.775l1.55-13.982-.476,3.488.968-34.673.107-10.187a49.207,49.207,0,0,1,15.215-2.769c8.263,0,16.5,3.993,16.817,4.148a2.022,2.022,0,0,1,1.1,1.782v51.393a1.938,1.938,0,0,1-.946,1.661,1.891,1.891,0,0,1-1.023.316A2.2,2.2,0,0,1,15609.489,7721.713Z" transform="translate(-13396.049 -10945.764) rotate(13)" opacity="0.536" fill="url(#linear-gradient-3)"/>
  <path id="Path_3457" data-name="Path 3457" d="M15591.351,7715.582c-6.109,4.545-6.5,4.987-14.447,6.549l.832-11.448h0l.993-34.712.563-9.458c2.2-3.074,7.931-3.723,12.579-3.723,7.086,0,15.777-7.007,16.051-6.849a2.128,2.128,0,0,1,.947,1.813l-1.969,54.237C15603.7,7712.478,15597.46,7711.037,15591.351,7715.582Z" transform="translate(-13395.868 -10946.536) rotate(13)" fill="#fffbe8"/>
  <path id="Path_3453" data-name="Path 3453" d="M79.275,90.851a31.11,31.11,0,0,0-16.8,0,1.977,1.977,0,0,0,.985,3.83,27.181,27.181,0,0,1,14.829,0,1.977,1.977,0,0,0,.985-3.83Zm0-7.907a31.11,31.11,0,0,0-16.8,0,1.977,1.977,0,0,0,.985,3.83,27.181,27.181,0,0,1,14.829,0,1.977,1.977,0,0,0,.985-3.83Zm20.051-5.416a7.907,7.907,0,1,0-7.907-7.907A7.915,7.915,0,0,0,99.326,77.527Zm-34.38.3H76.806a1.976,1.976,0,0,0,1.977-1.977V63.993a1.976,1.976,0,0,0-1.977-1.977H64.946a1.976,1.976,0,0,0-1.977,1.977v11.86A1.976,1.976,0,0,0,64.946,77.83Z" transform="translate(-13.668 -43.318) rotate(13)" fill="#fff1b5"/>
</svg>
