<svg id="Lesson_Planner" data-name="Lesson Planner" xmlns="http://www.w3.org/2000/svg" width="44.295" height="50.36" viewBox="0 0 44.295 50.36">
  <path id="Path_3138" data-name="Path 3138" d="M6.815,0H27.259C27.533.075,44.3,17.144,44.3,17.365V43.414a6.881,6.881,0,0,1-6.815,6.946H6.815A6.881,6.881,0,0,1,0,43.414V6.946A6.881,6.881,0,0,1,6.815,0Z" fill="#ffc14d"/>
  <path id="Path_3150" data-name="Path 3150" d="M9700.763-7438.812a7.566,7.566,0,0,1-7.564-7.565v-9.449h.6c.248.067,14.49,14.557,16.734,17.015Z" transform="translate(-9666.544 7455.83)" fill="#ea8330"/>
  <path id="Path_3167" data-name="Path 3167" d="M1.891,20.954A1.891,1.891,0,0,1,0,19.063v-.136a1.891,1.891,0,0,1,1.891-1.891H18.708A1.89,1.89,0,0,1,20.6,18.927v.136a1.89,1.89,0,0,1-1.891,1.891Zm0-8.518A1.891,1.891,0,0,1,0,10.545v-.136A1.891,1.891,0,0,1,1.891,8.518H18.708A1.89,1.89,0,0,1,20.6,10.409v.136a1.89,1.89,0,0,1-1.891,1.891Zm0-8.518A1.891,1.891,0,0,1,0,2.027V1.891A1.891,1.891,0,0,1,1.891,0h8.3A1.89,1.89,0,0,1,12.08,1.891v.136a1.89,1.89,0,0,1-1.891,1.891Z" transform="translate(9.011 17.947)" fill="#fff"/>
</svg>
