<svg xmlns="http://www.w3.org/2000/svg" width="26" height="25.99" viewBox="0 0 26 25.99">
  <g id="Group_1708" data-name="Group 1708" transform="translate(22035.264 18496.668)">
    <g id="logout" transform="translate(-22035.264 -18496.668)">
      <g id="Group_1705" data-name="Group 1705" transform="translate(0 0)">
        <path id="Path_3543" data-name="Path 3543" d="M-234.823-244c-.005,1.03-.005,2.061-.01,3.091,0,.127.01.254.01.381v19.045c0,1.066-.015,2.132-.021,3.193,0,.091.01.183.015.279h-.154c-.02-.02-.036-.056-.061-.061l-4.938-1.782c-.912-.33-1.824-.67-2.741-.995-.456-.162-.917-.3-1.378-.457V-240.7a.509.509,0,0,0,.123-.015c.937-.335,1.875-.675,2.812-1.01q2.543-.914,5.082-1.838c.369-.137.733-.289,1.1-.437C-234.925-244-234.874-244-234.823-244Z" transform="translate(244.1 244)" fill="#f37474"/>
      </g>
      <g id="Group_1706" data-name="Group 1706" transform="translate(9.158 3.12)">
        <path id="Path_3544" data-name="Path 3544" d="M-63-183.1v19.7h7.633v-7.607h-4.539V-175.5h4.533v-7.6Z" transform="translate(63 183.1)" fill="#727682"/>
        <path id="Path_3545" data-name="Path 3545" d="M-63-183.1h7.628v7.6h-4.533v4.489h4.539v7.607H-63Z" transform="translate(63 183.1)" fill="#727682"/>
      </g>
      <g id="Group_1707" data-name="Group 1707" transform="translate(12.102 6.797)">
        <path id="Path_3546" data-name="Path 3546" d="M10.7-102.771q-1.183.937-2.372,1.875c-.789.625-1.588,1.245-2.377,1.87-.707.558-1.4,1.127-2.105,1.685-.277.22-.553.43-.866.671v-3.842H-3.2v-4.636H2.957V-109c.318.241.594.451.866.666q.968.761,1.936,1.532c.62.492,1.229.994,1.849,1.486q1.537,1.222,3.084,2.433A.908.908,0,0,1,10.7-102.771Z" transform="translate(3.2 109)" fill="#65bff6"/>
      </g>
    </g>
  </g>
</svg>
