<svg id="My_Calendar" data-name="My Calendar" xmlns="http://www.w3.org/2000/svg" width="49.181" height="46.826" viewBox="0 0 49.181 46.826">
  <path id="Path_3171" data-name="Path 3171" d="M27.5,42.41H8.192A8.134,8.134,0,0,1,0,34.354V8.055A8.076,8.076,0,0,1,6.144.254V5.112a7.17,7.17,0,0,0,14.338,0V0h8.192V5.112a7.17,7.17,0,0,0,14.338,0V.253a8.076,8.076,0,0,1,6.146,7.8V19.394C49.158,23.836,32.016,42.41,27.5,42.41Z" transform="translate(0 4.417)" fill="#ffa3ea"/>
  <path id="Path_3215" data-name="Path 3215" d="M7123.719-5947.428h-5.672V-5972l0,24.45v0c.461-.011.919-.035,1.4-.078l.24-.03a6.821,6.821,0,0,0,.8-.193c2.357-.969,3.548-3.5,5.178-8.466.207-.637.41-1.207.619-1.746a2.764,2.764,0,0,1,.074-.294c1.234-4,5.313-5.61,6.534-6.01a.426.426,0,0,1,.071-.02l.013,0c.247-.093.509-.182.739-.261l.158-.054c5.922-2,7.837-3.322,8.537-5.875.058-.454.1-.933.14-1.424h.066v.169c.012-.239.02-.449.023-.643,0,.239-.006.554-.023.866v5.278A18.927,18.927,0,0,1,7123.719-5947.428Zm-5.669-.121v.058c.312-.021.646-.05,1.053-.1-.345.027-.673.038-1.032.038Z" transform="translate(-7093.468 5994.249)" fill="#e558ff"/>
  <path id="Path_3143" data-name="Path 3143" d="M22.532,10.422V3.192a3.459,3.459,0,0,1,6.9,0v7.23a3.459,3.459,0,0,1-6.9,0ZM0,10.422V3.192A3.328,3.328,0,0,1,3.448,0,3.328,3.328,0,0,1,6.9,3.192v7.23a3.327,3.327,0,0,1-3.45,3.19A3.327,3.327,0,0,1,0,10.422Z" transform="translate(9.936)" fill="#ce2bff"/>
  <path id="Path_3144" data-name="Path 3144" d="M9679.946-7390.141a1.705,1.705,0,0,1-1.705-1.7v-.485a1.7,1.7,0,0,1,1.705-1.7h12.287a1.7,1.7,0,0,1,1.7,1.7v.485a1.706,1.706,0,0,1-1.7,1.7Zm-.244-8.839a1.7,1.7,0,0,1-1.7-1.705v-.484a1.7,1.7,0,0,1,1.7-1.7h22.24a1.7,1.7,0,0,1,1.7,1.7v.484a1.7,1.7,0,0,1-1.7,1.705Z" transform="translate(-9670.357 7426.047)" fill="#fff"/>
</svg>
