<svg id="Pupil_Management" data-name="Pupil Management" xmlns="http://www.w3.org/2000/svg" width="45.672" height="45.649" viewBox="0 0 45.672 45.649">
  <path id="Path_3148" data-name="Path 3148" d="M22.383,44.743A22.382,22.382,0,0,1,6.238,6.858,22.268,22.268,0,0,1,21.41,0V19.552a3.786,3.786,0,0,0,3.781,3.783H44.744A22.382,22.382,0,0,1,22.383,44.743Z" transform="translate(0 0.906)" fill="#6edba1"/>
  <path id="Path_3147" data-name="Path 3147" d="M0,.985Q0,.49.028,0H15.905a3.782,3.782,0,0,1,3.781,3.783V19.666C8.717,19.153,0,10.985,0,.985Z" transform="translate(45.672 19.666) rotate(180)" fill="#0ba075"/>
</svg>
