<svg xmlns="http://www.w3.org/2000/svg" width="252" height="238" viewBox="0 0 252 238">
  <g id="school" transform="translate(0.375 -0.313)">
    <circle id="Ellipse_521" data-name="Ellipse 521" cx="116" cy="116" r="116" transform="translate(7.625 0.313)" fill="#00b754"/>
    <path id="Intersection_107" data-name="Intersection 107" d="M48.125,73.125H0A115.684,115.684,0,0,1,24.933,8.378L32.837,0h166.35l7.907,8.381a115.707,115.707,0,0,1,24.93,64.744Z" transform="translate(7.738 35.625)" fill="#8ce33a"/>
    <path id="Path_5090" data-name="Path 5090" d="M-13.272,36.77,29.89,3.162,72.978,36.77v83.058h-86.25Z" transform="translate(93.897 43.505)" fill="#fff"/>
    <rect id="Rectangle_17958" data-name="Rectangle 17958" width="252" height="130" transform="translate(-0.375 108.313)" fill="#fff"/>
    <path id="Intersection_109" data-name="Intersection 109" d="M0,0H203.518a116.217,116.217,0,0,1-101.76,60A116.216,116.216,0,0,1,0,0Z" transform="translate(21.991 172.5)" fill="#ffd719"/>
    <path id="Path_5093" data-name="Path 5093" d="M-2011,3787.375v-12.187A12.188,12.188,0,0,1-1998.812,3763a12.188,12.188,0,0,1,12.187,12.188v12.188Zm-41.25,0v-12.187A12.188,12.188,0,0,1-2040.062,3763a12.188,12.188,0,0,1,12.188,12.188v12.188Zm-48.75,0v-12.187A12.188,12.188,0,0,1-2088.812,3763a12.188,12.188,0,0,1,12.187,12.188v12.188Zm-48.751,0v-12.187A12.188,12.188,0,0,1-2137.563,3763a12.189,12.189,0,0,1,12.189,12.188v12.188Zm-41.249,0v-12.187A12.188,12.188,0,0,1-2178.813,3763a12.188,12.188,0,0,1,12.188,12.188v12.188Z" transform="translate(2213.5 -3633.625)" fill="#90daff"/>
    <path id="Rectangle_17960" data-name="Rectangle 17960" d="M12,0h0A12,12,0,0,1,24,12V33a0,0,0,0,1,0,0H0a0,0,0,0,1,0,0V12A12,12,0,0,1,12,0Z" transform="translate(112.625 120.313)" fill="#dc7eff"/>
    <path id="Path_5094" data-name="Path 5094" d="M-2152,3903.238v-1.114A43.124,43.124,0,0,1-2108.874,3859a43.123,43.123,0,0,1,43.123,43.124v1.114a115.954,115.954,0,0,1-43.123,8.261A115.964,115.964,0,0,1-2152,3903.238Z" transform="translate(2232.625 -3679)" fill="#fff"/>
    <path id="Path_5095" data-name="Path 5095" d="M-2148,3902.44v-3.815A35.626,35.626,0,0,1-2112.374,3863a35.626,35.626,0,0,1,35.625,35.626v3.815a116.174,116.174,0,0,1-35.625,5.561A116.2,116.2,0,0,1-2148,3902.44Z" transform="translate(2236.125 -3675.5)" fill="#dc7eff"/>
    <path id="Intersection_110" data-name="Intersection 110" d="M35.493,45H34.358l-.321,0H33.9l-.208,0-.138,0-.21,0-.13,0-.3-.006-.139,0-.212,0-.162,0-.174,0-.158,0-.187-.005-.231-.007-.219-.007-.165-.006-.167-.006-.168-.006-.174-.007-.16-.007-.2-.008-.289-.013-.131-.006-.2-.01-.124-.006-.2-.011-.1-.005-.389-.021-.109-.006-.188-.011-.146-.009-.186-.011-.125-.008-.677-.044-.132-.009-.193-.014-.127-.009-.2-.014-.1-.008-.367-.028-.138-.011-.182-.015-.138-.011-.187-.016-.138-.011-.375-.033-.094-.008-.184-.016-.144-.014-.177-.016-.148-.014-.18-.017-.167-.017-.294-.029-.144-.015-.182-.018-.152-.016-.17-.018-.172-.018-.169-.019-.28-.031-.141-.016-.19-.021-.145-.017-.214-.025-.1-.012-.324-.039-.075-.009-.256-.031-.112-.014-.229-.029-.1-.014-.3-.039-.026,0-.335-.044-.074-.01-.27-.037-.074-.01-.306-.042-.029,0c-.233-.032-.468-.066-.7-.1l-.03,0-.344-.051h0A114.825,114.825,0,0,1,0,39.44V35.625a35.5,35.5,0,1,1,71,0v3.814a115.208,115.208,0,0,1-31.019,5.476h-.007c-.368.014-.733.026-1.1.037h-.028l-.328.009h-.043c-.24.006-.479.012-.719.016H37.72l-.315.005h-.066l-.3,0h-.058l-.353,0H36.6l-.3,0h-.8Z" transform="translate(88.625 187.312)" fill="#dc7eff"/>
    <rect id="Rectangle_17963" data-name="Rectangle 17963" width="15" height="73.125" rx="7.5" transform="matrix(0.53, 0.848, -0.848, 0.53, 124.532, 35.625)" fill="#dc7eff"/>
    <rect id="Rectangle_17964" data-name="Rectangle 17964" width="15" height="73.125" rx="7.5" transform="matrix(-0.53, 0.848, -0.848, -0.53, 183.106, 74.376)" fill="#dc7eff"/>
    <circle id="Ellipse_715" data-name="Ellipse 715" cx="15" cy="15" r="15" transform="translate(108.625 75.313)" fill="#ffd719"/>
    <g id="Group_2148" data-name="Group 2148" transform="translate(123.75 83.437)">
      <line id="Line_265" data-name="Line 265" y2="7.813" fill="none" stroke="#262626" stroke-linecap="round" stroke-width="2.4"/>
      <line id="Line_266" data-name="Line 266" x1="4.688" y1="1.563" transform="translate(0 7.813)" fill="none" stroke="#262626" stroke-linecap="round" stroke-width="2.4"/>
    </g>
  </g>
</svg>
