<svg id="subject" xmlns="http://www.w3.org/2000/svg" width="12.937" height="13.434" viewBox="0 0 12.937 13.434">
  <path id="subject-2" data-name="subject" d="M-4162.152,21622.264a.564.564,0,0,1-.136-.559l.674-2.219a.573.573,0,0,1,.141-.236l3.1-3.088a1.7,1.7,0,0,1,2.392,0,1.694,1.694,0,0,1,0,2.393l-3.089,3.084a.564.564,0,0,1-.248.145l-2.276.629a.5.5,0,0,1-.151.021A.559.559,0,0,1-4162.152,21622.264Zm1.576-2.314-.334,1.1,1.145-.316,2.076-2.074-.8-.8Zm3-2.99-.109.109.8.8.109-.107a.566.566,0,0,0,0-.8.562.562,0,0,0-.4-.162A.562.562,0,0,0-4157.581,21616.959Zm-8.591,5.475a2.258,2.258,0,0,1-2.255-2.256v-8.922a2.257,2.257,0,0,1,2.255-2.256h6.932a2.257,2.257,0,0,1,2.255,2.256v4.467a.563.563,0,0,1-.563.563.563.563,0,0,1-.564-.562v-4.467a1.13,1.13,0,0,0-1.128-1.129h-6.932a1.129,1.129,0,0,0-1.128,1.129v8.922a1.129,1.129,0,0,0,1.128,1.127h1.886a.565.565,0,0,1,.564.566.563.563,0,0,1-.564.563Zm.561-5.67a.562.562,0,0,1-.563-.562.565.565,0,0,1,.563-.564h2.808a.565.565,0,0,1,.564.564.562.562,0,0,1-.564.563Zm0-2.254a.563.563,0,0,1-.563-.564.563.563,0,0,1,.563-.562h5.808a.563.563,0,0,1,.564.563.564.564,0,0,1-.564.564Z" transform="translate(4168.427 -21609)" fill="#262626"/>
</svg>
