<svg xmlns="http://www.w3.org/2000/svg" width="232" height="232.188" viewBox="0 0 232 232.188">
  <g id="teacher" transform="translate(-0.25 -0.313)">
    <circle id="teacher-2" data-name="teacher" cx="116" cy="116" r="116" transform="translate(0.25 0.313)" fill="#dc7eff"/>
    <path id="Intersection_105" data-name="Intersection 105" d="M-2.246,16.359A74.682,74.682,0,0,1,44.515,0h80.626A74.637,74.637,0,0,1,164.1,10.9,115.941,115.941,0,0,1,78.264,48.751,115.853,115.853,0,0,1-2.246,16.359Z" transform="translate(37.986 183.749)" fill="#8738bd"/>
    <path id="Rectangle_17761" data-name="Rectangle 17761" d="M55,0H76.544a55,55,0,0,1,55,55v48.154a28,28,0,0,1-28,28H28a28,28,0,0,1-28-28V55A55,55,0,0,1,55,0Z" transform="translate(56.316 37.938)" fill="#ffd719"/>
    <path id="Path_4585" data-name="Path 4585" d="M19.057,107.544c-.238.009-.476.013-.716.013a17.944,17.944,0,1,1,0-35.879q.592,0,1.174.036a47.333,47.333,0,0,1,22.226-31.7V13.822C41.741.8,52.533,0,65.846,0s24.1.8,24.1,13.822V38.637a47.331,47.331,0,0,1,25.107,35.908c0,14.833.708,17.714.328,28.976-.857,25.38-22.161,45.7-48.317,45.7C42.308,149.22,21.9,131.014,19.057,107.544Z" transform="translate(187.859 211.196) rotate(180)" fill="#ff8076"/>
    <path id="Path_4295" data-name="Path 4295" d="M65.7.639c17.356,2.44,24.435,13.033,34.92,26.058-3.371.122-4.139-2.777-7.608-3.072-23.7-1.095-26.6-3.9-38.093-15.371C47.084,28.849,32.286,50,0,46.09,6.4,13.533,35.438-3.611,65.7.639Z" transform="matrix(0.996, -0.087, 0.087, 0.996, 65.589, 58.18)" fill="#ffd719"/>
    <rect id="Rectangle_17600" data-name="Rectangle 17600" width="24.942" height="10.947" rx="4" transform="matrix(-0.995, -0.105, 0.105, -0.995, 152.12, 91.566)" fill="#262626"/>
    <g id="Group_1824" data-name="Group 1824" transform="translate(83.806 96.902)">
      <g id="glasses" transform="translate(-17727.361 -18181.531)" fill="#00b754">
        <path d="M 17783.365234375 18220.4453125 C 17779.29296875 18220.4453125 17775.34765625 18219.318359375 17771.958984375 18217.189453125 C 17769.216796875 18215.462890625 17766.953125 18213.16015625 17765.330078125 18210.458984375 C 17763.775390625 18213.154296875 17761.609375 18215.453125 17758.986328125 18217.177734375 C 17755.732421875 18219.31640625 17751.94921875 18220.4453125 17748.041015625 18220.4453125 C 17745.345703125 18220.4453125 17742.73046875 18219.91796875 17740.267578125 18218.876953125 C 17737.890625 18217.87109375 17735.755859375 18216.431640625 17733.921875 18214.599609375 C 17732.08984375 18212.765625 17730.650390625 18210.6328125 17729.64453125 18208.25390625 C 17728.603515625 18205.79296875 17728.076171875 18203.1796875 17728.076171875 18200.484375 C 17728.076171875 18197.65234375 17728.6875 18194.83203125 17729.849609375 18192.259765625 C 17727.75 18191.248046875 17726.361328125 18189.10546875 17726.361328125 18186.703125 C 17726.361328125 18183.30078125 17729.125 18180.53125 17732.521484375 18180.53125 L 17744.595703125 18180.53125 C 17745.021484375 18180.53125 17745.423828125 18180.5703125 17745.818359375 18180.65234375 C 17746.548828125 18180.5703125 17747.27734375 18180.53125 17748.041015625 18180.53125 C 17751.947265625 18180.53125 17755.732421875 18181.662109375 17758.986328125 18183.80078125 C 17761.609375 18185.525390625 17763.775390625 18187.82421875 17765.330078125 18190.517578125 C 17766.953125 18187.81640625 17769.216796875 18185.513671875 17771.958984375 18183.7890625 C 17775.349609375 18181.658203125 17779.29296875 18180.53125 17783.365234375 18180.53125 C 17784.314453125 18180.53125 17785.259765625 18180.591796875 17786.1796875 18180.712890625 C 17786.66015625 18180.591796875 17787.16015625 18180.53125 17787.669921875 18180.53125 L 17799.736328125 18180.53125 C 17803.138671875 18180.53125 17805.908203125 18183.30078125 17805.908203125 18186.703125 C 17805.908203125 18188.099609375 17805.427734375 18189.466796875 17804.5546875 18190.552734375 C 17803.958984375 18191.294921875 17803.197265625 18191.888671875 17802.34375 18192.28515625 C 17803.5625 18194.880859375 17804.177734375 18197.634765625 17804.177734375 18200.484375 C 17804.177734375 18203.18359375 17803.625 18205.802734375 17802.53515625 18208.26953125 C 17801.484375 18210.6484375 17799.98046875 18212.783203125 17798.06640625 18214.615234375 C 17796.154296875 18216.443359375 17793.9296875 18217.87890625 17791.451171875 18218.8828125 C 17788.890625 18219.919921875 17786.169921875 18220.4453125 17783.365234375 18220.4453125 Z" stroke="none"/>
        <path d="M 17783.365234375 18219.4453125 C 17794.306640625 18219.4453125 17803.177734375 18210.95703125 17803.177734375 18200.484375 C 17803.177734375 18197.32421875 17802.361328125 18194.3515625 17800.939453125 18191.71875 C 17803.208984375 18191.1875 17804.908203125 18189.14453125 17804.908203125 18186.703125 C 17804.908203125 18183.84375 17802.591796875 18181.53125 17799.736328125 18181.53125 L 17787.669921875 18181.53125 C 17787.173828125 18181.53125 17786.701171875 18181.59765625 17786.244140625 18181.73046875 C 17785.302734375 18181.59765625 17784.345703125 18181.53125 17783.365234375 18181.53125 C 17775.333984375 18181.53125 17768.419921875 18186.09765625 17765.310546875 18192.66796875 C 17762.333984375 18186.09765625 17755.712890625 18181.53125 17748.041015625 18181.53125 C 17747.271484375 18181.53125 17746.517578125 18181.57421875 17745.767578125 18181.6640625 C 17745.388671875 18181.57421875 17745.001953125 18181.53125 17744.595703125 18181.53125 L 17732.521484375 18181.53125 C 17729.669921875 18181.53125 17727.361328125 18183.84375 17727.361328125 18186.703125 C 17727.361328125 18189.109375 17729.005859375 18191.12890625 17731.232421875 18191.70703125 C 17729.857421875 18194.33203125 17729.076171875 18197.3203125 17729.076171875 18200.484375 C 17729.076171875 18210.95703125 17737.564453125 18219.4453125 17748.041015625 18219.4453125 C 17755.712890625 18219.4453125 17762.333984375 18214.8828125 17765.310546875 18208.30859375 C 17768.419921875 18214.8828125 17775.333984375 18219.4453125 17783.365234375 18219.4453125 M 17783.365234375 18221.4453125 C 17779.103515625 18221.4453125 17774.974609375 18220.265625 17771.427734375 18218.03515625 C 17769.013671875 18216.517578125 17766.953125 18214.572265625 17765.345703125 18212.310546875 C 17763.80859375 18214.560546875 17761.83984375 18216.498046875 17759.53515625 18218.013671875 C 17756.119140625 18220.2578125 17752.14453125 18221.4453125 17748.041015625 18221.4453125 C 17745.2109375 18221.4453125 17742.46484375 18220.890625 17739.87890625 18219.796875 C 17737.3828125 18218.7421875 17735.140625 18217.23046875 17733.21484375 18215.306640625 C 17731.291015625 18213.3828125 17729.779296875 18211.140625 17728.724609375 18208.64453125 C 17727.630859375 18206.05859375 17727.076171875 18203.3125 17727.076171875 18200.484375 C 17727.076171875 18197.81640625 17727.59375 18195.15625 17728.58203125 18192.6875 C 17726.61328125 18191.388671875 17725.361328125 18189.162109375 17725.361328125 18186.703125 C 17725.361328125 18182.748046875 17728.57421875 18179.53125 17732.521484375 18179.53125 L 17744.595703125 18179.53125 C 17745.033203125 18179.53125 17745.451171875 18179.568359375 17745.861328125 18179.640625 C 17746.576171875 18179.56640625 17747.29296875 18179.53125 17748.041015625 18179.53125 C 17752.142578125 18179.53125 17756.1171875 18180.71875 17759.53515625 18182.96484375 C 17761.83984375 18184.48046875 17763.80859375 18186.41796875 17765.345703125 18188.66796875 C 17766.953125 18186.40625 17769.013671875 18184.4609375 17771.427734375 18182.943359375 C 17774.9765625 18180.7109375 17779.103515625 18179.53125 17783.365234375 18179.53125 C 17784.294921875 18179.53125 17785.220703125 18179.587890625 17786.125 18179.697265625 C 17786.626953125 18179.587890625 17787.14453125 18179.53125 17787.669921875 18179.53125 L 17799.736328125 18179.53125 C 17803.69140625 18179.53125 17806.908203125 18182.748046875 17806.908203125 18186.703125 C 17806.908203125 18188.326171875 17806.349609375 18189.916015625 17805.333984375 18191.1796875 C 17804.849609375 18191.783203125 17804.271484375 18192.30078125 17803.626953125 18192.71484375 C 17804.658203125 18195.193359375 17805.177734375 18197.796875 17805.177734375 18200.484375 C 17805.177734375 18203.32421875 17804.595703125 18206.080078125 17803.44921875 18208.673828125 C 17802.345703125 18211.171875 17800.767578125 18213.4140625 17798.7578125 18215.337890625 C 17796.75390625 18217.25390625 17794.421875 18218.759765625 17791.828125 18219.80859375 C 17789.14453125 18220.89453125 17786.298828125 18221.4453125 17783.365234375 18221.4453125 Z" stroke="none" fill="#00b754"/>
      </g>
      <g id="Group_1822" data-name="Group 1822" transform="translate(41.347 3.447)">
        <ellipse id="Ellipse_498" data-name="Ellipse 498" cx="15.51" cy="15.51" rx="15.51" ry="15.51" transform="translate(0)" fill="#fff"/>
        <ellipse id="Ellipse_500" data-name="Ellipse 500" cx="7.755" cy="8.617" rx="7.755" ry="8.617" transform="translate(7.502 13.787)" fill="#262626"/>
      </g>
      <g id="Group_1823" data-name="Group 1823" transform="translate(5.155 3.447)">
        <ellipse id="Ellipse_498-2" data-name="Ellipse 498" cx="15.51" cy="15.51" rx="15.51" ry="15.51" fill="#fff"/>
        <ellipse id="Ellipse_515" data-name="Ellipse 515" cx="7.755" cy="8.617" rx="7.755" ry="8.617" transform="translate(7.501 13.786)" fill="#262626"/>
      </g>
    </g>
    <path id="Path_3691" data-name="Path 3691" d="M16.055,2.024c-.72,4.046-2.036,6.427-6.642,8.4S.952,10.809.172,11.872s1.081,3.567,5.2,3.8a14.341,14.341,0,0,0,11.311-4.684c2.657-3.121,2.9-4.37,3.361-7.293S16.776-2.022,16.055,2.024Z" transform="translate(117.872 132.786) rotate(25)" fill="#262626"/>
  </g>
</svg>
