<svg xmlns="http://www.w3.org/2000/svg" width="823.647" height="475.662" viewBox="0 0 823.647 475.662">
  <g id="Group_2197" data-name="Group 2197" transform="translate(-131.84 -34.338)">
    <g id="Group_1980" data-name="Group 1980">
      <rect id="Rectangle_17864" data-name="Rectangle 17864" width="749" height="357" rx="169" transform="translate(138 115)" fill="#d6f5fe"/>
      <g id="BULB" transform="translate(-36.777 -15.842)">
        <path id="Path_3878" data-name="Path 3878" d="M19145.672,18985.646h-14.246c-4.736-25.59-23.121-30.094-25.082-54.137a35.574,35.574,0,0,1,35.189-40.508c.48,0,.949.01,1.41.029.461-.02.93-.029,1.41-.029a35.535,35.535,0,0,1,35.533,35.531,36.074,36.074,0,0,1-.346,4.977c-1.957,24.043-20.344,28.547-25.082,54.137Zm0,0h0Z" transform="translate(-18588 -18838.822)" fill="#ffd719" stroke="#fff" stroke-width="4"/>
        <path id="Intersection_48" data-name="Intersection 48" d="M17.833,51.485l-1.81-.325-.111-.02-3.451-.62-4.133-.742C8.233,35.295-1.126,31.069.113,17.7c.033-.914-.16-.13,0-1.054C1.975,5.889,10.678-1.587,21.125.289q.383.069.747.152c.248.034.5.072.754.118,10.448,1.876,15.483,10.883,12.954,22.3a38.912,38.912,0,0,1-2.161,6.275c-3.219,4.627-6.935,8.936-9.4,15.324a50.75,50.75,0,0,0-3.25,7.03ZM16.1,51.173h0ZM35.582,22.856c.136-.431.1-.209.044.013a1.227,1.227,0,0,1-.078.259A1,1,0,0,1,35.582,22.856Z" transform="translate(540.79 81.338)" fill="#fdffff"/>
        <g id="Group_1761" data-name="Group 1761" transform="translate(540.79 104.339)">
          <path id="Path_3881" data-name="Path 3881" d="M-18525.986-18743.457h13.293s9.236-1.029,5.91-5.834-8.943,1.053-9.07,10.031,0,28.43,0,28.43" transform="translate(18534.367 18751.012)" fill="none" stroke="#8738bd" stroke-linecap="round" stroke-width="3"/>
          <path id="Path_3882" data-name="Path 3882" d="M-18506.062-18743.457h-13.293s-9.234-1.029-5.91-5.834,8.941,1.053,9.07,10.031,0,28.113,0,28.113" transform="translate(18525.988 18751.012)" fill="none" stroke="#8738bd" stroke-linecap="round" stroke-width="3"/>
        </g>
        <rect id="Rectangle_17543" data-name="Rectangle 17543" width="25.765" height="16.103" transform="translate(542.155 148.12)" fill="#17a9ea"/>
      </g>
      <g id="open-book_3_" data-name="open-book (3)" transform="matrix(0.99, 0.139, -0.139, 0.99, 185.901, 64.732)">
        <ellipse id="Ellipse_579" data-name="Ellipse 579" cx="75.316" cy="75.825" rx="75.316" ry="75.825" transform="matrix(1, -0.017, 0.017, 1, -11.578, 5.64)" fill="#fdffff"/>
        <ellipse id="Ellipse_582" data-name="Ellipse 582" cx="72.392" cy="72.881" rx="72.392" ry="72.881" transform="matrix(1, -0.017, 0.017, 1, 3.529, 6.411)" fill="#ffd719"/>
        <g id="Group_2174" data-name="Group 2174">
          <path id="Path_4707" data-name="Path 4707" d="M20031.115,20233.109l-2.107-63.371-.084-2.645,2.514-.092,72.008-2.641,3.045,91.641a72.853,72.853,0,0,1-18.67,2.758q-.647.009-1.295.01A72.543,72.543,0,0,1,20031.115,20233.109Z" transform="translate(-20008.416 -20110.885)" fill="#dc7eff" stroke="#dc7eff" stroke-width="6"/>
          <path id="Path_4708" data-name="Path 4708" d="M20113.861,20164.375h53.082a72.791,72.791,0,0,1-53.082,92.557Z" transform="translate(-20019.393 -20110.887)" fill="#8738bd" stroke="#8738bd" stroke-width="6"/>
          <path id="Path_4705" data-name="Path 4705" d="M59,91.8H0V7.924A17.664,17.664,0,0,1,3.514,4.137,18.9,18.9,0,0,1,15.35,0h46.2V91.8Z" transform="translate(94.427 40.932)" fill="#8ce33a" stroke="#8be72b" stroke-width="6"/>
          <path id="Path_4706" data-name="Path 4706" d="M2.3,92.847H55.485V8.015a17.252,17.252,0,0,0-3.167-3.83A15.921,15.921,0,0,0,41.646,0H0V92.847Z" transform="translate(34.223 39.442)" fill="#fdffff" stroke="#fdffff" stroke-linejoin="round" stroke-width="6"/>
          <path id="Intersection_88" data-name="Intersection 88" d="M0,20.49V13.751C2.367,10.246,7.471,4.306,18.309,1.638c14.977-3.686,42.433,0,42.433,0v18.85l-2.516,0Z" transform="translate(95.234 112.612)" fill="#00b754" stroke="#00b754" stroke-linejoin="round" stroke-width="6"/>
          <path id="Intersection_89" data-name="Intersection 89" d="M16.67,17.836C6.889,16.262,2.208,12.788,0,10.678V6.555H53.213l2.3,0V17.836s-11.171.981-22.682.981A108.335,108.335,0,0,1,16.67,17.836Z" transform="translate(89.766 139.805) rotate(180)" fill="#d6f5fe" stroke="#d6f5fe" stroke-linejoin="round" stroke-width="6"/>
          <g id="Path_4651" data-name="Path 4651" transform="translate(-187.608 -216.621)" fill="#ffd719" stroke-linejoin="round">
            <path d="M 329.4766845703125 361.4631042480469 L 327.0998840332031 359.750732421875 L 319.4883422851562 354.2670593261719 L 311.8768005371094 359.750732421875 L 309.5 361.4631042480469 L 309.5 358.53369140625 L 309.5 341.0159912109375 L 309.5 339.5159912109375 L 311 339.5159912109375 L 327.9766845703125 339.5159912109375 L 329.4766845703125 339.5159912109375 L 329.4766845703125 341.0159912109375 L 329.4766845703125 358.53369140625 L 329.4766845703125 361.4631042480469 Z" stroke="none"/>
            <path d="M 327.9766845703125 358.53369140625 L 327.9766845703125 341.0159912109375 L 311 341.0159912109375 L 311 358.53369140625 L 319.4883422851562 352.4183349609375 L 327.9766845703125 358.53369140625 M 327.9769897460938 361.53369140625 C 327.3586120605469 361.53369140625 326.7435607910156 361.3427734375 326.2230529785156 360.9677734375 L 319.4883422851562 356.1158142089844 L 312.7536315917969 360.9677734375 C 311.8400268554688 361.6259460449219 310.6348571777344 361.7171630859375 309.6326904296875 361.2039794921875 C 308.6304626464844 360.6907958984375 308 359.6596374511719 308 358.53369140625 L 308 341.0159912109375 C 308 339.359130859375 309.3431396484375 338.0159912109375 311 338.0159912109375 L 327.9766845703125 338.0159912109375 C 329.633544921875 338.0159912109375 330.9766845703125 339.359130859375 330.9766845703125 341.0159912109375 L 330.9766845703125 358.53369140625 C 330.9766845703125 359.6596374511719 330.3462219238281 360.6907958984375 329.343994140625 361.2039794921875 C 328.9128112792969 361.4247741699219 328.4439392089844 361.53369140625 327.9769897460938 361.53369140625 Z" stroke="none" fill="#ffd719"/>
          </g>
        </g>
        <text id="ABC" transform="translate(62.441 72.869)" fill="#90daff" font-size="21" font-family="Helvetica"><tspan x="-21.59" y="0">ABC</tspan></text>
        <text id="_123" data-name="123" transform="translate(125.491 72.086)" fill="#fff" font-size="21" font-family="Helvetica"><tspan x="-17.519" y="0">123</tspan></text>
      </g>
      <g id="Group_1987" data-name="Group 1987" transform="translate(172.219 98.676) rotate(-14)">
        <ellipse id="Ellipse_590" data-name="Ellipse 590" cx="15.613" cy="15.57" rx="15.613" ry="15.57" transform="translate(431.654 226.436)" fill="#fdffff"/>
        <ellipse id="Ellipse_595" data-name="Ellipse 595" cx="15.613" cy="15.57" rx="15.613" ry="15.57" transform="translate(146.038 159.592)" fill="#fdffff"/>
        <ellipse id="Ellipse_596" data-name="Ellipse 596" cx="15.613" cy="15.57" rx="15.613" ry="15.57" transform="translate(69.248 265.865)" fill="#fdffff"/>
        <ellipse id="Ellipse_592" data-name="Ellipse 592" cx="15.613" cy="15.57" rx="15.613" ry="15.57" transform="translate(442.838 339.655) rotate(-13)" fill="#fdffff"/>
        <ellipse id="Ellipse_587" data-name="Ellipse 587" cx="12.892" cy="12.832" rx="12.892" ry="12.832" transform="translate(124.808 258.391)" fill="#fdffff"/>
        <ellipse id="Ellipse_588" data-name="Ellipse 588" cx="12.892" cy="12.832" rx="12.892" ry="12.832" transform="translate(191.566 189.051)" fill="#fdffff"/>
        <ellipse id="Ellipse_593" data-name="Ellipse 593" cx="12.892" cy="12.832" rx="12.892" ry="12.832" transform="translate(305.962 151.856)" fill="#fdffff"/>
        <ellipse id="Ellipse_589" data-name="Ellipse 589" cx="13.541" cy="13.504" rx="13.541" ry="13.504" transform="translate(381.312 232.459)" fill="#fdffff"/>
        <ellipse id="Ellipse_594" data-name="Ellipse 594" cx="13.541" cy="13.504" rx="13.541" ry="13.504" transform="translate(399.275 313.358)" fill="#fdffff"/>
      </g>
      <g id="Group_1749" data-name="Group 1749" transform="translate(-443.688 132.611) rotate(-11)">
        <ellipse id="Ellipse_584" data-name="Ellipse 584" cx="79.161" cy="78.795" rx="79.161" ry="78.795" transform="translate(528.125 299.279) rotate(11)" fill="#fdffff"/>
        <ellipse id="Ellipse_580" data-name="Ellipse 580" cx="68.538" cy="68.221" rx="68.538" ry="68.221" transform="translate(533.265 295.666) rotate(11)" fill="#dc7eff"/>
        <g id="Group_1983" data-name="Group 1983" transform="translate(22.495 -46.563)">
          <rect id="Rectangle_17842" data-name="Rectangle 17842" width="24.847" height="81.964" transform="translate(567.658 350.094)" fill="#ffd719"/>
          <rect id="Rectangle_17844" data-name="Rectangle 17844" width="8.503" height="34.964" rx="4.251" transform="translate(596.688 348.471) rotate(91)" fill="#ffd719"/>
          <path id="Intersection_96" data-name="Intersection 96" d="M19521.82,19444.146q-3.325-.645-6.508-1.592a16.007,16.007,0,0,1-1.072-19.727l26.609-38a16,16,0,0,1,22.283-3.934l34.361,24.059a68.49,68.49,0,0,1-75.674,39.2Z" transform="translate(-18969.805 -18954.906)" fill="#ffd719"/>
        </g>
        <g id="Group_1984" data-name="Group 1984" transform="translate(-6.509 4.847)">
          <ellipse id="Ellipse_637" data-name="Ellipse 637" cx="34.269" cy="34.11" rx="34.269" ry="34.11" transform="translate(554.901 363.956) rotate(11)" fill="#fdffff"/>
          <g id="Group_1982" data-name="Group 1982" transform="translate(0 0)">
            <path id="Subtraction_42" data-name="Subtraction 42" d="M19524.41,19310.23h0v0l-24.846,0v-35.467l24.85,2.611Z" transform="translate(-18931.902 -18915.174)" fill="#fff"/>
            <rect id="Rectangle_17844-2" data-name="Rectangle 17844" width="8.503" height="34.964" rx="4.251" transform="translate(596.688 348.471) rotate(91)" fill="#fff"/>
            <circle id="Ellipse_644" data-name="Ellipse 644" cx="4" cy="4" r="4" transform="translate(563.39 385.98) rotate(11)" fill="#90daff"/>
            <circle id="Ellipse_646" data-name="Ellipse 646" cx="4" cy="4" r="4" transform="translate(581.579 412.946) rotate(11)" fill="#d6f5fe"/>
          </g>
          <path id="Path_4870" data-name="Path 4870" d="M608.266,396.87c.091-.366-4.66-15.476-20.385-7.078s-13.133,19.527-31.244,21.241C558.14,412.346,606.6,430.387,608.266,396.87Z" transform="translate(0 0)" fill="#90daff"/>
          <path id="Intersection_95" data-name="Intersection 95" d="M19511.418,19315.744a27.272,27.272,0,0,1-21.816-22.756c4.094-6.7,12.162-11.869,27.76-6.822,16.066,5.2,22.234-1.115,24.6-6.9a26.869,26.869,0,0,1,1.393,15.076,27.155,27.155,0,0,1-26.678,21.914A27.5,27.5,0,0,1,19511.418,19315.744Z" transform="translate(-18933.955 -18883.002)" fill="#17a9ea"/>
          <circle id="Ellipse_647" data-name="Ellipse 647" cx="4" cy="4" r="4" transform="translate(608.58 361.146) rotate(11)" fill="#dc7eff"/>
          <circle id="Ellipse_648" data-name="Ellipse 648" cx="4" cy="4" r="4" transform="translate(628.745 398.907) rotate(11)" fill="#d6f5fe"/>
          <circle id="Ellipse_649" data-name="Ellipse 649" cx="4" cy="4" r="4" transform="translate(637.318 344.321) rotate(11)" fill="#90daff"/>
          <circle id="Ellipse_650" data-name="Ellipse 650" cx="4" cy="4" r="4" transform="translate(566.529 322.411) rotate(11)" fill="#8738bd"/>
          <circle id="Ellipse_651" data-name="Ellipse 651" cx="4" cy="4" r="4" transform="translate(539.978 369.905) rotate(11)" fill="#ffd719"/>
        </g>
      </g>
      <g id="Group_1985" data-name="Group 1985">
        <circle id="Ellipse_575" data-name="Ellipse 575" cx="83.769" cy="83.769" r="83.769" transform="matrix(0.978, 0.208, -0.208, 0.978, 791.611, 279.974)" fill="#fdffff"/>
        <circle id="Ellipse_577" data-name="Ellipse 577" cx="76.029" cy="76.029" r="76.029" transform="matrix(0.978, 0.208, -0.208, 0.978, 800.707, 280.977)" fill="#ffd719"/>
        <circle id="Ellipse_652" data-name="Ellipse 652" cx="5.5" cy="5.5" r="5.5" transform="translate(823.156 323.219)" fill="#dc7eff"/>
        <circle id="Ellipse_653" data-name="Ellipse 653" cx="4" cy="4" r="4" transform="translate(910.156 296)" fill="#ffd719"/>
        <circle id="Ellipse_654" data-name="Ellipse 654" cx="5" cy="5" r="5" transform="translate(887.146 344.219)" fill="#90daff"/>
        <circle id="Ellipse_655" data-name="Ellipse 655" cx="4" cy="4" r="4" transform="translate(801.486 371.328)" fill="#00b754"/>
        <g id="PENCIL" transform="translate(871.617 415.309) rotate(-119)">
          <path id="Path_3810" data-name="Path 3810" d="M99.825,273.984h0l-2.3,2.814L86.435,292.838a1.458,1.458,0,0,1-2.772,0L72.572,276.8l-2.3-2.814.149,0A6.079,6.079,0,0,1,69,269.957v-3.649c0-2.931,1.819-5.308,4.062-5.308H97.183c2.244,0,4.062,2.377,4.062,5.308v3.649a6.078,6.078,0,0,1-1.42,4.027Z" transform="translate(-68.999 -241.81)" fill="#ff8076" fill-rule="evenodd"/>
          <path id="Path_3811" data-name="Path 3811" d="M113.289,343.625,108.708,337h11.933l-4.581,6.625a1.458,1.458,0,0,1-2.772,0Z" transform="translate(-98.626 -292.597)" fill="#262626" fill-rule="evenodd"/>
          <path id="Intersection_94" data-name="Intersection 94" d="M.391,102.869c-.042,0-.085,0-.127,0l-.233-76.2a81.238,81.238,0,0,1,32.227-6.284l.253,82.481c-.042,0-.084,0-.127,0a8.76,8.76,0,0,0-8,5.188,8.76,8.76,0,0,0-16,0A8.761,8.761,0,0,0,.391,102.869ZM32.511,102.873Z" transform="translate(-0.264 -76.838)" fill="#17a9ea"/>
          <path id="Path_4867" data-name="Path 4867" d="M22.017-56.685l-3.339,83.7-9.1.87,1.392-86.952Z" transform="translate(1.939 -3.498)" fill="#ffd719"/>
        </g>
        <g id="BRUSH" transform="translate(1041.25 0.922) rotate(93)">
          <path id="Path_3865" data-name="Path 3865" d="M8.912,0,186.226,71.35l-60.815,7.81-5.675-5.488L0,3Z" transform="matrix(1, -0.017, 0.017, 1, 311.698, 148.862)" fill="#fff"/>
          <path id="Path_3867" data-name="Path 3867" d="M19307.656,18980.631l8.756-4.182,34.568,13.594-5.4,11.486Z" transform="translate(-18997.08 -18828.846)" fill="#8738bd"/>
          <path id="Path_3866" data-name="Path 3866" d="M23.629,20.245s12.879-1.1,4.84-4.38S0,14.006,0,14.006A30.354,30.354,0,0,1,40.692,4.031l3.513,2.111a8.314,8.314,0,0,1,1.839,1.4,14.052,14.052,0,0,1,5.222,10.873c0,7.9-4.017,12.089-10.926,12.548S27.312,23.16,23.629,20.245Z" transform="matrix(0.985, -0.174, 0.174, 0.985, 279.043, 134.988)" fill="#fff" stroke="#fff" stroke-linecap="round" stroke-linejoin="round" stroke-width="6"/>
          <path id="Path_4868" data-name="Path 4868" d="M23.629,20.245s12.879-1.1,4.84-4.38S0,14.006,0,14.006A30.354,30.354,0,0,1,40.692,4.031l3.513,2.111a8.314,8.314,0,0,1,1.839,1.4,14.052,14.052,0,0,1,5.222,10.873c0,7.9-4.017,12.089-10.926,12.548S27.312,23.16,23.629,20.245Z" transform="matrix(0.985, -0.174, 0.174, 0.985, 271.159, 137.404)" fill="#00b854" stroke="#00b754" stroke-linecap="round" stroke-linejoin="round" stroke-width="6"/>
        </g>
      </g>
      <g id="Group_2003" data-name="Group 2003">
        <g id="Group_1986" data-name="Group 1986" transform="translate(-44.777 192.58) rotate(-14)">
          <ellipse id="Ellipse_571" data-name="Ellipse 571" cx="83.726" cy="87.338" rx="83.726" ry="87.338" transform="translate(737.615 71.742)" fill="#fdffff"/>
          <ellipse id="Ellipse_583" data-name="Ellipse 583" cx="75.804" cy="75.453" rx="75.804" ry="75.453" transform="translate(739.752 71.172)" fill="#dc7eff"/>
          <path id="XMLID_156_" d="M.287,130.937a3.136,3.136,0,0,1,1.541-4.159c7.853-3.606,17.925-6.576,29.936-8.827a3.136,3.136,0,0,1,1.155,6.165c-11.507,2.156-21.087,4.97-28.474,8.362a3.134,3.134,0,0,1-4.159-1.541Zm2.852,26.478a3.121,3.121,0,0,0,1.3-.283,112.052,112.052,0,0,1,22.19-7.005A3.136,3.136,0,0,0,25.271,144a118.127,118.127,0,0,0-23.435,7.422,3.136,3.136,0,0,0,1.3,5.99Zm100.761-48.1a3.127,3.127,0,0,0,.428-.029c15.013-2.048,32.052-4.958,44.594-11.006a3.136,3.136,0,1,0-2.724-5.649c-11.754,5.668-28.19,8.458-42.717,10.441a3.136,3.136,0,0,0,.42,6.243Zm42.3,7.966a105.243,105.243,0,0,1-22.755,8.189c-10.432,2.375-23.519,3.063-27.769,4a3.136,3.136,0,1,0,1.347,6.126c4.416-.971,13.44-.416,26.422-3.113,12.977-2.144,22.437-8.08,25.483-9.552a3.136,3.136,0,1,0-2.728-5.647Zm0,24.649c-6.777,3.269-15.859,5.917-27.763,8.1a3.136,3.136,0,1,0,1.13,6.169c12.638-2.314,21.967-5.051,29.358-8.617a3.136,3.136,0,1,0-2.725-5.649ZM35.675,166.575c-14.456,2.52-25.211,5.539-33.847,9.5a3.136,3.136,0,1,0,2.616,5.7c8.132-3.732,18.4-6.6,32.308-9.024a3.136,3.136,0,0,0-1.077-6.179Z" transform="translate(773.024 -24.459) rotate(14)" fill="#ffd719"/>
        </g>
        <path id="musical-note" d="M110.359,46.4a30.3,30.3,0,0,0,4.064-13.342,18.627,18.627,0,0,0-1.965-9.256c-2.307-4.726-6.27-7.381-10.1-9.946C99.5,11.943,96.8,10.136,94.9,7.554l-.342-.46c-1.128-1.516-2.4-3.233-2.6-4.676A2.838,2.838,0,0,0,88.974,0a2.8,2.8,0,0,0-2.61,2.8V52.811a16.237,16.237,0,0,0-8.419-2.3c-7.735,0-14.032,5.035-14.032,11.226s6.3,11.226,14.032,11.226,14.032-5.035,14.032-11.226V29.024a20.2,20.2,0,0,1,13.011,15.3,15.828,15.828,0,0,1-1.083,1.532,2.8,2.8,0,1,0,4.21,3.7,20.864,20.864,0,0,0,2.06-2.9A1.767,1.767,0,0,0,110.359,46.4Z" transform="matrix(0.966, -0.259, 0.259, 0.966, 666.691, 77.326)" fill="#8738bd"/>
        <g id="Group_1989" data-name="Group 1989" transform="translate(4 -2)">
          <g id="Path_4875" data-name="Path 4875" transform="matrix(0.985, -0.174, 0.174, 0.985, -21494.4, -15600.56)" fill="#dc7eff" stroke-linejoin="round">
            <path d="M 19197.587890625 19444.544921875 C 19195.4296875 19444.544921875 19193.240234375 19444.451171875 19191.08203125 19444.267578125 L 19190.33984375 19444.205078125 L 19189.94140625 19443.576171875 C 19188.916015625 19441.955078125 19188.037109375 19440.181640625 19187.330078125 19438.306640625 C 19185.5859375 19433.67578125 19184.861328125 19428.455078125 19185.17578125 19422.787109375 C 19185.498046875 19417.166015625 19186.822265625 19411.380859375 19189.111328125 19405.587890625 C 19191.482421875 19399.609375 19194.787109375 19393.88671875 19198.9375 19388.576171875 C 19202.494140625 19384.0234375 19206.552734375 19379.958984375 19210.998046875 19376.49609375 C 19211.765625 19375.90234375 19212.716796875 19375.576171875 19213.6796875 19375.576171875 C 19213.91015625 19375.576171875 19214.140625 19375.595703125 19214.369140625 19375.6328125 C 19214.447265625 19375.642578125 19214.51171875 19375.654296875 19214.5546875 19375.662109375 L 19214.576171875 19375.66796875 L 19214.625 19375.67578125 L 19214.669921875 19375.685546875 C 19215.279296875 19375.828125 19215.859375 19376.109375 19216.34765625 19376.49609375 C 19216.73046875 19376.7890625 19217.0625 19377.15234375 19217.33203125 19377.572265625 L 19217.333984375 19377.57421875 L 19217.3359375 19377.578125 C 19221.166015625 19383.6015625 19228.291015625 19390.908203125 19236.884765625 19397.623046875 C 19240.765625 19400.654296875 19244.6875 19403.369140625 19248.544921875 19405.69140625 C 19252.3671875 19407.9921875 19255.94140625 19409.798828125 19259.16796875 19411.05859375 L 19261 19411.7734375 L 19259.826171875 19413.3515625 C 19255.232421875 19419.51953125 19249.76953125 19424.951171875 19243.58984375 19429.4921875 C 19237.232421875 19434.1640625 19230.205078125 19437.826171875 19222.703125 19440.375 L 19218.146484375 19441.923828125 L 19221.017578125 19438.060546875 C 19221.251953125 19437.7421875 19221.47265625 19437.41015625 19221.6796875 19437.0546875 C 19220.84375 19437.005859375 19219.9765625 19436.87890625 19219.095703125 19436.677734375 C 19216.009765625 19435.962890625 19212.845703125 19434.384765625 19209.9375 19432.11328125 C 19207.908203125 19430.52734375 19206.111328125 19428.662109375 19204.74609375 19426.720703125 C 19203.630859375 19425.134765625 19202.80078125 19423.498046875 19202.30859375 19421.91796875 C 19201.9453125 19422.267578125 19201.630859375 19422.6171875 19201.357421875 19422.974609375 L 19201.353515625 19422.98046875 L 19201.349609375 19422.984375 C 19199.291015625 19425.615234375 19198.369140625 19428.888671875 19198.7578125 19432.203125 C 19199.146484375 19435.501953125 19200.794921875 19438.439453125 19203.400390625 19440.470703125 C 19203.869140625 19440.837890625 19204.36328125 19441.169921875 19204.869140625 19441.462890625 L 19208.994140625 19443.84375 L 19204.248046875 19444.255859375 C 19202.037109375 19444.447265625 19199.796875 19444.544921875 19197.587890625 19444.544921875 Z M 19226.861328125 19426.15625 C 19227.072265625 19426.22265625 19227.3828125 19426.30859375 19227.833984375 19426.4140625 C 19228.28125 19426.517578125 19228.68359375 19426.5703125 19229.02734375 19426.5703125 C 19229.02734375 19426.5703125 19229.02734375 19426.5703125 19229.02734375 19426.5703125 C 19230.255859375 19426.5703125 19230.98046875 19425.966796875 19231.765625 19422.53515625 C 19232.1484375 19420.888671875 19233.068359375 19419.71875 19233.84375 19418.908203125 C 19233.638671875 19418.884765625 19233.43359375 19418.873046875 19233.228515625 19418.873046875 C 19232.0078125 19418.873046875 19230.802734375 19419.29296875 19229.83203125 19420.052734375 C 19228.8359375 19420.8359375 19228.158203125 19421.8984375 19227.873046875 19423.130859375 C 19227.6015625 19424.314453125 19227.24609375 19425.19921875 19226.986328125 19425.845703125 C 19226.9453125 19425.9453125 19226.90234375 19426.052734375 19226.861328125 19426.15625 Z M 19212.544921875 19401.77734375 C 19211.314453125 19401.77734375 19210.146484375 19402.1796875 19209.166015625 19402.943359375 L 19209.037109375 19403.04296875 L 19208.888671875 19403.11328125 C 19208.63671875 19403.234375 19208.44140625 19403.388671875 19208.2890625 19403.5859375 C 19208.1796875 19403.724609375 19208.099609375 19403.873046875 19208.041015625 19404.046875 L 19207.982421875 19404.212890625 L 19207.88671875 19404.36328125 C 19207.56640625 19404.8671875 19207.33203125 19405.431640625 19207.193359375 19406.0390625 C 19206.861328125 19407.46875 19207.109375 19408.94140625 19207.888671875 19410.1875 C 19208.669921875 19411.4375 19209.88671875 19412.306640625 19211.31640625 19412.63671875 C 19211.720703125 19412.728515625 19212.13671875 19412.775390625 19212.548828125 19412.775390625 C 19213.7734375 19412.77734375 19214.982421875 19412.357421875 19215.953125 19411.595703125 C 19216.951171875 19410.814453125 19217.630859375 19409.75 19217.916015625 19408.515625 C 19218.59375 19405.560546875 19216.740234375 19402.599609375 19213.78515625 19401.916015625 C 19213.380859375 19401.82421875 19212.962890625 19401.77734375 19212.544921875 19401.77734375 Z" stroke="none"/>
            <path d="M 19197.587890625 19443.044921875 C 19199.75390625 19443.044921875 19201.93359375 19442.951171875 19204.119140625 19442.76171875 C 19203.55078125 19442.43359375 19203.00390625 19442.064453125 19202.478515625 19441.654296875 C 19199.552734375 19439.373046875 19197.703125 19436.078125 19197.267578125 19432.376953125 C 19196.833984375 19428.671875 19197.859375 19425.009765625 19200.16796875 19422.060546875 C 19200.73046875 19421.328125 19201.4140625 19420.650390625 19202.244140625 19419.9765625 C 19202.376953125 19419.865234375 19202.546875 19419.80859375 19202.720703125 19419.80859375 C 19202.783203125 19419.80859375 19202.845703125 19419.81640625 19202.908203125 19419.830078125 C 19202.927734375 19419.833984375 19202.951171875 19419.83984375 19202.98046875 19419.849609375 C 19203.224609375 19419.9375 19203.40625 19420.146484375 19203.46484375 19420.41015625 C 19204.19140625 19423.955078125 19206.9609375 19427.884765625 19210.861328125 19430.931640625 C 19213.599609375 19433.0703125 19216.564453125 19434.55078125 19219.4296875 19435.21484375 C 19220.490234375 19435.45703125 19221.509765625 19435.578125 19222.458984375 19435.578125 C 19222.59375 19435.578125 19222.728515625 19435.57421875 19222.861328125 19435.5703125 C 19222.876953125 19435.5703125 19222.892578125 19435.568359375 19222.908203125 19435.568359375 C 19222.9609375 19435.568359375 19223.015625 19435.57421875 19223.072265625 19435.58984375 C 19223.2578125 19435.62890625 19223.41796875 19435.74609375 19223.521484375 19435.908203125 C 19223.66796875 19436.126953125 19223.69140625 19436.41015625 19223.580078125 19436.64453125 C 19223.181640625 19437.50390625 19222.734375 19438.263671875 19222.220703125 19438.955078125 C 19237.21484375 19433.859375 19249.708984375 19424.427734375 19258.623046875 19412.455078125 C 19251.994140625 19409.8671875 19243.869140625 19404.984375 19235.9609375 19398.8046875 C 19227.251953125 19392 19219.99609375 19384.55859375 19216.0703125 19378.3828125 C 19215.89453125 19378.109375 19215.67578125 19377.869140625 19215.42578125 19377.6796875 C 19215.109375 19377.42578125 19214.728515625 19377.240234375 19214.328125 19377.146484375 C 19214.26953125 19377.13671875 19214.21484375 19377.123046875 19214.15625 19377.1171875 C 19213.998046875 19377.08984375 19213.837890625 19377.076171875 19213.6796875 19377.076171875 C 19213.044921875 19377.076171875 19212.423828125 19377.2890625 19211.919921875 19377.6796875 C 19207.576171875 19381.0625 19203.60546875 19385.037109375 19200.119140625 19389.5 C 19196.052734375 19394.705078125 19192.8203125 19400.3046875 19190.505859375 19406.138671875 C 19188.275390625 19411.783203125 19186.986328125 19417.412109375 19186.673828125 19422.87109375 C 19186.37109375 19428.330078125 19187.064453125 19433.34375 19188.734375 19437.77734375 C 19189.41015625 19439.572265625 19190.23828125 19441.240234375 19191.208984375 19442.7734375 C 19193.3203125 19442.953125 19195.447265625 19443.044921875 19197.587890625 19443.044921875 M 19233.228515625 19417.373046875 C 19233.748046875 19417.373046875 19234.27734375 19417.431640625 19234.8046875 19417.5546875 C 19238.568359375 19418.41796875 19234.09765625 19419.1171875 19233.228515625 19422.87109375 C 19232.49609375 19426.068359375 19231.5859375 19428.0703125 19229.02734375 19428.0703125 C 19228.572265625 19428.0703125 19228.064453125 19428.005859375 19227.49609375 19427.875 C 19223.732421875 19427.005859375 19225.546875 19426.556640625 19226.412109375 19422.79296875 C 19227.158203125 19419.56640625 19230.044921875 19417.373046875 19233.228515625 19417.373046875 M 19212.544921875 19400.27734375 C 19213.0703125 19400.27734375 19213.599609375 19400.3359375 19214.123046875 19400.455078125 C 19217.88671875 19401.32421875 19220.240234375 19405.08984375 19219.376953125 19408.853515625 C 19218.62890625 19412.087890625 19215.736328125 19414.27734375 19212.548828125 19414.27734375 C 19212.03125 19414.275390625 19211.50390625 19414.21875 19210.978515625 19414.09765625 C 19207.21484375 19413.228515625 19204.861328125 19409.458984375 19205.73046875 19405.705078125 C 19205.90625 19404.9375 19206.203125 19404.21484375 19206.623046875 19403.556640625 C 19206.736328125 19403.228515625 19206.896484375 19402.931640625 19207.1015625 19402.66796875 C 19207.400390625 19402.28125 19207.78515625 19401.978515625 19208.244140625 19401.759765625 C 19209.494140625 19400.787109375 19211.00390625 19400.27734375 19212.544921875 19400.27734375 M 19197.587890625 19446.044921875 C 19195.38671875 19446.044921875 19193.15625 19445.94921875 19190.955078125 19445.76171875 C 19190.01953125 19445.68359375 19189.17578125 19445.169921875 19188.673828125 19444.37890625 C 19187.59375 19442.669921875 19186.66796875 19440.806640625 19185.927734375 19438.833984375 C 19184.109375 19434.0078125 19183.353515625 19428.58203125 19183.677734375 19422.705078125 C 19183.677734375 19422.703125 19183.677734375 19422.701171875 19183.6796875 19422.69921875 C 19184.009765625 19416.921875 19185.3671875 19410.978515625 19187.71484375 19405.037109375 C 19190.140625 19398.923828125 19193.517578125 19393.076171875 19197.755859375 19387.65234375 C 19201.38671875 19383.00390625 19205.533203125 19378.8515625 19210.076171875 19375.3125 C 19210.078125 19375.310546875 19210.08203125 19375.30859375 19210.083984375 19375.306640625 C 19211.109375 19374.513671875 19212.38671875 19374.076171875 19213.6796875 19374.076171875 C 19213.982421875 19374.076171875 19214.287109375 19374.099609375 19214.587890625 19374.1484375 C 19214.701171875 19374.1640625 19214.791015625 19374.181640625 19214.83984375 19374.19140625 L 19214.84375 19374.19140625 C 19214.900390625 19374.201171875 19214.95703125 19374.212890625 19215.01171875 19374.224609375 C 19215.83203125 19374.41796875 19216.611328125 19374.79296875 19217.271484375 19375.314453125 C 19217.787109375 19375.7109375 19218.232421875 19376.197265625 19218.59375 19376.759765625 C 19218.595703125 19376.765625 19218.599609375 19376.76953125 19218.6015625 19376.7734375 C 19222.34375 19382.658203125 19229.34375 19389.826171875 19237.80859375 19396.44140625 C 19241.640625 19399.435546875 19245.513671875 19402.115234375 19249.318359375 19404.40625 C 19253.068359375 19406.6640625 19256.56640625 19408.431640625 19259.71484375 19409.66015625 C 19260.5859375 19410 19261.248046875 19410.728515625 19261.505859375 19411.62890625 C 19261.765625 19412.52734375 19261.587890625 19413.49609375 19261.029296875 19414.24609375 C 19256.34765625 19420.53515625 19250.779296875 19426.072265625 19244.478515625 19430.701171875 C 19237.998046875 19435.46484375 19230.833984375 19439.197265625 19223.185546875 19441.794921875 C 19222.869140625 19441.90234375 19222.54296875 19441.955078125 19222.220703125 19441.955078125 C 19221.28125 19441.955078125 19220.373046875 19441.51171875 19219.796875 19440.72265625 C 19219.267578125 19439.99609375 19219.103515625 19439.091796875 19219.302734375 19438.255859375 C 19219.123046875 19438.21875 19218.94140625 19438.181640625 19218.759765625 19438.138671875 C 19218.7578125 19438.138671875 19218.75390625 19438.138671875 19218.751953125 19438.13671875 C 19215.4609375 19437.375 19212.09375 19435.701171875 19209.015625 19433.296875 C 19206.869140625 19431.62109375 19204.96875 19429.64453125 19203.51953125 19427.583984375 C 19202.876953125 19426.671875 19202.328125 19425.755859375 19201.873046875 19424.841796875 C 19200.525390625 19426.9765625 19199.94921875 19429.490234375 19200.248046875 19432.02734375 C 19200.587890625 19434.92578125 19202.03515625 19437.505859375 19204.322265625 19439.2890625 C 19204.73828125 19439.61328125 19205.173828125 19439.90625 19205.619140625 19440.1640625 C 19206.75390625 19440.818359375 19207.33203125 19442.1328125 19207.046875 19443.412109375 C 19206.763671875 19444.69140625 19205.68359375 19445.63671875 19204.37890625 19445.75 C 19202.125 19445.9453125 19199.83984375 19446.044921875 19197.587890625 19446.044921875 Z M 19228.880859375 19425.064453125 C 19228.9375 19425.068359375 19228.986328125 19425.0703125 19229.02734375 19425.0703125 C 19229.02734375 19425.0703125 19229.02734375 19425.0703125 19229.02734375 19425.0703125 C 19229.1640625 19425.0703125 19229.244140625 19425.0546875 19229.2734375 19425.044921875 C 19229.3671875 19424.96875 19229.7734375 19424.51171875 19230.3046875 19422.201171875 C 19230.3046875 19422.19921875 19230.3046875 19422.197265625 19230.306640625 19422.1953125 C 19230.3671875 19421.931640625 19230.439453125 19421.677734375 19230.521484375 19421.43359375 C 19229.92578125 19421.978515625 19229.517578125 19422.67578125 19229.3359375 19423.46875 C 19229.197265625 19424.068359375 19229.0390625 19424.599609375 19228.880859375 19425.064453125 Z M 19209.46875 19404.509765625 C 19209.46875 19404.509765625 19209.46484375 19404.517578125 19209.458984375 19404.53515625 C 19209.3828125 19404.7578125 19209.279296875 19404.970703125 19209.15234375 19405.169921875 C 19208.921875 19405.529296875 19208.755859375 19405.935546875 19208.654296875 19406.375 C 19208.654296875 19406.376953125 19208.654296875 19406.37890625 19208.65234375 19406.380859375 C 19208.4140625 19407.416015625 19208.59375 19408.486328125 19209.162109375 19409.392578125 C 19209.728515625 19410.302734375 19210.615234375 19410.935546875 19211.654296875 19411.173828125 C 19211.947265625 19411.2421875 19212.248046875 19411.275390625 19212.548828125 19411.275390625 C 19213.439453125 19411.27734375 19214.3203125 19410.970703125 19215.029296875 19410.416015625 C 19215.751953125 19409.84765625 19216.24609375 19409.076171875 19216.453125 19408.181640625 C 19216.9453125 19406.03125 19215.6015625 19403.87890625 19213.453125 19403.37890625 C 19213.154296875 19403.3125 19212.849609375 19403.27734375 19212.544921875 19403.27734375 C 19211.650390625 19403.27734375 19210.80078125 19403.572265625 19210.0859375 19404.126953125 C 19209.916015625 19404.259765625 19209.73046875 19404.375 19209.53515625 19404.46875 C 19209.490234375 19404.490234375 19209.474609375 19404.50390625 19209.474609375 19404.50390625 C 19209.47265625 19404.505859375 19209.470703125 19404.5078125 19209.46875 19404.509765625 C 19209.46875 19404.509765625 19209.46875 19404.509765625 19209.46875 19404.509765625 Z" stroke="none" fill="#dc7eff"/>
          </g>
          <path id="Path_4872" data-name="Path 4872" d="M19147.287,19353.936a24.614,24.614,0,0,1-10.5-2.281,25.155,25.155,0,0,1-10.357-9.07,36.322,36.322,0,0,1-5.359-14.061,53.763,53.763,0,0,1-.031-17.164,69.058,69.058,0,0,1,14.461-32.545,2.879,2.879,0,0,1,2.055-1.055q.085-.006.17-.006a2.776,2.776,0,0,1,1.191.27,2.668,2.668,0,0,1,.787.543c5.217,5.131,13.955,10.752,23.977,15.422s25.691,2.414,32.98,3.113a2.693,2.693,0,0,1,.922.254,2.76,2.76,0,0,1,1.074.873,2.854,2.854,0,0,1,.51,2.25c-1.043,5.41-4.684,10.826-7.074,15.951-2.246,4.818-8.842,14.578-12.01,18.617a58.62,58.62,0,0,1-10.121,10.158,44.7,44.7,0,0,1-11.221,6.463A31.7,31.7,0,0,1,19147.287,19353.936Zm-11.088-32.029a.766.766,0,0,0-.611.295,12.424,12.424,0,0,0-1.555,2.5,13.989,13.989,0,0,0-.506,10.7,13.808,13.808,0,0,0,12.988,9.166,14.016,14.016,0,0,0,12.7-8.131,12.729,12.729,0,0,0,.912-2.793.753.753,0,0,0-.219-.709.735.735,0,0,0-.719-.18,13.034,13.034,0,0,1-3.424.424,22.39,22.39,0,0,1-9.311-2.242c-4.49-2.09-8.07-5.3-9.58-8.59a.769.769,0,0,0-.6-.437C19136.248,19321.908,19136.223,19321.906,19136.2,19321.906Zm30.57-9.393a7,7,0,1,0,7,7A7,7,0,0,0,19166.77,19312.514Zm-24-12.006a6.974,6.974,0,0,0-5.437,2.594,3.081,3.081,0,0,0-1.178,2.113,7,7,0,1,0,6.615-4.707Z" transform="translate(-21149.584 -15897.173) rotate(-9)" fill="#fff"/>
          <path id="Path_4874" data-name="Path 4874" d="M-18343.242-19106.867l14.813-11.391,30.129,18.238-4.109,17.953-17.547,15.336-23.285,6.285-9.857-39.574Z" transform="translate(19106 19276)" fill="#fff"/>
          <g id="Group_1988" data-name="Group 1988">
            <g id="Path_4877" data-name="Path 4877" transform="translate(-18357.406 -19130.281)" fill="#ffd719" stroke-linejoin="round">
              <path d="M 19131.34375 19348.208984375 C 19127.7578125 19348.208984375 19124.361328125 19347.470703125 19121.248046875 19346.015625 C 19117.25390625 19344.15625 19113.904296875 19341.224609375 19111.29296875 19337.302734375 C 19108.779296875 19333.5234375 19107.056640625 19329.005859375 19106.173828125 19323.87109375 C 19105.287109375 19318.751953125 19105.27734375 19313.26171875 19106.140625 19307.556640625 C 19107.03125 19301.669921875 19108.826171875 19295.8046875 19111.474609375 19290.125 C 19113.736328125 19285.267578125 19116.556640625 19280.74609375 19119.859375 19276.681640625 C 19120.423828125 19275.986328125 19121.2578125 19275.55859375 19122.15234375 19275.50390625 L 19122.166015625 19275.50390625 L 19122.181640625 19275.50390625 C 19122.201171875 19275.50390625 19122.220703125 19275.50390625 19122.240234375 19275.501953125 C 19122.2734375 19275.501953125 19122.30859375 19275.5 19122.341796875 19275.5 C 19122.806640625 19275.5 19123.265625 19275.60546875 19123.671875 19275.802734375 C 19123.998046875 19275.947265625 19124.294921875 19276.150390625 19124.5546875 19276.408203125 C 19129.421875 19281.197265625 19137.59765625 19286.453125 19146.984375 19290.830078125 C 19156.35546875 19295.203125 19165.63671875 19298.0859375 19172.44921875 19298.73828125 C 19172.802734375 19298.771484375 19173.16015625 19298.87109375 19173.48046875 19299.025390625 C 19173.95703125 19299.2421875 19174.373046875 19299.578125 19174.68359375 19300 C 19175.21875 19300.72265625 19175.42578125 19301.638671875 19175.251953125 19302.515625 C 19174.2578125 19307.65625 19172.607421875 19312.724609375 19170.345703125 19317.57421875 C 19168.2109375 19322.146484375 19165.607421875 19326.40625 19162.60546875 19330.240234375 C 19159.685546875 19333.9609375 19156.44921875 19337.205078125 19152.990234375 19339.884765625 C 19149.541015625 19342.560546875 19145.9453125 19344.6328125 19142.3046875 19346.04296875 C 19138.595703125 19347.48046875 19134.908203125 19348.208984375 19131.34375 19348.208984375 Z M 19149.6796875 19309.21875 C 19146.32421875 19309.21875 19143.59375 19311.94921875 19143.59375 19315.306640625 C 19143.59375 19318.6640625 19146.32421875 19321.39453125 19149.6796875 19321.39453125 C 19153.0390625 19321.39453125 19155.7734375 19318.6640625 19155.7734375 19315.306640625 C 19155.7734375 19311.94921875 19153.0390625 19309.21875 19149.6796875 19309.21875 Z M 19127.09375 19297.91796875 C 19125.25390625 19297.91796875 19123.529296875 19298.740234375 19122.365234375 19300.173828125 L 19122.330078125 19300.216796875 L 19122.287109375 19300.251953125 C 19121.96875 19300.50390625 19121.73046875 19300.802734375 19121.576171875 19301.140625 L 19121.57421875 19301.142578125 L 19121.57421875 19301.146484375 C 19121.46484375 19301.37890625 19121.392578125 19301.634765625 19121.361328125 19301.904296875 L 19121.35546875 19301.958984375 L 19121.337890625 19302.01171875 C 19121.11328125 19302.658203125 19121 19303.33203125 19121 19304.01171875 C 19121 19307.365234375 19123.734375 19310.091796875 19127.09375 19310.091796875 C 19130.451171875 19310.091796875 19133.18359375 19307.365234375 19133.18359375 19304.01171875 C 19133.18359375 19300.65234375 19130.451171875 19297.91796875 19127.09375 19297.91796875 Z" stroke="none"/>
              <path d="M 19131.34375 19347.708984375 C 19134.845703125 19347.708984375 19138.470703125 19346.9921875 19142.125 19345.576171875 C 19145.7265625 19344.181640625 19149.27734375 19342.1328125 19152.68359375 19339.490234375 C 19156.123046875 19336.826171875 19159.326171875 19333.607421875 19162.2109375 19329.931640625 C 19165.19140625 19326.126953125 19167.775390625 19321.8984375 19169.892578125 19317.36328125 C 19172.140625 19312.541015625 19173.77734375 19307.5078125 19174.76171875 19302.41796875 C 19174.908203125 19301.677734375 19174.732421875 19300.90625 19174.28125 19300.296875 C 19174.01953125 19299.94140625 19173.66796875 19299.658203125 19173.26953125 19299.478515625 C 19172.99609375 19299.345703125 19172.69921875 19299.263671875 19172.40234375 19299.236328125 C 19165.5390625 19298.578125 19156.19921875 19295.681640625 19146.7734375 19291.283203125 C 19137.3359375 19286.8828125 19129.11328125 19281.59375 19124.203125 19276.763671875 C 19123.984375 19276.546875 19123.732421875 19276.375 19123.4609375 19276.255859375 C 19123.115234375 19276.0859375 19122.7265625 19276 19122.341796875 19276 C 19122.287109375 19276 19122.232421875 19276.00390625 19122.181640625 19276.00390625 C 19121.427734375 19276.048828125 19120.71875 19276.416015625 19120.248046875 19276.99609375 C 19116.978515625 19281.01953125 19114.177734375 19285.50390625 19111.927734375 19290.3359375 C 19109.302734375 19295.966796875 19107.51953125 19301.7890625 19106.634765625 19307.630859375 C 19105.779296875 19313.28125 19105.7890625 19318.716796875 19106.666015625 19323.787109375 C 19107.5390625 19328.861328125 19109.240234375 19333.314453125 19111.708984375 19337.025390625 C 19114.263671875 19340.861328125 19117.541015625 19343.73828125 19121.458984375 19345.5625 C 19124.509765625 19346.98828125 19127.83203125 19347.708984375 19131.34375 19347.708984375 M 19149.6796875 19308.71875 C 19153.314453125 19308.71875 19156.2734375 19311.671875 19156.2734375 19315.306640625 C 19156.2734375 19318.94140625 19153.314453125 19321.89453125 19149.6796875 19321.89453125 C 19146.05078125 19321.89453125 19143.09375 19318.94140625 19143.09375 19315.306640625 C 19143.09375 19311.671875 19146.05078125 19308.71875 19149.6796875 19308.71875 M 19127.09375 19297.41796875 C 19130.7265625 19297.41796875 19133.68359375 19300.376953125 19133.68359375 19304.01171875 C 19133.68359375 19307.640625 19130.7265625 19310.591796875 19127.09375 19310.591796875 C 19123.458984375 19310.591796875 19120.5 19307.640625 19120.5 19304.01171875 C 19120.5 19303.2734375 19120.623046875 19302.546875 19120.865234375 19301.84765625 C 19120.90234375 19301.52734375 19120.98828125 19301.216796875 19121.12109375 19300.93359375 C 19121.30859375 19300.521484375 19121.59765625 19300.16015625 19121.9765625 19299.859375 C 19123.234375 19298.310546875 19125.09765625 19297.41796875 19127.09375 19297.41796875 M 19131.34375 19348.708984375 C 19127.685546875 19348.708984375 19124.216796875 19347.955078125 19121.03515625 19346.46875 C 19116.958984375 19344.5703125 19113.541015625 19341.580078125 19110.876953125 19337.580078125 C 19108.32421875 19333.7421875 19106.576171875 19329.158203125 19105.6796875 19323.95703125 C 19104.78515625 19318.783203125 19104.7734375 19313.240234375 19105.646484375 19307.48046875 C 19106.544921875 19301.546875 19108.353515625 19295.63671875 19111.021484375 19289.9140625 C 19113.30078125 19285.01953125 19116.142578125 19280.4609375 19119.47265625 19276.365234375 C 19120.123046875 19275.5625 19121.08984375 19275.06640625 19122.123046875 19275.005859375 C 19122.15625 19275 19122.1875 19275.00390625 19122.22265625 19275.001953125 C 19122.26171875 19275.001953125 19122.30078125 19275 19122.341796875 19275 C 19122.87890625 19275 19123.41015625 19275.12109375 19123.8828125 19275.349609375 C 19124.26171875 19275.517578125 19124.60546875 19275.755859375 19124.90625 19276.052734375 C 19129.734375 19280.80078125 19137.859375 19286.0234375 19147.1953125 19290.376953125 C 19156.517578125 19294.7265625 19165.73828125 19297.591796875 19172.498046875 19298.240234375 C 19172.90625 19298.279296875 19173.3203125 19298.392578125 19173.693359375 19298.572265625 C 19174.24609375 19298.82421875 19174.7265625 19299.21484375 19175.0859375 19299.703125 C 19175.703125 19300.537109375 19175.943359375 19301.59765625 19175.7421875 19302.611328125 C 19174.740234375 19307.791015625 19173.078125 19312.8984375 19170.798828125 19317.78515625 C 19168.6484375 19322.390625 19166.0234375 19326.685546875 19162.998046875 19330.548828125 C 19160.052734375 19334.30078125 19156.7890625 19337.576171875 19153.296875 19340.28125 C 19149.80859375 19342.986328125 19146.171875 19345.08203125 19142.486328125 19346.5078125 C 19138.71875 19347.96875 19134.96875 19348.708984375 19131.34375 19348.708984375 Z M 19149.6796875 19309.71875 C 19146.599609375 19309.71875 19144.09375 19312.224609375 19144.09375 19315.306640625 C 19144.09375 19318.388671875 19146.599609375 19320.89453125 19149.6796875 19320.89453125 C 19152.763671875 19320.89453125 19155.2734375 19318.388671875 19155.2734375 19315.306640625 C 19155.2734375 19312.224609375 19152.763671875 19309.71875 19149.6796875 19309.71875 Z M 19127.09375 19298.41796875 C 19125.404296875 19298.41796875 19123.822265625 19299.173828125 19122.751953125 19300.490234375 C 19122.70703125 19300.546875 19122.654296875 19300.59765625 19122.59765625 19300.642578125 C 19122.341796875 19300.845703125 19122.15234375 19301.08203125 19122.03125 19301.34765625 C 19122.029296875 19301.3515625 19122.02734375 19301.35546875 19122.02734375 19301.357421875 C 19121.939453125 19301.54296875 19121.8828125 19301.74609375 19121.859375 19301.962890625 C 19121.849609375 19302.03515625 19121.833984375 19302.10546875 19121.810546875 19302.17578125 C 19121.603515625 19302.76953125 19121.5 19303.38671875 19121.5 19304.01171875 C 19121.5 19307.087890625 19124.009765625 19309.591796875 19127.09375 19309.591796875 C 19130.17578125 19309.591796875 19132.68359375 19307.087890625 19132.68359375 19304.01171875 C 19132.68359375 19300.927734375 19130.17578125 19298.41796875 19127.09375 19298.41796875 Z" stroke="none" fill="#ffd719"/>
            </g>
            <path id="Path_4876" data-name="Path 4876" d="M-18343.562-19089.352c.289-2.506,3.656,8.537,24.295,12.309.246.033-10.98,7.643-18.117,3.518S-18343.852-19086.846-18343.562-19089.352Z" transform="translate(19106 19276)" fill="#fff" stroke="#fff" stroke-width="3"/>
          </g>
        </g>
      </g>
    </g>
    <g id="GIRL" transform="translate(-151.475 62.682)">
      <path id="Path_4269" data-name="Path 4269" d="M10770.973,22648.736c.19-.4.385-.8.578-1.211a156.557,156.557,0,0,1,27.709-40.324,122.3,122.3,0,0,1,36.739-26.693,101.047,101.047,0,0,1,86.239,0,122.349,122.349,0,0,1,36.753,26.693,156.922,156.922,0,0,1,27.694,40.324c.2.406.39.807.581,1.211Z" transform="translate(-10197.392 -22237.416)" fill="#17a9ea"/>
      <path id="Rectangle_17846" data-name="Rectangle 17846" d="M29,0H90.076a29,29,0,0,1,29,29V39.72a44,44,0,0,1-44,44H44a44,44,0,0,1-44-44V29A29,29,0,0,1,29,0Z" transform="translate(624.085 233.732)" fill="#8738bd"/>
      <g id="Group_1887" data-name="Group 1887" transform="translate(613.153 228)">
        <circle id="Ellipse_507" data-name="Ellipse 507" cx="17.074" cy="17.074" r="17.074" transform="translate(103.357 37.088)" fill="#d06444"/>
        <path id="Path_4268" data-name="Path 4268" d="M50.333,111.578V92.893A44.572,44.572,0,0,1,29.056,65.745,17.073,17.073,0,1,1,26.99,39.678a45.008,45.008,0,0,1,89.991,1.515v8.6a45.3,45.3,0,0,1-.674,7.8,44.511,44.511,0,0,1-27.5,37.61v16.368Z" transform="translate(-0.002 3.815)" fill="#d06444"/>
        <rect id="Rectangle_17600" data-name="Rectangle 17600" width="23.09" height="10.821" rx="5.41" transform="matrix(0.966, -0.259, 0.259, 0.966, 38.84, 18.905)" fill="#262626"/>
        <path id="Path_3691" data-name="Path 3691" d="M15.067,12.827c-.676-3.8-1.911-6.032-6.233-7.88S.893,4.582.162,3.584,1.176.237,5.042.019a13.459,13.459,0,0,1,10.615,4.4c2.494,2.929,2.724,4.1,3.154,6.845S15.743,16.624,15.067,12.827Z" transform="translate(85.836 72.164) rotate(155)" fill="#262626"/>
        <g id="Group_1824" data-name="Group 1824" transform="translate(42.646 31.323)">
          <g id="Group_1822" data-name="Group 1822" transform="translate(0 0)">
            <circle id="Ellipse_498" data-name="Ellipse 498" cx="14.556" cy="14.556" r="14.556" transform="translate(0 0)" fill="#fff"/>
            <ellipse id="Ellipse_500" data-name="Ellipse 500" cx="7.778" cy="8.087" rx="7.778" ry="8.087" transform="translate(9.704 12.938)" fill="#262626"/>
          </g>
          <g id="Group_1823" data-name="Group 1823" transform="translate(33.964 0)">
            <circle id="Ellipse_498-2" data-name="Ellipse 498" cx="14.556" cy="14.556" r="14.556" transform="translate(0 0)" fill="#fff"/>
            <circle id="Ellipse_500-2" data-name="Ellipse 500" cx="8.087" cy="8.087" r="8.087" transform="translate(9.087 12.938)" fill="#262626"/>
          </g>
        </g>
      </g>
      <g id="Group_1857" data-name="Group 1857" transform="translate(658.726 314.743)">
        <path id="Path_4099" data-name="Path 4099" d="M97.943,198.449l23.166,16.84,23.908-16.84H97.943" transform="translate(-97.943 -176.056)" fill="#fff"/>
        <rect id="Rectangle_17678" data-name="Rectangle 17678" width="46.902" height="22.642" transform="translate(0.068 0)" fill="#d06444"/>
      </g>
      <path id="Path_4413" data-name="Path 4413" d="M355.965,52.343h1.553c33.014,0,57.746,24.959,57.746,58.355v8.25s-50.447-7.175-75.854-28.9c-12.26,2.982-43.224,30.316-43.224,31.365v-8.77C296.188,79.252,322.952,52.343,355.965,52.343Z" transform="translate(327.899 142.12)" fill="#8738bd"/>
      <path id="Path_4888" data-name="Path 4888" d="M-3144.789,1118.712v-1.357l-.03.071c0-16.474-10.639-27.564-14.243-31.187a46.414,46.414,0,0,0-14.8-10.043,45.877,45.877,0,0,0-11.655-3.232q-2.028-.283-4.09-.384-2.052.1-4.072.384a45.973,45.973,0,0,0-11.655,3.231,46.47,46.47,0,0,0-14.8,10.045c-3.6,3.621-14.243,14.712-14.243,31.187l-.028-.07v1.356a2.062,2.062,0,0,1-2.062,2.062,2.062,2.062,0,0,1-2.062-2.062V1106.3h0v-5.366q0-.15,0-.3v-1.513a2.078,2.078,0,0,1,.052-.466,46.5,46.5,0,0,1,3.6-15.944q.086-.2.174-.407c6.308-15.776,20.549-29.906,43.754-30.929l-.025-.059c.46,0,.915.005,1.368.015.453-.01.909-.015,1.369-.015l-.025.059c23.221,1.025,37.467,15.173,43.769,30.962q.08.186.159.373a46.5,46.5,0,0,1,3.6,15.937,2.054,2.054,0,0,1,.056.474v19.588a2.062,2.062,0,0,1-2.063,2.062A2.062,2.062,0,0,1-3144.789,1118.712Z" transform="translate(3874.064 -845.181)" fill="#8ce33a"/>
      <path id="Path_4256" data-name="Path 4256" d="M11304.765,22434.105l-4.162-4.057a1.993,1.993,0,0,0-1.681-.545l-5.738.814a5.926,5.926,0,0,1-6.688-4.891l-1-5.736a2.015,2.015,0,0,0-1.034-1.439l-.161-.086h47.978c.4,0,.806.006,1.206.016l-.132.07a2.009,2.009,0,0,0-1.038,1.439l-1,5.736a5.932,5.932,0,0,1-5.833,4.951,6.255,6.255,0,0,1-.855-.061l-5.737-.814a2,2,0,0,0-1.682.545l-4.161,4.057a5.906,5.906,0,0,1-8.271,0Z" transform="translate(-10626.911 -22081.768)" fill="#ffd719"/>
      <circle id="Ellipse_581" data-name="Ellipse 581" cx="30" cy="30" r="30" transform="translate(548.475 363.318)" fill="#d06444"/>
      <rect id="Rectangle_17841" data-name="Rectangle 17841" width="59" height="59" rx="29.5" transform="translate(743.976 363.318)" fill="#d06444"/>
      <rect id="Rectangle_17796" data-name="Rectangle 17796" width="193" height="91" rx="12" transform="translate(578.475 356.318)" fill="#fff"/>
      <path id="Union_65" data-name="Union 65" d="M18739.938,19124.846a9.5,9.5,0,0,1-7.338-15.541,10.506,10.506,0,0,1-3-18.336,10,10,0,0,1,5.834-18.123h19a10,10,0,0,1,7.621,16.469,10.506,10.506,0,0,1,1.662,19.379,9.5,9.5,0,0,1-6.783,16.152Z" transform="translate(-18160.961 -18701.525)" fill="#d06444"/>
      <path id="Union_64" data-name="Union 64" d="M18739.936,19123.844a9.5,9.5,0,0,1-7.914-14.754,10.5,10.5,0,0,1,.793-19.771,10,10,0,0,1,7.619-16.475h19a10,10,0,0,1,5.832,18.125,10.5,10.5,0,0,1-.309,16.977,9.5,9.5,0,0,1-7.021,15.9Z" transform="translate(-17985.461 -18701.525)" fill="#d06444"/>
      <circle id="Ellipse_570" data-name="Ellipse 570" cx="21" cy="21" r="21" transform="translate(604.475 168.318)" fill="#8738bd"/>
      <circle id="Ellipse_669" data-name="Ellipse 669" cx="21" cy="21" r="21" transform="translate(723.475 168.318)" fill="#8738bd"/>
      <rect id="Rectangle_17865" data-name="Rectangle 17865" width="25" height="10" rx="5" transform="matrix(0.719, -0.695, 0.695, 0.719, 629.51, 211.829)" fill="#ffd719"/>
      <rect id="Rectangle_17866" data-name="Rectangle 17866" width="25" height="10" rx="5" transform="matrix(-0.719, -0.695, 0.695, -0.719, 732.493, 219.023)" fill="#ffd719"/>
    </g>
  </g>
</svg>
