<svg xmlns="http://www.w3.org/2000/svg" width="749" height="386.955" viewBox="0 0 749 386.955">
  <g id="Group_2198" data-name="Group 2198" transform="translate(-138 -87.244)">
    <rect id="Rectangle_17683" data-name="Rectangle 17683" width="749" height="357" rx="169" transform="translate(138 117)" fill="#d0fa84" style="mix-blend-mode: multiply;isolation: isolate"/>
    <g id="STARS" transform="translate(-12.621 60.574)">
      <g id="Group_1964" data-name="Group 1964" transform="translate(-1 -6)">
        <path id="Path_4694" data-name="Path 4694" d="M0,75.24,8.47,0,7.538,4.885l27.2,71.853Z" transform="matrix(-0.819, 0.574, -0.574, -0.819, 475.684, 122.299)" fill="#fff"/>
        <path id="Path_3964" data-name="Path 3964" d="M223.56,328.961a3.942,3.942,0,0,0-2.843-2.618l-7.47-1.764-3.986-6.56a3.942,3.942,0,0,0-6.737,0l-3.986,6.56-7.47,1.764a3.942,3.942,0,0,0-2.082,6.407l5.007,5.818-.631,7.649a3.941,3.941,0,0,0,5.45,3.96l7.08-2.964,7.08,2.964a3.941,3.941,0,0,0,5.45-3.96l-.631-7.649,5.007-5.818A3.941,3.941,0,0,0,223.56,328.961Z" transform="translate(208.967 -269.043)" fill="#ffd719"/>
      </g>
      <g id="Group_1964-2" data-name="Group 1964" transform="translate(56 -6)">
        <path id="Path_4688" data-name="Path 4688" d="M401.254,99.607l12.386,68.819,4.694,4.133,18.9-88.68Z" transform="matrix(0.951, -0.309, 0.309, 0.951, -8.536, 112.288)" fill="#fff"/>
        <path id="Path_3964-2" data-name="Path 3964" d="M223.56,328.961a3.942,3.942,0,0,0-2.843-2.618l-7.47-1.764-3.986-6.56a3.942,3.942,0,0,0-6.737,0l-3.986,6.56-7.47,1.764a3.942,3.942,0,0,0-2.082,6.407l5.007,5.818-.631,7.649a3.941,3.941,0,0,0,5.45,3.96l7.08-2.964,7.08,2.964a3.941,3.941,0,0,0,5.45-3.96l-.631-7.649,5.007-5.818A3.941,3.941,0,0,0,223.56,328.961Z" transform="translate(209.967 -265.455)" fill="#ffd719"/>
      </g>
      <g id="Group_1964-3" data-name="Group 1964" transform="translate(113 -6)">
        <path id="Path_4688-2" data-name="Path 4688" d="M401.254,103.255l13.527,84.781h0L433.42,83.879Z" transform="translate(0.299 -42.398)" fill="#fff"/>
        <path id="Path_3964-3" data-name="Path 3964" d="M223.56,328.961a3.942,3.942,0,0,0-2.843-2.618l-7.47-1.764-3.986-6.56a3.942,3.942,0,0,0-6.737,0l-3.986,6.56-7.47,1.764a3.942,3.942,0,0,0-2.082,6.407l5.007,5.818-.631,7.649a3.941,3.941,0,0,0,5.45,3.96l7.08-2.964,7.08,2.964a3.941,3.941,0,0,0,5.45-3.96l-.631-7.649,5.007-5.818A3.941,3.941,0,0,0,223.56,328.961Z" transform="translate(208.967 -283.455)" fill="#ffd719"/>
      </g>
      <g id="Group_1964-4" data-name="Group 1964" transform="translate(170 -6)">
        <path id="Path_4688-3" data-name="Path 4688" d="M401.254,99.088l11.074,66.549,3.143,1.4L433.42,83.879Z" transform="matrix(0.934, 0.358, -0.358, 0.934, 60.147, -171.274)" fill="#fff"/>
        <path id="Path_3964-4" data-name="Path 3964" d="M223.56,328.961a3.942,3.942,0,0,0-2.843-2.618l-7.47-1.764-3.986-6.56a3.942,3.942,0,0,0-6.737,0l-3.986,6.56-7.47,1.764a3.942,3.942,0,0,0-2.082,6.407l5.007,5.818-.631,7.649a3.941,3.941,0,0,0,5.45,3.96l7.08-2.964,7.08,2.964a3.941,3.941,0,0,0,5.45-3.96l-.631-7.649,5.007-5.818A3.941,3.941,0,0,0,223.56,328.961Z" transform="translate(210.967 -267.341)" fill="#ffd719"/>
      </g>
      <g id="Group_1964-5" data-name="Group 1964" transform="translate(227 -6)">
        <path id="Path_4688-4" data-name="Path 4688" d="M403.487,98.181l8.47,75.24-.932-4.885,27.2-71.852Z" transform="matrix(0.819, 0.574, -0.574, 0.819, 122.169, -252.19)" fill="#fff"/>
        <path id="Path_3964-5" data-name="Path 3964" d="M223.56,328.961a3.942,3.942,0,0,0-2.843-2.618l-7.47-1.764-3.986-6.56a3.942,3.942,0,0,0-6.737,0l-3.986,6.56-7.47,1.764a3.942,3.942,0,0,0-2.082,6.407l5.007,5.818-.631,7.649a3.941,3.941,0,0,0,5.45,3.96l7.08-2.964,7.08,2.964a3.941,3.941,0,0,0,5.45-3.96l-.631-7.649,5.007-5.818A3.941,3.941,0,0,0,223.56,328.961Z" transform="translate(206.967 -269.043)" fill="#ffd719"/>
      </g>
    </g>
    <g id="_021-communication" data-name="021-communication" transform="translate(396.58 155.717)">
      <path id="Path_4462" data-name="Path 4462" d="M81.034,225.425h33.76a45.034,45.034,0,0,1,45.034,45.034v54.485a9.511,9.511,0,0,1-9.511,9.511h0a9.51,9.51,0,0,1-8.358-4.973l-7.594-13.989H81.034A45.034,45.034,0,0,1,36,270.459h0A45.034,45.034,0,0,1,81.034,225.425Z" transform="translate(-27.39 -116.275)" fill="#6cd0f5"/>
      <path id="Path_4463" data-name="Path 4463" d="M133.695,280.427v9.71a2.427,2.427,0,0,1-2.427,2.427H92.427A2.427,2.427,0,0,1,90,290.137v-9.71A2.427,2.427,0,0,1,92.427,278h38.84A2.427,2.427,0,0,1,133.695,280.427ZM116.7,302.275H92.427A2.427,2.427,0,0,0,90,304.7v9.71a2.427,2.427,0,0,0,2.427,2.427H116.7a2.427,2.427,0,0,0,2.427-2.427V304.7A2.427,2.427,0,0,0,116.7,302.275Z" transform="translate(-55.173 -143.326)" fill="#4191be"/>
      <path id="Path_4464" data-name="Path 4464" d="M344.773,165.035h0a45.034,45.034,0,0,1-45.034,45.035H246.407l-7.594,13.989a9.511,9.511,0,0,1-8.358,4.973h0a9.511,9.511,0,0,1-9.511-9.511V165.035A45.034,45.034,0,0,1,265.978,120h33.76A45.034,45.034,0,0,1,344.773,165.035Z" transform="translate(-122.544 -62.034)" fill="#ffe13c"/>
      <path id="Path_4465" data-name="Path 4465" d="M348.259,172.427v9.71a2.427,2.427,0,0,1-2.427,2.427h-53.4A2.427,2.427,0,0,1,290,182.137v-9.71A2.427,2.427,0,0,1,292.427,170h53.4A2.427,2.427,0,0,1,348.259,172.427Zm-2.427,21.847H304.565a2.427,2.427,0,0,0-2.427,2.427v9.71a2.427,2.427,0,0,0,2.427,2.427h41.267a2.427,2.427,0,0,0,2.427-2.427V196.7A2.427,2.427,0,0,0,345.832,194.275Z" transform="translate(-158.074 -87.759)" fill="#ebb410"/>
      <path id="Path_4672" data-name="Path 4672" d="M17653.707,19508.412a104.8,104.8,0,0,1-13.914-.934,45.954,45.954,0,0,1-.342-5.592v-292.912a21.393,21.393,0,0,1,21.389-21.391h351.154a21.4,21.4,0,0,1,21.395,21.391v292.912a45.9,45.9,0,0,1-.359,5.711,104.656,104.656,0,0,1-13.014.814Z" transform="translate(-17721 -19190.281)" fill="#00b754"/>
      <path id="Path_4690" data-name="Path 4690" d="M17653.707,19508.412a104.8,104.8,0,0,1-13.914-.934,45.954,45.954,0,0,1-.342-5.592v-292.912a21.393,21.393,0,0,1,21.389-21.391h351.154a21.4,21.4,0,0,1,21.395,21.391v292.912a45.9,45.9,0,0,1-.359,5.711,104.656,104.656,0,0,1-13.014.814Z" transform="translate(-17721 -19190.281)" fill="#00b754"/>
      <path id="Path_4460" data-name="Path 4460" d="M471.575,64.855V98.84c0-2.681-5.544-4.855-12.383-4.855H122.383c-6.839,0-12.383,2.174-12.383,4.855V64.855C110,62.174,115.544,60,122.383,60h336.81C466.032,60,471.575,62.174,471.575,64.855Z" transform="translate(-175.151 -31.164)" fill="#d6f5fe"/>
      <path id="Path_4693" data-name="Path 4693" d="M471.575,104.388V367.744H110V104.388c0-3.528,5.544-6.388,12.383-6.388h336.81C466.032,98,471.575,100.861,471.575,104.388Z" transform="translate(-175.151 -49.262)" fill="#fff"/>
      <path id="Path_4459" data-name="Path 4459" d="M236.317,24.855a4.855,4.855,0,0,1-4.855,4.855h-29.13a4.855,4.855,0,1,1,0-9.71h29.13A4.855,4.855,0,0,1,236.317,24.855ZM184.855,20a4.855,4.855,0,1,0,4.855,4.855A4.855,4.855,0,0,0,184.855,20Zm63.114,0a4.855,4.855,0,1,0,4.855,4.855A4.855,4.855,0,0,0,247.969,20Z" transform="translate(-101.479 -10.583)" fill="#008b56"/>
      <g id="Group_1963" data-name="Group 1963" transform="translate(6 -3)">
        <path id="Path_4680" data-name="Path 4680" d="M184.534,20a4.534,4.534,0,1,0,4.534,4.534A4.534,4.534,0,0,0,184.534,20Z" transform="translate(-166.479 63.075)" fill="#fff"/>
        <path id="Path_4681" data-name="Path 4681" d="M182.98,20a2.98,2.98,0,1,0,2.98,2.98A2.98,2.98,0,0,0,182.98,20Z" transform="translate(-24.528 69.12)" fill="#fff"/>
        <path id="Path_4682" data-name="Path 4682" d="M184.534,20a4.534,4.534,0,1,0,4.534,4.534A4.534,4.534,0,0,0,184.534,20Z" transform="translate(-122.312 50.676)" fill="#fff"/>
        <path id="Path_4686" data-name="Path 4686" d="M183.429,20a3.429,3.429,0,1,0,3.429,3.429A3.429,3.429,0,0,0,183.429,20Z" transform="translate(-135.246 79.748)" fill="#fff"/>
        <path id="Path_4683" data-name="Path 4683" d="M184.534,20a4.534,4.534,0,1,0,4.534,4.534A4.534,4.534,0,0,0,184.534,20Z" transform="translate(-6.029 154.337)" fill="#fff"/>
        <path id="Path_4687" data-name="Path 4687" d="M184.534,20a4.534,4.534,0,1,0,4.534,4.534A4.534,4.534,0,0,0,184.534,20Z" transform="translate(-6.029 92.337)" fill="#fff"/>
        <path id="Path_4684" data-name="Path 4684" d="M184.534,20a4.534,4.534,0,1,0,4.534,4.534A4.534,4.534,0,0,0,184.534,20Z" transform="translate(-140.99 168.345)" fill="#fff"/>
        <path id="Path_4685" data-name="Path 4685" d="M184.534,20a4.534,4.534,0,1,0,4.534,4.534A4.534,4.534,0,0,0,184.534,20Z" transform="translate(11.233 56.943)" fill="#fff"/>
      </g>
    </g>
    <g id="Group_1776" data-name="Group 1776" transform="translate(455.9 224.949)">
      <circle id="Ellipse_667" data-name="Ellipse 667" cx="44" cy="44" r="44" transform="translate(11.099 -1.949)" fill="#dc7eff"/>
      <g id="Group_1949" data-name="Group 1949" transform="translate(37.916 17.105)">
        <g id="Group_1822" data-name="Group 1822" transform="translate(0 0)">
          <ellipse id="Ellipse_498" data-name="Ellipse 498" cx="7.92" cy="7.92" rx="7.92" ry="7.92" fill="#fff"/>
          <ellipse id="Ellipse_500" data-name="Ellipse 500" cx="3.96" cy="4.4" rx="3.96" ry="4.4" transform="translate(7.04 1.76)" fill="#262626"/>
        </g>
        <g id="Group_1823" data-name="Group 1823" transform="translate(18.48 0)">
          <ellipse id="Ellipse_498-2" data-name="Ellipse 498" cx="7.92" cy="7.92" rx="7.92" ry="7.92" transform="translate(0)" fill="#fff"/>
          <ellipse id="Ellipse_500-2" data-name="Ellipse 500" cx="4.4" cy="4.4" rx="4.4" ry="4.4" transform="translate(6.16 1.76)" fill="#262626"/>
        </g>
      </g>
      <g id="Group_1960" data-name="Group 1960" transform="translate(-0.001 48.098)">
        <path id="Path_4009" data-name="Path 4009" d="M18055.5,19049.326v-27.912a43.506,43.506,0,0,1-21.764.285v27.627h-8.121v-30.514a43.97,43.97,0,0,1-16.193-13.186l-1.25,15.357a6.611,6.611,0,0,1,3.338,5.822,6.22,6.22,0,1,1-12.422,0,6.679,6.679,0,0,1,2.523-5.285l-.348.018-.607-38.139c-.033-.3-.059-.605-.084-.914a13.267,13.267,0,0,1,2.059-.162h83.074a13.267,13.267,0,0,1,1.982.15l-.625,39.064-.342-.018a6.681,6.681,0,0,1,2.525,5.285,6.22,6.22,0,1,1-12.422,0,6.613,6.613,0,0,1,3.34-5.822l-1.275-15.588a43.939,43.939,0,0,1-15.266,12.875v31.055Z" transform="translate(-17989.098 -18984.324)" fill="#dc7eff"/>
        <path id="Path_4010" data-name="Path 4010" d="M18061.717,19008.516V18997h8.146v11.516Zm-29.984,0V18997h8.152v11.516Z" transform="translate(-17995.299 -18941.512)" fill="#dc7eff"/>
      </g>
      <g id="Group_1801" data-name="Group 1801" transform="translate(24.649 115.102)">
        <path id="Path_4015" data-name="Path 4015" d="M17650.912,18834.26v-9.184h8.125v9.184Zm-29.885,0v-9.184h8.127v9.184Z" transform="translate(-17609.27 -18825.076)" fill="#dc7eff"/>
        <path id="shoe-left" d="M171.327,935.818v16.846h-19.4c-1.109,0-1.664-10.783,11.233-9.869v-6.976Z" transform="translate(-151.399 -926.663)" fill="#262626" fill-rule="evenodd"/>
        <path id="shoe-right" d="M411.346,935.818v16.846h19.4c1.109,0,1.685-10.783-11.211-9.869v-6.976Z" transform="translate(-369.834 -926.663)" fill="#262626" fill-rule="evenodd"/>
      </g>
    </g>
    <g id="Group_1959" data-name="Group 1959" transform="translate(203.943 273.957)">
      <g id="Group_1802" data-name="Group 1802" transform="translate(107.5 5.645) rotate(-3)">
        <rect id="Rectangle_17575" data-name="Rectangle 17575" width="107.873" height="64.522" rx="12" transform="translate(0 0.001)" fill="#ffd719"/>
        <g id="Group_1798" data-name="Group 1798" transform="translate(9.489 0)">
          <path id="Path_4679" data-name="Path 4679" d="M55.45,62.953V36.077a43.39,43.39,0,0,1-11.234,1.474,43.476,43.476,0,0,1-10.154-1.2v26.6H26.077V33.573a43.1,43.1,0,0,1-15.919-12.7L8.93,35.664a6.342,6.342,0,0,1,3.282,5.6,6.217,6.217,0,0,1-6.1,6.321A6.221,6.221,0,0,1,0,41.268a6.384,6.384,0,0,1,2.481-5.086l-.338.016L1.552.088A12.753,12.753,0,0,1,3.046,0H85.851q.62,0,1.224.058L86.483,36.2l-.339-.016a6.377,6.377,0,0,1,2.485,5.086,6.111,6.111,0,1,1-12.214,0,6.336,6.336,0,0,1,3.286-5.6L78.447,20.65a42.956,42.956,0,0,1-15.008,12.4V62.953Z" transform="translate(0 0)" fill="#dc7eff"/>
          <path id="Path_4675" data-name="Path 4675" d="M77.657,8.193,77.126,0H84.7l-.141,9ZM0,0H7.573L7.041,8.193.141,9Z" transform="translate(1.967 26.973)" fill="#fff"/>
        </g>
      </g>
      <g id="Group_1962" data-name="Group 1962" transform="translate(533.5 5.645) rotate(-3)">
        <rect id="Rectangle_17575-2" data-name="Rectangle 17575" width="107.873" height="64.522" rx="12" transform="translate(0 0.001)" fill="#dc7eff"/>
        <g id="Group_1798-2" data-name="Group 1798" transform="translate(9.489 0)">
          <path id="Path_4679-2" data-name="Path 4679" d="M55.45,62.953V36.077a43.39,43.39,0,0,1-11.234,1.474,43.476,43.476,0,0,1-10.154-1.2v26.6H26.077V33.573a43.1,43.1,0,0,1-15.919-12.7L8.93,35.664a6.342,6.342,0,0,1,3.282,5.6,6.217,6.217,0,0,1-6.1,6.321A6.221,6.221,0,0,1,0,41.268a6.384,6.384,0,0,1,2.481-5.086l-.338.016L1.552.088A12.753,12.753,0,0,1,3.046,0H85.851q.62,0,1.224.058L86.483,36.2l-.339-.016a6.377,6.377,0,0,1,2.485,5.086,6.111,6.111,0,1,1-12.214,0,6.336,6.336,0,0,1,3.286-5.6L78.447,20.65a42.956,42.956,0,0,1-15.008,12.4V62.953Z" transform="translate(0 0)" fill="#ffd719"/>
          <path id="Path_4675-2" data-name="Path 4675" d="M77.657,8.193,77.126,0H84.7l-.141,9ZM0,0H7.573L7.041,8.193.141,9Z" transform="translate(1.967 26.973)" fill="#fff"/>
        </g>
      </g>
      <g id="Group_1803" data-name="Group 1803" transform="matrix(0.998, 0.07, -0.07, 0.998, 403.602, -0.004)">
        <rect id="Rectangle_17576" data-name="Rectangle 17576" width="107.873" height="67.655" rx="16" transform="translate(0 0.002)" fill="#ffd719"/>
        <rect id="Rectangle_17787" data-name="Rectangle 17787" width="107.873" height="67.655" rx="12" transform="translate(0 0.002)" fill="#8ce33a"/>
        <g id="Group_1800" data-name="Group 1800" transform="translate(9.622 0)">
          <path id="Path_3987" data-name="Path 3987" d="M55.452,67.647V40.767a43.3,43.3,0,0,1-11.233,1.474,43.333,43.333,0,0,1-10.156-1.2V67.647H26.077V38.26A43.029,43.029,0,0,1,10.161,25.568L8.93,40.353a6.346,6.346,0,0,1,3.283,5.605,6.216,6.216,0,0,1-6.1,6.318A6.219,6.219,0,0,1,0,45.958a6.386,6.386,0,0,1,2.483-5.087l-.339.017L1.325,1.035Q1.279.6,1.242.155A13.192,13.192,0,0,1,3.267,0h81.66a13.315,13.315,0,0,1,1.952.145l-.394,40.744-.339-.017a6.38,6.38,0,0,1,2.483,5.087,6.11,6.11,0,1,1-12.213,0A6.346,6.346,0,0,1,79.7,40.353l-1.25-15.01A43.016,43.016,0,0,1,63.44,37.74V67.647Z" transform="translate(0 0.01)" fill="#00b754"/>
        </g>
      </g>
      <g id="Group_1805" data-name="Group 1805" transform="matrix(0.998, 0.07, -0.07, 0.998, -36.903, -0.001)">
        <rect id="Rectangle_17576-2" data-name="Rectangle 17576" width="107.873" height="64.522" rx="16" transform="translate(6.983 -0.488)" fill="#00b754"/>
        <g id="Group_1800-2" data-name="Group 1800" transform="translate(16.605 -0.488)">
          <path id="Path_3987-2" data-name="Path 3987" d="M55.452,64.522V37.642a43.3,43.3,0,0,1-11.233,1.474,43.333,43.333,0,0,1-10.156-1.2V64.522H26.077V35.135A43.029,43.029,0,0,1,10.161,22.442L8.93,37.228a6.346,6.346,0,0,1,3.283,5.605,6.216,6.216,0,0,1-6.1,6.318A6.219,6.219,0,0,1,0,42.833a6.386,6.386,0,0,1,2.483-5.087l-.339.017-.6-36.727Q1.5.6,1.461.155A13.192,13.192,0,0,1,3.485,0h81.66A13.315,13.315,0,0,1,87.1.145l-.612,37.618-.339-.017a6.38,6.38,0,0,1,2.483,5.087,6.11,6.11,0,1,1-12.213,0A6.346,6.346,0,0,1,79.7,37.228l-1.25-15.01a43.016,43.016,0,0,1-15.009,12.4V64.522Z" transform="translate(0 0)" fill="#ffd719"/>
        </g>
      </g>
    </g>
    <g id="Group_1965" data-name="Group 1965">
      <g id="Group_1961" data-name="Group 1961" transform="translate(20 -15)">
        <rect id="Rectangle_17788" data-name="Rectangle 17788" width="71" height="51" rx="9" transform="translate(327 408)" fill="#eceff5"/>
        <path id="Path_4677" data-name="Path 4677" d="M355.578,438.995s3.916-26.769,25.317-25.453,22.523,25.453,22.523,25.453Z" transform="translate(-17.246 20.005)" fill="#dc7eff"/>
      </g>
      <g id="Group_1961-2" data-name="Group 1961" transform="translate(104 -15)">
        <rect id="Rectangle_17788-2" data-name="Rectangle 17788" width="71" height="51" rx="9" transform="translate(327 408)" fill="#d4f5fe"/>
        <g id="Rectangle_17789" data-name="Rectangle 17789" transform="translate(403 400)" fill="none" stroke="#fff" stroke-width="4">
          <rect width="87" height="67" rx="15" stroke="none"/>
          <rect x="2" y="2" width="83" height="63" rx="13" fill="none"/>
        </g>
        <path id="Path_4677-2" data-name="Path 4677" d="M355.578,438.995s3.916-26.769,25.317-25.453,22.523,25.453,22.523,25.453Z" transform="translate(-17.246 20.005)" fill="#ffd719"/>
      </g>
      <g id="Group_1961-3" data-name="Group 1961" transform="translate(188 -15)">
        <rect id="Rectangle_17788-3" data-name="Rectangle 17788" width="71" height="51" rx="9" transform="translate(327 408)" fill="#d0fa84"/>
        <path id="Path_4677-3" data-name="Path 4677" d="M355.578,438.995s3.916-26.769,25.317-25.453,22.523,25.453,22.523,25.453Z" transform="translate(-17.246 20.005)" fill="#8ce33a"/>
      </g>
      <g id="Group_1961-4" data-name="Group 1961" transform="translate(272 -15)">
        <rect id="Rectangle_17788-4" data-name="Rectangle 17788" width="71" height="51" rx="9" transform="translate(327 408)" fill="#d4f5fe"/>
        <path id="Path_4677-4" data-name="Path 4677" d="M355.578,438.995s3.916-26.769,25.317-25.453,22.523,25.453,22.523,25.453Z" transform="translate(-17.246 20.005)" fill="#90daff"/>
      </g>
    </g>
  </g>
</svg>
