<svg xmlns="http://www.w3.org/2000/svg" width="1234.079" height="664.866" viewBox="0 0 1234.079 664.866">
  <g id="Group_2189" data-name="Group 2189" transform="translate(-182.739 -115)">
    <g id="Group_1721" data-name="Group 1721" transform="translate(182.74 115)">
      <g id="Group_1727" data-name="Group 1727" transform="translate(0 0)">
        <rect id="Rectangle_17467" data-name="Rectangle 17467" width="393.474" height="188.301" rx="24" transform="translate(419.309)" fill="#d4f5fe"/>
        <rect id="Rectangle_17476" data-name="Rectangle 17476" width="180.839" height="160.405" rx="24" transform="translate(1051.252 220.847)" fill="#d4f5fe"/>
        <rect id="Rectangle_17477" data-name="Rectangle 17477" width="389.224" height="160.405" rx="24" transform="translate(634.207 220.847)" fill="#d4f5fe"/>
        <rect id="Rectangle_17472" data-name="Rectangle 17472" width="162.954" height="137.04" rx="24" transform="translate(228.535 360.329)" fill="#d4f5fe"/>
        <rect id="Rectangle_17504" data-name="Rectangle 17504" width="162.954" height="137.04" rx="24" transform="translate(228.535 527.708)" fill="#d4f5fe"/>
        <rect id="Rectangle_17505" data-name="Rectangle 17505" width="178.576" height="304.417" rx="24" transform="translate(425.27 360.328)" fill="#d4f5fe"/>
        <rect id="Rectangle_17724" data-name="Rectangle 17724" width="178.576" height="137.041" rx="24" transform="translate(634.205 527.705)" fill="#d4f5fe"/>
        <rect id="Rectangle_17473" data-name="Rectangle 17473" width="196.737" height="304.536" rx="24" transform="translate(0 360.329)" fill="#d4f5fe"/>
      </g>
      <rect id="Rectangle_17468" data-name="Rectangle 17468" width="393.474" height="188.301" rx="24" transform="translate(838.617)" fill="#ffd719"/>
    </g>
    <g id="Group_2069" data-name="Group 2069" transform="translate(182.739 115)">
      <rect id="Rectangle_17466" data-name="Rectangle 17466" width="386.069" height="321.33" rx="31" fill="#ffd719"/>
      <g id="TEACHER" transform="translate(53.802 43.302)">
        <path id="Path_4296" data-name="Path 4296" d="M57.92,0c31.989,0,57.92,27.464,57.92,61.343s-25.932,61.343-57.92,61.343c-11.548,0-31.739-7.983-41.21-14.453C4.108,95.157,0,82.992,0,61.343,0,27.464,25.932,0,57.92,0Z" transform="translate(71.936 54.661)" fill="#fff"/>
        <path id="Path_4047" data-name="Path 4047" d="M662.4,347.049l50.93,46.166H561.664l47.813-46.166Z" transform="translate(-500.113 -118.794)" fill="#fff"/>
        <g id="Group_1832" data-name="Group 1832" transform="translate(45.992 0)">
          <path id="Path_4585" data-name="Path 4585" d="M21.079,121.613c-.263.01-.526.015-.792.015a20.286,20.286,0,1,1,0-40.572q.654,0,1.3.041A53.517,53.517,0,0,1,46.169,45.249V15.63C46.169.905,58.106,0,72.831,0s26.66.905,26.66,15.63V43.692A53.508,53.508,0,0,1,127.261,84.3a20.285,20.285,0,1,1,.362,32.766,53.477,53.477,0,0,1-106.545,4.549Z" transform="translate(159.69 247.331) rotate(180)" fill="#ff8076"/>
          <path id="Path_4295" data-name="Path 4295" d="M73.254.713C92.605,3.431,100.5,15.244,112.188,29.767c-3.754.137-4.613-3.094-8.48-3.426C77.285,25.119,74.055,21.994,61.23,9.2,52.5,32.166,36,55.755,0,51.392,7.141,15.091,39.516-4.026,73.254.713Z" transform="matrix(0.996, -0.087, 0.087, 0.996, 23.358, 74.356)" fill="#fff"/>
          <path id="Path_4294" data-name="Path 4294" d="M2.02,36.208C-3.27,20.891,2.188,5.124,14.209,1S40.263,5.938,45.551,21.259s-.17,31.082-12.193,35.211a18.479,18.479,0,0,1-6.074,1C16.94,57.431,6.432,49,2.02,36.208Z" transform="translate(1.169 12.312) rotate(-15)" fill="#fff"/>
          <rect id="Rectangle_17600" data-name="Rectangle 17600" width="27.81" height="12.205" rx="4" transform="matrix(-0.995, -0.105, 0.105, -0.995, 119.841, 111.582)" fill="#262626"/>
          <g id="Group_1824" data-name="Group 1824" transform="translate(43.67 117.532)">
            <g id="glasses" transform="translate(-17727.367 -18181.531)" fill="#00b754">
              <path d="M 17789.80859375 18224.8125 C 17785.291015625 18224.8125 17780.9140625 18223.560546875 17777.15234375 18221.1953125 C 17774.052734375 18219.244140625 17771.50390625 18216.62890625 17769.6953125 18213.55859375 C 17767.96484375 18216.62109375 17765.52734375 18219.232421875 17762.5625 18221.18359375 C 17758.953125 18223.55859375 17754.75390625 18224.8125 17750.419921875 18224.8125 C 17747.4296875 18224.8125 17744.53125 18224.2265625 17741.80078125 18223.072265625 C 17739.1640625 18221.955078125 17736.796875 18220.359375 17734.763671875 18218.326171875 C 17732.73046875 18216.29296875 17731.134765625 18213.923828125 17730.021484375 18211.287109375 C 17728.8671875 18208.556640625 17728.28125 18205.65625 17728.28125 18202.66796875 C 17728.28125 18199.482421875 17728.97265625 18196.314453125 17730.2890625 18193.439453125 C 17727.931640625 18192.3515625 17726.3671875 18189.97265625 17726.3671875 18187.3046875 C 17726.3671875 18183.5703125 17729.396484375 18180.53125 17733.12109375 18180.53125 L 17746.580078125 18180.53125 C 17747.044921875 18180.53125 17747.4921875 18180.576171875 17747.939453125 18180.669921875 C 17748.75390625 18180.578125 17749.587890625 18180.53125 17750.419921875 18180.53125 C 17754.75390625 18180.53125 17758.953125 18181.78515625 17762.5625 18184.16015625 C 17765.52734375 18186.109375 17767.96484375 18188.720703125 17769.6953125 18191.78125 C 17771.50390625 18188.712890625 17774.052734375 18186.099609375 17777.15234375 18184.1484375 C 17780.9140625 18181.78125 17785.291015625 18180.53125 17789.80859375 18180.53125 C 17790.861328125 18180.53125 17791.91796875 18180.599609375 17792.953125 18180.732421875 C 17793.486328125 18180.599609375 17794.041015625 18180.53125 17794.607421875 18180.53125 L 17808.064453125 18180.53125 C 17811.794921875 18180.53125 17814.828125 18183.5703125 17814.828125 18187.3046875 C 17814.828125 18188.833984375 17814.30078125 18190.33203125 17813.34375 18191.5234375 C 17812.66796875 18192.3671875 17811.794921875 18193.03515625 17810.814453125 18193.470703125 C 17812.201171875 18196.37109375 17812.90234375 18199.458984375 17812.90234375 18202.66796875 C 17812.90234375 18205.662109375 17812.2890625 18208.56640625 17811.080078125 18211.302734375 C 17809.9140625 18213.939453125 17808.24609375 18216.30859375 17806.123046875 18218.341796875 C 17804.001953125 18220.37109375 17801.53125 18221.96484375 17798.783203125 18223.078125 C 17795.939453125 18224.228515625 17792.919921875 18224.8125 17789.80859375 18224.8125 Z" stroke="none"/>
              <path d="M 17789.80859375 18223.8125 C 17802.009765625 18223.8125 17811.90234375 18214.34375 17811.90234375 18202.66796875 C 17811.90234375 18199.1484375 17810.994140625 18195.828125 17809.400390625 18192.8984375 C 17811.935546875 18192.30078125 17813.828125 18190.0234375 17813.828125 18187.3046875 C 17813.828125 18184.1171875 17811.25 18181.53125 17808.064453125 18181.53125 L 17794.607421875 18181.53125 C 17794.05078125 18181.53125 17793.5234375 18181.60546875 17793.01953125 18181.75 C 17791.96875 18181.60546875 17790.900390625 18181.53125 17789.80859375 18181.53125 C 17780.853515625 18181.53125 17773.146484375 18186.62890625 17769.67578125 18193.94921875 C 17766.35546875 18186.62890625 17758.978515625 18181.53125 17750.419921875 18181.53125 C 17749.5625 18181.53125 17748.720703125 18181.58203125 17747.888671875 18181.68359375 C 17747.4609375 18181.58203125 17747.033203125 18181.53125 17746.580078125 18181.53125 L 17733.12109375 18181.53125 C 17729.939453125 18181.53125 17727.3671875 18184.1171875 17727.3671875 18187.3046875 C 17727.3671875 18189.98046875 17729.19921875 18192.234375 17731.677734375 18192.87890625 C 17730.146484375 18195.8046875 17729.28125 18199.140625 17729.28125 18202.66796875 C 17729.28125 18214.34375 17738.740234375 18223.8125 17750.419921875 18223.8125 C 17758.978515625 18223.8125 17766.35546875 18218.71484375 17769.67578125 18211.390625 C 17773.146484375 18218.71484375 17780.853515625 18223.8125 17789.80859375 18223.8125 M 17789.80859375 18225.8125 C 17785.1015625 18225.8125 17780.541015625 18224.5078125 17776.62109375 18222.041015625 C 17773.857421875 18220.302734375 17771.515625 18218.05859375 17769.712890625 18215.443359375 C 17767.98828125 18218.046875 17765.75 18220.283203125 17763.111328125 18222.01953125 C 17759.337890625 18224.5 17754.94921875 18225.8125 17750.419921875 18225.8125 C 17747.294921875 18225.8125 17744.263671875 18225.19921875 17741.41015625 18223.9921875 C 17738.654296875 18222.826171875 17736.1796875 18221.158203125 17734.056640625 18219.033203125 C 17731.931640625 18216.908203125 17730.265625 18214.431640625 17729.099609375 18211.67578125 C 17727.892578125 18208.822265625 17727.28125 18205.791015625 17727.28125 18202.66796875 C 17727.28125 18199.65234375 17727.875 18196.654296875 17729.0078125 18193.880859375 C 17726.7890625 18192.490234375 17725.3671875 18190.029296875 17725.3671875 18187.3046875 C 17725.3671875 18183.017578125 17728.845703125 18179.53125 17733.12109375 18179.53125 L 17746.580078125 18179.53125 C 17747.05859375 18179.53125 17747.521484375 18179.57421875 17747.984375 18179.66015625 C 17748.78515625 18179.57421875 17749.603515625 18179.53125 17750.419921875 18179.53125 C 17754.94921875 18179.53125 17759.337890625 18180.84375 17763.111328125 18183.32421875 C 17765.75 18185.05859375 17767.98828125 18187.294921875 17769.712890625 18189.8984375 C 17771.515625 18187.283203125 17773.857421875 18185.041015625 17776.62109375 18183.302734375 C 17780.541015625 18180.8359375 17785.1015625 18179.53125 17789.80859375 18179.53125 C 17790.841796875 18179.53125 17791.87890625 18179.59375 17792.8984375 18179.716796875 C 17793.453125 18179.59375 17794.025390625 18179.53125 17794.607421875 18179.53125 L 17808.064453125 18179.53125 C 17812.345703125 18179.53125 17815.828125 18183.017578125 17815.828125 18187.3046875 C 17815.828125 18189.060546875 17815.22265625 18190.78125 17814.125 18192.1484375 C 17813.55859375 18192.853515625 17812.875 18193.451171875 17812.111328125 18193.91796875 C 17813.287109375 18196.69140625 17813.90234375 18199.677734375 17813.90234375 18202.66796875 C 17813.90234375 18205.802734375 17813.259765625 18208.84375 17811.99609375 18211.70703125 C 17810.775390625 18214.46484375 17809.033203125 18216.939453125 17806.814453125 18219.064453125 C 17804.6015625 18221.181640625 17802.025390625 18222.84375 17799.158203125 18224.00390625 C 17796.1953125 18225.205078125 17793.048828125 18225.8125 17789.80859375 18225.8125 Z" stroke="none" fill="#00b754"/>
            </g>
            <g id="Group_1822" data-name="Group 1822" transform="translate(46.102 3.844)">
              <ellipse id="Ellipse_498" data-name="Ellipse 498" cx="17.294" cy="17.294" rx="17.294" ry="17.294" transform="translate(0)" fill="#fff"/>
              <ellipse id="Ellipse_500" data-name="Ellipse 500" cx="8.647" cy="9.608" rx="8.647" ry="9.608" transform="translate(17.292 9.442)" fill="#262626"/>
            </g>
            <g id="Group_1823" data-name="Group 1823" transform="translate(5.748 3.844)">
              <ellipse id="Ellipse_498-2" data-name="Ellipse 498" cx="17.294" cy="17.294" rx="17.294" ry="17.294" fill="#fff"/>
              <ellipse id="Ellipse_515" data-name="Ellipse 515" cx="8.647" cy="9.608" rx="8.647" ry="9.608" transform="translate(17.292 9.44)" fill="#262626"/>
            </g>
          </g>
          <g id="Group_1831" data-name="Group 1831" transform="translate(15.971 151.606)">
            <circle id="Ellipse_514" data-name="Ellipse 514" cx="3.677" cy="3.677" r="3.677" transform="translate(0 0)" fill="#fff"/>
          </g>
          <g id="Group_1833" data-name="Group 1833" transform="translate(142.844 151.606)">
            <circle id="Ellipse_514-2" data-name="Ellipse 514" cx="3.677" cy="3.677" r="3.677" transform="translate(0 0)" fill="#fff"/>
          </g>
          <path id="Path_3691" data-name="Path 3691" d="M17.9,2.257c-.8,4.512-2.27,7.166-7.406,9.362s-9.435.433-10.3,1.618,1.205,3.977,5.8,4.236A15.991,15.991,0,0,0,18.6,12.251c2.963-3.48,3.237-4.873,3.748-8.132S18.7-2.255,17.9,2.257Z" transform="translate(81.654 157.543) rotate(25)" fill="#262626"/>
        </g>
        <path id="Path_4249" data-name="Path 4249" d="M13554.112,22367.551a12.822,12.822,0,0,1,.068-1.32h22.875c.76,0,1.516.012,2.27.031a12.711,12.711,0,0,1,.066,1.289,12.64,12.64,0,0,1-25.279,0Zm-25.273,0a12.82,12.82,0,0,1,.07-1.32h25.127a11.358,11.358,0,0,1,.076,1.32,12.637,12.637,0,0,1-25.273,0Zm-25.281.395a12.642,12.642,0,0,1-25.271-.395,12.82,12.82,0,0,1,.07-1.32h25.141c.031.309.055.617.061.934.016-.316.035-.625.066-.934h25.146c.043.438.068.871.068,1.32a12.647,12.647,0,0,1-25.281.395Z" transform="translate(-13392.953 -22139.125)" fill="#008658"/>
        <path id="Path_4250" data-name="Path 4250" d="M13455.355,22525.07q-1.5,0-2.979-.09c15.482-29.859,46.008-50.18,81.131-50.18h102.971c35.156,0,65.7,20.359,81.168,50.27Z" transform="translate(-13452.377 -22247.695)" fill="#90daff"/>
      </g>
    </g>
    <g id="Group_2070" data-name="Group 2070" transform="translate(1030.749 529.146)">
      <rect id="Rectangle_17469" data-name="Rectangle 17469" width="386.069" height="250.6" rx="24" fill="#d7ff86"/>
      <g id="BOY-2" transform="translate(108.98 57.479)">
        <rect id="Rectangle_17717" data-name="Rectangle 17717" width="105.529" height="48.706" transform="translate(37.411 34.5)" fill="#003446"/>
        <rect id="Rectangle_17715" data-name="Rectangle 17715" width="67.063" height="13.756" transform="translate(54.053 141.31)" fill="#ffb100"/>
        <g id="Group_1887" data-name="Group 1887" transform="translate(12.922 29.854)">
          <circle id="Ellipse_507" data-name="Ellipse 507" cx="18.153" cy="18.153" r="18.153" transform="translate(109.891 39.432)" fill="#d14034"/>
          <path id="Path_4268" data-name="Path 4268" d="M53.515,150.769V99.007A47.39,47.39,0,0,1,30.893,70.142a18.152,18.152,0,1,1-2.2-27.715,47.854,47.854,0,0,1,95.68,1.611v9.146a48.168,48.168,0,0,1-.717,8.3,47.325,47.325,0,0,1-29.243,39.987v49.3Z" transform="translate(-0.002 3.815)" fill="#d06444"/>
          <rect id="Rectangle_17600-2" data-name="Rectangle 17600" width="26.532" height="12.568" rx="6.284" transform="matrix(0.978, -0.208, 0.208, 0.978, 42.516, 18.382)" fill="#262626"/>
          <rect id="Rectangle_17677" data-name="Rectangle 17677" width="26.532" height="12.568" rx="6.284" transform="translate(85.799 13.617) rotate(2)" fill="#262626"/>
          <path id="Path_4047-2" data-name="Path 4047" d="M600.661,354.049l-39,39.039H677.79L641.18,354.049Z" transform="translate(-546.913 -230.449)" fill="#90daff"/>
          <path id="Path_4259" data-name="Path 4259" d="M14228.412,22590.084l13.459-39.035h6.953l13.459,39.035Z" transform="translate(-14169.827 -22427.451)" fill="#dcf3f3"/>
          <path id="Path_3691-2" data-name="Path 3691" d="M16.02,13.637C15.3,9.6,13.988,7.225,9.392,5.259S.95,4.872.172,3.811,1.251.252,5.361.021A14.31,14.31,0,0,1,16.647,4.694c2.651,3.114,2.9,4.36,3.354,7.277S16.739,17.675,16.02,13.637Z" transform="translate(91.262 76.726) rotate(155)" fill="#262626"/>
          <g id="Group_1824-2" data-name="Group 1824" transform="translate(45.342 33.304)">
            <g id="Group_1822-2" data-name="Group 1822" transform="translate(0 0)">
              <circle id="Ellipse_498-3" data-name="Ellipse 498" cx="15.476" cy="15.476" r="15.476" transform="translate(0 0)" fill="#fff"/>
              <ellipse id="Ellipse_500-2" data-name="Ellipse 500" cx="7.738" cy="8.598" rx="7.738" ry="8.598" transform="translate(2.2 2.029)" fill="#262626"/>
            </g>
            <g id="Group_1823-2" data-name="Group 1823" transform="translate(36.111 0)">
              <circle id="Ellipse_498-4" data-name="Ellipse 498" cx="15.476" cy="15.476" r="15.476" transform="translate(0 0)" fill="#fff"/>
              <circle id="Ellipse_500-3" data-name="Ellipse 500" cx="8.598" cy="8.598" r="8.598" transform="translate(2.51 2.029)" fill="#262626"/>
            </g>
          </g>
        </g>
        <path id="Path_4269" data-name="Path 4269" d="M10770.975,22619.266c.15-.258.3-.5.459-.758a100.641,100.641,0,0,1,171.119,0c.154.254.309.5.459.758Z" transform="translate(-10770.975 -22426.025)" fill="#17a9ea"/>
        <g id="Group_1857" data-name="Group 1857" transform="translate(61.375 121.018)">
          <path id="Path_4099" data-name="Path 4099" d="M97.943,198.449l24.63,17.9,25.419-17.9H97.943" transform="translate(-97.943 -174.641)" fill="#fff"/>
          <rect id="Rectangle_17678" data-name="Rectangle 17678" width="49.867" height="24.074" transform="translate(0.073 0)" fill="#d06444"/>
        </g>
        <rect id="Rectangle_17679" data-name="Rectangle 17679" width="18.915" height="47.682" rx="6" transform="matrix(0.53, -0.848, 0.848, 0.53, 40.625, 153.736)" fill="#ffb100"/>
        <rect id="Rectangle_17680" data-name="Rectangle 17680" width="18.916" height="48.545" rx="6" transform="matrix(-0.53, -0.848, 0.848, -0.53, 91.007, 179.462)" fill="#ffb100"/>
        <g id="CAP" transform="translate(37.411)">
          <path id="Rectangle_17668" data-name="Rectangle 17668" d="M16,0H89.529a16,16,0,0,1,16,16V48.706a0,0,0,0,1,0,0H0a0,0,0,0,1,0,0V16A16,16,0,0,1,16,0Z" fill="#8ce33a"/>
          <path id="Rectangle_17669" data-name="Rectangle 17669" d="M20.294,0h0A20.294,20.294,0,0,1,40.588,20.294v0a0,0,0,0,1,0,0H0a0,0,0,0,1,0,0v0A20.294,20.294,0,0,1,20.294,0Z" transform="translate(32.47 14.206)" fill="#008b56"/>
          <rect id="Rectangle_17670" data-name="Rectangle 17670" width="131.911" height="10.147" transform="translate(0 40.588)" fill="#00b754"/>
          <path id="Rectangle_17671" data-name="Rectangle 17671" d="M24,0H40.588a0,0,0,0,1,0,0V10.353a14,14,0,0,1-14,14H0a0,0,0,0,1,0,0V24A24,24,0,0,1,24,0Z" transform="translate(42.617 10.147)" fill="#262626"/>
        </g>
      </g>
    </g>
    <g id="shield_2_" data-name="shield (2)" transform="translate(641.703 261.532)">
      <g id="Path_4483" data-name="Path 4483" transform="translate(-17550.68 -18153.869)" fill="#fff" stroke-linecap="round" stroke-linejoin="round">
        <path d="M 17708.517578125 18551.646484375 L 17705.517578125 18551.646484375 C 17695.388671875 18551.646484375 17684.921875 18549.896484375 17674.40625 18546.447265625 C 17664.255859375 18543.1171875 17654.017578125 18538.189453125 17643.9765625 18531.80078125 C 17634.15625 18525.552734375 17624.513671875 18517.90234375 17615.314453125 18509.060546875 C 17606.1796875 18500.28125 17597.48828125 18490.333984375 17589.482421875 18479.49609375 C 17581.8984375 18469.2265625 17575.1171875 18457.755859375 17569.330078125 18445.400390625 C 17564.22265625 18434.5 17559.875 18422.8984375 17556.41015625 18410.919921875 C 17553.376953125 18400.43359375 17551.076171875 18389.884765625 17549.5703125 18379.56640625 C 17548.25390625 18370.546875 17547.603515625 18361.9765625 17547.6875 18354.783203125 C 17547.896484375 18337.19140625 17547.826171875 18300.140625 17547.755859375 18264.310546875 C 17547.72265625 18246.498046875 17547.6875 18228.080078125 17547.6875 18212.380859375 L 17547.6875 18187.341796875 L 17547.6875 18186.078125 L 17548.591796875 18185.1953125 L 17582.888671875 18151.72265625 L 17584.56640625 18150.0859375 L 17586.560546875 18151.31640625 C 17596.34375 18157.35546875 17606.25 18161.9453125 17616.00390625 18164.95703125 C 17620.86328125 18166.45703125 17625.7890625 18167.59765625 17630.642578125 18168.34765625 C 17635.490234375 18169.095703125 17640.40625 18169.4765625 17645.25 18169.4765625 C 17650.095703125 18169.4765625 17655.01171875 18169.095703125 17659.859375 18168.34765625 C 17664.712890625 18167.59765625 17669.638671875 18166.45703125 17674.49609375 18164.95703125 C 17684.251953125 18161.9453125 17694.158203125 18157.35546875 17703.94140625 18151.31640625 L 17708.517578125 18148.4921875 L 17708.517578125 18153.869140625 L 17708.517578125 18548.646484375 L 17708.517578125 18551.646484375 Z M 17711.994140625 18551.462890625 L 17708.994140625 18551.462890625 L 17708.994140625 18548.462890625 L 17708.994140625 18153.869140625 L 17708.994140625 18148.490234375 L 17713.5703125 18151.31640625 C 17723.3515625 18157.35546875 17733.2578125 18161.9453125 17743.01171875 18164.95703125 C 17747.87109375 18166.45703125 17752.796875 18167.59765625 17757.650390625 18168.34765625 C 17762.498046875 18169.095703125 17767.412109375 18169.4765625 17772.2578125 18169.4765625 C 17777.103515625 18169.4765625 17782.01953125 18169.095703125 17786.8671875 18168.34765625 C 17791.720703125 18167.59765625 17796.646484375 18166.45703125 17801.505859375 18164.95703125 C 17811.259765625 18161.9453125 17821.166015625 18157.35546875 17830.94921875 18151.31640625 L 17832.943359375 18150.0859375 L 17834.62109375 18151.72265625 L 17868.919921875 18185.1953125 L 17869.82421875 18186.078125 L 17869.82421875 18187.341796875 L 17869.82421875 18212.380859375 C 17869.82421875 18228.080078125 17869.7890625 18246.498046875 17869.755859375 18264.310546875 C 17869.6875 18300.140625 17869.6171875 18337.19140625 17869.82421875 18354.783203125 C 17869.908203125 18361.9765625 17869.2578125 18370.546875 17867.94140625 18379.56640625 C 17866.435546875 18389.884765625 17864.134765625 18400.43359375 17861.1015625 18410.919921875 C 17857.63671875 18422.8984375 17853.2890625 18434.5 17848.181640625 18445.400390625 C 17842.39453125 18457.755859375 17835.61328125 18469.2265625 17828.029296875 18479.49609375 C 17820.02734375 18490.328125 17811.333984375 18500.265625 17802.19140625 18509.033203125 C 17792.99609375 18517.853515625 17783.349609375 18525.482421875 17773.5234375 18531.7109375 C 17763.486328125 18538.072265625 17753.248046875 18542.978515625 17743.09375 18546.29296875 C 17732.5859375 18549.724609375 17722.123046875 18551.462890625 17711.994140625 18551.462890625 Z" stroke="none"/>
        <path d="M 17705.517578125 18548.646484375 C 17705.517578125 18491.283203125 17705.517578125 18197.607421875 17705.517578125 18153.869140625 C 17665.33203125 18178.677734375 17625.169921875 18178.6796875 17584.984375 18153.869140625 L 17550.6875 18187.341796875 L 17550.6875 18212.380859375 C 17550.6875 18259.568359375 17551 18328.427734375 17550.6875 18354.818359375 C 17550.375 18381.236328125 17560.2109375 18434.814453125 17591.896484375 18477.712890625 C 17623.5859375 18520.619140625 17665.5078125 18548.646484375 17705.517578125 18548.646484375 M 17711.994140625 18548.462890625 C 17751.986328125 18548.462890625 17793.921875 18520.619140625 17825.615234375 18477.712890625 C 17857.30078125 18434.814453125 17867.13671875 18381.236328125 17866.82421875 18354.818359375 C 17866.513671875 18328.427734375 17866.82421875 18259.568359375 17866.82421875 18212.380859375 L 17866.82421875 18187.341796875 L 17832.525390625 18153.869140625 C 17792.341796875 18178.677734375 17752.173828125 18178.677734375 17711.994140625 18153.869140625 C 17711.994140625 18197.607421875 17711.994140625 18491.103515625 17711.994140625 18548.462890625 M 17705.517578125 18554.646484375 C 17665.28125 18554.646484375 17621.001953125 18527.21875 17587.0703125 18481.27734375 C 17552.908203125 18435.02734375 17544.41015625 18378.287109375 17544.6875 18354.748046875 C 17544.896484375 18337.15234375 17544.826171875 18300.66015625 17544.755859375 18264.31640625 L 17544.6875 18212.380859375 L 17544.6875 18187.341796875 C 17544.6875 18185.724609375 17545.33984375 18184.177734375 17546.49609375 18183.048828125 L 17580.79296875 18149.576171875 C 17582.763671875 18147.65234375 17585.7890625 18147.314453125 17588.13671875 18148.763671875 C 17607.173828125 18160.515625 17626.390625 18166.4765625 17645.25 18166.4765625 C 17664.111328125 18166.4765625 17683.328125 18160.515625 17702.365234375 18148.763671875 C 17704.216796875 18147.619140625 17706.541015625 18147.568359375 17708.44140625 18148.62890625 C 17708.548828125 18148.689453125 17708.65234375 18148.751953125 17708.755859375 18148.818359375 C 17708.859375 18148.751953125 17708.962890625 18148.689453125 17709.0703125 18148.62890625 C 17710.96875 18147.568359375 17713.294921875 18147.619140625 17715.146484375 18148.763671875 C 17734.181640625 18160.515625 17753.396484375 18166.4765625 17772.2578125 18166.4765625 C 17791.12109375 18166.4765625 17810.337890625 18160.515625 17829.373046875 18148.763671875 C 17831.71875 18147.3125 17834.74609375 18147.65234375 17836.716796875 18149.57421875 L 17871.015625 18183.046875 C 17872.171875 18184.177734375 17872.82421875 18185.724609375 17872.82421875 18187.341796875 L 17872.82421875 18212.380859375 L 17872.755859375 18264.31640625 C 17872.685546875 18300.66015625 17872.6171875 18337.15234375 17872.82421875 18354.748046875 C 17873.1015625 18378.287109375 17864.603515625 18435.02734375 17830.44140625 18481.27734375 C 17796.591796875 18527.103515625 17752.3125 18554.462890625 17711.994140625 18554.462890625 C 17710.861328125 18554.462890625 17709.802734375 18554.1484375 17708.8984375 18553.603515625 C 17707.935546875 18554.26171875 17706.771484375 18554.646484375 17705.517578125 18554.646484375 Z" stroke="none" fill="#fff"/>
      </g>
      <g id="Path_4485" data-name="Path 4485" transform="translate(-17521.6 -18108.572)" fill="#8ce33a" stroke-linecap="round" stroke-linejoin="round">
        <path d="M 17688.38671875 18465.326171875 L 17684.38671875 18465.326171875 C 17675.943359375 18465.326171875 17666.8984375 18463.951171875 17657.50390625 18461.236328125 C 17648.310546875 18458.58203125 17639.021484375 18454.716796875 17629.892578125 18449.75 C 17620.666015625 18444.728515625 17611.853515625 18438.716796875 17603.69921875 18431.87890625 C 17595.228515625 18424.7734375 17587.642578125 18416.919921875 17581.15234375 18408.53125 C 17574.89453125 18400.4453125 17569.30078125 18391.4140625 17564.52734375 18381.689453125 C 17560.318359375 18373.1171875 17556.736328125 18363.994140625 17553.880859375 18354.57421875 C 17551.3828125 18346.328125 17549.486328125 18338.03125 17548.244140625 18329.912109375 C 17547.154296875 18322.79296875 17546.6171875 18316.017578125 17546.6875 18310.3203125 C 17546.857421875 18296.634765625 17546.798828125 18267.78515625 17546.744140625 18239.88671875 C 17546.716796875 18226.013671875 17546.6875 18211.66796875 17546.6875 18199.439453125 L 17546.6875 18179.939453125 L 17546.6875 18178.19921875 L 17547.9609375 18177.01171875 L 17575.947265625 18150.94140625 L 17578.1328125 18148.908203125 L 17580.705078125 18150.421875 C 17588.58203125 18155.064453125 17596.552734375 18158.58984375 17604.396484375 18160.900390625 C 17612.1875 18163.1953125 17620.080078125 18164.359375 17627.853515625 18164.359375 C 17635.626953125 18164.359375 17643.51953125 18163.1953125 17651.310546875 18160.900390625 C 17659.154296875 18158.58984375 17667.125 18155.064453125 17675.001953125 18150.421875 L 17678.314453125 18148.47265625 L 17678.314453125 18146.869140625 L 17679.673828125 18147.669921875 L 17681.033203125 18146.869140625 L 17681.033203125 18148.470703125 L 17684.345703125 18150.423828125 C 17692.220703125 18155.064453125 17700.19140625 18158.58984375 17708.03515625 18160.900390625 C 17715.826171875 18163.1953125 17723.716796875 18164.359375 17731.4921875 18164.359375 C 17739.267578125 18164.359375 17747.158203125 18163.1953125 17754.94921875 18160.900390625 C 17762.79296875 18158.58984375 17770.763671875 18155.064453125 17778.638671875 18150.423828125 L 17781.2109375 18148.908203125 L 17783.396484375 18150.94140625 L 17811.38671875 18177.01171875 L 17812.66015625 18178.19921875 L 17812.66015625 18179.939453125 L 17812.66015625 18199.439453125 C 17812.66015625 18211.66796875 17812.630859375 18226.013671875 17812.603515625 18239.88671875 C 17812.548828125 18267.78515625 17812.490234375 18296.634765625 17812.66015625 18310.3203125 C 17812.73046875 18316.017578125 17812.193359375 18322.79296875 17811.103515625 18329.912109375 C 17809.861328125 18338.03125 17807.96484375 18346.328125 17805.466796875 18354.57421875 C 17802.611328125 18363.994140625 17799.029296875 18373.1171875 17794.8203125 18381.689453125 C 17790.046875 18391.4140625 17784.453125 18400.4453125 17778.1953125 18408.53125 C 17771.90234375 18416.6640625 17764.947265625 18424.205078125 17757.521484375 18430.9453125 C 17750.1484375 18437.638671875 17742.34375 18443.515625 17734.322265625 18448.4140625 C 17726.212890625 18453.3671875 17717.916015625 18457.298828125 17709.6640625 18460.09765625 C 17702.48046875 18462.533203125 17695.341796875 18464.107421875 17688.38671875 18464.79296875 L 17688.38671875 18465.326171875 Z" stroke="none"/>
        <path d="M 17684.38671875 18461.326171875 C 17684.38671875 18461.248046875 17684.38671875 18461.1640625 17684.38671875 18461.083984375 C 17683.078125 18461.150390625 17681.775390625 18461.185546875 17680.4765625 18461.185546875 C 17680.4765625 18441.0859375 17680.849609375 18383.751953125 17681.2578125 18323.658203125 C 17679.255859375 18250.1796875 17677.033203125 18172.6015625 17677.033203125 18153.869140625 C 17644.23828125 18173.19140625 17611.46484375 18173.1875 17578.673828125 18153.869140625 L 17550.6875 18179.939453125 L 17550.6875 18199.439453125 C 17550.6875 18236.189453125 17550.94140625 18289.818359375 17550.6875 18310.369140625 C 17550.431640625 18330.947265625 17558.458984375 18372.673828125 17584.31640625 18406.083984375 C 17610.173828125 18439.501953125 17651.73828125 18461.326171875 17684.38671875 18461.326171875 M 17684.38671875 18461.083984375 C 17715.962890625 18459.44140625 17750.19921875 18438.171875 17775.03125 18406.083984375 C 17800.888671875 18372.673828125 17808.916015625 18330.947265625 17808.66015625 18310.369140625 C 17808.40625 18289.818359375 17808.66015625 18236.189453125 17808.66015625 18199.439453125 L 17808.66015625 18179.939453125 L 17780.669921875 18153.869140625 C 17747.8828125 18173.189453125 17715.10546875 18173.19140625 17682.314453125 18153.869140625 C 17682.314453125 18172.607421875 17681.7578125 18250.1953125 17681.2578125 18323.658203125 C 17682.890625 18383.572265625 17684.375 18440.759765625 17684.38671875 18461.083984375 M 17684.38671875 18469.326171875 C 17648.322265625 18469.326171875 17604.5703125 18445.333984375 17577.990234375 18410.98046875 C 17549.533203125 18374.2109375 17542.455078125 18329.025390625 17542.6875 18310.26953125 C 17542.857421875 18296.578125 17542.80078125 18268.177734375 17542.744140625 18239.89453125 L 17542.6875 18199.439453125 L 17542.6875 18179.939453125 C 17542.6875 18177.71875 17543.609375 18175.599609375 17545.234375 18174.0859375 L 17573.220703125 18148.015625 C 17575.8125 18145.6015625 17579.685546875 18145.177734375 17582.734375 18146.9765625 C 17597.806640625 18155.857421875 17612.98828125 18160.359375 17627.853515625 18160.359375 C 17642.71875 18160.359375 17657.900390625 18155.857421875 17672.97265625 18146.9765625 C 17675.01953125 18145.767578125 17677.470703125 18145.546875 17679.673828125 18146.31640625 C 17681.876953125 18145.548828125 17684.328125 18145.76953125 17686.375 18146.9765625 C 17701.447265625 18155.857421875 17716.625 18160.359375 17731.4921875 18160.359375 C 17746.359375 18160.359375 17761.537109375 18155.857421875 17776.609375 18146.9765625 C 17779.658203125 18145.177734375 17783.53125 18145.6015625 17786.123046875 18148.015625 L 17814.11328125 18174.0859375 C 17815.73828125 18175.599609375 17816.66015625 18177.71875 17816.66015625 18179.939453125 L 17816.66015625 18199.439453125 L 17816.603515625 18239.89453125 C 17816.546875 18268.177734375 17816.490234375 18296.578125 17816.66015625 18310.26953125 C 17816.892578125 18329.025390625 17809.814453125 18374.2109375 17781.357421875 18410.98046875 C 17755.05859375 18444.96484375 17719.80078125 18466.513671875 17686.673828125 18468.955078125 C 17685.939453125 18469.1953125 17685.16796875 18469.326171875 17684.38671875 18469.326171875 Z" stroke="none" fill="#8ce33a"/>
      </g>
      <g id="Path_4484" data-name="Path 4484" transform="translate(-17510.949 -18036.174)" fill="#00b754" stroke-linejoin="round">
        <path d="M 17671.30859375 18366.03515625 L 17669.748046875 18366.03515625 L 17666.748046875 18366.03515625 C 17655.6796875 18366.03515625 17642.95703125 18362.02734375 17629.955078125 18354.447265625 C 17617.17578125 18346.99609375 17604.5859375 18336.37109375 17593.548828125 18323.720703125 C 17587.837890625 18317.177734375 17582.587890625 18310.142578125 17577.943359375 18302.8125 C 17573.091796875 18295.15234375 17568.890625 18287.15234375 17565.45703125 18279.033203125 C 17561.841796875 18270.4765625 17559.048828125 18261.71875 17557.16015625 18253 C 17555.162109375 18243.775390625 17554.1484375 18234.47265625 17554.1484375 18225.3515625 L 17554.1484375 18162.3671875 L 17554.1484375 18159.3671875 L 17557.1484375 18159.3671875 C 17562.26953125 18159.3671875 17567.236328125 18158.365234375 17571.91015625 18156.388671875 C 17576.42578125 18154.48046875 17580.482421875 18151.74609375 17583.966796875 18148.263671875 C 17587.451171875 18144.78125 17590.185546875 18140.7265625 17592.095703125 18136.212890625 C 17594.072265625 18131.5390625 17595.07421875 18126.57421875 17595.07421875 18121.453125 L 17595.07421875 18118.453125 L 17598.07421875 18118.453125 L 17666.748046875 18118.453125 L 17668.30859375 18118.453125 L 17671.30859375 18118.453125 L 17739.99609375 18118.453125 L 17742.99609375 18118.453125 L 17742.99609375 18121.453125 C 17742.99609375 18126.57421875 17743.998046875 18131.5390625 17745.974609375 18136.212890625 C 17747.884765625 18140.7265625 17750.619140625 18144.78125 17754.1015625 18148.263671875 C 17757.583984375 18151.74609375 17761.638671875 18154.48046875 17766.150390625 18156.390625 C 17770.822265625 18158.365234375 17775.783203125 18159.3671875 17780.900390625 18159.3671875 L 17783.900390625 18159.3671875 L 17783.900390625 18162.3671875 L 17783.900390625 18225.3515625 C 17783.900390625 18234.47265625 17782.88671875 18243.775390625 17780.888671875 18253 C 17779 18261.71875 17776.208984375 18270.4765625 17772.59375 18279.03125 C 17769.162109375 18287.15234375 17764.9609375 18295.15234375 17760.109375 18302.8125 C 17755.46484375 18310.142578125 17750.216796875 18317.17578125 17744.5078125 18323.720703125 C 17733.470703125 18336.37109375 17720.8828125 18346.99609375 17708.103515625 18354.447265625 C 17695.1015625 18362.02734375 17682.376953125 18366.03515625 17671.30859375 18366.03515625 Z" stroke="none"/>
        <path d="M 17671.30859375 18363.03515625 C 17714.353515625 18363.03515625 17780.900390625 18298.83203125 17780.900390625 18225.3515625 L 17780.900390625 18162.3671875 C 17758.318359375 18162.3671875 17739.99609375 18144.0546875 17739.99609375 18121.453125 L 17671.30859375 18121.453125 C 17671.30859375 18121.453125 17671.30859375 18182.0625 17671.30859375 18242.453125 C 17671.30859375 18302.8515625 17671.30859375 18363.03515625 17671.30859375 18363.03515625 M 17666.748046875 18363.03515625 C 17666.748046875 18363.03515625 17666.748046875 18302.8515625 17666.748046875 18242.453125 C 17666.748046875 18182.0625 17666.748046875 18121.453125 17666.748046875 18121.453125 L 17598.07421875 18121.453125 C 17598.07421875 18144.0546875 17579.751953125 18162.3671875 17557.1484375 18162.3671875 L 17557.1484375 18225.3515625 C 17557.1484375 18298.83203125 17623.708984375 18363.03515625 17666.748046875 18363.03515625 M 17671.30859375 18369.03515625 C 17670.501953125 18369.03515625 17669.73046875 18368.875 17669.02734375 18368.5859375 C 17668.326171875 18368.875 17667.5546875 18369.03515625 17666.748046875 18369.03515625 C 17622.154296875 18369.03515625 17551.1484375 18303.279296875 17551.1484375 18225.3515625 L 17551.1484375 18162.3671875 C 17551.1484375 18159.052734375 17553.833984375 18156.3671875 17557.1484375 18156.3671875 C 17576.40625 18156.3671875 17592.07421875 18140.705078125 17592.07421875 18121.453125 C 17592.07421875 18118.138671875 17594.759765625 18115.453125 17598.07421875 18115.453125 L 17666.748046875 18115.453125 C 17667.5546875 18115.453125 17668.326171875 18115.61328125 17669.02734375 18115.90234375 C 17669.73046875 18115.61328125 17670.501953125 18115.453125 17671.30859375 18115.453125 L 17739.99609375 18115.453125 C 17743.310546875 18115.453125 17745.99609375 18118.138671875 17745.99609375 18121.453125 C 17745.99609375 18140.705078125 17761.654296875 18156.3671875 17780.900390625 18156.3671875 C 17784.21484375 18156.3671875 17786.900390625 18159.052734375 17786.900390625 18162.3671875 L 17786.900390625 18225.3515625 C 17786.900390625 18259.88671875 17772.2734375 18296.458984375 17746.767578125 18325.693359375 C 17723.443359375 18352.427734375 17694.529296875 18369.03515625 17671.30859375 18369.03515625 Z" stroke="none" fill="#00b754"/>
      </g>
      <g id="lock" transform="translate(108.389 120.215)">
        <path id="Path_4486" data-name="Path 4486" d="M17890.344,18386.518a8.262,8.262,0,0,1-8.281-8.281v-33.117a41.387,41.387,0,0,1,82.773-.051c0,.129.008.25.008.375a8.232,8.232,0,1,1-16.465,0c0-.109,0-.215,0-.324h-.1a24.836,24.836,0,0,0-49.672,0v24.844h39.027v16.555Z" transform="translate(-17871.852 -18303.732)" fill="#008b56"/>
        <g id="Group_1923" data-name="Group 1923" transform="translate(0 54.273)">
          <rect id="Rectangle_17491" data-name="Rectangle 17491" width="103.2" height="85.513" rx="24" fill="#ffc001"/>
          <rect id="Rectangle_17514" data-name="Rectangle 17514" width="103.2" height="85.513" rx="10" fill="#ffc001"/>
          <path id="Union_39" data-name="Union 39" d="M3.851,24.4V17.485A9.743,9.743,0,0,1,0,9.692,9.6,9.6,0,0,1,9.5,0,9.6,9.6,0,0,1,19,9.692a9.751,9.751,0,0,1-3.339,7.378V24.4a5.906,5.906,0,0,1-11.812,0Z" transform="translate(42.098 28.504)" fill="#262626"/>
        </g>
      </g>
    </g>
    <rect id="Rectangle_17725" data-name="Rectangle 17725" width="13.118" height="54.009" rx="6.559" transform="translate(685.464 411.117)" fill="#8ce33a"/>
    <rect id="Rectangle_17726" data-name="Rectangle 17726" width="13.118" height="18.624" rx="6.559" transform="translate(685.464 386.906)" fill="#8ce33a"/>
    <g id="GIRL" transform="translate(1156.426 121.953)">
      <g id="Group_1829" data-name="Group 1829" transform="translate(0 0)">
        <ellipse id="Ellipse_507-2" data-name="Ellipse 507" cx="17.095" cy="17.095" rx="17.095" ry="17.095" transform="translate(0 61.942)" fill="#ff8076"/>
        <path id="Path_4360" data-name="Path 4360" d="M250.777,12.622a5.051,5.051,0,0,0-4.968,4.215V12.316a5,5,0,0,0-9.855-1.231V7.7a5,5,0,0,0-9.935-.857V5.153a5.121,5.121,0,0,0-10.164-.925,5,5,0,0,0-9.838-.219A5.121,5.121,0,0,0,195.9,5.154V6.913a5.081,5.081,0,0,0-10.093.862v3.684a5,5,0,0,0-9.935.857v4.517a5.041,5.041,0,0,0-10.014.863V80.45l.026,0h4.369v-4.99c0-13.576,6.951-29.759,40.065-29.759h1.047c33.114,0,40.065,16.183,40.065,29.759v4.99H255.8l.027,0V17.7A5.059,5.059,0,0,0,250.777,12.622Z" transform="translate(-145.342 0)" fill="#d14034"/>
        <path id="Path_4487" data-name="Path 4487" d="M27.021,102.023a17.095,17.095,0,1,1,2.069-26.1,44.625,44.625,0,0,1,21.3-27.181V0H88.91V46.427a44.559,44.559,0,0,1,27.538,37.662,45.339,45.339,0,0,1,.674,7.807v8.61a45.063,45.063,0,0,1-90.1,1.518Z" transform="translate(137.672 170.378) rotate(180)" fill="#ff8076"/>
        <rect id="Rectangle_17600-3" data-name="Rectangle 17600" width="24.985" height="11.835" rx="5.917" transform="translate(95.864 55.018) rotate(-173)" fill="#262626"/>
        <rect id="Rectangle_17727" data-name="Rectangle 17727" width="24.985" height="11.835" rx="5.917" transform="matrix(-0.966, 0.259, -0.259, -0.966, 55.393, 54.394)" fill="#262626"/>
        <path id="Path_4047-3" data-name="Path 4047" d="M634.3,354.049l36.723,36.763H561.664l34.474-36.763Z" transform="translate(-547.236 -212.848)" fill="#90daff"/>
        <path id="Path_4259-2" data-name="Path 4259" d="M14260.309,22587.811l-12.674-36.762h-6.549l-12.674,36.762Z" transform="translate(-14177.806 -22409.85)" fill="#8738bd"/>
        <g id="Group_1824-3" data-name="Group 1824" transform="translate(30.799 60.861)">
          <g id="Group_1822-3" data-name="Group 1822" transform="translate(34.006 0)">
            <ellipse id="Ellipse_498-5" data-name="Ellipse 498" cx="14.574" cy="14.573" rx="14.574" ry="14.573" transform="translate(0)" fill="#fff"/>
            <ellipse id="Ellipse_500-4" data-name="Ellipse 500" cx="7.287" cy="8.096" rx="7.287" ry="8.096" transform="translate(0 8.096)" fill="#262626"/>
          </g>
          <g id="Group_1823-3" data-name="Group 1823" transform="translate(0 0)">
            <ellipse id="Ellipse_498-6" data-name="Ellipse 498" cx="14.574" cy="14.573" rx="14.574" ry="14.573" fill="#fff"/>
            <ellipse id="Ellipse_500-5" data-name="Ellipse 500" cx="8.096" cy="8.096" rx="8.096" ry="8.096" transform="translate(0 8.096)" fill="#262626"/>
          </g>
        </g>
        <path id="Path_3691-3" data-name="Path 3691" d="M17.87,2C12.544,6.576,9.146,7.85,5.475,8.574s-5.6,1.7-5.468,3.674,1.806,3.047,6.33,4.2A14.005,14.005,0,0,0,19,13.274a15.443,15.443,0,0,0,4.779-9.043C24.3,1.819,23.2-2.582,17.87,2Z" transform="translate(53.464 86.426) rotate(16)" fill="#262626"/>
        <path id="Path_4488" data-name="Path 4488" d="M17317.023,18306.66a17.845,17.845,0,0,1,13.121-5.379,19.516,19.516,0,0,1,2.891.211,13.791,13.791,0,0,1-5.352,4.516,14.5,14.5,0,0,1-6.187,1.395A13.7,13.7,0,0,1,17317.023,18306.66Z" transform="translate(-17259.619 -18201.584)" fill="#d14034"/>
      </g>
    </g>
    <path id="Intersection_77" data-name="Intersection 77" d="M0,38.813A44.139,44.139,0,0,1,43.813,0h80.9A44.139,44.139,0,0,1,168.53,38.813Z" transform="translate(1140.841 264.108)" fill="#8ce33a"/>
    <path id="Intersection_76" data-name="Intersection 76" d="M0,11.952V0H42.291V11.952A21.146,21.146,0,0,1,0,11.952Z" transform="translate(1203.045 264.09)" fill="#fff"/>
  </g>
</svg>
