<svg xmlns="http://www.w3.org/2000/svg" width="823.648" height="468.662" viewBox="0 0 823.648 468.662">
  <g id="Group_2155" data-name="Group 2155" transform="translate(-131.84 -34.338)">
    <g id="Group_1980" data-name="Group 1980">
      <rect id="Rectangle_17770" data-name="Rectangle 17770" width="749" height="357" rx="169" transform="translate(138 115)" fill="#d6f5fe"/>
      <g id="BULB" transform="translate(-36.777 -15.842)">
        <path id="Path_3878" data-name="Path 3878" d="M19145.672,18985.646h-14.246c-4.736-25.59-23.121-30.094-25.082-54.137a35.574,35.574,0,0,1,35.189-40.508c.48,0,.949.01,1.41.029.461-.02.93-.029,1.41-.029a35.535,35.535,0,0,1,35.533,35.531,36.074,36.074,0,0,1-.346,4.977c-1.957,24.043-20.344,28.547-25.082,54.137Zm0,0h0Z" transform="translate(-18588 -18838.822)" fill="#ffd719" stroke="#fff" stroke-width="4"/>
        <path id="Intersection_48" data-name="Intersection 48" d="M17.833,51.485l-1.81-.325-.111-.02-3.451-.62-4.133-.742C8.233,35.295-1.126,31.069.113,17.7c.033-.914-.16-.13,0-1.054C1.975,5.889,10.678-1.587,21.125.289q.383.069.747.152c.248.034.5.072.754.118,10.448,1.876,15.483,10.883,12.954,22.3a38.912,38.912,0,0,1-2.161,6.275c-3.219,4.627-6.935,8.936-9.4,15.324a50.75,50.75,0,0,0-3.25,7.03ZM16.1,51.173h0ZM35.582,22.856c.136-.431.1-.209.044.013a1.227,1.227,0,0,1-.078.259A1,1,0,0,1,35.582,22.856Z" transform="translate(540.79 81.338)" fill="#fdffff"/>
        <g id="Group_1761" data-name="Group 1761" transform="translate(540.79 104.339)">
          <path id="Path_3881" data-name="Path 3881" d="M-18525.986-18743.457h13.293s9.236-1.029,5.91-5.834-8.943,1.053-9.07,10.031,0,28.43,0,28.43" transform="translate(18534.367 18751.012)" fill="none" stroke="#8738bd" stroke-linecap="round" stroke-width="3"/>
          <path id="Path_3882" data-name="Path 3882" d="M-18506.062-18743.457h-13.293s-9.234-1.029-5.91-5.834,8.941,1.053,9.07,10.031,0,28.113,0,28.113" transform="translate(18525.988 18751.012)" fill="none" stroke="#8738bd" stroke-linecap="round" stroke-width="3"/>
        </g>
        <rect id="Rectangle_17543" data-name="Rectangle 17543" width="25.765" height="16.103" transform="translate(542.155 148.12)" fill="#50a7f0"/>
      </g>
      <g id="_089-list" data-name="089-list" transform="matrix(0.978, 0.208, -0.208, 0.978, 807.32, 302.262)">
        <circle id="Ellipse_575" data-name="Ellipse 575" cx="83.769" cy="83.769" r="83.769" transform="translate(-20 -18.535)" fill="#fdffff"/>
        <circle id="Ellipse_577" data-name="Ellipse 577" cx="76.029" cy="76.029" r="76.029" transform="translate(-10.895 -19.445)" fill="#90daff"/>
        <path id="Path_4656" data-name="Path 4656" d="M100.335,134.012a9,9,0,0,1,.749-11.88h0a9,9,0,0,1,12.729,0h0a9,9,0,0,1,.749,11.88l-6.986,9.009a.161.161,0,0,1-.255,0Zm13.478,16.79a9,9,0,0,0-12.729,0h0a9,9,0,0,0-.749,11.88l6.986,9.009a.161.161,0,0,0,.255,0l6.986-9.009a9,9,0,0,0-.749-11.88Zm0,28.67a9,9,0,0,0-12.729,0h0a9,9,0,0,0-.749,11.88l6.986,9.009a.161.161,0,0,0,.255,0l6.986-9.009a9,9,0,0,0-.749-11.88Z" transform="translate(-74.578 -90.091)" fill="#ffd06b"/>
        <path id="Path_4659" data-name="Path 4659" d="M200,143.658v-2.606a1.3,1.3,0,0,1,1.3-1.3h29.973a1.3,1.3,0,0,1,1.3,1.3v2.606a1.3,1.3,0,0,1-1.3,1.3H201.3A1.3,1.3,0,0,1,200,143.658Zm1.3,9.122h22.154a1.3,1.3,0,0,0,1.3-1.3V148.87a1.3,1.3,0,0,0-1.3-1.3H201.3a1.3,1.3,0,0,0-1.3,1.3v2.606A1.3,1.3,0,0,0,201.3,152.78Zm33.882,17.007H201.3a1.3,1.3,0,0,0-1.3,1.3V173.7a1.3,1.3,0,0,0,1.3,1.3h33.882a1.3,1.3,0,0,0,1.3-1.3V171.09A1.3,1.3,0,0,0,235.185,169.786ZM201.3,182.818h13.032a1.3,1.3,0,0,0,1.3-1.3v-2.606a1.3,1.3,0,0,0-1.3-1.3H201.3a1.3,1.3,0,0,0-1.3,1.3v2.606A1.3,1.3,0,0,0,201.3,182.818Zm33.882,14.269H201.3a1.3,1.3,0,0,0-1.3,1.3V201a1.3,1.3,0,0,0,1.3,1.3h33.882a1.3,1.3,0,0,0,1.3-1.3v-2.606A1.3,1.3,0,0,0,235.185,197.087Zm-15.638,7.819H201.3a1.3,1.3,0,0,0-1.3,1.3v2.606a1.3,1.3,0,0,0,1.3,1.3h18.244a1.3,1.3,0,0,0,1.3-1.3v-2.606A1.3,1.3,0,0,0,219.548,204.906Z" transform="translate(-149.663 -105.065)" fill="#ffe67d"/>
        <path id="Intersection_85" data-name="Intersection 85" d="M0,73.756,9.384,6.98A8,8,0,0,1,18.42.171l82.437,11.586a8,8,0,0,1,6.808,9.035L96.885,97.5A74.714,74.714,0,0,1,0,73.756Z" transform="translate(2.577 25.388)" fill="#50a7f0"/>
        <path id="Intersection_86" data-name="Intersection 86" d="M0,95.775V8A8,8,0,0,1,8,0H91.247a8,8,0,0,1,8,8V95.776A69.655,69.655,0,0,1,0,95.775Z" transform="translate(15.511 17.885)" fill="#fdffff"/>
        <g id="Group_1955" data-name="Group 1955" transform="translate(22.795 31.544)">
          <circle id="Ellipse_574" data-name="Ellipse 574" cx="9.561" cy="9.561" r="9.561" fill="#ffd719"/>
          <path id="check-icon" d="M.693,9.054a.94.94,0,0,0,.1,1.327l4.645,3.982a.935.935,0,0,0,.611.227c.028,0,.056,0,.084,0a.938.938,0,0,0,.645-.34l7.945-9.67A.942.942,0,0,0,14.6,3.25L13.142,2.055a.943.943,0,0,0-1.325.13L5.7,9.628,3.245,7.522a.944.944,0,0,0-1.327.1Z" transform="translate(69.119 -0.021)" fill="#8ce33a"/>
          <path id="Union_67" data-name="Union 67" d="M-3112.134,1677.092a2.731,2.731,0,0,1-2.731-2.731,2.732,2.732,0,0,1,2.731-2.732h17.3a2.731,2.731,0,0,1,2.731,2.732,2.73,2.73,0,0,1-2.731,2.731Zm0-9.105a2.731,2.731,0,0,1-2.731-2.732,2.732,2.732,0,0,1,2.731-2.731h30.958a2.732,2.732,0,0,1,2.731,2.731,2.731,2.731,0,0,1-2.731,2.732Z" transform="translate(3142.181 -1659.793)" fill="#dae0ec"/>
        </g>
        <g id="Group_1955-2" data-name="Group 1955" transform="translate(22.795 61.592)">
          <circle id="Ellipse_574-2" data-name="Ellipse 574" cx="9.561" cy="9.561" r="9.561" fill="#ffd719"/>
          <path id="check-icon-2" data-name="check-icon" d="M.693,9.054a.94.94,0,0,0,.1,1.327l4.645,3.982a.935.935,0,0,0,.611.227c.028,0,.056,0,.084,0a.938.938,0,0,0,.645-.34l7.945-9.67A.942.942,0,0,0,14.6,3.25L13.142,2.055a.943.943,0,0,0-1.325.13L5.7,9.628,3.245,7.522a.944.944,0,0,0-1.327.1Z" transform="translate(69.119 -0.021)" fill="#8ce33a"/>
          <rect id="Rectangle_17780" data-name="Rectangle 17780" width="22.763" height="5.463" rx="2.732" transform="translate(27.316 11.837)" fill="#dae0ec"/>
          <rect id="Rectangle_17781" data-name="Rectangle 17781" width="36.421" height="5.463" rx="2.732" transform="translate(27.316 2.732)" fill="#dae0ec"/>
        </g>
        <g id="Group_1955-3" data-name="Group 1955" transform="translate(22.796 91.64)">
          <circle id="Ellipse_574-3" data-name="Ellipse 574" cx="9.561" cy="9.561" r="9.561" transform="translate(0 0)" fill="#ffd719"/>
          <path id="check-icon-3" data-name="check-icon" d="M.693,9.054a.94.94,0,0,0,.1,1.327l4.645,3.982a.935.935,0,0,0,.611.227c.028,0,.056,0,.084,0a.938.938,0,0,0,.645-.34l7.945-9.67A.942.942,0,0,0,14.6,3.25L13.142,2.055a.943.943,0,0,0-1.325.13L5.7,9.628,3.245,7.522a.944.944,0,0,0-1.327.1Z" transform="translate(69.119 -0.021)" fill="#8ce33a"/>
          <rect id="Rectangle_17780-2" data-name="Rectangle 17780" width="22.763" height="5.463" rx="2.732" transform="translate(27.316 11.837)" fill="#dae0ec"/>
          <rect id="Rectangle_17781-2" data-name="Rectangle 17781" width="36.421" height="5.463" rx="2.732" transform="translate(27.316 2.732)" fill="#dae0ec"/>
        </g>
      </g>
      <g id="open-book_3_" data-name="open-book (3)" transform="translate(704.285 69.67) rotate(12)">
        <ellipse id="Ellipse_579" data-name="Ellipse 579" cx="75.316" cy="75.825" rx="75.316" ry="75.825" transform="matrix(1, -0.017, 0.017, 1, -11.578, 5.64)" fill="#fdffff"/>
        <ellipse id="Ellipse_582" data-name="Ellipse 582" cx="72.392" cy="72.881" rx="72.392" ry="72.881" transform="matrix(1, -0.017, 0.017, 1, 3.529, 6.411)" fill="#ffd719"/>
        <path id="Path_4707" data-name="Path 4707" d="M20031.115,20233.109l-2.107-63.371-.084-2.645,2.514-.092,72.008-2.641,3.045,91.641a72.853,72.853,0,0,1-18.67,2.758q-.647.009-1.295.01A72.543,72.543,0,0,1,20031.115,20233.109Z" transform="translate(-20008.418 -20110.887)" fill="#dc7eff" stroke="#dc7eff" stroke-width="6"/>
        <path id="Path_4708" data-name="Path 4708" d="M20113.861,20164.375h53.082a72.791,72.791,0,0,1-53.082,92.557Z" transform="translate(-20019.395 -20110.889)" fill="#008b56" stroke="#008b56" stroke-width="6"/>
        <path id="Path_4705" data-name="Path 4705" d="M59,91.8H0V7.924A17.664,17.664,0,0,1,3.514,4.137,18.9,18.9,0,0,1,15.35,0h46.2V91.8Z" transform="translate(94.427 40.932)" fill="#8ce33a" stroke="#8ce33a" stroke-width="6"/>
        <path id="Path_4706" data-name="Path 4706" d="M2.3,92.847H55.485V8.015a17.252,17.252,0,0,0-3.167-3.83A15.921,15.921,0,0,0,41.646,0H0V92.847Z" transform="translate(34.223 39.442)" fill="#fdffff" stroke="#fdffff" stroke-linejoin="round" stroke-width="6"/>
        <path id="Intersection_88" data-name="Intersection 88" d="M0,20.49V13.751C2.367,10.246,7.471,4.306,18.309,1.638c14.977-3.686,42.433,0,42.433,0v18.85l-2.516,0Z" transform="translate(95.234 112.612)" fill="#00b754" stroke="#00b754" stroke-linejoin="round" stroke-width="6"/>
        <path id="Intersection_89" data-name="Intersection 89" d="M0,0V6.187C2.187,9.406,6.9,14.86,16.922,17.311c13.844,3.384,39.222,0,39.222,0V0L53.817,0Z" transform="translate(90.216 132.733) rotate(180)" fill="#e0f8fe" stroke="#e0f8fe" stroke-linejoin="round" stroke-width="6"/>
        <g id="Path_4651" data-name="Path 4651" transform="translate(-187.608 -216.621)" fill="#ffd719" stroke-linejoin="round">
          <path d="M 329.4766845703125 361.4631042480469 L 327.0998840332031 359.750732421875 L 319.4883422851562 354.2670593261719 L 311.8768005371094 359.750732421875 L 309.5 361.4631042480469 L 309.5 358.53369140625 L 309.5 341.0159912109375 L 309.5 339.5159912109375 L 311 339.5159912109375 L 327.9766845703125 339.5159912109375 L 329.4766845703125 339.5159912109375 L 329.4766845703125 341.0159912109375 L 329.4766845703125 358.53369140625 L 329.4766845703125 361.4631042480469 Z" stroke="none"/>
          <path d="M 327.9766845703125 358.53369140625 L 327.9766845703125 341.0159912109375 L 311 341.0159912109375 L 311 358.53369140625 L 319.4883422851562 352.4183349609375 L 327.9766845703125 358.53369140625 M 327.9769897460938 361.53369140625 C 327.3586120605469 361.53369140625 326.7435607910156 361.3427734375 326.2230529785156 360.9677734375 L 319.4883422851562 356.1158142089844 L 312.7536315917969 360.9677734375 C 311.8400268554688 361.6259460449219 310.6348571777344 361.7171630859375 309.6326904296875 361.2039794921875 C 308.6304626464844 360.6907958984375 308 359.6596374511719 308 358.53369140625 L 308 341.0159912109375 C 308 339.359130859375 309.3431396484375 338.0159912109375 311 338.0159912109375 L 327.9766845703125 338.0159912109375 C 329.633544921875 338.0159912109375 330.9766845703125 339.359130859375 330.9766845703125 341.0159912109375 L 330.9766845703125 358.53369140625 C 330.9766845703125 359.6596374511719 330.3462219238281 360.6907958984375 329.343994140625 361.2039794921875 C 328.9128112792969 361.4247741699219 328.4439392089844 361.53369140625 327.9769897460938 361.53369140625 Z" stroke="none" fill="#ffd719"/>
        </g>
        <path id="Path_4712" data-name="Path 4712" d="M20203,20184a3,3,0,1,1,0-6h19a3,3,0,1,1,0,6Zm0-10a3,3,0,0,1,0-6h34a3,3,0,0,1,0,6Z" transform="translate(-20508.752 -19755.111) rotate(-1)" fill="#dae0ec"/>
      </g>
      <g id="Group_1956" data-name="Group 1956" transform="translate(-562.777 208.58) rotate(-14)">
        <g id="_010-event" data-name="010-event" transform="translate(739.752 71.172)">
          <ellipse id="Ellipse_571" data-name="Ellipse 571" cx="83.726" cy="83.338" rx="83.726" ry="83.338" transform="translate(-0.927 3.718)" fill="#fdffff"/>
          <ellipse id="Ellipse_583" data-name="Ellipse 583" cx="75.804" cy="75.453" rx="75.804" ry="75.453" transform="translate(0 0)" fill="#dc7eff"/>
          <path id="Path_4588" data-name="Path 4588" d="M109.907,368.688a27.863,27.863,0,0,1,6.624-18.059H43.891v8.1a71,71,0,0,0,8.346,11.542h57.715C109.923,369.75,109.907,369.221,109.907,368.688Z" transform="translate(-31.439 -242.289)" fill="#8ce33a"/>
          <path id="Path_4590" data-name="Path 4590" d="M116.531,350.629H43.891v8.1c.392.677.8,1.345,1.211,2.008h65.955A27.964,27.964,0,0,1,116.531,350.629Z" transform="translate(-31.439 -242.289)" fill="#d7ff86"/>
          <g id="Group_1950" data-name="Group 1950" transform="translate(12.452 24.218)">
            <path id="Path_4592" data-name="Path 4592" d="M137.895,133.676c.646,0,1.286.024,1.921.067V59.484H43.89v84.7h72.164A27.949,27.949,0,0,1,137.895,133.676Z" transform="translate(-43.89 -59.484)" fill="#fdffff"/>
          </g>
          <path id="Path_4666" data-name="Path 4666" d="M19474,20089.688h-5.756v-17.861c0-1.186,1.307-2.154,2.9-2.154h90.439c1.6,0,2.9.969,2.9,2.154v17.861Z" transform="translate(-19456.15 -20049.41)" fill="#8738bd"/>
          <path id="Path_4670" data-name="Path 4670" d="M19522.869,20088.311a2.906,2.906,0,0,1-2.895-2.891v-12.859a2.9,2.9,0,0,1,2.895-2.893h2.109a.173.173,0,0,1,.074.012h.006a2.884,2.884,0,0,1,2.721,2.881v12.859a2.9,2.9,0,0,1-2.727,2.887h-.086a.524.524,0,0,1-.078,0Zm-17.963,0a2.905,2.905,0,0,1-2.895-2.891v-12.859a2.9,2.9,0,0,1,2.895-2.893h2.109a.169.169,0,0,1,.074.012h.006a2.884,2.884,0,0,1,2.721,2.881v12.859a2.905,2.905,0,0,1-2.727,2.887H19507a.537.537,0,0,1-.078,0Zm-16.93,0a2.9,2.9,0,0,1-2.885-2.891v-12.859a2.9,2.9,0,0,1,2.885-2.893h2.02c.029,0,.057,0,.078,0h.018a.194.194,0,0,1,.068.008h.08c.131.01.254.035.379.057.006,0,.006,0,.006.006a2.891,2.891,0,0,1,2.264,2.818v12.859a2.9,2.9,0,0,1-2.893,2.891Zm-16.844,0a2.9,2.9,0,0,1-2.887-2.891v-12.859a2.9,2.9,0,0,1,2.887-2.893h2.027c.029,0,.049,0,.078,0h.012a.2.2,0,0,1,.068.008h.084a3.761,3.761,0,0,1,.375.057c.006,0,.006,0,.008.006a2.893,2.893,0,0,1,2.262,2.818v12.859a2.9,2.9,0,0,1-2.887,2.891Z" transform="translate(-19437.068 -20059.137)" fill="#ffd719"/>
          <g id="Group_1953" data-name="Group 1953" transform="translate(22.09 51.114)">
            <path id="Path_4668" data-name="Path 4668" d="M19503.8,20073.479a.873.873,0,0,1-.875-.867v-11.072a.873.873,0,0,1,.875-.865h9.754a.871.871,0,0,1,.865.865v11.072a.862.862,0,0,1-.328.676c-.209.059-.416.123-.617.191Zm-16.445,0a.866.866,0,0,1-.867-.867v-11.072a.866.866,0,0,1,.867-.865h10.375a.866.866,0,0,1,.863.865v11.072a.867.867,0,0,1-.863.867Zm-16.451,0a.865.865,0,0,1-.861-.867v-11.072a.865.865,0,0,1,.861-.865h10.377a.874.874,0,0,1,.875.865v11.072a.874.874,0,0,1-.875.867Zm-16.441,0a.866.866,0,0,1-.865-.867v-11.072a.866.866,0,0,1,.865-.865h10.381a.864.864,0,0,1,.857.865v11.072a.864.864,0,0,1-.857.867Zm-15.826,0a.872.872,0,0,1-.867-.867v-11.072a.871.871,0,0,1,.867-.865h9.754a.872.872,0,0,1,.869.865v11.072a.872.872,0,0,1-.869.867Zm65.164-17.145a.865.865,0,0,1-.871-.861v-12.25a.871.871,0,0,1,.871-.867h9.754a.872.872,0,0,1,.865.867v12.25a.866.866,0,0,1-.865.861Zm-16.445,0a.862.862,0,0,1-.867-.861v-12.25a.868.868,0,0,1,.867-.867h10.375a.868.868,0,0,1,.863.867v12.25a.862.862,0,0,1-.863.861Zm-16.451,0a.86.86,0,0,1-.861-.861v-12.25a.866.866,0,0,1,.861-.867h10.377a.876.876,0,0,1,.875.867v12.25a.869.869,0,0,1-.875.861Zm-16.441,0a.861.861,0,0,1-.865-.861v-12.25a.867.867,0,0,1,.865-.867h10.381a.866.866,0,0,1,.857.867v12.25a.859.859,0,0,1-.857.861Zm-15.826,0a.866.866,0,0,1-.867-.861v-12.25a.873.873,0,0,1,.867-.867h9.754a.873.873,0,0,1,.869.867v12.25a.867.867,0,0,1-.869.861Zm65.164-18.312a.868.868,0,0,1-.871-.863v-11.475a.871.871,0,0,1,.871-.871h9.754a.872.872,0,0,1,.865.871v11.475a.869.869,0,0,1-.865.863Zm-16.445,0a.864.864,0,0,1-.867-.863v-11.475a.867.867,0,0,1,.867-.871h10.375a.868.868,0,0,1,.863.871v11.475a.865.865,0,0,1-.863.863Zm-16.451,0a.863.863,0,0,1-.861-.863v-11.475a.866.866,0,0,1,.861-.871h10.377a.875.875,0,0,1,.875.871v11.475a.872.872,0,0,1-.875.863Zm-16.441,0a.864.864,0,0,1-.865-.863v-11.475a.867.867,0,0,1,.865-.871h10.381a.865.865,0,0,1,.857.871v11.475a.862.862,0,0,1-.857.863Zm-15.826,0a.869.869,0,0,1-.867-.863v-11.475a.872.872,0,0,1,.867-.871h9.754a.873.873,0,0,1,.869.871v11.475a.87.87,0,0,1-.869.863Z" transform="translate(-19437.773 -20024.811)" fill="#d6f5fe"/>
            <path id="Path_4669" data-name="Path 4669" d="M19481.139,20064.521a.864.864,0,0,1-.865-.859v-12.248a.876.876,0,0,1,.865-.873h10.375a.877.877,0,0,1,.871.873v12.248a.866.866,0,0,1-.871.859Zm-16.445,0a.859.859,0,0,1-.863-.859v-12.248a.871.871,0,0,1,.863-.873h10.381a.871.871,0,0,1,.859.873v12.248a.859.859,0,0,1-.859.859Zm-15.82,0a.864.864,0,0,1-.871-.859v-12.248a.876.876,0,0,1,.871-.873h9.752a.874.874,0,0,1,.863.873v12.248a.863.863,0,0,1-.863.859Zm65.162-18.312a.87.87,0,0,1-.875-.865v-11.471a.873.873,0,0,1,.875-.871h9.75a.869.869,0,0,1,.865.871v11.471a.867.867,0,0,1-.865.865Zm-16.451,0a.869.869,0,0,1-.867-.865v-11.471a.871.871,0,0,1,.867-.871h10.381a.867.867,0,0,1,.859.871v11.471a.864.864,0,0,1-.859.865Z" transform="translate(-19448 -20033.002)" fill="#ffd719"/>
          </g>
          <g id="Group_1846" data-name="Group 1846" transform="translate(84.301 104.886)">
            <circle id="Ellipse_532" data-name="Ellipse 532" cx="23.134" cy="23.134" r="23.134" transform="translate(0 0)" fill="#ffd719"/>
            <path id="check-icon-4" data-name="check-icon" d="M.774,11.633a1.277,1.277,0,0,0,.139,1.8L7.22,18.841a1.269,1.269,0,0,0,.83.308c.037,0,.076,0,.114-.005a1.273,1.273,0,0,0,.876-.462L19.826,5.554a1.279,1.279,0,0,0-.176-1.8L17.675,2.132a1.28,1.28,0,0,0-1.8.176l-8.3,10.1L4.239,9.554a1.281,1.281,0,0,0-1.8.139Z" transform="translate(12.398 12.604)" fill="#8738bd"/>
          </g>
        </g>
      </g>
      <g id="Group_2004" data-name="Group 2004" transform="translate(172.219 98.676) rotate(-14)">
        <ellipse id="Ellipse_590" data-name="Ellipse 590" cx="15.613" cy="15.57" rx="15.613" ry="15.57" transform="translate(431.654 226.437)" fill="#fdffff"/>
        <ellipse id="Ellipse_595" data-name="Ellipse 595" cx="15.613" cy="15.57" rx="15.613" ry="15.57" transform="translate(146.038 159.593)" fill="#fdffff"/>
        <ellipse id="Ellipse_596" data-name="Ellipse 596" cx="15.613" cy="15.57" rx="15.613" ry="15.57" transform="translate(69.249 265.866)" fill="#fdffff"/>
        <ellipse id="Ellipse_592" data-name="Ellipse 592" cx="15.613" cy="15.57" rx="15.613" ry="15.57" transform="translate(442.838 339.654) rotate(-13)" fill="#fdffff"/>
        <ellipse id="Ellipse_587" data-name="Ellipse 587" cx="12.892" cy="12.832" rx="12.892" ry="12.832" transform="translate(124.808 258.39)" fill="#fdffff"/>
        <ellipse id="Ellipse_588" data-name="Ellipse 588" cx="12.892" cy="12.832" rx="12.892" ry="12.832" transform="translate(191.566 189.051)" fill="#fdffff"/>
        <ellipse id="Ellipse_593" data-name="Ellipse 593" cx="12.892" cy="12.832" rx="12.892" ry="12.832" transform="translate(305.962 151.855)" fill="#fdffff"/>
        <ellipse id="Ellipse_589" data-name="Ellipse 589" cx="13.541" cy="13.504" rx="13.541" ry="13.504" transform="translate(381.312 232.459)" fill="#fdffff"/>
        <ellipse id="Ellipse_594" data-name="Ellipse 594" cx="13.541" cy="13.504" rx="13.541" ry="13.504" transform="translate(399.275 313.358)" fill="#fdffff"/>
      </g>
      <g id="TEACHER" transform="translate(-151.475 62.682)">
        <g id="Group_1830" data-name="Group 1830" transform="translate(532.04 140.474)">
          <path id="Path_4047" data-name="Path 4047" d="M648.7,347.049l44,39.887H561.664l41.31-39.887Z" transform="translate(-475.315 -185.417)" fill="#fff"/>
          <g id="Group_1832" data-name="Group 1832" transform="translate(74.204 16.081)">
            <path id="Rectangle_17761" data-name="Rectangle 17761" d="M55,0h4a55,55,0,0,1,55,55v54a28,28,0,0,1-28,28H28A28,28,0,0,1,0,109V55A55,55,0,0,1,55,0Z" transform="translate(19.231 -6.238)" fill="#8738bd"/>
            <path id="Path_4585" data-name="Path 4585" d="M18.888,108.976c-.236.009-.472.014-.709.014a18.178,18.178,0,1,1,0-36.357q.586,0,1.164.037A47.956,47.956,0,0,1,41.372,40.547V14.006C41.372.811,52.068,0,65.263,0s23.89.811,23.89,14.006V39.152a47.948,47.948,0,0,1,24.885,36.386,18.178,18.178,0,1,1,.325,29.362,47.92,47.92,0,0,1-95.474,4.076Z" transform="translate(143.097 163.762) rotate(180)" fill="#ff8076"/>
            <path id="Path_4295" data-name="Path 4295" d="M65.642.639C82.983,3.076,90.057,13.66,100.533,26.675c-3.368.122-4.136-2.774-7.6-3.07-23.678-1.094-26.574-3.9-38.061-15.358C47.044,28.824,32.259,49.961,0,46.051,6.4,13.521,35.408-3.608,65.642.639Z" transform="matrix(0.996, -0.087, 0.087, 0.996, 20.931, 8.762)" fill="#8738bd"/>
            <rect id="Rectangle_17600" data-name="Rectangle 17600" width="24.92" height="10.937" rx="4" transform="matrix(-0.995, -0.105, 0.105, -0.995, 107.389, 42.119)" fill="#262626"/>
            <g id="Group_1824" data-name="Group 1824" transform="translate(39.133 47.451)">
              <g id="glasses" transform="translate(-17727.363 -18181.529)" fill="#00b754">
                <path d="M 17783.318359375 18220.416015625 C 17779.248046875 18220.416015625 17775.306640625 18219.2890625 17771.921875 18217.158203125 C 17769.1796875 18215.435546875 17766.919921875 18213.1328125 17765.296875 18210.43359375 C 17763.744140625 18213.126953125 17761.580078125 18215.423828125 17758.958984375 18217.1484375 C 17755.708984375 18219.28515625 17751.92578125 18220.416015625 17748.021484375 18220.416015625 C 17745.328125 18220.416015625 17742.716796875 18219.888671875 17740.2578125 18218.84765625 C 17737.8828125 18217.84375 17735.75 18216.40625 17733.91796875 18214.57421875 C 17732.087890625 18212.7421875 17730.650390625 18210.609375 17729.64453125 18208.234375 C 17728.60546875 18205.7734375 17728.078125 18203.162109375 17728.078125 18200.46875 C 17728.078125 18197.63671875 17728.6875 18194.818359375 17729.84765625 18192.251953125 C 17727.75 18191.23828125 17726.36328125 18189.095703125 17726.36328125 18186.69921875 C 17726.36328125 18183.296875 17729.125 18180.529296875 17732.51953125 18180.529296875 L 17744.583984375 18180.529296875 C 17744.99609375 18180.529296875 17745.396484375 18180.5703125 17745.8046875 18180.65234375 C 17746.546875 18180.5703125 17747.291015625 18180.529296875 17748.021484375 18180.529296875 C 17751.92578125 18180.529296875 17755.708984375 18181.66015625 17758.958984375 18183.796875 C 17761.580078125 18185.521484375 17763.744140625 18187.81640625 17765.296875 18190.5078125 C 17766.919921875 18187.810546875 17769.181640625 18185.509765625 17771.921875 18183.787109375 C 17775.30859375 18181.65625 17779.25 18180.529296875 17783.318359375 18180.529296875 C 17784.248046875 18180.529296875 17785.193359375 18180.58984375 17786.130859375 18180.708984375 C 17786.615234375 18180.58984375 17787.115234375 18180.529296875 17787.619140625 18180.529296875 L 17799.67578125 18180.529296875 C 17803.076171875 18180.529296875 17805.84375 18183.296875 17805.84375 18186.69921875 C 17805.84375 18188.095703125 17805.36328125 18189.462890625 17804.490234375 18190.548828125 C 17803.89453125 18191.2890625 17803.134765625 18191.880859375 17802.28125 18192.279296875 C 17803.5 18194.869140625 17804.1171875 18197.619140625 17804.1171875 18200.46875 C 17804.1171875 18203.166015625 17803.564453125 18205.78515625 17802.474609375 18208.248046875 C 17801.42578125 18210.625 17799.921875 18212.7578125 17798.0078125 18214.58984375 C 17796.09765625 18216.41796875 17793.875 18217.8515625 17791.3984375 18218.853515625 C 17788.837890625 18219.890625 17786.119140625 18220.416015625 17783.318359375 18220.416015625 Z" stroke="none"/>
                <path d="M 17783.318359375 18219.416015625 C 17794.25 18219.416015625 17803.1171875 18210.93359375 17803.1171875 18200.46875 C 17803.1171875 18197.314453125 17802.30078125 18194.341796875 17800.875 18191.712890625 C 17803.14453125 18191.181640625 17804.84375 18189.140625 17804.84375 18186.69921875 C 17804.84375 18183.84375 17802.53125 18181.529296875 17799.67578125 18181.529296875 L 17787.619140625 18181.529296875 C 17787.12109375 18181.529296875 17786.6484375 18181.59765625 17786.1953125 18181.7265625 C 17785.251953125 18181.59765625 17784.296875 18181.529296875 17783.318359375 18181.529296875 C 17775.29296875 18181.529296875 17768.384765625 18186.095703125 17765.279296875 18192.658203125 C 17762.302734375 18186.095703125 17755.69140625 18181.529296875 17748.021484375 18181.529296875 C 17747.25390625 18181.529296875 17746.5 18181.576171875 17745.75390625 18181.6640625 C 17745.373046875 18181.576171875 17744.986328125 18181.529296875 17744.583984375 18181.529296875 L 17732.51953125 18181.529296875 C 17729.66796875 18181.529296875 17727.36328125 18183.84375 17727.36328125 18186.69921875 C 17727.36328125 18189.103515625 17729.005859375 18191.119140625 17731.228515625 18191.701171875 C 17729.857421875 18194.318359375 17729.078125 18197.30859375 17729.078125 18200.46875 C 17729.078125 18210.93359375 17737.556640625 18219.416015625 17748.021484375 18219.416015625 C 17755.69140625 18219.416015625 17762.302734375 18214.8515625 17765.279296875 18208.283203125 C 17768.384765625 18214.8515625 17775.29296875 18219.416015625 17783.318359375 18219.416015625 M 17783.318359375 18221.416015625 C 17779.060546875 18221.416015625 17774.935546875 18220.236328125 17771.388671875 18218.005859375 C 17768.978515625 18216.48828125 17766.919921875 18214.544921875 17765.314453125 18212.28515625 C 17763.77734375 18214.533203125 17761.8125 18216.46875 17759.509765625 18217.984375 C 17756.095703125 18220.228515625 17752.123046875 18221.416015625 17748.021484375 18221.416015625 C 17745.1953125 18221.416015625 17742.451171875 18220.861328125 17739.8671875 18219.76953125 C 17737.373046875 18218.71484375 17735.1328125 18217.203125 17733.2109375 18215.28125 C 17731.2890625 18213.357421875 17729.779296875 18211.1171875 17728.724609375 18208.623046875 C 17727.6328125 18206.0390625 17727.078125 18203.294921875 17727.078125 18200.46875 C 17727.078125 18197.80078125 17727.59375 18195.142578125 17728.580078125 18192.6796875 C 17726.61328125 18191.376953125 17725.36328125 18189.154296875 17725.36328125 18186.69921875 C 17725.36328125 18182.74609375 17728.57421875 18179.529296875 17732.51953125 18179.529296875 L 17744.583984375 18179.529296875 C 17745.00390625 18179.529296875 17745.42578125 18179.56640625 17745.845703125 18179.642578125 C 17746.57421875 18179.56640625 17747.3046875 18179.529296875 17748.021484375 18179.529296875 C 17752.12109375 18179.529296875 17756.09375 18180.716796875 17759.509765625 18182.9609375 C 17761.8125 18184.4765625 17763.77734375 18186.412109375 17765.314453125 18188.658203125 C 17766.919921875 18186.400390625 17768.978515625 18184.45703125 17771.388671875 18182.939453125 C 17774.935546875 18180.708984375 17779.060546875 18179.529296875 17783.318359375 18179.529296875 C 17784.23046875 18179.529296875 17785.15625 18179.5859375 17786.076171875 18179.6953125 C 17786.58203125 18179.5859375 17787.09765625 18179.529296875 17787.619140625 18179.529296875 L 17799.67578125 18179.529296875 C 17803.62890625 18179.529296875 17806.84375 18182.74609375 17806.84375 18186.69921875 C 17806.84375 18188.322265625 17806.28515625 18189.912109375 17805.26953125 18191.17578125 C 17804.787109375 18191.77734375 17804.208984375 18192.294921875 17803.56640625 18192.708984375 C 17804.595703125 18195.1796875 17805.1171875 18197.78125 17805.1171875 18200.46875 C 17805.1171875 18203.306640625 17804.53515625 18206.060546875 17803.390625 18208.65234375 C 17802.287109375 18211.150390625 17800.708984375 18213.390625 17798.69921875 18215.3125 C 17796.697265625 18217.228515625 17794.3671875 18218.73046875 17791.7734375 18219.78125 C 17789.09375 18220.865234375 17786.248046875 18221.416015625 17783.318359375 18221.416015625 Z" stroke="none" fill="#00b754"/>
              </g>
              <g id="Group_1822" data-name="Group 1822" transform="translate(41.312 3.444)">
                <ellipse id="Ellipse_498" data-name="Ellipse 498" cx="15.497" cy="15.497" rx="15.497" ry="15.497" transform="translate(0)" fill="#fff"/>
                <ellipse id="Ellipse_500" data-name="Ellipse 500" cx="7.749" cy="8.609" rx="7.749" ry="8.609" transform="translate(7.495 13.776)" fill="#262626"/>
              </g>
              <g id="Group_1823" data-name="Group 1823" transform="translate(5.151 3.444)">
                <ellipse id="Ellipse_498-2" data-name="Ellipse 498" cx="15.497" cy="15.497" rx="15.497" ry="15.497" fill="#fff"/>
                <ellipse id="Ellipse_515" data-name="Ellipse 515" cx="7.749" cy="8.609" rx="7.749" ry="8.609" transform="translate(7.495 13.774)" fill="#262626"/>
              </g>
            </g>
            <path id="Path_3691" data-name="Path 3691" d="M16.042,2.022c-.72,4.043-2.034,6.422-6.636,8.39S.951,10.8.172,11.862s1.08,3.564,5.2,3.8a14.329,14.329,0,0,0,11.3-4.68c2.655-3.118,2.9-4.366,3.358-7.287S16.761-2.021,16.042,2.022Z" transform="translate(73.169 83.304) rotate(25)" fill="#262626"/>
          </g>
          <path id="Rectangle_17798" data-name="Rectangle 17798" d="M75,0H203a75,75,0,0,1,75,75v32a0,0,0,0,1,0,0H0a0,0,0,0,1,0,0V75A75,75,0,0,1,75,0Z" transform="translate(8.436 157.844)" fill="#ffd719"/>
          <circle id="Ellipse_581" data-name="Ellipse 581" cx="30" cy="30" r="30" transform="translate(8.436 222.844)" fill="#ff8076"/>
          <rect id="Rectangle_17796" data-name="Rectangle 17796" width="213" height="106" rx="12" transform="translate(40.436 193.844)" fill="#fff"/>
          <rect id="Rectangle_17800" data-name="Rectangle 17800" width="34" height="15" rx="7.5" transform="translate(31.436 267.844)" fill="#ff8076"/>
          <rect id="Rectangle_17801" data-name="Rectangle 17801" width="39" height="15" rx="7.5" transform="translate(29.436 252.844)" fill="#ff8076"/>
          <rect id="Rectangle_17802" data-name="Rectangle 17802" width="39" height="16" rx="8" transform="translate(24.436 237.844)" fill="#ff8076"/>
        </g>
      </g>
      <ellipse id="Ellipse_584" data-name="Ellipse 584" cx="79.161" cy="78.795" rx="79.161" ry="78.795" transform="translate(131.84 325.621)" fill="#fdffff"/>
      <g id="Group_1749" data-name="Group 1749" transform="translate(-443.688 132.611) rotate(-11)">
        <ellipse id="Ellipse_580" data-name="Ellipse 580" cx="68.538" cy="68.221" rx="68.538" ry="68.221" transform="translate(533.265 295.666) rotate(11)" fill="#ffd719"/>
        <g id="idea_1_" data-name="idea (1)" transform="translate(547.031 301.002)">
          <path id="Path_3805" data-name="Path 3805" d="M19656.969,19770.92v-.031h.008c0-6.289,4.236-11.387,9.445-11.387h90.357v95.652h-86.654l-.408.254v0l-11.443,7.082h0l-1.3.811Z" transform="translate(-19656.961 -19759.502)" fill="#90daff"/>
          <path id="Path_3790" data-name="Path 3790" d="M127.38,369.425a10.6,10.6,0,0,1,0-21.184h81.235v21.184H127.38Z" transform="translate(-113.036 -255.116)" fill="#fff"/>
          <path id="Path_3792" data-name="Path 3792" d="M201.579,358.064h-80.7a6.355,6.355,0,1,1,0-12.71h84.954V336.88H120.875a14.828,14.828,0,1,0,0,29.657h84.954v-8.473h-4.25Z" transform="translate(-106 -247.992)" fill="#50a7f0"/>
        </g>
        <g id="Path_4709" data-name="Path 4709" transform="matrix(0.999, -0.035, 0.035, 0.999, 257.01, 77.513)" fill="#904dc4" stroke-linejoin="round">
          <path d="M 329.4766845703125 361.4631042480469 L 327.0998840332031 359.750732421875 L 319.4883422851562 354.2670593261719 L 311.8768005371094 359.750732421875 L 309.5 361.4631042480469 L 309.5 358.53369140625 L 309.5 341.0159912109375 L 309.5 339.5159912109375 L 311 339.5159912109375 L 327.9766845703125 339.5159912109375 L 329.4766845703125 339.5159912109375 L 329.4766845703125 341.0159912109375 L 329.4766845703125 358.53369140625 L 329.4766845703125 361.4631042480469 Z" stroke="none"/>
          <path d="M 327.9766845703125 358.53369140625 L 327.9766845703125 341.0159912109375 L 311 341.0159912109375 L 311 358.53369140625 L 319.4883422851562 352.4183349609375 L 327.9766845703125 358.53369140625 M 327.9769897460938 361.53369140625 C 327.3586120605469 361.53369140625 326.7435607910156 361.3427734375 326.2230529785156 360.9677734375 L 319.4883422851562 356.1158142089844 L 312.7536315917969 360.9677734375 C 311.8400268554688 361.6259460449219 310.6348571777344 361.7171630859375 309.6326904296875 361.2039794921875 C 308.6304626464844 360.6907958984375 308 359.6596374511719 308 358.53369140625 L 308 341.0159912109375 C 308 339.359130859375 309.3431396484375 338.0159912109375 311 338.0159912109375 L 327.9766845703125 338.0159912109375 C 329.633544921875 338.0159912109375 330.9766845703125 339.359130859375 330.9766845703125 341.0159912109375 L 330.9766845703125 358.53369140625 C 330.9766845703125 359.6596374511719 330.3462219238281 360.6907958984375 329.343994140625 361.2039794921875 C 328.9128112792969 361.4247741699219 328.4439392089844 361.53369140625 327.9769897460938 361.53369140625 Z" stroke="none" fill="#8738bd"/>
        </g>
      </g>
      <path id="Path_4710" data-name="Path 4710" d="M20202.033,20187.1a3,3,0,0,1,2.494-3.434l18.764-2.973a3,3,0,1,1,.941,5.924l-18.766,2.977a3,3,0,0,1-3.434-2.494Zm-1.564-9.881a3,3,0,0,1,2.494-3.428l33.582-5.318a3,3,0,1,1,.939,5.922l-33.582,5.318a2.987,2.987,0,0,1-3.434-2.494Z" transform="translate(-20017.008 -19831.031)" fill="#fdffff"/>
    </g>
  </g>
</svg>
