<svg xmlns="http://www.w3.org/2000/svg" width="1039.906" height="364.5" viewBox="0 0 1039.906 364.5">
  <g id="Group_1888" data-name="Group 1888" transform="translate(-17 -197.5)">
    <g id="Group_1885" data-name="Group 1885" transform="translate(72 195.004)" style="mix-blend-mode: multiply;isolation: isolate">
      <rect id="Rectangle_17628" data-name="Rectangle 17628" width="141.252" height="124.863" rx="28" transform="translate(722.233 62.65)" fill="#d6f5fe"/>
      <rect id="Rectangle_17627" data-name="Rectangle 17627" width="174.768" height="111.343" rx="28" transform="translate(688.718 203.797)" fill="#d4f5fe"/>
      <path id="Rectangle_17630" data-name="Rectangle 17630" d="M0,0H75.905a28,28,0,0,1,28,28V83.343a28,28,0,0,1-28,28H0a0,0,0,0,1,0,0V0A0,0,0,0,1,0,0Z" transform="translate(-55 207.972)" fill="#d4f5fe"/>
      <path id="Rectangle_17631" data-name="Rectangle 17631" d="M0,0H75.905a28,28,0,0,1,28,28V83.343a28,28,0,0,1-28,28H0a0,0,0,0,1,0,0V0A0,0,0,0,1,0,0Z" transform="translate(-55 79.53)" fill="#d6f5fe"/>
      <rect id="Rectangle_17628-2" data-name="Rectangle 17628" width="158.009" height="124.863" rx="28" transform="translate(66.664 167.411)" fill="#d6f5fe"/>
      <rect id="Rectangle_17627-2" data-name="Rectangle 17627" width="158.009" height="121.343" rx="28" transform="translate(66.664 29.784)" fill="#d4f5fe"/>
      <path id="Rectangle_17806" data-name="Rectangle 17806" d="M0,0H75.905a28,28,0,0,1,28,28V83.343a28,28,0,0,1-28,28H0a0,0,0,0,1,0,0V0A0,0,0,0,1,0,0Z" transform="translate(984.906 140.873) rotate(180)" fill="#d4f5fe"/>
      <path id="Rectangle_17807" data-name="Rectangle 17807" d="M0,0H75.905a28,28,0,0,1,28,28V83.343a28,28,0,0,1-28,28H0a0,0,0,0,1,0,0V0A0,0,0,0,1,0,0Z" transform="translate(984.906 269.314) rotate(180)" fill="#d6f5fe"/>
    </g>
    <g id="Rectangle_17665" data-name="Rectangle 17665" transform="translate(321.5 420)" fill="#8ce33a" stroke="#8ce33a" stroke-linecap="round" stroke-linejoin="round" stroke-width="2">
      <rect width="198" height="140" rx="27" stroke="none"/>
      <rect x="-1" y="-1" width="200" height="142" rx="28" fill="none"/>
    </g>
    <g id="BOY-2" transform="translate(18 108)">
      <rect id="Rectangle_17676" data-name="Rectangle 17676" width="97" height="57" rx="28.5" transform="translate(353 338)" fill="#262626"/>
      <rect id="Rectangle_17715" data-name="Rectangle 17715" width="39" height="8" transform="translate(381 421.801)" fill="#ffb100"/>
      <g id="Group_1887" data-name="Group 1887" transform="translate(-196.92 74.814)">
        <circle id="Ellipse_507" data-name="Ellipse 507" cx="10.557" cy="10.557" r="10.557" transform="translate(617.906 305.102)" fill="#d06444"/>
        <path id="Path_4268" data-name="Path 4268" d="M31.122,86.082v-30.1A27.559,27.559,0,0,1,17.966,39.194a10.556,10.556,0,1,1-1.277-16.117,27.829,27.829,0,0,1,55.642.937v5.319a28.012,28.012,0,0,1-.417,4.825A27.521,27.521,0,0,1,54.908,57.412v28.67Z" transform="translate(553.998 285.985)" fill="#d06444"/>
        <rect id="Rectangle_17600" data-name="Rectangle 17600" width="15.43" height="7.309" rx="3.654" transform="matrix(0.966, -0.259, 0.259, 0.966, 578.633, 294.477)" fill="#262626"/>
        <rect id="Rectangle_17677" data-name="Rectangle 17677" width="15.43" height="7.309" rx="3.654" transform="translate(605.694 287.732) rotate(22)" fill="#262626"/>
        <path id="Path_4047" data-name="Path 4047" d="M584.342,354.049l-22.678,22.7H629.2l-21.29-22.7Z" transform="translate(0.914)" fill="#90daff"/>
        <path id="Path_4259" data-name="Path 4259" d="M14228.411,22573.75l7.827-22.7h4.044l7.827,22.7Z" transform="translate(-13640.342 -22197)" fill="#dcf3f3"/>
        <path id="Path_3691" data-name="Path 3691" d="M9.316,7.931A5.572,5.572,0,0,0,5.462,3.058C2.789,1.916.552,2.833.1,2.216S.727.146,3.118.012A8.322,8.322,0,0,1,9.681,2.73a6.661,6.661,0,0,1,1.95,4.232C11.9,8.658,9.734,10.279,9.316,7.931Z" transform="translate(607.073 326.79) rotate(155)" fill="#262626"/>
        <g id="Group_1824" data-name="Group 1824" transform="translate(235.368 -39.748)">
          <g id="Group_1822" data-name="Group 1822" transform="translate(342 339.285)">
            <circle id="Ellipse_498" data-name="Ellipse 498" cx="9" cy="9" r="9" transform="translate(3 2)" fill="#fff"/>
            <ellipse id="Ellipse_500" data-name="Ellipse 500" cx="4.5" cy="5" rx="4.5" ry="5" transform="translate(9 2)" fill="#262626"/>
          </g>
          <g id="Group_1823" data-name="Group 1823" transform="translate(363.75 339.285)">
            <circle id="Ellipse_498-2" data-name="Ellipse 498" cx="9" cy="9" r="9" transform="translate(2.25 2)" fill="#fff"/>
            <circle id="Ellipse_500-2" data-name="Ellipse 500" cx="5" cy="5" r="5" transform="translate(7.25 2)" fill="#262626"/>
          </g>
        </g>
      </g>
      <path id="Path_4269" data-name="Path 4269" d="M10770.974,22599c.088-.146.178-.291.268-.437a58.524,58.524,0,0,1,99.513,0c.091.146.18.291.269.438Z" transform="translate(-10421.408 -22147)" fill="#50a7f0"/>
      <g id="Group_1857" data-name="Group 1857" transform="translate(380.568 423.846)">
        <path id="Path_4099" data-name="Path 4099" d="M97.943,198.449l14.324,10.412,14.782-10.412H97.943" transform="translate(-93.254 -198.449)" fill="#fff"/>
        <rect id="Rectangle_17678" data-name="Rectangle 17678" width="29" height="14" transform="translate(4.732 -13.846)" fill="#d06444"/>
      </g>
      <rect id="Rectangle_17679" data-name="Rectangle 17679" width="11" height="27.729" rx="5.5" transform="matrix(0.53, -0.848, 0.848, 0.53, 373.19, 429.027)" fill="#ffb100"/>
      <rect id="Rectangle_17680" data-name="Rectangle 17680" width="11" height="28.231" rx="5.5" transform="matrix(-0.53, -0.848, 0.848, -0.53, 402.49, 443.988)" fill="#ffb100"/>
    </g>
    <rect id="Rectangle_17664" data-name="Rectangle 17664" width="198" height="140" rx="27" transform="translate(540.5 374.977)" fill="#ffd719"/>
    <g id="BOY" transform="translate(52 137.566)">
      <g id="Group_1886" data-name="Group 1886" transform="translate(-3 6.883)">
        <path id="Rectangle_17674" data-name="Rectangle 17674" d="M28,0H59.3a0,0,0,0,1,0,0V49.87a27,27,0,0,1-27,27H27a27,27,0,0,1-27-27V28A28,28,0,0,1,28,0Z" transform="translate(572.57 272.434)" fill="#ff8076"/>
        <rect id="Rectangle_17606" data-name="Rectangle 17606" width="73.126" height="8.011" transform="translate(562.819 379.385)" fill="#fff"/>
        <rect id="Rectangle_17675" data-name="Rectangle 17675" width="42.828" height="40.921" transform="translate(572.57 321.561)" fill="#ff8076"/>
        <g id="Group_1826" data-name="Group 1826" transform="translate(585.868 301.943)">
          <g id="Group_1820" data-name="Group 1820" transform="translate(0 0)">
            <rect id="Rectangle_17596" data-name="Rectangle 17596" width="17.401" height="20.716" rx="8.7" transform="translate(0 0)" fill="#fff"/>
            <rect id="Rectangle_17598" data-name="Rectangle 17598" width="9.115" height="10.772" rx="4.557" transform="translate(0 5.8)" fill="#262626"/>
          </g>
          <g id="Group_1821" data-name="Group 1821" transform="translate(21.275 0)">
            <rect id="Rectangle_17596-2" data-name="Rectangle 17596" width="18.229" height="20.716" rx="9.115" transform="translate(0 0)" fill="#fff"/>
            <rect id="Rectangle_17605" data-name="Rectangle 17605" width="9.115" height="10.772" rx="4.557" transform="translate(0 5.8)" fill="#262626"/>
          </g>
        </g>
        <path id="Path_3691-2" data-name="Path 3691" d="M10.135,7.525C8.448,6.044,7.3,5.775,4.806,4.443S.611,3.32.106,2.631.9.164,3.571.013A9.292,9.292,0,0,1,10.9,3.048a7.437,7.437,0,0,1,2.178,4.726C13.374,9.668,11.822,9.006,10.135,7.525Z" transform="matrix(-0.899, 0.438, -0.438, -0.899, 611.265, 329.593)" fill="#262626"/>
        <circle id="Ellipse_539" data-name="Ellipse 539" cx="13.178" cy="13.178" r="13.178" transform="translate(555 298.789)" fill="#ff8076"/>
      </g>
      <g id="CAP" transform="translate(10627.866 23309.424)">
        <path id="Path_4261" data-name="Path 4261" d="M25.794,0c14.246,0,25.8,11.792,25.8,26.338H0c-.007-.09,0,.378,0,0C0,11.792,11.548,0,25.794,0Z" transform="matrix(0.951, -0.309, 0.309, 0.951, -10066.851, -23028.492)" fill="#dc7eff"/>
        <path id="Rectangle_17669" data-name="Rectangle 17669" d="M11,0h0A11,11,0,0,1,22,11v0a0,0,0,0,1,0,0H0a0,0,0,0,1,0,0v0A11,11,0,0,1,11,0Z" transform="translate(-10036 -23030.174)" fill="#003446"/>
        <path id="Path_4716" data-name="Path 4716" d="M128.324-823.724,76.98-832.639l26.2-24.062a20.922,20.922,0,0,1,14.193-5.507,21.024,21.024,0,0,1,8.167,1.636,20.669,20.669,0,0,1,7.063,4.884,20.322,20.322,0,0,1,4.328,6.929A20.147,20.147,0,0,1,138.19-841a20.172,20.172,0,0,1-1.795,7.663,20.383,20.383,0,0,1-4.813,6.626l-3.257,2.991Z" transform="translate(-9866.814 -22190.15) rotate(-18)" fill="#8738bd"/>
        <path id="Path_4717" data-name="Path 4717" d="M8471.28-3152.975h-11a20.056,20.056,0,0,1-9.2-2.234,20.166,20.166,0,0,1-6.95-5.963l6.315-.9c-.023-.235-.036-.474-.036-.715a7,7,0,0,1,7-7,6.987,6.987,0,0,1,5.555,2.741,8.993,8.993,0,0,1,7.445-3.941,9,9,0,0,1,9,9,9,9,0,0,1-8.133,8.958v.056Z" transform="translate(-18470.281 -19848.199)" fill="#008b56"/>
      </g>
      <rect id="Rectangle_17600-2" data-name="Rectangle 17600" width="15.744" height="7.458" rx="3.729" transform="translate(579.766 301.242) rotate(-9)" fill="#262626"/>
      <g id="Group_1836" data-name="Group 1836" transform="translate(505.551 284.452) rotate(-16)">
        <rect id="Rectangle_17621" data-name="Rectangle 17621" width="22" height="81" transform="translate(5.128 16.818)" fill="#ff9021"/>
        <g id="Group_1835" data-name="Group 1835">
          <path id="Path_4257" data-name="Path 4257" d="M11294.061,22263.15v-48.75c0-.082-.006-.166-.006-.25v-5.531a16.146,16.146,0,0,1-4.967-16.193l-4.666-12.816a5.5,5.5,0,0,1,10.343-3.76l2.294,6.3h.931c.121-.055.244-.107.367-.156l-2.2-12.482a5.5,5.5,0,0,1,10.834-1.912l2.447,13.869c.146.045.285.088.431.139v-8.129a5.5,5.5,0,1,1,11,0v16.242l.905-.906a5.5,5.5,0,0,1,7.777,7.783l-13.487,13.479v53.072Z" transform="translate(-11288.93 -22165.332)" fill="#ff8076"/>
          <path id="Path_4267" data-name="Path 4267" d="M10205.648,22293.512l-.336-53.465h23.053l.336,60.188Z" transform="translate(-10200.5 -22195.752)" fill="#fdffff"/>
        </g>
      </g>
      <g id="Group_1834" data-name="Group 1834" transform="translate(513.535 187.904)">
        <path id="Path_4053" data-name="Path 4053" d="M19891.77,20576.42l24.891-1.645,11.242,3.447c-.02-.049-9.2-20.689,39-39.312v35.18l-6.422,2.33Z" transform="translate(-19847.209 -20386.449)" fill="#fff"/>
        <path id="Path_3745" data-name="Path 3745" d="M19950.4,20574.791c-.037,0,0-2.227,0-2.227v-7.691l54.035-18.492v28.41Z" transform="translate(-19868.994 -20385.471)" fill="#90daff"/>
        <g id="Intersection_90" data-name="Intersection 90" transform="translate(-18583.5 -19901.023)" fill="#50a7f0" stroke-linejoin="round">
          <path d="M 18667.62890625 20089.111328125 L 18665.62890625 20089.111328125 L 18614.982421875 20089.111328125 L 18614.87109375 20089.111328125 L 18613.91015625 20089.111328125 L 18613.30859375 20088.361328125 C 18613.22265625 20088.251953125 18613.15625 20088.154296875 18613.109375 20088.08203125 L 18612.78515625 20087.583984375 L 18612.78515625 20086.990234375 C 18612.78515625 20081.349609375 18612.611328125 20061.29296875 18612.564453125 20060.298828125 L 18612.427734375 20057.349609375 L 18615.21875 20058.318359375 L 18666.28515625 20076.046875 L 18667.62890625 20076.513671875 L 18667.62890625 20077.935546875 L 18667.62890625 20087.111328125 L 18667.62890625 20089.111328125 Z" stroke="none"/>
          <path d="M 18665.62890625 20087.111328125 L 18665.62890625 20077.935546875 L 18614.5625 20060.20703125 C 18614.61328125 20061.30078125 18614.78515625 20081.65625 18614.78515625 20086.990234375 C 18614.814453125 20087.03515625 18614.83984375 20087.072265625 18614.87109375 20087.111328125 C 18614.91015625 20087.111328125 18614.951171875 20087.111328125 18614.982421875 20087.111328125 L 18665.62890625 20087.111328125 M 18665.62890625 20091.111328125 L 18614.87109375 20091.111328125 C 18613.65625 20091.111328125 18612.505859375 20090.55859375 18611.748046875 20089.609375 C 18611.60546875 20089.431640625 18611.5 20089.27734375 18611.435546875 20089.17578125 C 18611.01171875 20088.525390625 18610.78515625 20087.765625 18610.78515625 20086.990234375 C 18610.78515625 20081.5625 18610.61328125 20061.556640625 18610.56640625 20060.388671875 C 18610.505859375 20059.064453125 18611.107421875 20057.794921875 18612.16796875 20057.001953125 C 18613.232421875 20056.20703125 18614.623046875 20055.994140625 18615.875 20056.427734375 L 18666.94140625 20074.15625 C 18668.55078125 20074.71484375 18669.62890625 20076.232421875 18669.62890625 20077.935546875 L 18669.62890625 20087.111328125 C 18669.62890625 20089.3203125 18667.837890625 20091.111328125 18665.62890625 20091.111328125 Z" stroke="none" fill="#50a7f0"/>
        </g>
        <g id="Intersection_91" data-name="Intersection 91" transform="translate(-18583.5 -19901.023)" fill="#90daff" stroke-linejoin="round">
          <path d="M 18720.408203125 20089.111328125 L 18719.322265625 20089.111328125 L 18719.2109375 20089.111328125 L 18668.564453125 20089.111328125 L 18666.564453125 20089.111328125 L 18666.564453125 20087.111328125 L 18666.564453125 20077.935546875 L 18666.564453125 20076.513671875 L 18667.908203125 20076.046875 L 18718.97265625 20058.318359375 L 18721.763671875 20057.349609375 L 18721.626953125 20060.298828125 C 18721.58203125 20061.283203125 18721.408203125 20081.33984375 18721.408203125 20086.990234375 L 18721.408203125 20087.6171875 L 18721.05078125 20088.1328125 C 18721.02734375 20088.1640625 18721.005859375 20088.193359375 18720.986328125 20088.22265625 L 18720.984375 20088.224609375 L 18720.408203125 20089.111328125 Z" stroke="none"/>
          <path d="M 18719.322265625 20087.111328125 C 18719.34765625 20087.072265625 18719.376953125 20087.03515625 18719.408203125 20086.990234375 C 18719.408203125 20081.65625 18719.578125 20061.30078125 18719.62890625 20060.20703125 L 18668.564453125 20077.935546875 L 18668.564453125 20087.111328125 L 18719.2109375 20087.111328125 C 18719.2421875 20087.111328125 18719.28125 20087.111328125 18719.322265625 20087.111328125 M 18719.322265625 20091.111328125 L 18668.564453125 20091.111328125 C 18666.35546875 20091.111328125 18664.564453125 20089.3203125 18664.564453125 20087.111328125 L 18664.564453125 20077.935546875 C 18664.564453125 20076.232421875 18665.642578125 20074.71484375 18667.251953125 20074.15625 L 18718.31640625 20056.427734375 C 18719.568359375 20055.994140625 18720.958984375 20056.20703125 18722.0234375 20057.001953125 C 18723.083984375 20057.794921875 18723.68359375 20059.0625 18723.625 20060.38671875 C 18723.580078125 20061.529296875 18723.408203125 20081.548828125 18723.408203125 20086.990234375 C 18723.408203125 20087.806640625 18723.158203125 20088.603515625 18722.69140625 20089.2734375 C 18722.666015625 20089.310546875 18722.640625 20089.345703125 18722.6171875 20089.380859375 C 18721.87109375 20090.462890625 18720.640625 20091.111328125 18719.322265625 20091.111328125 Z" stroke="none" fill="#90daff"/>
        </g>
        <path id="Path_4266" data-name="Path 4266" d="M11.479,0A11.479,11.479,0,0,1,22.957,11.479H0A11.479,11.479,0,0,1,11.479,0Z" transform="translate(123.965 177.842)" fill="#ff8076"/>
      </g>
    </g>
    <g id="Group_1816" data-name="Group 1816" transform="translate(722 394.508)">
      <path id="Rectangle_17540" data-name="Rectangle 17540" d="M31.925,0H58.216A31.925,31.925,0,0,1,90.141,31.925v0A31.925,31.925,0,0,1,58.216,63.85H0a0,0,0,0,1,0,0V31.925A31.925,31.925,0,0,1,31.925,0Z" transform="translate(0 -0.385)" fill="#8ce33a"/>
      <path id="Path_4026" data-name="Path 4026" d="M20031.965,18772.855a4.5,4.5,0,1,0-4.482,4.855A4.681,4.681,0,0,0,20031.965,18772.855Zm14.938,0a4.855,4.855,0,1,0-4.855,4.855A4.858,4.858,0,0,0,20046.9,18772.855Zm14.189,0a4.854,4.854,0,1,0-4.854,4.855A4.854,4.854,0,0,0,20061.092,18772.855Z" transform="translate(-19996.857 -18741.135)" fill="#008b56"/>
    </g>
    <rect id="Rectangle_17466" data-name="Rectangle 17466" width="198" height="140" rx="28" transform="translate(321.5 258.5)" fill="#ffd719"/>
    <g id="Group_1829" data-name="Group 1829" transform="translate(-179.92 21.814)">
      <path id="Path_4254" data-name="Path 4254" d="M12030.921,22618.385a16,16,0,0,1-16-16v-12a15.95,15.95,0,0,1,1.063-5.744,24.2,24.2,0,0,1-.779-6.437v-.062a32.955,32.955,0,0,1,65.909,0v.063a23.2,23.2,0,0,1-1,7.162,15.971,15.971,0,0,1,.8,5.02v12a16,16,0,0,1-16,16Z" transform="translate(-11450 -22270.199)" fill="#008b56"/>
      <path id="Path_4587" data-name="Path 4587" d="M19335.039,20344.082v-30.1a27.557,27.557,0,0,1-13.152-16.781,10.563,10.563,0,1,1-1.281-16.119,27.831,27.831,0,0,1,55.264-3.66,10.556,10.556,0,1,1-1.031,20.2,27.589,27.589,0,0,1-16.012,17.795v28.668Z" transform="translate(-18749.92 -19972.016)" fill="#ff8076"/>
      <path id="Path_4255" data-name="Path 4255" d="M14241.2,22586.865a27.878,27.878,0,0,1,32.494,17.93,30.048,30.048,0,0,1-32.494-17.93Z" transform="translate(-13648.92 -22304)" fill="#008b56"/>
      <ellipse id="Ellipse_505" data-name="Ellipse 505" cx="20.325" cy="20.444" rx="20.325" ry="20.444" transform="translate(558.308 234.098)" fill="#008b56"/>
      <rect id="Rectangle_17600-3" data-name="Rectangle 17600" width="15.43" height="7.309" rx="3.654" transform="matrix(0.966, -0.259, 0.259, 0.966, 578.633, 294.725)" fill="#262626"/>
      <path id="Path_4047-2" data-name="Path 4047" d="M584.342,354.049l-22.678,22.7H629.2l-21.29-22.7Z" transform="translate(0.914)" fill="#90daff"/>
      <path id="Path_4259-2" data-name="Path 4259" d="M14228.411,22573.75l7.827-22.7h4.044l7.827,22.7Z" transform="translate(-13640.342 -22197)" fill="#8738bd"/>
      <path id="Path_3691-3" data-name="Path 3691" d="M9.316,7.931A5.572,5.572,0,0,0,5.462,3.058C2.789,1.916.552,2.833.1,2.216S.727.146,3.118.012A8.322,8.322,0,0,1,9.681,2.73a6.661,6.661,0,0,1,1.95,4.232C11.9,8.658,9.734,10.279,9.316,7.931Z" transform="translate(607.073 331.508) rotate(155)" fill="#262626"/>
      <rect id="Rectangle_17608" data-name="Rectangle 17608" width="12" height="4.827" transform="matrix(0.946, -0.326, 0.326, 0.946, 579.925, 275.022)" fill="#8ce33a"/>
      <g id="Group_1824-2" data-name="Group 1824" transform="translate(236 -36.852)">
        <g id="Group_1822-2" data-name="Group 1822" transform="translate(342 339.285)">
          <circle id="Ellipse_498-3" data-name="Ellipse 498" cx="9" cy="9" r="9" transform="translate(3 2)" fill="#fff"/>
          <ellipse id="Ellipse_500-3" data-name="Ellipse 500" cx="4.5" cy="5" rx="4.5" ry="5" transform="translate(12 7)" fill="#262626"/>
        </g>
        <g id="Group_1823-2" data-name="Group 1823" transform="translate(363.75 339.285)">
          <circle id="Ellipse_498-4" data-name="Ellipse 498" cx="9" cy="9" r="9" transform="translate(2.25 2)" fill="#fff"/>
          <circle id="Ellipse_500-4" data-name="Ellipse 500" cx="5" cy="5" r="5" transform="translate(10.25 7)" fill="#262626"/>
        </g>
      </g>
      <rect id="Rectangle_17663" data-name="Rectangle 17663" width="52" height="8" transform="translate(572.92 317.186)" fill="#ff8076"/>
    </g>
    <g id="Group_1817" data-name="Group 1817" transform="translate(264.5 274.592)">
      <path id="Rectangle_17540-2" data-name="Rectangle 17540" d="M31.192,0H56.88A31.192,31.192,0,0,1,88.072,31.192V62.385a0,0,0,0,1,0,0H31.192A31.192,31.192,0,0,1,0,31.192v0A31.192,31.192,0,0,1,31.192,0Z" fill="#dc7eff"/>
      <path id="Path_4026-2" data-name="Path 4026" d="M20051.459,18772.744a4.393,4.393,0,1,1,4.379,4.742A4.573,4.573,0,0,1,20051.459,18772.744Zm-14.6,0a4.744,4.744,0,1,1,4.744,4.742A4.746,4.746,0,0,1,20036.863,18772.744Zm-13.863,0a4.743,4.743,0,1,1,4.742,4.742A4.743,4.743,0,0,1,20023,18772.744Z" transform="translate(-19997.688 -18741.373)" fill="#8738bd"/>
    </g>
    <rect id="Rectangle_17506" data-name="Rectangle 17506" width="233" height="157" rx="32" transform="translate(540.5 197.5)" fill="#8ce33a"/>
    <g id="Group_1830" data-name="Group 1830" transform="translate(618.924 205.697)">
      <path id="Path_4252" data-name="Path 4252" d="M87.439,120.782A49.99,49.99,0,0,1,79.1,109.961q-.662.343-1.342.652v10.168H22.275a27.956,27.956,0,0,1-22.3-11.061V102.41A38.9,38.9,0,0,1,35.24,63.688V57.3A30.082,30.082,0,0,1,58.119,28.094a37.337,37.337,0,0,1,74.607,2.24V36.6a49.79,49.79,0,0,1,24.543,84.181Z" transform="translate(-50.979 28.184)" fill="#008b56"/>
      <ellipse id="Ellipse_507-2" data-name="Ellipse 507" cx="11.033" cy="11.033" rx="11.033" ry="11.033" transform="translate(1.89 68.156)" fill="#d06444"/>
      <path id="Path_4047-3" data-name="Path 4047" d="M616.447,347.049l27.7,25.107H561.664l26-25.107Z" transform="translate(-558.312 -224.122)" fill="#fff"/>
      <g id="Group_1832" data-name="Group 1832" transform="translate(0 -7.659)">
        <rect id="Rectangle_17612" data-name="Rectangle 17612" width="57.848" height="70" rx="28.924" transform="translate(15.152 38.303)" fill="#ffd719"/>
        <path id="Path_4258" data-name="Path 4258" d="M17.439,65.842a11.032,11.032,0,1,1,.2-17.82,29.1,29.1,0,0,1,15.1-22.082V16.678a14.5,14.5,0,0,1,29,0V26.786A29.065,29.065,0,0,1,75.587,51.565v13.3a29.082,29.082,0,0,1-58.148.979Z" transform="translate(90.739 143.139) rotate(180)" fill="#d06444"/>
        <rect id="Rectangle_17600-4" data-name="Rectangle 17600" width="16.125" height="7.638" rx="3.819" transform="matrix(-0.966, -0.259, 0.259, -0.966, 63.02, 69.691)" fill="#262626"/>
        <rect id="Rectangle_17601" data-name="Rectangle 17601" width="15.32" height="8.487" rx="4.243" transform="matrix(-0.921, 0.391, -0.391, -0.921, 38.557, 63.705)" fill="#262626"/>
        <g id="Group_1824-3" data-name="Group 1824" transform="translate(18.635 70.369)">
          <g id="Group_1822-3" data-name="Group 1822" transform="translate(21.944)">
            <path id="Path_4664" data-name="Path 4664" d="M18550.01,20094.2a11.5,11.5,0,1,1-20.662-10.064,3.136,3.136,0,0,1,.785-6.17h7.32a3.242,3.242,0,0,1,.707.082,12.3,12.3,0,0,1,1.377-.082,11.491,11.491,0,0,1,10.473,6.758,12.058,12.058,0,0,1,10.957-6.758,12.5,12.5,0,0,1,1.74.121,3.094,3.094,0,0,1,.863-.121h7.32a3.133,3.133,0,0,1,.73,6.18,11.126,11.126,0,0,1,1.357,5.318,11.768,11.768,0,0,1-12.012,11.5A12.063,12.063,0,0,1,18550.01,20094.2Z" transform="translate(-18548.945 -20077.961)" fill="#8ce33a" stroke="#8ce33a" stroke-width="1"/>
            <ellipse id="Ellipse_498-5" data-name="Ellipse 498" cx="9.405" cy="9.405" rx="9.405" ry="9.405" transform="translate(3.134 2.09)" fill="#fff"/>
            <ellipse id="Ellipse_500-5" data-name="Ellipse 500" cx="4.703" cy="5.225" rx="4.703" ry="5.225" transform="translate(3.134 8.226)" fill="#262626"/>
          </g>
          <g id="Group_1823-3" data-name="Group 1823" transform="translate(0)">
            <ellipse id="Ellipse_498-6" data-name="Ellipse 498" cx="9.405" cy="9.405" rx="9.405" ry="9.405" transform="translate(3.132 2.09)" fill="#fff"/>
            <ellipse id="Ellipse_515" data-name="Ellipse 515" cx="4.703" cy="5.225" rx="4.703" ry="5.225" transform="translate(3.132 8.225)" fill="#262626"/>
          </g>
        </g>
        <g id="Group_1831" data-name="Group 1831" transform="translate(7.151 89.932)">
          <circle id="Ellipse_514" data-name="Ellipse 514" cx="2" cy="2" r="2" transform="translate(1.425 -0.032)" fill="#fff"/>
          <rect id="Rectangle_17618" data-name="Rectangle 17618" width="5" height="10" rx="2.5" transform="translate(0.925 9.029)" fill="#8ce33a"/>
        </g>
        <g id="Group_1833" data-name="Group 1833" transform="translate(76.151 89.932)">
          <circle id="Ellipse_514-2" data-name="Ellipse 514" cx="2" cy="2" r="2" transform="translate(1.425 -0.032)" fill="#fff"/>
          <rect id="Rectangle_17619" data-name="Rectangle 17619" width="5" height="10" rx="2.5" transform="translate(0.925 9.029)" fill="#8ce33a"/>
        </g>
        <path id="Path_3691-4" data-name="Path 3691" d="M9.736,1.227A5.823,5.823,0,0,1,5.708,6.319C2.915,7.513.577,6.555.1,7.2S.76,9.362,3.258,9.5a8.7,8.7,0,0,0,6.859-2.84A6.961,6.961,0,0,0,12.155,2.24C12.433.467,10.173-1.226,9.736,1.227Z" transform="translate(39.298 92.129) rotate(25)" fill="#262626"/>
      </g>
      <path id="Intersection_63" data-name="Intersection 63" d="M13454,22501.3c-.544,0-1.085-.016-1.62-.047a50,50,0,0,1,44.123-26.455h56a49.993,49.993,0,0,1,44.144,26.5Z" transform="translate(-13482.5 -22352.502)" fill="#90daff"/>
      <path id="Path_4249" data-name="Path 4249" d="M13519.523,22366.949a6.931,6.931,0,0,1,.038-.717H13532q.62,0,1.234.016a6.871,6.871,0,1,1-13.713.7Zm-13.744,0a6.931,6.931,0,0,1,.038-.717h13.665a6.2,6.2,0,0,1,.041.717,6.872,6.872,0,0,1-13.744,0Zm-13.749.215a6.875,6.875,0,0,1-13.744-.215,6.931,6.931,0,0,1,.038-.717H13492c.017.168.029.336.033.508.008-.172.019-.34.036-.508h13.676c.023.236.037.473.037.717a6.878,6.878,0,0,1-13.749.215Z" transform="translate(-13462 -22243.932)" fill="#008658"/>
      <path id="Path_4250" data-name="Path 4250" d="M13454,22501.3c-.544,0-1.085-.016-1.62-.047a50,50,0,0,1,44.123-26.455h56a49.993,49.993,0,0,1,44.144,26.5Z" transform="translate(-13482.5 -22352.502)" fill="#dc7eff"/>
      <path id="Path_4256" data-name="Path 4256" d="M11307.262,22435.943l-4.67-4.523a2.248,2.248,0,0,0-1.888-.607l-6.437.906a6.641,6.641,0,0,1-7.5-5.453l-1.127-6.4a2.249,2.249,0,0,0-1.16-1.605l-.181-.1h53.828c.451,0,.9.006,1.352.018l-.146.078a2.24,2.24,0,0,0-1.166,1.605l-1.127,6.4a6.642,6.642,0,0,1-6.545,5.521,6.807,6.807,0,0,1-.958-.068l-6.437-.906a2.248,2.248,0,0,0-1.888.607l-4.669,4.523a6.651,6.651,0,0,1-9.277,0Z" transform="translate(-11268.122 -22295.865)" fill="#ffd719"/>
    </g>
  </g>
</svg>
