<svg xmlns="http://www.w3.org/2000/svg" width="766.772" height="426.992" viewBox="0 0 766.772 426.992">
  <g id="Group_2157" data-name="Group 2157" transform="translate(-138 -77.295)">
    <g id="Group_1976" data-name="Group 1976">
      <rect id="Rectangle_17683" data-name="Rectangle 17683" width="749" height="357" rx="169" transform="translate(138 115)" fill="#d0fa84" style="mix-blend-mode: multiply;isolation: isolate"/>
      <g id="_021-communication" data-name="021-communication" transform="translate(372.549 208.699)">
        <path id="Path_4462" data-name="Path 4462" d="M86.529,225.425h37.88a50.529,50.529,0,0,1,50.529,50.529v61.133a10.671,10.671,0,0,1-10.671,10.671h0a10.67,10.67,0,0,1-9.378-5.58l-8.52-15.7H86.529A50.529,50.529,0,0,1,36,275.954h0A50.529,50.529,0,0,1,86.529,225.425Z" transform="translate(-16.39 -102.629)" fill="#6cd0f5"/>
        <path id="Path_4463" data-name="Path 4463" d="M139.026,280.724v10.895a2.724,2.724,0,0,1-2.724,2.724H92.724A2.724,2.724,0,0,1,90,291.618V280.724A2.724,2.724,0,0,1,92.724,278H136.3A2.724,2.724,0,0,1,139.026,280.724ZM119.96,305.237H92.724A2.724,2.724,0,0,0,90,307.96v10.895a2.724,2.724,0,0,0,2.724,2.724H119.96a2.724,2.724,0,0,0,2.724-2.724V307.96A2.724,2.724,0,0,0,119.96,305.237Z" transform="translate(-40.974 -126.565)" fill="#4191be"/>
        <path id="Path_4464" data-name="Path 4464" d="M359.881,170.529h0a50.529,50.529,0,0,1-50.529,50.529H249.514l-8.52,15.7a10.671,10.671,0,0,1-9.378,5.58h0a10.671,10.671,0,0,1-10.671-10.671V170.53A50.529,50.529,0,0,1,271.473,120h37.88A50.528,50.528,0,0,1,359.881,170.529Z" transform="translate(-100.589 -54.633)" fill="#ffe13c"/>
        <path id="Path_4465" data-name="Path 4465" d="M355.368,172.724v10.895a2.724,2.724,0,0,1-2.724,2.724h-59.92A2.724,2.724,0,0,1,290,183.618V172.724A2.724,2.724,0,0,1,292.724,170h59.92A2.724,2.724,0,0,1,355.368,172.724Zm-2.724,24.513h-46.3a2.724,2.724,0,0,0-2.724,2.724v10.895a2.724,2.724,0,0,0,2.724,2.724h46.3a2.724,2.724,0,0,0,2.724-2.724V199.96A2.724,2.724,0,0,0,352.644,197.237Z" transform="translate(-132.028 -77.396)" fill="#ebb410"/>
        <path id="Path_4564" data-name="Path 4564" d="M16714.449,18532.3q-7.9,0-15.615-.713a24.222,24.222,0,0,1-.381-4.287v-234a24,24,0,0,1,24-24h394a24,24,0,0,1,24,24v234a24.114,24.114,0,0,1-.4,4.377q-7.222.618-14.6.623Z" transform="translate(-16780 -18269)" fill="#00b754"/>
        <path id="Path_4460" data-name="Path 4460" d="M515.691,65.447v38.131c0-3.008-6.22-5.447-13.893-5.447h-377.9c-7.673,0-13.894,2.439-13.894,5.447V65.447C110,62.439,116.22,60,123.894,60H501.8C509.471,60,515.691,62.439,515.691,65.447Z" transform="translate(-173.15 -27.316)" fill="#d6f5fe"/>
        <path id="Path_4568" data-name="Path 4568" d="M515.691,103.811v208.2c-57.539,16.74-127.444,26.561-202.846,26.561S167.539,328.753,110,312.013v-208.2C110,100.6,116.22,98,123.894,98H501.8C509.471,98,515.691,100.6,515.691,103.811Z" transform="translate(-173.15 -42.986)" fill="#fff"/>
        <path id="Path_4459" data-name="Path 4459" d="M243.189,25.447a5.447,5.447,0,0,1-5.447,5.447H205.058a5.447,5.447,0,1,1,0-10.895h32.684A5.447,5.447,0,0,1,243.189,25.447ZM185.447,20a5.447,5.447,0,1,0,5.447,5.447A5.447,5.447,0,0,0,185.447,20Zm70.815,0a5.447,5.447,0,1,0,5.447,5.447A5.447,5.447,0,0,0,256.262,20Z" transform="translate(-81.949 -9.105)" fill="#008b56"/>
      </g>
      <rect id="Rectangle_17747" data-name="Rectangle 17747" width="161" height="205" rx="16" transform="translate(204.922 207.244) rotate(-11)" fill="#d0fa84"/>
      <path id="Path_4569" data-name="Path 4569" d="M16545.453,18365.648V18199.3a23.98,23.98,0,0,1,24-24h54.277l10.633,54.713h-56.617c-7.66,0-13.893,2.605-13.893,5.809v126.252l-18.4,3.574Z" transform="translate(-16254.453 -17966.301)" fill="#008b56"/>
      <rect id="Rectangle_17748" data-name="Rectangle 17748" width="177" height="119" rx="16" transform="translate(335 280)" fill="#d7ff86"/>
      <rect id="Rectangle_17771" data-name="Rectangle 17771" width="69" height="47" rx="12" transform="translate(529 352)" fill="#d4f5fe"/>
      <rect id="Rectangle_17772" data-name="Rectangle 17772" width="69" height="47" rx="12" transform="translate(619 352)" fill="#d4f5fe"/>
      <rect id="Rectangle_17773" data-name="Rectangle 17773" width="69" height="47" rx="12" transform="translate(619 280)" fill="#d4f5fe"/>
      <g id="Path_4571" data-name="Path 4571" transform="translate(339.029 254.371)" fill="#00b754" stroke-linejoin="round">
        <path d="M 83.56201171875 99.3292236328125 C 82.64696502685547 99.3292236328125 81.79814147949219 98.92576599121094 81.23319244384766 98.22230529785156 C 80.75092315673828 97.62178039550781 80.49600219726562 96.84006500244141 80.49600219726562 95.961669921875 L 80.49600219726562 74.29386901855469 C 80.49600219726562 73.41550445556641 80.75093078613281 72.63380432128906 81.23323059082031 72.03325653076172 C 81.79820251464844 71.32978057861328 82.64701080322266 70.92631530761719 83.56201171875 70.92631530761719 C 84.18437194824219 70.92631530761719 84.80758666992188 71.10395050048828 85.41434478759766 71.45427703857422 L 104.1793823242188 82.28804016113281 C 105.3178024291992 82.94532012939453 105.970703125 83.98031616210938 105.970703125 85.12767028808594 C 105.970703125 86.27500915527344 105.3178024291992 87.31000518798828 104.1794281005859 87.96726989746094 L 85.41431427001953 98.80130004882812 C 84.80758666992188 99.15160369873047 84.18437194824219 99.3292236328125 83.56201171875 99.3292236328125 Z" stroke="none"/>
        <path d="M 83.56201171875 72.92631530761719 C 82.93161773681641 72.92631530761719 82.49600219726562 73.42854309082031 82.49600219726562 74.29386901855469 L 82.49600219726562 95.961669921875 C 82.49599456787109 97.17997741699219 83.35922241210938 97.67842102050781 84.41431427001953 97.06924438476562 L 103.1794052124023 86.2352294921875 C 104.2344741821289 85.62606811523438 104.2344741821289 84.62925720214844 103.1794052124023 84.02009582519531 L 84.41431427001953 73.18630981445312 C 84.10862731933594 73.00981140136719 83.81916809082031 72.92631530761719 83.56201171875 72.92631530761719 M 83.56201171875 68.92631530761719 C 84.52622222900391 68.92631530761719 85.51255798339844 69.20154571533203 86.41439056396484 69.72225952148438 L 105.1793746948242 80.55597686767578 C 106.92724609375 81.56513977050781 107.970703125 83.27415466308594 107.970703125 85.12765502929688 C 107.970703125 86.98117065429688 106.92724609375 88.690185546875 105.179443359375 89.69931030273438 L 86.41431427001953 100.5333480834961 C 85.51252746582031 101.0540084838867 84.52620697021484 101.3292236328125 83.56202697753906 101.3292236328125 C 82.03756713867188 101.3292236328125 80.62037658691406 100.6532592773438 79.673828125 99.47464752197266 C 78.90328216552734 98.51519012451172 78.49600219726562 97.3004150390625 78.49600219726562 95.961669921875 L 78.49600219726562 74.29386901855469 C 78.49600219726562 72.95515441894531 78.90330505371094 71.74039459228516 79.67386627197266 70.78091430664062 C 80.62042236328125 69.602294921875 82.03760528564453 68.92631530761719 83.56201171875 68.92631530761719 Z" stroke="none" fill="#00b754"/>
      </g>
      <path id="Intersection_82" data-name="Intersection 82" d="M17048.078,18590.479v-87a16,16,0,0,1,16-16h32.08l15.949,82.047a16.006,16.006,0,0,1-12.654,18.762l-49.543,9.631A15.925,15.925,0,0,1,17048.078,18590.479Z" transform="translate(-16713.078 -18207.477)" fill="#8ce33a"/>
      <g id="Group_1941" data-name="Group 1941" transform="translate(342.316 422.033) rotate(-1)">
        <g id="Group_1873" data-name="Group 1873" transform="translate(0 0)">
          <g id="Group_1866" data-name="Group 1866">
            <rect id="Rectangle_17653" data-name="Rectangle 17653" width="101.909" height="8.299" rx="4.15" transform="translate(30.532)" fill="#dae0ec"/>
            <rect id="Rectangle_17655" data-name="Rectangle 17655" width="22.692" height="8.299" rx="4.15" fill="#dae0ec"/>
          </g>
          <rect id="Rectangle_17653-2" data-name="Rectangle 17653" width="66.608" height="8.299" rx="4.15" transform="translate(0 21.536)" fill="#dae0ec"/>
        </g>
      </g>
      <g id="Group_1942" data-name="Group 1942" transform="translate(542.777 422.033) rotate(-1)">
        <g id="Group_1873-2" data-name="Group 1873" transform="translate(0 0)">
          <rect id="Rectangle_17653-3" data-name="Rectangle 17653" width="66.608" height="8.299" rx="4.15" transform="translate(0 21.536)" fill="#d8eaef"/>
        </g>
      </g>
      <g id="Group_1934" data-name="Group 1934" transform="translate(350.055 151)">
        <g id="Group_1937" data-name="Group 1937" transform="translate(170.092 103.796)">
          <path id="Path_4586" data-name="Path 4586" d="M17570.838,19961.572a7.279,7.279,0,0,1,0-14.557h14.389a7.279,7.279,0,0,1,0,14.557Zm-81.549,0a7.279,7.279,0,0,1,0-14.557h14.387a7.279,7.279,0,0,1,0,14.557Zm66.625-26.145a7.345,7.345,0,0,1,0-10.3l10.176-10.289a7.136,7.136,0,0,1,10.174,0,7.332,7.332,0,0,1,0,10.289l-10.174,10.3a7.149,7.149,0,0,1-10.176,0Zm-47.49-.006-10.174-10.291a7.332,7.332,0,0,1,0-10.289,7.136,7.136,0,0,1,10.174,0l10.176,10.289a7.334,7.334,0,0,1,0,10.291,7.135,7.135,0,0,1-10.176,0Zm21.637-15.088v-14.557a7.2,7.2,0,1,1,14.393,0v14.557a7.2,7.2,0,1,1-14.393,0Z" transform="translate(-17482.094 -19892.5)" fill="#fff" stroke="#fff" stroke-width="8"/>
          <path id="Path_4554" data-name="Path 4554" d="M237.194,187.281a7.2,7.2,0,0,1-7.2-7.2V165.7a7.2,7.2,0,0,1,14.39,0v14.39A7.2,7.2,0,0,1,237.194,187.281Z" transform="translate(-182.032 -158.5)" fill="#ffd719"/>
          <path id="Path_4555" data-name="Path 4555" d="M261.943,197.71a7.2,7.2,0,0,1-5.089-12.283l10.176-10.176a7.2,7.2,0,0,1,10.176,10.176L267.032,195.6A7.174,7.174,0,0,1,261.943,197.71Z" transform="translate(-183.036 -159.096)" fill="#ffd719"/>
          <path id="Path_4556" data-name="Path 4556" d="M286.585,222.89H272.2a7.2,7.2,0,1,1,0-14.39h14.389a7.2,7.2,0,1,1,0,14.39Z" transform="translate(-183.454 -160.533)" fill="#ffd719"/>
          <path id="Path_4557" data-name="Path 4557" d="M201.583,222.89H187.194a7.2,7.2,0,1,1,0-14.39h14.389a7.2,7.2,0,1,1,0,14.39Z" transform="translate(-179.999 -160.533)" fill="#ffd719"/>
          <path id="Path_4558" data-name="Path 4558" d="M212.013,197.71a7.174,7.174,0,0,1-5.088-2.108l-10.174-10.174a7.2,7.2,0,0,1,10.176-10.176L217.1,185.426a7.2,7.2,0,0,1-5.088,12.284Z" transform="translate(-180.595 -159.096)" fill="#ffd719"/>
        </g>
        <path id="Path_5039" data-name="Path 5039" d="M-4828.047,2034.67a26.313,26.313,0,0,1,1.7-35.34,26.3,26.3,0,0,1,36.963-.242V1894.9c0-.467.027-.93.067-1.385v-18.5A20.016,20.016,0,0,1-4769.3,1855a20.023,20.023,0,0,1,20.027,20.02v62.632a19.952,19.952,0,0,1,14.3-6.005,20.02,20.02,0,0,1,18.615,12.635,20,20,0,0,1,16.847-9.205,19.952,19.952,0,0,1,13.752,5.47,22.927,22.927,0,0,1,15.044-5.6,23.27,23.27,0,0,1,2.547.139q.344-.011.689-.012a20.015,20.015,0,0,1,20.02,20.02l-.277,1.636q.032.61.033,1.228v63.557a13.15,13.15,0,0,1-13.15,13.15h-167.187Z" transform="translate(4996 -1713.668)" fill="#d06444"/>
      </g>
      <rect id="Rectangle_17752" data-name="Rectangle 17752" width="97.549" height="75.219" rx="16" transform="translate(434.43 77.295) rotate(7)" fill="#fff"/>
      <g id="Group_1936" data-name="Group 1936" transform="translate(453.082 68.059) rotate(7)">
        <rect id="Rectangle_17741" data-name="Rectangle 17741" width="78.818" height="60.775" rx="16" transform="translate(0.373 24.996)" fill="#ff8076"/>
        <g id="Path_4570" data-name="Path 4570" transform="translate(-51.01 -29.13)" fill="#fff" stroke-linejoin="round">
          <path d="M 83.50830841064453 97.59964752197266 C 82.05258941650391 97.59964752197266 80.99600219726562 96.42263793945312 80.99600219726562 94.80098724365234 L 80.99600219726562 74.22496795654297 C 80.99600219726562 72.60331726074219 82.05257415771484 71.42631530761719 83.50829315185547 71.42631530761719 C 84.02831268310547 71.42631530761719 84.55295562744141 71.57700347900391 85.06766510009766 71.87417602539062 L 102.8872146606445 82.16206359863281 C 103.8414154052734 82.71299743652344 104.3886566162109 83.56982421875 104.3886566162109 84.51287841796875 C 104.3886566162109 85.45592498779297 103.8414154052734 86.31275177001953 102.8872451782227 86.86366271972656 L 85.06764221191406 97.15180206298828 C 84.55295562744141 97.44896697998047 84.02831268310547 97.59964752197266 83.50830841064453 97.59964752197266 Z" stroke="none"/>
          <path d="M 83.50830078125 72.92631530761719 C 82.90966796875 72.92631530761719 82.49600219726562 73.40323638916016 82.49600219726562 74.22495269775391 L 82.49600219726562 94.80098724365234 C 82.49599456787109 95.95791625976562 83.31574249267578 96.43122863769531 84.31764221191406 95.85275268554688 L 102.1372222900391 85.56463623046875 C 103.1391372680664 84.98616790771484 103.1391372680664 84.03958892822266 102.1372222900391 83.46111297607422 L 84.31764221191406 73.17320251464844 C 84.02735900878906 73.00559997558594 83.75249481201172 72.92631530761719 83.50830078125 72.92631530761719 M 83.50829315185547 69.92631530761719 C 84.29501342773438 69.92631530761719 85.07200622558594 70.14461517333984 85.81769561767578 70.57515716552734 L 103.6371994018555 80.86302185058594 C 105.0470123291016 81.677001953125 105.8886566162109 83.04142761230469 105.8886566162109 84.51287841796875 C 105.8886566162109 85.98432159423828 105.0470123291016 87.34874725341797 103.6372528076172 88.16269683837891 L 85.81764221191406 98.45083618164062 C 85.07203674316406 98.88133239746094 84.29503631591797 99.09964752197266 83.50829315185547 99.09964752197266 C 82.30392456054688 99.09964752197266 81.18504333496094 98.56651306152344 80.43854522705078 97.636962890625 C 79.82192230224609 96.86914825439453 79.49600219726562 95.88848876953125 79.49600219726562 94.80098724365234 L 79.49600219726562 74.22495269775391 C 79.49600219726562 73.13748168945312 79.82194519042969 72.15682220458984 80.4385986328125 71.38898468017578 C 81.18511962890625 70.45943450927734 82.30397796630859 69.92631530761719 83.50829315185547 69.92631530761719 Z" stroke="none" fill="#fff"/>
        </g>
      </g>
      <g id="Group_1939" data-name="Group 1939" transform="translate(-471.793 160.051) rotate(-11)">
        <rect id="Rectangle_17746" data-name="Rectangle 17746" width="161" height="205" rx="16" transform="translate(661 146)" fill="#fff"/>
        <g id="Group_1867" data-name="Group 1867" transform="translate(673.209 294.658)">
          <g id="Group_1873-3" data-name="Group 1873" transform="translate(0 0)">
            <g id="Group_1866-2" data-name="Group 1866">
              <rect id="Rectangle_17653-4" data-name="Rectangle 17653" width="101.909" height="8.299" rx="4.15" transform="translate(30.532)" fill="#dae0ec"/>
              <rect id="Rectangle_17655-2" data-name="Rectangle 17655" width="22.692" height="8.299" rx="4.15" fill="#dae0ec"/>
            </g>
            <rect id="Rectangle_17653-5" data-name="Rectangle 17653" width="66.608" height="8.299" rx="4.15" transform="translate(0 21.536)" fill="#dae0ec"/>
          </g>
        </g>
        <g id="Group_1938" data-name="Group 1938" transform="translate(670.59 260.299)">
          <path id="Path_4565" data-name="Path 4565" d="M16998.119,18387.686l-3.2-1.34-3.207,1.34a1.781,1.781,0,0,1-2.463-1.789l.287-3.463-2.266-2.629a1.783,1.783,0,0,1,.941-2.9l3.377-.795,1.8-2.969a1.792,1.792,0,0,1,3.053,0l1.8,2.969,3.379.795a1.784,1.784,0,0,1,.939,2.9l-2.26,2.629.279,3.463a1.782,1.782,0,0,1-.729,1.588,1.76,1.76,0,0,1-1.041.34A1.83,1.83,0,0,1,16998.119,18387.686Zm-22.947,0-3.2-1.34-3.2,1.34a1.781,1.781,0,0,1-2.463-1.789l.287-3.463-2.27-2.629a1.784,1.784,0,0,1,.947-2.9l3.373-.795,1.807-2.969a1.786,1.786,0,0,1,3.047,0l1.8,2.969,3.379.795a1.786,1.786,0,0,1,.938,2.9l-2.262,2.629.283,3.463a1.778,1.778,0,0,1-1.773,1.928A1.82,1.82,0,0,1,16975.172,18387.686Zm-22.945,0-3.2-1.34-3.209,1.34a1.766,1.766,0,0,1-1.732-.2,1.793,1.793,0,0,1-.73-1.588l.289-3.463-2.266-2.629a1.782,1.782,0,0,1,.945-2.9l3.373-.795,1.8-2.969a1.786,1.786,0,0,1,3.047,0l1.8,2.969,3.381.795a1.787,1.787,0,0,1,.941,2.9l-2.262,2.629.277,3.463a1.776,1.776,0,0,1-1.768,1.928A1.806,1.806,0,0,1,16952.227,18387.686Zm-22.947,0-3.2-1.34-3.2,1.34a1.779,1.779,0,0,1-2.463-1.789l.285-3.463-2.268-2.629a1.784,1.784,0,0,1,.947-2.9l3.375-.795,1.8-2.969a1.786,1.786,0,0,1,3.047,0l1.8,2.969,3.379.795a1.8,1.8,0,0,1,1.283,1.189,1.776,1.776,0,0,1-.348,1.709l-2.258,2.629.281,3.463a1.791,1.791,0,0,1-.729,1.588,1.767,1.767,0,0,1-1.045.34A1.811,1.811,0,0,1,16929.279,18387.686Z" transform="translate(-16917.998 -18372.289)" fill="#ffd719"/>
        </g>
        <g id="Group_1935" data-name="Group 1935" transform="translate(670.237 157.999)">
          <path id="Rectangle_17742" data-name="Rectangle 17742" d="M12,0H130.528a12,12,0,0,1,12,12V91.96a0,0,0,0,1,0,0H0a0,0,0,0,1,0,0V12A12,12,0,0,1,12,0Z" transform="translate(0 0)" fill="#90daff"/>
          <path id="Path_4572" data-name="Path 4572" d="M16681.52,18299.959v-.863l37.467-45.414a2.224,2.224,0,0,1,3.568,0l27.182,32.939a2.228,2.228,0,0,0,3.568,0l14.4-17.453a2.232,2.232,0,0,1,3.57,0l25.4,30.791Z" transform="translate(-16668.764 -18208)" fill="#008b56"/>
          <ellipse id="Ellipse_561" data-name="Ellipse 561" cx="11.721" cy="11.975" rx="11.721" ry="11.975" transform="translate(100.014 20.836)" fill="#ffd719"/>
        </g>
      </g>
      <g id="Group_1940" data-name="Group 1940" transform="translate(201.615 -205) rotate(17)">
        <rect id="Rectangle_17743" data-name="Rectangle 17743" width="118.922" height="151.423" rx="16" transform="translate(661 146)" fill="#fff"/>
        <g id="Group_1867-2" data-name="Group 1867" transform="translate(667.823 251.616)">
          <g id="Group_1873-4" data-name="Group 1873" transform="translate(0 0)">
            <g id="Group_1866-3" data-name="Group 1866">
              <rect id="Rectangle_17653-6" data-name="Rectangle 17653" width="75.275" height="6.13" rx="3.065" transform="translate(22.553)" fill="#dae0ec"/>
              <rect id="Rectangle_17655-3" data-name="Rectangle 17655" width="16.761" height="6.13" rx="3.065" fill="#dae0ec"/>
            </g>
            <rect id="Rectangle_17653-7" data-name="Rectangle 17653" width="49.2" height="6.13" rx="3.065" transform="translate(0 15.908)" fill="#dae0ec"/>
          </g>
        </g>
        <g id="Group_1938-2" data-name="Group 1938" transform="translate(668.084 230.426)">
          <path id="Path_4565-2" data-name="Path 4565" d="M16970.346,18382.348l-2.09-.875-2.094.875a1.165,1.165,0,0,1-1.609-1.168l.188-2.264-1.48-1.717a1.158,1.158,0,0,1-.225-1.117,1.171,1.171,0,0,1,.84-.777l2.207-.52,1.178-1.939a1.169,1.169,0,0,1,1.994,0l1.174,1.939,2.209.52a1.168,1.168,0,0,1,.613,1.895l-1.477,1.717.184,2.264a1.161,1.161,0,0,1-.477,1.035,1.145,1.145,0,0,1-.682.225A1.2,1.2,0,0,1,16970.346,18382.348Zm-14.99,0-2.094-.875-2.092.875a1.146,1.146,0,0,1-1.133-.133,1.161,1.161,0,0,1-.477-1.035l.188-2.264-1.482-1.717a1.164,1.164,0,0,1,.619-1.895l2.2-.52,1.182-1.939a1.154,1.154,0,0,1,.992-.559,1.167,1.167,0,0,1,1,.559l1.18,1.939,2.207.52a1.176,1.176,0,0,1,.838.777,1.163,1.163,0,0,1-.225,1.117l-1.479,1.717.186,2.264a1.166,1.166,0,0,1-.477,1.035,1.145,1.145,0,0,1-.682.225A1.165,1.165,0,0,1,16955.355,18382.348Zm-14.994,0-2.09-.875-2.1.875a1.146,1.146,0,0,1-1.133-.133,1.167,1.167,0,0,1-.479-1.035l.189-2.264-1.48-1.717a1.169,1.169,0,0,1,.617-1.895l2.205-.52,1.178-1.939a1.167,1.167,0,0,1,1.992,0l1.176,1.939,2.209.52a1.172,1.172,0,0,1,.838.777,1.158,1.158,0,0,1-.225,1.117l-1.477,1.717.182,2.264a1.155,1.155,0,0,1-.475,1.035,1.139,1.139,0,0,1-.68.225A1.174,1.174,0,0,1,16940.361,18382.348Zm-14.992,0-2.094-.875-2.092.875a1.162,1.162,0,0,1-1.607-1.168l.184-2.264-1.48-1.717a1.164,1.164,0,0,1,.619-1.895l2.205-.52,1.178-1.939a1.166,1.166,0,0,1,1.99,0l1.18,1.939,2.207.52a1.179,1.179,0,0,1,.838.777,1.159,1.159,0,0,1-.227,1.117l-1.475,1.717.184,2.264a1.164,1.164,0,0,1-.475,1.035,1.151,1.151,0,0,1-.684.225A1.165,1.165,0,0,1,16925.369,18382.348Z" transform="translate(-16917.998 -18372.287)" fill="#ffd719"/>
        </g>
        <g id="Group_1935-2" data-name="Group 1935" transform="translate(667.823 154.863)">
          <path id="Rectangle_17742-2" data-name="Rectangle 17742" d="M12,0H93.278a12,12,0,0,1,12,12V67.926a0,0,0,0,1,0,0H0a0,0,0,0,1,0,0V12A12,12,0,0,1,12,0Z" transform="translate(0 0)" fill="#dc7eff"/>
          <path id="Path_4573" data-name="Path 4573" d="M0,34.846v-.639L27.674.66a1.648,1.648,0,0,1,2.637,0L50.387,24.993a1.648,1.648,0,0,0,2.637,0L63.66,12.1a1.649,1.649,0,0,1,2.637,0L85.064,34.846Z" transform="translate(9.422 33.08)" fill="#8738bd"/>
          <ellipse id="Ellipse_561-2" data-name="Ellipse 561" cx="8.658" cy="8.845" rx="8.658" ry="8.845" transform="translate(73.875 15.391)" fill="#ffd719"/>
        </g>
      </g>
    </g>
  </g>
</svg>
